<?xml version="1.0" encoding="UTF-8" standalone="no"?>
<svg width="32px" height="128px" viewBox="0 0 32 128" version="1.1" xmlns="http://www.w3.org/2000/svg" xmlns:xlink="http://www.w3.org/1999/xlink" xmlns:sketch="http://www.bohemiancoding.com/sketch/ns">
    <!-- Generator: Sketch 3.4.4 (17249) - http://www.bohemiancoding.com/sketch -->
    <title>acrhive-link</title>
    <desc>Created with Sketch.</desc>
    <defs></defs>
    <g id="Page-1" stroke="none" stroke-width="1" fill="none" fill-rule="evenodd" sketch:type="MSPage">
        <g id="comments" sketch:type="MSLayerGroup" transform="translate(5.000000, 7.000000)">
            <path d="M17.9588571,7.50971429 C17.9588571,8.69142857 17.5592381,9.784 16.76,10.7874286 C15.9607619,11.7908571 14.8700952,12.583619 13.488,13.1657143 C12.1059048,13.7478095 10.6030476,14.0392381 8.97942857,14.04 C8.248,14.04 7.49980952,13.9718095 6.73485714,13.8354286 C5.68038095,14.583619 4.49828571,15.128 3.18857143,15.4685714 C2.88228571,15.5447619 2.51657143,15.6129524 2.09142857,15.6731429 L2.05371429,15.6731429 C1.96,15.6731429 1.8727619,15.6392381 1.792,15.5714286 C1.7112381,15.503619 1.66247619,15.4144762 1.64571429,15.304 C1.63733333,15.2788571 1.63314286,15.2510476 1.63314286,15.2205714 C1.63314286,15.1900952 1.63542857,15.1622857 1.64,15.1371429 C1.64457143,15.112 1.65295238,15.0864762 1.66514286,15.0605714 L1.69714286,14.9965714 C1.69714286,14.9965714 1.712,14.9733333 1.74171429,14.9268571 C1.77142857,14.880381 1.78857143,14.8590476 1.79314286,14.8628571 C1.79771429,14.8666667 1.8167619,14.8453333 1.85028571,14.7988571 C1.88380952,14.752381 1.90095238,14.7333333 1.90171429,14.7417143 C1.94438095,14.6906667 2.04228571,14.584381 2.19542857,14.4228571 C2.34857143,14.2613333 2.45904762,14.136 2.52685714,14.0468571 C2.59466667,13.9577143 2.69028571,13.8342857 2.81371429,13.6765714 C2.93714286,13.5188571 3.04342857,13.3550476 3.13257143,13.1851429 C3.22171429,13.0152381 3.30895238,12.8281905 3.39428571,12.624 C2.33980952,12.0114286 1.51085714,11.2590476 0.907428571,10.3668571 C0.304,9.47466667 0.00228571429,8.52228571 0.00228571429,7.50971429 C0.00228571429,6.328 0.401904762,5.23542857 1.20114286,4.232 C2.00038095,3.22857143 3.09104762,2.43580952 4.47314286,1.85371429 C5.8552381,1.27161905 7.35809524,0.980190476 8.98171429,0.979428571 C10.6053333,0.978666667 12.1081905,1.27009524 13.4902857,1.85371429 C14.872381,2.43733333 15.9630476,3.23009524 16.7622857,4.232 C17.5615238,5.23390476 17.9611429,6.32647619 17.9611429,7.50971429 L17.9588571,7.50971429 Z" id="Shape" fill="#FD1C85" sketch:type="MSShapeGroup"></path>
            <path d="M22.8571429,10.776 C22.8571429,11.7961905 22.5554286,12.7508571 21.952,13.64 C21.3485714,14.5291429 20.519619,15.279619 19.4651429,15.8914286 C19.5504762,16.095619 19.6377143,16.2826667 19.7268571,16.4525714 C19.816,16.6224762 19.9222857,16.7862857 20.0457143,16.944 C20.1691429,17.1017143 20.2647619,17.2251429 20.3325714,17.3142857 C20.400381,17.4034286 20.5108571,17.5287619 20.664,17.6902857 C20.8171429,17.8518095 20.9150476,17.9580952 20.9577143,18.0091429 C20.9660952,18.0175238 20.9832381,18.0365714 21.0091429,18.0662857 C21.0350476,18.096 21.0540952,18.1173333 21.0662857,18.1302857 C21.0784762,18.1432381 21.095619,18.1645714 21.1177143,18.1942857 C21.1398095,18.224 21.1546667,18.2472381 21.1622857,18.264 L21.1942857,18.328 C21.1942857,18.328 21.2026667,18.3535238 21.2194286,18.4045714 C21.2361905,18.455619 21.2384762,18.4834286 21.2262857,18.488 C21.2140952,18.4925714 21.2099048,18.520381 21.2137143,18.5714286 C21.1885714,18.6902857 21.1333333,18.784 21.048,18.8525714 C20.9626667,18.9211429 20.8689524,18.9508571 20.7668571,18.9417143 C20.3417143,18.8822857 19.976,18.8140952 19.6697143,18.7371429 C18.36,18.3973333 17.1779048,17.8529524 16.1234286,17.104 C15.3584762,17.240381 14.6102857,17.3085714 13.8788571,17.3085714 C11.5740952,17.3085714 9.5672381,16.7474286 7.85828571,15.6251429 C8.3512381,15.6594286 8.72533333,15.6765714 8.98057143,15.6765714 C10.3497143,15.6765714 11.663619,15.4853333 12.9222857,15.1028571 C14.1809524,14.720381 15.3032381,14.1718095 16.2891429,13.4571429 C17.352,12.6746667 18.168381,11.7733333 18.7382857,10.7531429 C19.3081905,9.73295238 19.5931429,8.65295238 19.5931429,7.51314286 C19.5931429,6.85866667 19.4952381,6.21257143 19.2994286,5.57485714 C20.3965714,6.17828571 21.264,6.9352381 21.9017143,7.84571429 C22.5394286,8.75619048 22.8582857,9.73409524 22.8582857,10.7794286 L22.8571429,10.776 Z" id="Path" fill="#ACACAC" sketch:type="MSShapeGroup"></path>
        </g>
        <g id="youtube" sketch:type="MSLayerGroup" transform="translate(4.000000, 38.000000)" fill="#FD1C85">
            <path d="M12,0.36 C0.2064,0.36 0,1.4088 0,9.6 C0,17.7912 0.2064,18.84 12,18.84 C23.7936,18.84 24,17.7912 24,9.6 C24,1.4088 23.7936,0.36 12,0.36 L12,0.36 Z M15.846,10.0008 L10.458,12.516 C9.9864,12.7344 9.6,12.4896 9.6,11.9688 L9.6,7.2312 C9.6,6.7116 9.9864,6.4656 10.458,6.684 L15.846,9.1992 C16.3176,9.42 16.3176,9.78 15.846,10.0008 L15.846,10.0008 Z" id="Shape" sketch:type="MSShapeGroup"></path>
        </g>
        <g id="Shape-+-Shape-path" sketch:type="MSLayerGroup" transform="translate(7.000000, 103.000000)">
            <path d="M9.04773333,7.0392 L11.536,9.52653333 L16.2176,4.844 L18.6349333,7.26133333 L18.6386667,0.0429333333 L11.3726667,0 L13.7302667,2.35666667 L9.04773333,7.0392 L9.04773333,7.0392 L9.04773333,7.0392 Z" id="Shape" fill="#FD1C85" sketch:type="MSShapeGroup"></path>
            <path d="M15.8382667,15.8056 L2.89093333,15.814 L2.90586667,2.90586667 L11.2666667,2.86853333 L8.4,0.00186666667 L1.86666667,0.00186666667 C0.836266667,0.00186666667 0,0.838133333 0,1.86853333 L0,16.8018667 C0,17.8322667 0.836266667,18.6685333 1.86666667,18.6685333 L16.8,18.6685333 C17.8304,18.6685333 18.6666667,17.8322667 18.6666667,16.8018667 L18.5976,10.2162667 L15.8056,7.39906667 L15.8382667,15.8056 Z" id="Shape-path" fill="#ACACAC" sketch:type="MSShapeGroup"></path>
        </g>
        <g id="Oval-1-+-Oval-1-+-Oval-1" sketch:type="MSLayerGroup" transform="translate(5.000000, 69.000000)">
            <circle id="Oval-1" fill="#FD1C85" sketch:type="MSShapeGroup" cx="6.82758621" cy="9.6091954" r="6.82758621"></circle>
            <ellipse id="Oval-1" fill="#FD1C85" sketch:type="MSShapeGroup" cx="18.9655172" cy="3.03448276" rx="3.03448276" ry="3.03448276"></ellipse>
            <path d="M15.0048463,7.84133612 C17.8739763,8.64967145 19.9770115,11.2861372 19.9770115,14.4137931 C19.9770115,18.1845648 16.920197,21.2413793 13.1494253,21.2413793 C10.5790645,21.2413793 8.34044527,19.8210247 7.17562479,17.7223728 C11.6122332,17.5856746 15.1668495,13.9461269 15.1668495,9.4763541 C15.1668495,8.9165769 15.1110986,8.36982104 15.0048463,7.84133612 Z" id="Oval-1" fill="#ACACAC" sketch:type="MSShapeGroup"></path>
        </g>
    </g>
</svg>