<?xml version="1.0" encoding="UTF-8" standalone="no"?>
<svg width="32px" height="128px" viewBox="0 0 32 128" version="1.1" xmlns="http://www.w3.org/2000/svg" xmlns:xlink="http://www.w3.org/1999/xlink" xmlns:sketch="http://www.bohemiancoding.com/sketch/ns">
    <!-- Generator: Sketch 3.4.4 (17249) - http://www.bohemiancoding.com/sketch -->
    <title>archive-link</title>
    <desc>Created with Sketch.</desc>
    <defs></defs>
    <g id="Page-1" stroke="none" stroke-width="1" fill="none" fill-rule="evenodd" sketch:type="MSPage">
        <g id="archive-link" sketch:type="MSLayerGroup" transform="translate(4.000000, 7.000000)">
            <g id="Page-1" sketch:type="MSShapeGroup">
                <g id="youtube" transform="translate(0.000000, 32.000000)">
                    <path d="M12,0.36 C0.2064,0.36 0,1.4088 0,9.6 C0,17.7912 0.2064,18.84 12,18.84 C23.7936,18.84 24,17.7912 24,9.6 C24,1.4088 23.7936,0.36 12,0.36 L12,0.36 L12,0.36 Z" id="Shape" fill="#FD1C85"></path>
                    <path d="M15.846,10.0008 L10.458,12.516 C9.9864,12.7344 9.6,12.4896 9.6,11.9688 L9.6,7.2312 C9.6,6.7116 9.9864,6.4656 10.458,6.684 L15.846,9.1992 C16.3176,9.42 16.3176,9.78 15.846,10.0008 L15.846,10.0008 L15.846,10.0008 Z" id="Shape-path" fill="#FFFFFF"></path>
                </g>
                <g id="Shape-+-Shape-path" transform="translate(3.000000, 96.000000)">
                    <path d="M9.04773333,7.0392 L11.536,9.52653333 L16.2176,4.844 L18.6349333,7.26133333 L18.6386667,0.0429333333 L11.3726667,0 L13.7302667,2.35666667 L9.04773333,7.0392 L9.04773333,7.0392 L9.04773333,7.0392 L9.04773333,7.0392 Z" id="Shape" fill="#FD1C85"></path>
                    <path d="M15.8382667,15.8056 L2.89093333,15.814 L2.90586667,2.90586667 L11.2666667,2.86853333 L8.4,0.00186666667 L1.86666667,0.00186666667 C0.836266667,0.00186666667 0,0.838133333 0,1.86853333 L0,16.8018667 C0,17.8322667 0.836266667,18.6685333 1.86666667,18.6685333 L16.8,18.6685333 C17.8304,18.6685333 18.6666667,17.8322667 18.6666667,16.8018667 L18.5976,10.2162667 L15.8056,7.39906667 L15.8382667,15.8056 L15.8382667,15.8056 Z" id="Shape-path" fill="#FFFFFF"></path>
                </g>
                <g id="Oval-1-+-Oval-1-+-Oval-1" transform="translate(1.000000, 62.000000)">
                    <circle id="Oval-1" fill="#FD1C85" cx="6.82758621" cy="9.6091954" r="6.82758621"></circle>
                    <circle id="Oval-1" fill="#FFFFFF" cx="18.9655172" cy="3.03448276" r="3.03448276"></circle>
                    <path d="M15.0048463,7.84133612 C17.8739763,8.64967145 19.9770115,11.2861372 19.9770115,14.4137931 C19.9770115,18.1845648 16.920197,21.2413793 13.1494253,21.2413793 C10.5790645,21.2413793 8.34044527,19.8210247 7.17562479,17.7223728 C11.6122332,17.5856746 15.1668495,13.9461269 15.1668495,9.4763541 C15.1668495,8.9165769 15.1110986,8.36982104 15.0048463,7.84133612 L15.0048463,7.84133612 Z" id="Oval-1" fill="#ACACAC"></path>
                </g>
            </g>
        </g>
        <g id="comments-+-comments" sketch:type="MSLayerGroup" transform="translate(6.000000, 7.000000)">
            <g id="comments" sketch:type="MSShapeGroup">
                <path d="M15,0 L1,0 C0.447,0 0,0.447 0,1 L0,12 C0,12.553 0.447,13 1,13 L3,13 L3,16 L7.5,13 L15,13 C15.553,13 16,12.553 16,12 L16,1 C16,0.447 15.553,0 15,0 L15,0 Z M14,11 L7.5,11 L5,12.5 L5,11 L2,11 L2,2 L14,2 L14,11 L14,11 Z" id="Shape" fill="#FB2A84"></path>
                <path d="M4,4 L12,4 L12,6 L4,6 L4,4 Z" id="Path" fill="#FFFFFF"></path>
                <path d="M4,7 L12,7 L12,9 L4,9 L4,7 Z" id="Path" fill="#FFFFFF"></path>
            </g>
            <g id="comments" transform="translate(14.500000, 12.000000) scale(-1, 1) translate(-14.500000, -12.000000) translate(9.000000, 4.000000)" fill="#AAAAAA" sketch:type="MSShapeGroup">
                <path d="M11,11 L11,12 C11,12.553 10.553,13 10,13 L7.5,13 L3,16 L3,13 L1,13 C0.447,13 0,12.553 0,12 L0,1 C0,0.447 0.447,0 1,0 L2,0 L2,11 L11,11 Z" id="Shape"></path>
            </g>
        </g>
    </g>
</svg>