<?xml version="1.0" encoding="UTF-8" standalone="no"?>
<svg width="244px" height="17px" viewBox="0 0 244 17" version="1.1" xmlns="http://www.w3.org/2000/svg" xmlns:xlink="http://www.w3.org/1999/xlink" xmlns:sketch="http://www.bohemiancoding.com/sketch/ns">
    <!-- Generator: Sketch 3.4.2 (15855) - http://www.bohemiancoding.com/sketch -->
    <title>header-logo-right</title>
    <desc>Created with Sketch.</desc>
    <defs></defs>
    <g id="Page-1" stroke="none" stroke-width="1" fill="none" fill-rule="evenodd" sketch:type="MSPage">
        <g id="header-logo-right" sketch:type="MSLayerGroup" transform="translate(-0.050000, -0.090625)" fill="#FFFFFF">
            <path d="M0,0.94272 L0,4.10592 L4.7448,4.10592 L4.7448,16.53312 L8.1752,16.53312 L8.1752,4.10592 L12.9184,4.10592 L12.9184,0.94272 L0,0.94272 Z" id="Fill-1" sketch:type="MSShapeGroup"></path>
            <path d="M22.34952,0.83112 L15.66552,16.53272 L19.16392,16.53272 L20.58872,13.03672 L27.18152,13.03672 L28.60632,16.53272 L32.19432,16.53272 L25.51272,0.83112 L22.34952,0.83112 Z M23.88632,4.95112 L25.95592,10.00792 L21.81592,10.00792 L23.88632,4.95112 Z" id="Fill-2" sketch:type="MSShapeGroup"></path>
            <path d="M37.90584,0.94272 L37.90584,16.53312 L49.10744,16.53312 L49.10744,13.41552 L41.33464,13.41552 L41.33464,0.94272 L37.90584,0.94272 Z" id="Fill-3" sketch:type="MSShapeGroup"></path>
            <path d="M64.65312,0.94272 L58.32672,7.75712 L58.32672,0.94272 L54.89872,0.94272 L54.89872,16.53312 L58.32672,16.53312 L58.32672,11.76672 L60.13152,9.89632 L64.96352,16.53312 L69.08512,16.53312 L62.44832,7.55792 L68.79632,0.94272 L64.65312,0.94272 Z" id="Fill-4" sketch:type="MSShapeGroup"></path>
            <path d="M83.39688,0.94272 L83.39688,4.10592 L88.14168,4.10592 L88.14168,16.53312 L91.57048,16.53312 L91.57048,4.10592 L96.31528,4.10592 L96.31528,0.94272 L83.39688,0.94272 Z" id="Fill-5" sketch:type="MSShapeGroup"></path>
            <path d="M114.1344,8.73752 C114.1344,6.06472 112.1752,3.83752 109.4112,3.83752 C106.6504,3.83752 104.7344,6.02152 104.7344,8.69272 L104.7344,8.73752 C104.7344,11.41192 106.6952,13.63752 109.456,13.63752 C112.2176,13.63752 114.1344,11.45512 114.1344,8.78312 L114.1344,8.73752 Z M109.4112,16.79992 C104.6,16.79992 101.1488,13.21512 101.1488,8.78312 L101.1488,8.73752 C101.1488,4.30552 104.6448,0.67512 109.456,0.67512 C114.268,0.67512 117.7208,4.26072 117.7208,8.69272 L117.7208,8.73752 C117.7208,13.17112 114.2232,16.79992 109.4112,16.79992 L109.4112,16.79992 Z" id="Fill-6" sketch:type="MSShapeGroup"></path>
            <path d="M141.1852,4.10544 L141.1852,16.53344 L137.754,16.53344 L137.754,4.10544 L133.0116,4.10544 L133.0116,0.94304 L145.9276,0.94304 L145.9276,4.10544 L141.1852,4.10544 Z" id="Fill-9" sketch:type="MSShapeGroup"></path>
            <path d="M156.89536,4.9512 L154.82496,10.0072 L158.96656,10.0072 L156.89536,4.9512 Z M161.61776,16.5336 L160.19216,13.036 L153.60016,13.036 L152.17376,16.5336 L148.67696,16.5336 L155.35856,0.8312 L158.52176,0.8312 L165.20336,16.5336 L161.61776,16.5336 Z" id="Fill-11" sketch:type="MSShapeGroup"></path>
            <path d="M170.9904,0.9432 L174.4216,0.9432 L174.4216,16.5336 L170.9904,16.5336 L170.9904,0.9432 Z" id="Fill-13" sketch:type="MSShapeGroup"></path>
            <path d="M198.5688,16.64496 L195.5832,16.64496 L192.064,6.44336 L188.5464,16.64496 L185.5592,16.64496 L180.2368,0.94256 L183.9136,0.94256 L187.1408,11.50016 L190.6392,0.89776 L193.58,0.89776 L197.0752,11.50016 L200.3048,0.94256 L203.892,0.94256 L198.5688,16.64496 Z" id="Fill-15" sketch:type="MSShapeGroup"></path>
            <path d="M215.27816,4.9512 L213.20456,10.0072 L217.34696,10.0072 L215.27816,4.9512 Z M220.00056,16.5336 L218.57496,13.036 L211.98136,13.036 L210.55656,16.5336 L207.06056,16.5336 L213.74056,0.8312 L216.90456,0.8312 L223.58616,16.5336 L220.00056,16.5336 Z" id="Fill-16" sketch:type="MSShapeGroup"></path>
            <path d="M240.2344,16.5332 L232.684,6.622 L232.684,16.5332 L229.2968,16.5332 L229.2968,0.9428 L232.46,0.9428 L239.7648,10.542 L239.7648,0.9428 L243.1512,0.9428 L243.1512,16.5332 L240.2344,16.5332 Z" id="Fill-17" sketch:type="MSShapeGroup"></path>
        </g>
    </g>
</svg>