<?xml version="1.0" encoding="UTF-8" standalone="no"?>
<svg width="128px" height="77px" viewBox="0 0 128 77" version="1.1" xmlns="http://www.w3.org/2000/svg" xmlns:xlink="http://www.w3.org/1999/xlink" xmlns:sketch="http://www.bohemiancoding.com/sketch/ns">
    <!-- Generator: Sketch 3.4.2 (15855) - http://www.bohemiancoding.com/sketch -->
    <title>header-logo-left</title>
    <desc>Created with Sketch.</desc>
    <defs></defs>
    <g id="Page-1" stroke="none" stroke-width="1" fill="none" fill-rule="evenodd" sketch:type="MSPage">
        <g id="header-logo-left" sketch:type="MSLayerGroup" transform="translate(0.300000, 0.100000)">
            <path d="M110.7648,69.6144 L117.5384,69.6144 L117.5384,73.2896 L110.7648,73.2896 L110.7648,69.6144 Z M107.4464,76.2888 L120.9272,76.2888 L120.9272,66.6136 L107.4464,66.6136 L107.4464,76.2888 Z" id="Fill-10" fill="#FFFFFF" sketch:type="MSShapeGroup"></path>
            <path d="M123.9272,56.4192 L117.8032,56.4192 L117.8032,54.484 L123.9272,54.484 L123.9272,56.4192 Z M123.9272,61.1784 L117.8032,61.1784 L117.8032,59.2432 L123.9272,59.2432 L123.9272,61.1784 Z M115.0544,51.2032 L115.0544,64.5664 L123.9272,64.5664 L123.9272,76.8 L127.9824,76.8 L127.9824,51.2032 L115.0544,51.2032 Z" id="Fill-12" fill="#FFFFFF" sketch:type="MSShapeGroup"></path>
            <path d="M110.5032,56.4192 L104.4632,56.4192 L104.4632,54.484 L110.5032,54.484 L110.5032,56.4192 Z M110.5032,61.1784 L104.4632,61.1784 L104.4632,59.2432 L110.5032,59.2432 L110.5032,61.1784 Z M113.2352,51.2032 L100.3928,51.2032 L100.3928,76.8 L104.4464,76.8 L104.4464,64.5664 L113.2352,64.5664 L113.2352,51.2032 Z" id="Fill-13" fill="#FFFFFF" sketch:type="MSShapeGroup"></path>
            <path d="M109.5684,4.71208 L114.154,4.71208 L114.154,1.08328 L100.3764,1.08328 L100.3764,4.71208 L106.002,4.71208 L106.002,22.13848 C105.2668,22.08568 104.5524,21.96648 103.8612,21.78488 L103.8612,8.90488 L100.3964,8.90488 L100.3964,20.21528 L100.3964,24.16888 C101.4868,24.68728 102.6468,25.07608 103.8612,25.31768 C104.8108,25.50728 105.7924,25.60408 106.7972,25.60408 C109.102,25.60408 111.286,25.08168 113.2356,24.14888 L113.2356,20.24168 C112.1076,21.01048 110.9364,21.52088 109.5684,21.84808 L109.5684,14.92408 L113.2356,14.92408 L113.2356,11.48328 L109.5684,11.48328 L109.5684,4.71208 Z" id="Fill-14" fill="#FFFFFF" sketch:type="MSShapeGroup"></path>
            <path d="M121.60856,15.07888 C120.59896,12.95248 119.80216,10.57648 119.28136,8.03008 L119.43656,7.66768 L123.89416,7.66768 C123.49736,10.52128 122.61816,12.95248 121.60856,15.07888 M123.77896,18.43728 C127.19256,11.76688 127.99976,4.59248 127.99976,4.59248 L120.53816,4.59248 C120.76856,3.78208 120.99336,2.95648 121.19416,2.11648 C121.36216,1.42048 121.51336,0.71808 121.63896,0.00768 L117.85256,0.00768 L117.80936,0.00768 C116.82216,3.73888 115.48856,7.25488 113.43496,10.45888 L115.43016,13.93088 C115.88216,13.25568 116.33576,12.53648 116.78536,11.79168 L116.98776,12.25488 C117.66216,14.52048 118.45576,16.55808 119.49736,18.40688 C118.42216,19.68848 116.67816,20.77968 115.05416,21.69088 L115.05416,25.60448 C117.55176,24.46768 119.92936,23.04128 121.54696,21.34288 C123.00856,23.06848 125.77896,24.51648 127.99976,25.57888 L127.99976,21.38608 C126.77416,20.55728 124.69976,19.56688 123.77896,18.43728" id="Fill-15" fill="#FFFFFF" sketch:type="MSShapeGroup"></path>
            <path d="M43.22576,43.54336 C34.04176,43.54336 26.59616,50.98656 26.59616,60.17136 C26.59616,69.35696 34.04176,76.80016 43.22576,76.80016 C52.41056,76.80016 59.85376,69.35696 59.85376,60.17136 C59.85376,50.98656 52.41056,43.54336 43.22576,43.54336" id="Fill-1" fill="#FF0087" sketch:type="MSShapeGroup"></path>
            <path d="M77.19416,0.00784 L57.66056,0.00784 L57.66056,28.80304 L77.19416,28.80304 L77.19416,76.79984 L86.39496,76.79984 L86.39496,28.80304 L86.39496,0.00784 L77.19416,0.00784 Z" id="Fill-7" fill="#AAAAAA" sketch:type="MSShapeGroup"></path>
            <path d="M38.38008,28.80312 L38.38008,0.00792 L19.19048,0.00792 L8e-05,0.00792 L8e-05,28.80312 L8e-05,76.79992 L19.19048,76.79992 L19.19048,28.80312 L38.38008,28.80312 Z" id="Fill-4" fill="#FF0087" sketch:type="MSShapeGroup"></path>
        </g>
    </g>
</svg>