<?xml version="1.0" encoding="UTF-8" standalone="no"?>
<svg width="32px" height="128px" viewBox="0 0 32 128" version="1.1" xmlns="http://www.w3.org/2000/svg" xmlns:xlink="http://www.w3.org/1999/xlink" xmlns:sketch="http://www.bohemiancoding.com/sketch/ns">
    <!-- Generator: Sketch 3.4 (15575) - http://www.bohemiancoding.com/sketch -->
    <title>icon-sns-share</title>
    <desc>Created with Sketch.</desc>
    <defs></defs>
    <g id="Page-1" stroke="none" stroke-width="1" fill="none" fill-rule="evenodd" sketch:type="MSPage">
        <g id="Group" sketch:type="MSLayerGroup" transform="translate(4.000000, 4.000000)">
            <g id="icon-share-facebook-gray" fill="#999999" sketch:type="MSShapeGroup">
                <g id="Page-1">
                    <g>
                        <g id="icon-share-facebook">
                            <g id="Page-1">
                                <path d="M12,0 C5.372625,0 0,5.372625 0,12 C0,18.627375 5.372625,24 12,24 L12,15 L9,15 L9,12 L12,12 L12,9.75 C12,7.678875 13.678875,6 15.75,6 L19.5,6 L19.5,9 L15.75,9 C15.335625,9 15,9.335625 15,9.75 L15,12 L19.125,12 L18.375,15 L15,15 L15,23.622 C20.17575,22.29 24,17.591625 24,12 C24,5.372625 18.627375,0 12,0 L12,0 L12,0 L12,0 Z" id="Shape"></path>
                            </g>
                        </g>
                    </g>
                </g>
            </g>
            <g id="icon-share-facebook" transform="translate(0.000000, 32.000000)" fill="#45619D" sketch:type="MSShapeGroup">
                <g id="Page-1">
                    <g>
                        <path d="M12,0 C5.372625,0 0,5.372625 0,12 C0,18.627375 5.372625,24 12,24 L12,15 L9,15 L9,12 L12,12 L12,9.75 C12,7.678875 13.678875,6 15.75,6 L19.5,6 L19.5,9 L15.75,9 C15.335625,9 15,9.335625 15,9.75 L15,12 L19.125,12 L18.375,15 L15,15 L15,23.622 C20.17575,22.29 24,17.591625 24,12 C24,5.372625 18.627375,0 12,0 L12,0 L12,0 Z" id="Shape"></path>
                    </g>
                </g>
            </g>
            <g id="icon-share-twitter-gray" transform="translate(0.000000, 64.000000)" fill="#999999" sketch:type="MSShapeGroup">
                <g id="Page-1">
                    <g>
                        <g id="icon-share-twitter">
                            <g id="Page-1">
                                <path d="M12,0 C5.372625,0 0,5.372625 0,12 C0,18.627375 5.372625,24 12,24 C18.627375,24 24,18.627375 24,12 C24,5.372625 18.627375,0 12,0 L12,0 L12,0 L12,0 Z M17.964375,8.941125 C17.970375,9.073125 17.973375,9.205875 17.973375,9.339375 C17.973375,13.405875 14.878125,18.09525 9.2175,18.09525 C7.47975,18.09525 5.862,17.585625 4.5,16.712625 C4.74075,16.741125 4.985625,16.75575 5.23425,16.75575 C6.676125,16.75575 8.002875,16.26375 9.05625,15.438375 C7.709625,15.413625 6.573,14.52375 6.1815,13.30125 C6.369375,13.33725 6.562125,13.35675 6.7605,13.35675 C7.041,13.35675 7.31325,13.318875 7.57125,13.24875 C6.1635,12.966 5.102625,11.722125 5.102625,10.231125 C5.102625,10.218 5.102625,10.20525 5.103,10.1925 C5.51775,10.423125 5.9925,10.5615 6.496875,10.57725 C5.671125,10.02525 5.12775,9.083625 5.12775,8.015625 C5.12775,7.451625 5.279625,6.922875 5.544375,6.468375 C7.062375,8.33025 9.329625,9.555375 11.8875,9.683625 C11.835,9.45825 11.808,9.2235 11.808,8.982375 C11.808,7.282875 13.186125,5.905125 14.88525,5.905125 C15.77025,5.905125 16.570125,6.279 17.1315,6.87675 C17.832375,6.73875 18.49125,6.482625 19.085625,6.130125 C18.85575,6.848625 18.367875,7.452 17.732625,7.832625 C18.355125,7.758375 18.948375,7.593 19.5,7.348125 C19.0875,7.965 18.565875,8.50725 17.964375,8.941125 L17.964375,8.941125 L17.964375,8.941125 L17.964375,8.941125 Z" id="Shape"></path>
                            </g>
                        </g>
                    </g>
                </g>
            </g>
            <g id="icon-share-twitter" transform="translate(0.000000, 96.000000)" fill="#55ACEE" sketch:type="MSShapeGroup">
                <g id="Page-1">
                    <g>
                        <path d="M12,0 C5.372625,0 0,5.372625 0,12 C0,18.627375 5.372625,24 12,24 C18.627375,24 24,18.627375 24,12 C24,5.372625 18.627375,0 12,0 L12,0 L12,0 Z M17.964375,8.941125 C17.970375,9.073125 17.973375,9.205875 17.973375,9.339375 C17.973375,13.405875 14.878125,18.09525 9.2175,18.09525 C7.47975,18.09525 5.862,17.585625 4.5,16.712625 C4.74075,16.741125 4.985625,16.75575 5.23425,16.75575 C6.676125,16.75575 8.002875,16.26375 9.05625,15.438375 C7.709625,15.413625 6.573,14.52375 6.1815,13.30125 C6.369375,13.33725 6.562125,13.35675 6.7605,13.35675 C7.041,13.35675 7.31325,13.318875 7.57125,13.24875 C6.1635,12.966 5.102625,11.722125 5.102625,10.231125 C5.102625,10.218 5.102625,10.20525 5.103,10.1925 C5.51775,10.423125 5.9925,10.5615 6.496875,10.57725 C5.671125,10.02525 5.12775,9.083625 5.12775,8.015625 C5.12775,7.451625 5.279625,6.922875 5.544375,6.468375 C7.062375,8.33025 9.329625,9.555375 11.8875,9.683625 C11.835,9.45825 11.808,9.2235 11.808,8.982375 C11.808,7.282875 13.186125,5.905125 14.88525,5.905125 C15.77025,5.905125 16.570125,6.279 17.1315,6.87675 C17.832375,6.73875 18.49125,6.482625 19.085625,6.130125 C18.85575,6.848625 18.367875,7.452 17.732625,7.832625 C18.355125,7.758375 18.948375,7.593 19.5,7.348125 C19.0875,7.965 18.565875,8.50725 17.964375,8.941125 L17.964375,8.941125 L17.964375,8.941125 Z" id="Shape"></path>
                    </g>
                </g>
            </g>
        </g>
    </g>
</svg>