<?xml version="1.0" encoding="UTF-8" standalone="no"?>
<svg width="32px" height="128px" viewBox="0 0 32 128" version="1.1" xmlns="http://www.w3.org/2000/svg" xmlns:xlink="http://www.w3.org/1999/xlink" xmlns:sketch="http://www.bohemiancoding.com/sketch/ns">
    <!-- Generator: Sketch 3.4.2 (15855) - http://www.bohemiancoding.com/sketch -->
    <title>icon-sns-share</title>
    <desc>Created with Sketch.</desc>
    <defs></defs>
    <g id="Page-1" stroke="none" stroke-width="1" fill="none" fill-rule="evenodd" sketch:type="MSPage">
        <path d="M8.6664375,5 C6.64175,5 5,6.64175 5,8.667125 L5,23.332875 C5,25.35825 6.6410625,27 8.6664375,27 L16,27 L16,17.375 L13.25,17.375 L13.25,14.625 L16,14.625 L16,12.5625 C16,10.6643125 17.5393125,9.125 19.4375,9.125 L22.875,9.125 L22.875,11.875 L19.4375,11.875 C19.058,11.875 18.75,12.183 18.75,12.5625 L18.75,14.625 L22.53125,14.625 L21.84375,17.375 L18.75,17.375 L18.75,27 L23.3335625,27 C25.35825,27 27,25.35825 27,23.332875 L27,8.667125 C27,6.64175 25.3589375,5 23.3335625,5 L8.6664375,5 Z" id="Shape" fill="#AAAAAA" sketch:type="MSShapeGroup"></path>
        <path d="M28,72.576744 C27.1172776,72.9682317 26.1678073,73.2329734 25.1718384,73.3522197 C26.1880566,72.7424888 26.9687822,71.7780189 27.3370207,70.6283048 C26.3853005,71.1922872 25.3315834,71.6025244 24.2103684,71.8230175 C23.3118965,70.8660474 22.0324365,70.2683161 20.6164807,70.2683161 C17.8970657,70.2683161 15.6928846,72.4724972 15.6928846,75.1919122 C15.6928846,75.5781502 15.7363832,75.9538884 15.8203806,76.3138772 C11.7285085,76.1083836 8.10012187,74.1479449 5.67169776,71.1690379 C5.247961,71.8965152 5.00496859,72.7417388 5.00496859,73.6447106 C5.00496859,75.3531572 5.87419143,76.8598601 7.19565014,77.7433325 C6.38867535,77.7178333 5.62969907,77.4965902 4.96521984,77.1276017 C4.96446986,77.1478511 4.96446986,77.1688504 4.96446986,77.1898498 C4.96446986,79.5755252 6.66166682,81.5652131 8.91384644,82.0174489 C8.50060936,82.1299454 8.06562295,82.1899435 7.61638699,82.1899435 C7.2991469,82.1899435 6.99090653,82.1591945 6.69016593,82.1014463 C7.31639636,84.0573852 9.13508953,85.4808407 11.2897722,85.5205895 C9.60457486,86.8412982 7.48139121,87.6280236 5.1744633,87.6280236 C4.77697572,87.6280236 4.38548795,87.6047743 4,87.5590258 C6.17868192,88.9562321 8.76685104,89.7714566 11.5477641,89.7714566 C20.6044811,89.7714566 25.5565764,82.2686911 25.5565764,75.7618944 C25.5565764,75.5481511 25.5520765,75.3359077 25.5423268,75.1251643 C26.5045467,74.430686 27.3392706,73.5637131 27.99925,72.576744 L28,72.576744 Z" id="Shape" fill="#AAAAAA" sketch:type="MSShapeGroup"></path>
        <path d="M8.6664375,37 C6.64175,37 5,38.64175 5,40.667125 L5,55.332875 C5,57.35825 6.6410625,59 8.6664375,59 L16,59 L16,49.375 L13.25,49.375 L13.25,46.625 L16,46.625 L16,44.5625 C16,42.6643125 17.5393125,41.125 19.4375,41.125 L22.875,41.125 L22.875,43.875 L19.4375,43.875 C19.058,43.875 18.75,44.183 18.75,44.5625 L18.75,46.625 L22.53125,46.625 L21.84375,49.375 L18.75,49.375 L18.75,59 L23.3335625,59 C25.35825,59 27,57.35825 27,55.332875 L27,40.667125 C27,38.64175 25.3589375,37 23.3335625,37 L8.6664375,37 Z" id="Shape" fill="#E63082" sketch:type="MSShapeGroup"></path>
        <path d="M28,104.546062 C27.1172776,104.937549 26.1678073,105.202291 25.1718384,105.321537 C26.1880566,104.711807 26.9687822,103.747337 27.3370207,102.597623 C26.3853005,103.161605 25.3315834,103.571842 24.2103684,103.792335 C23.3118965,102.835365 22.0324365,102.237634 20.6164807,102.237634 C17.8970657,102.237634 15.6928846,104.441815 15.6928846,107.16123 C15.6928846,107.547468 15.7363832,107.923206 15.8203806,108.283195 C11.7285085,108.077701 8.10012187,106.117263 5.67169776,103.138356 C5.247961,103.865833 5.00496859,104.711057 5.00496859,105.614028 C5.00496859,107.322475 5.87419143,108.829178 7.19565014,109.71265 C6.38867535,109.687151 5.62969907,109.465908 4.96521984,109.096919 C4.96446986,109.117169 4.96446986,109.138168 4.96446986,109.159168 C4.96446986,111.544843 6.66166682,113.534531 8.91384644,113.986767 C8.50060936,114.099263 8.06562295,114.159261 7.61638699,114.159261 C7.2991469,114.159261 6.99090653,114.128512 6.69016593,114.070764 C7.31639636,116.026703 9.13508953,117.450158 11.2897722,117.489907 C9.60457486,118.810616 7.48139121,119.597341 5.1744633,119.597341 C4.77697572,119.597341 4.38548795,119.574092 4,119.528344 C6.17868192,120.92555 8.76685104,121.740774 11.5477641,121.740774 C20.6044811,121.740774 25.5565764,114.238009 25.5565764,107.731212 C25.5565764,107.517469 25.5520765,107.305225 25.5423268,107.094482 C26.5045467,106.400004 27.3392706,105.533031 27.99925,104.546062 L28,104.546062 Z" id="Shape" fill="#E63082" sketch:type="MSShapeGroup"></path>
    </g>
</svg>