<?xml version="1.0" encoding="UTF-8" standalone="no"?>
<svg width="166px" height="48px" viewBox="0 0 166 48" version="1.1" xmlns="http://www.w3.org/2000/svg" xmlns:xlink="http://www.w3.org/1999/xlink" xmlns:sketch="http://www.bohemiancoding.com/sketch/ns">
    <!-- Generator: Sketch 3.4.4 (17249) - http://www.bohemiancoding.com/sketch -->
    <title>live-btn-ani1</title>
    <desc>Created with Sketch.</desc>
    <defs></defs>
    <g id="Page-1" stroke="none" stroke-width="1" fill="none" fill-rule="evenodd" sketch:type="MSPage">
        <rect id="Rectangle-1" fill="#FFFFFF" sketch:type="MSShapeGroup" x="0" y="0" width="166" height="48"></rect>
        <path d="M24.72,16.792 L24.72,26.674 L25.746,26.674 C25.656,28.906 24.99,30.526 23.766,31.534 L23.766,30.886 L21.156,30.886 L21.156,29.68 L23.64,29.68 L23.64,28.726 L21.156,28.726 L21.156,27.538 L23.64,27.538 L23.64,26.602 L21.156,26.602 L21.156,25.378 L24.072,25.378 L24.072,24.406 L21.156,24.406 C21.012,23.938 20.886,23.524 20.742,23.146 L19.572,23.344 C19.716,23.668 19.842,24.01 19.986,24.406 L17.916,24.406 C18.06,24.082 18.186,23.758 18.312,23.398 L17.322,22.948 C16.836,24.406 16.062,25.702 15,26.854 L15.378,28.06 C15.792,27.628 16.188,27.178 16.548,26.71 L16.548,32.578 L17.682,32.578 L17.682,31.93 L23.766,31.93 L23.766,31.624 L24.36,32.578 C25.944,31.354 26.79,29.374 26.898,26.674 L27.996,26.674 L27.996,31.048 C27.996,31.84 28.482,32.254 29.454,32.254 L30.048,32.254 C30.678,32.218 31.092,32.002 31.29,31.624 C31.47,31.192 31.578,30.112 31.578,28.366 L30.624,27.988 C30.624,29.122 30.588,29.95 30.534,30.472 C30.498,30.904 30.318,31.138 30.012,31.174 L29.49,31.174 C29.256,31.156 29.148,31.048 29.148,30.832 L29.148,26.674 L30.516,26.674 L30.516,16.792 L24.72,16.792 Z M20.004,25.378 L20.004,26.602 L17.682,26.602 L17.682,25.378 L20.004,25.378 Z M17.682,27.538 L20.004,27.538 L20.004,28.726 L17.682,28.726 L17.682,27.538 Z M17.682,29.68 L20.004,29.68 L20.004,30.886 L17.682,30.886 L17.682,29.68 Z M29.364,25.63 L25.872,25.63 L25.872,23.65 L29.364,23.65 L29.364,25.63 Z M25.872,22.642 L25.872,20.716 L29.364,20.716 L29.364,22.642 L25.872,22.642 Z M25.872,19.708 L25.872,17.836 L29.364,17.836 L29.364,19.708 L25.872,19.708 Z M15.81,19.708 L15.81,22.84 L19.266,22.84 L19.266,19.708 L15.81,19.708 Z M18.258,22.03 L16.8,22.03 L16.8,20.518 L18.258,20.518 L18.258,22.03 Z M15.198,17.062 L15.198,18.178 L17.772,18.178 L17.772,19.258 L18.996,19.258 L18.996,16.09 L17.772,16.09 L17.772,17.062 L15.198,17.062 Z M21.732,18.178 L24.144,18.178 L24.144,17.062 L21.732,17.062 L21.732,16.09 L20.508,16.09 L20.508,19.258 L21.732,19.258 L21.732,18.178 Z M20.184,19.708 L20.184,22.84 L23.64,22.84 L23.64,19.708 L20.184,19.708 Z M22.632,22.03 L21.192,22.03 L21.192,20.518 L22.632,20.518 L22.632,22.03 Z M34.638,19.366 L34.638,20.482 L39.75,20.482 C39.516,20.878 39.246,21.292 38.958,21.706 L33.666,21.706 L33.666,22.858 L38.058,22.858 C36.78,24.37 35.16,25.774 33.198,27.106 L33.9,28.222 C35.016,27.466 36.024,26.656 36.942,25.828 L36.942,32.578 L38.184,32.578 L38.184,31.804 L46.32,31.804 L46.32,32.578 L47.562,32.578 L47.562,24.1 L38.634,24.1 C38.976,23.704 39.3,23.29 39.624,22.858 L49.362,22.858 L49.362,21.706 L40.416,21.706 C40.65,21.31 40.884,20.914 41.1,20.482 L48.318,20.482 L48.318,19.366 L41.622,19.366 C41.802,18.916 41.982,18.448 42.144,17.962 C44.412,17.782 46.392,17.512 48.102,17.134 L47.508,16.108 C44.142,16.792 39.912,17.134 34.8,17.134 L35.178,18.214 C37.23,18.214 39.138,18.16 40.902,18.052 C40.722,18.484 40.542,18.934 40.344,19.366 L34.638,19.366 Z M38.184,27.376 L46.32,27.376 L46.32,28.51 L38.184,28.51 L38.184,27.376 Z M46.32,26.368 L38.184,26.368 L38.184,25.162 L46.32,25.162 L46.32,26.368 Z M38.184,29.518 L46.32,29.518 L46.32,30.742 L38.184,30.742 L38.184,29.518 Z M51.81,17.692 L51.81,18.934 L58.56,18.934 C58.47,19.42 58.362,19.924 58.254,20.428 L54.042,20.428 L54.042,30.94 L51.468,30.94 L51.468,32.146 L67.434,32.146 L67.434,30.94 L64.77,30.94 L64.77,20.428 L59.586,20.428 C59.694,19.96 59.802,19.456 59.892,18.934 L67.074,18.934 L67.074,17.692 L60.09,17.692 C60.162,17.206 60.216,16.702 60.27,16.18 L58.956,16 C58.902,16.558 58.83,17.116 58.758,17.692 L51.81,17.692 Z M55.32,30.94 L55.32,29.356 L63.492,29.356 L63.492,30.94 L55.32,30.94 Z M55.32,28.294 L55.32,26.764 L63.492,26.764 L63.492,28.294 L55.32,28.294 Z M55.32,25.72 L55.32,24.208 L63.492,24.208 L63.492,25.72 L55.32,25.72 Z M55.32,23.146 L55.32,21.58 L63.492,21.58 L63.492,23.146 L55.32,23.146 Z M80.592,22.444 C82.014,23.236 83.256,24.082 84.3,24.982 L75.93,24.982 C77.352,24.118 78.432,23.056 79.188,21.832 L79.422,21.832 L79.422,24.406 L80.592,24.406 L80.592,22.444 Z M75.57,25.198 L75.57,32.578 L76.758,32.578 L76.758,31.696 L83.238,31.696 L83.238,32.578 L84.426,32.578 L84.426,25.09 L84.966,25.576 L85.758,24.622 C84.462,23.614 82.932,22.696 81.15,21.832 L85.326,21.832 L85.326,20.68 L83.112,20.68 C83.49,20.104 83.832,19.438 84.138,18.718 L83.022,18.322 C82.716,19.15 82.356,19.942 81.96,20.68 L80.592,20.68 L80.592,17.944 C82.284,17.782 83.778,17.53 85.074,17.188 L84.48,16.162 C81.924,16.774 78.72,17.098 74.868,17.098 L75.246,18.178 C76.722,18.178 78.126,18.124 79.422,18.034 L79.422,20.68 L77.982,20.68 C77.73,19.924 77.442,19.258 77.136,18.718 L76.056,19.132 C76.38,19.6 76.65,20.122 76.902,20.68 L74.832,20.68 L74.832,21.832 L78.252,21.832 C77.388,22.894 76.056,23.776 74.256,24.496 L74.256,23.506 C73.788,23.776 73.302,24.046 72.798,24.298 L72.798,20.752 L74.364,20.752 L74.364,19.51 L72.798,19.51 L72.798,16.108 L71.502,16.108 L71.502,19.51 L69.414,19.51 L69.414,20.752 L71.502,20.752 L71.502,24.874 C70.728,25.18 69.936,25.45 69.126,25.666 L69.45,26.944 C70.134,26.692 70.818,26.44 71.502,26.152 L71.502,30.58 C71.502,31.012 71.268,31.246 70.836,31.246 C70.404,31.246 69.936,31.21 69.468,31.156 L69.738,32.398 L71.286,32.398 C72.294,32.398 72.798,31.894 72.798,30.904 L72.798,25.558 C73.284,25.306 73.77,25.054 74.256,24.784 L74.256,24.532 L74.886,25.558 C75.102,25.45 75.336,25.324 75.57,25.198 L75.57,25.198 Z M76.758,30.598 L76.758,28.87 L79.458,28.87 L79.458,30.598 L76.758,30.598 Z M80.574,30.598 L80.574,28.87 L83.238,28.87 L83.238,30.598 L80.574,30.598 Z M76.758,27.844 L76.758,26.044 L79.458,26.044 L79.458,27.844 L76.758,27.844 Z M80.574,27.844 L80.574,26.044 L83.238,26.044 L83.238,27.844 L80.574,27.844 Z M93.732,17.908 L93.732,30.76 L102.624,30.76 L102.624,29.482 L95.19,29.482 L95.19,17.908 L93.732,17.908 Z M105.324,17.944 C105.018,17.944 104.766,18.034 104.55,18.25 C104.334,18.43 104.244,18.682 104.244,19.006 C104.244,19.312 104.334,19.564 104.55,19.78 C104.766,19.978 105.018,20.086 105.324,20.086 C105.63,20.086 105.882,19.978 106.098,19.78 C106.314,19.564 106.422,19.312 106.422,19.006 C106.422,18.682 106.314,18.43 106.098,18.25 C105.882,18.034 105.63,17.944 105.324,17.944 L105.324,17.944 Z M104.604,21.454 L104.604,30.76 L106.044,30.76 L106.044,21.454 L104.604,21.454 Z M107.718,21.454 L111.228,30.76 L112.686,30.76 L116.214,21.454 L114.63,21.454 L111.966,28.96 L109.302,21.454 L107.718,21.454 Z M121.254,21.202 C119.904,21.202 118.842,21.688 118.05,22.66 C117.258,23.578 116.88,24.73 116.88,26.098 C116.88,27.61 117.276,28.798 118.104,29.698 C118.896,30.562 119.976,31.012 121.308,31.012 C122.514,31.012 123.504,30.652 124.278,29.968 C124.908,29.392 125.322,28.672 125.538,27.772 L124.098,27.772 C123.864,28.42 123.558,28.906 123.162,29.23 C122.694,29.608 122.064,29.806 121.308,29.806 C120.426,29.806 119.724,29.518 119.22,28.942 C118.716,28.366 118.446,27.556 118.374,26.512 L125.718,26.512 C125.682,24.892 125.322,23.614 124.638,22.714 C123.882,21.706 122.748,21.202 121.254,21.202 L121.254,21.202 Z M121.29,22.408 C123.054,22.408 124.044,23.398 124.224,25.396 L118.41,25.396 C118.5,24.478 118.788,23.758 119.292,23.218 C119.796,22.678 120.462,22.408 121.29,22.408 L121.29,22.408 Z M145.698,20.392 L145.086,21.076 L147.624,23.704 L132.684,23.704 L132.684,24.856 L147.624,24.856 L145.086,27.484 L145.698,28.168 L149.892,24.28 L145.698,20.392 Z" id="-觀看直播-Live-→" fill="#0E0E0E" sketch:type="MSShapeGroup"></path>
    </g>
</svg>