<?xml version="1.0" encoding="UTF-8" standalone="no"?>
<svg width="300px" height="300px" viewBox="0 0 300 300" version="1.1" xmlns="http://www.w3.org/2000/svg" xmlns:xlink="http://www.w3.org/1999/xlink" xmlns:sketch="http://www.bohemiancoding.com/sketch/ns">
    <!-- Generator: Sketch 3.4 (15575) - http://www.bohemiancoding.com/sketch -->
    <title>logo</title>
    <desc>Created with Sketch.</desc>
    <defs>
        <path id="path-1" d="M0,0.73425 L392.513,0.73425 L392.513,393.25 L0,393.25 L0,0.73425 Z"></path>
    </defs>
    <g id="Page-1" stroke="none" stroke-width="1" fill="none" fill-rule="evenodd" sketch:type="MSPage">
        <g sketch:type="MSLayerGroup" transform="translate(-47.000000, -56.000000)">
            <path d="M391.1391,384.080125 C391.1391,388.367375 387.63285,391.876375 383.34285,391.876375 L9.1696,391.876375 C4.88235,391.876375 1.3761,388.367375 1.3761,384.080125 L1.3761,9.904125 C1.3761,5.614125 4.88235,2.107875 9.1696,2.107875 L383.34285,2.107875 C387.63285,2.107875 391.1391,5.614125 391.1391,9.904125 L391.1391,384.080125 L391.1391,384.080125 Z" id="Stroke-3" stroke="#FFFFFF" stroke-width="2.75" sketch:type="MSShapeGroup"></path>
            <path d="M196.31865,179.500475 C175.34165,179.500475 158.3439,196.500975 158.3439,217.475225 C158.3439,238.452225 175.34165,255.449975 196.31865,255.449975 C217.29565,255.449975 234.2934,238.452225 234.2934,217.475225 C234.2934,196.500975 217.29565,179.500475 196.31865,179.500475" id="Fill-5" fill="#FF0087" sketch:type="MSShapeGroup"></path>
            <path d="M185.2543,145.837175 L185.2543,80.070925 L141.4303,80.070925 L97.60355,80.070925 L97.60355,145.837175 L97.60355,255.449425 L141.4303,255.449425 L141.4303,145.837175 L185.2543,145.837175 Z" id="Fill-7" fill="#FF0087" sketch:type="MSShapeGroup"></path>
            <path d="M273.901375,80.070925 L229.282625,80.070925 L229.282625,145.837175 L273.901375,145.837175 L273.901375,255.449425 L294.911375,255.449425 L294.911375,145.837175 L294.911375,80.070925 L273.901375,80.070925 Z" id="Fill-9" fill="#AAAAAA" sketch:type="MSShapeGroup"></path>
            <mask id="mask-2" sketch:name="Clip 12" fill="white">
                <use xlink:href="#path-1"></use>
            </mask>
            <g id="Clip-12"></g>
            <path d="M267.586,323.75475 L278.333,323.75475 L278.333,329.5875 L267.586,329.5875 L267.586,323.75475 Z M262.317,334.34775 L283.712,334.34775 L283.712,318.99175 L262.317,318.99175 L262.317,334.34775 Z" id="Fill-11" fill="#FFFFFF" sketch:type="MSShapeGroup" mask="url(#mask-2)"></path>
            <path d="M288.475,302.808 L278.75375,302.808 L278.75375,299.73625 L288.475,299.73625 L288.475,302.808 Z M288.475,310.365 L278.75375,310.365 L278.75375,307.29325 L288.475,307.29325 L288.475,310.365 Z M274.3895,294.525 L274.3895,315.73575 L288.475,315.73575 L288.475,335.159 L294.91,335.159 L294.91,294.525 L274.3895,294.525 Z" id="Fill-13" fill="#FFFFFF" sketch:type="MSShapeGroup" mask="url(#mask-2)"></path>
            <path d="M267.16525,302.808 L257.5815,302.808 L257.5815,299.73625 L267.16525,299.73625 L267.16525,302.808 Z M267.16525,310.365 L257.5815,310.365 L257.5815,307.29325 L267.16525,307.29325 L267.16525,310.365 Z M271.49925,294.525 L251.11625,294.525 L251.11625,335.159 L257.554,335.159 L257.554,315.73575 L271.49925,315.73575 L271.49925,294.525 Z" id="Fill-14" fill="#FFFFFF" sketch:type="MSShapeGroup" mask="url(#mask-2)"></path>
            <path d="M112.1967,301.997575 L119.47595,301.997575 L119.47595,296.233575 L97.60245,296.233575 L97.60245,301.997575 L106.53445,301.997575 L106.53445,329.654325 C105.36845,329.571825 104.2327,329.384825 103.13545,329.096075 L103.13545,308.652575 L97.6382,308.652575 L97.6382,326.604575 L97.6382,332.882825 C99.3652,333.699575 101.21045,334.318325 103.13545,334.703325 C104.6452,335.003075 106.19895,335.159825 107.79395,335.159825 C111.4542,335.159825 114.92195,334.329325 118.0157,332.847075 L118.0157,326.645825 C116.22545,327.866825 114.36645,328.675325 112.1967,329.197825 L112.1967,318.206075 L118.0157,318.206075 L118.0157,312.747325 L112.1967,312.747325 L112.1967,301.997575 Z" id="Fill-15" fill="#FFFFFF" sketch:type="MSShapeGroup" mask="url(#mask-2)"></path>
            <path d="M131.307,318.45055 C129.70375,315.0763 128.43875,311.3033 127.61375,307.26355 L127.8585,306.6888 L134.937,306.6888 C134.30725,311.21805 132.91025,315.0763 131.307,318.45055 M134.7555,323.7773 C140.173,313.19255 141.45175,301.8048 141.45175,301.8048 L129.6075,301.8048 C129.97875,300.52055 130.33075,299.2088 130.6525,297.8778 C130.91375,296.7723 131.1585,295.6558 131.35925,294.52555 L125.345,294.52555 L125.279,294.52555 C123.7115,300.4518 121.59125,306.0288 118.3325,311.1163 L121.50325,316.63005 C122.221,315.5548 122.9415,314.41905 123.651,313.2338 L123.97275,313.96805 C125.0425,317.56505 126.3075,320.8018 127.95475,323.7333 C126.24975,325.76555 123.4805,327.5008 120.90375,328.9418 L120.90375,335.15955 C124.8665,333.35555 128.6395,331.0923 131.208,328.39455 C133.53175,331.13355 137.929,333.43255 141.45175,335.1183 L141.45175,328.46055 C139.5075,327.15155 136.21575,325.57305 134.7555,323.7773" id="Fill-16" fill="#FFFFFF" sketch:type="MSShapeGroup" mask="url(#mask-2)"></path>
            <path d="M182.5472,297.087175 L182.5472,303.563425 L180.7597,303.563425 L180.7597,297.087175 L178.28745,297.087175 L178.28745,295.437175 L185.0167,295.437175 L185.0167,297.087175 L182.5472,297.087175 Z" id="Fill-17" fill="#FFFFFF" sketch:type="MSShapeGroup" mask="url(#mask-2)"></path>
            <path d="M190.73285,297.52745 L189.6521,300.16195 L191.8136,300.16195 L190.73285,297.52745 Z M193.19135,303.56095 L192.4516,301.7377 L189.01685,301.7377 L188.2716,303.56095 L186.44835,303.56095 L189.9326,295.3797 L191.5826,295.3797 L195.06135,303.56095 L193.19135,303.56095 Z" id="Fill-18" fill="#FFFFFF" sketch:type="MSShapeGroup" mask="url(#mask-2)"></path>
            <path d="M198.0374,303.56205 L198.0374,295.43855 L199.82215,295.43855 L199.82215,301.9368 L203.87565,301.9368 L203.87565,303.56205 L198.0374,303.56205 Z" id="Fill-19" fill="#FFFFFF" sketch:type="MSShapeGroup" mask="url(#mask-2)"></path>
            <path d="M212.1394,303.56205 L209.6204,300.1053 L208.6799,301.0788 L208.6799,303.56205 L206.8924,303.56205 L206.8924,295.43855 L208.6799,295.43855 L208.6799,298.9888 L211.9744,295.43855 L214.13315,295.43855 L210.8249,298.88705 L214.2844,303.56205 L212.1394,303.56205 Z" id="Fill-20" fill="#FFFFFF" sketch:type="MSShapeGroup" mask="url(#mask-2)"></path>
            <path d="M191.60295,312.400275 L191.60295,318.876525 L189.8182,318.876525 L189.8182,312.400275 L187.3432,312.400275 L187.3432,310.753025 L194.07245,310.753025 L194.07245,312.400275 L191.60295,312.400275 Z" id="Fill-21" fill="#FFFFFF" sketch:type="MSShapeGroup" mask="url(#mask-2)"></path>
            <path d="M203.3603,314.8145 C203.3603,313.423 202.3373,312.2625 200.8963,312.2625 C199.4608,312.2625 198.46255,313.39825 198.46255,314.7925 L198.46255,314.8145 C198.46255,316.206 199.4828,317.3665 200.92105,317.3665 C202.3593,317.3665 203.3603,316.23075 203.3603,314.83925 L203.3603,314.8145 Z M200.8963,319.0165 C198.39105,319.0165 196.59255,317.1465 196.59255,314.83925 L196.59255,314.8145 C196.59255,312.5045 198.41305,310.6125 200.92105,310.6125 C203.42905,310.6125 205.22755,312.4825 205.22755,314.7925 L205.22755,314.8145 C205.22755,317.1245 203.4043,319.0165 200.8963,319.0165 L200.8963,319.0165 Z" id="Fill-22" fill="#FFFFFF" sketch:type="MSShapeGroup" mask="url(#mask-2)"></path>
            <path d="M171.84805,327.772225 L171.84805,334.248475 L170.0633,334.248475 L170.0633,327.772225 L167.59105,327.772225 L167.59105,326.124975 L174.3203,326.124975 L174.3203,327.772225 L171.84805,327.772225 Z" id="Fill-23" fill="#FFFFFF" sketch:type="MSShapeGroup" mask="url(#mask-2)"></path>
            <path d="M180.036175,328.213875 L178.955425,330.848375 L181.116925,330.848375 L180.036175,328.213875 Z M182.497425,334.247375 L181.754925,332.426875 L178.320175,332.426875 L177.574925,334.247375 L175.751675,334.247375 L179.235925,326.066125 L180.883175,326.066125 L184.364675,334.247375 L182.497425,334.247375 Z" id="Fill-24" fill="#FFFFFF" sketch:type="MSShapeGroup" mask="url(#mask-2)"></path>
            <path d="M187.38225,326.12525 L189.16975,326.12525 L189.16975,334.24875 L187.38225,334.24875 L187.38225,326.12525 Z" id="Fill-25" fill="#FFFFFF" sketch:type="MSShapeGroup" mask="url(#mask-2)"></path>
            <path d="M201.7488,334.306225 L200.19505,334.306225 L198.36355,328.990475 L196.5293,334.306225 L194.97005,334.306225 L192.19805,326.124975 L194.1148,326.124975 L195.79505,331.624975 L197.6183,326.102975 L199.15005,326.102975 L200.9733,331.624975 L202.65355,326.124975 L204.52355,326.124975 L201.7488,334.306225 Z" id="Fill-26" fill="#FFFFFF" sketch:type="MSShapeGroup" mask="url(#mask-2)"></path>
            <path d="M210.455575,328.213875 L209.374825,330.848375 L211.536325,330.848375 L210.455575,328.213875 Z M212.916825,334.247375 L212.174325,332.426875 L208.739575,332.426875 L207.994325,334.247375 L206.171075,334.247375 L209.655325,326.066125 L211.305325,326.066125 L214.784075,334.247375 L212.916825,334.247375 Z" id="Fill-27" fill="#FFFFFF" sketch:type="MSShapeGroup" mask="url(#mask-2)"></path>
            <path d="M223.45895,334.2471 L219.5237,329.0826 L219.5237,334.2471 L217.76095,334.2471 L217.76095,326.1236 L219.4082,326.1236 L223.21695,331.12585 L223.21695,326.1236 L224.9797,326.1236 L224.9797,334.2471 L223.45895,334.2471 Z" id="Fill-28" fill="#FFFFFF" sketch:type="MSShapeGroup" mask="url(#mask-2)"></path>
        </g>
    </g>
</svg>