<?xml version="1.0" encoding="UTF-8" standalone="no"?>
<svg width="198px" height="256px" viewBox="0 0 198 256" version="1.1" xmlns="http://www.w3.org/2000/svg" xmlns:xlink="http://www.w3.org/1999/xlink" xmlns:sketch="http://www.bohemiancoding.com/sketch/ns">
    <!-- Generator: Sketch 3.4.2 (15855) - http://www.bohemiancoding.com/sketch -->
    <title>logo</title>
    <desc>Created with Sketch.</desc>
    <defs></defs>
    <g id="Page-1" stroke="none" stroke-width="1" fill="none" fill-rule="evenodd" sketch:type="MSPage">
        <g id="logo" sketch:type="MSLayerGroup">
            <g id="Page-1" sketch:type="MSShapeGroup">
                <g id="Group">
                    <path d="M99.31865,99.500475 C78.34165,99.500475 61.3439,116.500975 61.3439,137.475225 C61.3439,158.452225 78.34165,175.449975 99.31865,175.449975 C120.29565,175.449975 137.2934,158.452225 137.2934,137.475225 C137.2934,116.500975 120.29565,99.500475 99.31865,99.500475" id="Fill-5" fill="#FF0087"></path>
                    <path d="M88.2543,65.837175 L88.2543,0.070925 L44.4303,0.070925 L0.60355,0.070925 L0.60355,65.837175 L0.60355,175.449425 L44.4303,175.449425 L44.4303,65.837175 L88.2543,65.837175 L88.2543,65.837175 Z" id="Fill-7" fill="#FF0087"></path>
                    <path d="M176.901375,0.070925 L132.282625,0.070925 L132.282625,65.837175 L176.901375,65.837175 L176.901375,175.449425 L197.911375,175.449425 L197.911375,65.837175 L197.911375,0.070925 L176.901375,0.070925 L176.901375,0.070925 Z" id="Fill-9" fill="#AAAAAA"></path>
                    <g id="Fill-11-Clipped" transform="translate(165.000000, 238.000000)" fill="#FFFFFF">
                        <path d="M5.586,5.75475 L16.333,5.75475 L16.333,11.5875 L5.586,11.5875 L5.586,5.75475 L5.586,5.75475 Z M0.317,16.34775 L21.712,16.34775 L21.712,0.99175 L0.317,0.99175 L0.317,16.34775 L0.317,16.34775 Z" id="Fill-11"></path>
                    </g>
                    <g id="Fill-13-Clipped" transform="translate(177.000000, 214.000000)" fill="#FFFFFF">
                        <path d="M14.475,8.808 L4.75375,8.808 L4.75375,5.73625 L14.475,5.73625 L14.475,8.808 L14.475,8.808 Z M14.475,16.365 L4.75375,16.365 L4.75375,13.29325 L14.475,13.29325 L14.475,16.365 L14.475,16.365 Z M0.3895,0.525 L0.3895,21.73575 L14.475,21.73575 L14.475,41.159 L20.91,41.159 L20.91,0.525 L0.3895,0.525 L0.3895,0.525 Z" id="Fill-13"></path>
                    </g>
                    <g id="Fill-14-Clipped" transform="translate(154.000000, 214.000000)" fill="#FFFFFF">
                        <path d="M16.16525,8.808 L6.5815,8.808 L6.5815,5.73625 L16.16525,5.73625 L16.16525,8.808 L16.16525,8.808 Z M16.16525,16.365 L6.5815,16.365 L6.5815,13.29325 L16.16525,13.29325 L16.16525,16.365 L16.16525,16.365 Z M20.49925,0.525 L0.11625,0.525 L0.11625,41.159 L6.554,41.159 L6.554,21.73575 L20.49925,21.73575 L20.49925,0.525 L20.49925,0.525 Z" id="Fill-14"></path>
                    </g>
                    <g id="Fill-15-Clipped" transform="translate(0.000000, 216.000000)" fill="#FFFFFF">
                        <path d="M15.1967,5.997575 L22.47595,5.997575 L22.47595,0.233575 L0.60245,0.233575 L0.60245,5.997575 L9.53445,5.997575 L9.53445,33.654325 C8.36845,33.571825 7.2327,33.384825 6.13545,33.096075 L6.13545,12.652575 L0.6382,12.652575 L0.6382,30.604575 L0.6382,36.882825 C2.3652,37.699575 4.21045,38.318325 6.13545,38.703325 C7.6452,39.003075 9.19895,39.159825 10.79395,39.159825 C14.4542,39.159825 17.92195,38.329325 21.0157,36.847075 L21.0157,30.645825 C19.22545,31.866825 17.36645,32.675325 15.1967,33.197825 L15.1967,22.206075 L21.0157,22.206075 L21.0157,16.747325 L15.1967,16.747325 L15.1967,5.997575 L15.1967,5.997575 Z" id="Fill-15"></path>
                    </g>
                    <g id="Fill-16-Clipped" transform="translate(21.000000, 214.000000)" fill="#FFFFFF">
                        <path d="M13.307,24.45055 C11.70375,21.0763 10.43875,17.3033 9.61375,13.26355 L9.8585,12.6888 L16.937,12.6888 C16.30725,17.21805 14.91025,21.0763 13.307,24.45055 M16.7555,29.7773 C22.173,19.19255 23.45175,7.8048 23.45175,7.8048 L11.6075,7.8048 C11.97875,6.52055 12.33075,5.2088 12.6525,3.8778 C12.91375,2.7723 13.1585,1.6558 13.35925,0.52555 L7.345,0.52555 L7.279,0.52555 C5.7115,6.4518 3.59125,12.0288 0.3325,17.1163 L3.50325,22.63005 C4.221,21.5548 4.9415,20.41905 5.651,19.2338 L5.97275,19.96805 C7.0425,23.56505 8.3075,26.8018 9.95475,29.7333 C8.24975,31.76555 5.4805,33.5008 2.90375,34.9418 L2.90375,41.15955 C6.8665,39.35555 10.6395,37.0923 13.208,34.39455 C15.53175,37.13355 19.929,39.43255 23.45175,41.1183 L23.45175,34.46055 C21.5075,33.15155 18.21575,31.57305 16.7555,29.7773" id="Fill-16"></path>
                    </g>
                    <g id="Fill-17-Clipped" transform="translate(81.000000, 215.000000)" fill="#FFFFFF">
                        <path d="M4.5472,2.087175 L4.5472,8.563425 L2.7597,8.563425 L2.7597,2.087175 L0.28745,2.087175 L0.28745,0.437175 L7.0167,0.437175 L7.0167,2.087175 L4.5472,2.087175 L4.5472,2.087175 Z" id="Fill-17"></path>
                    </g>
                    <g id="Fill-18-Clipped" transform="translate(89.000000, 215.000000)" fill="#FFFFFF">
                        <path d="M4.73285,2.52745 L3.6521,5.16195 L5.8136,5.16195 L4.73285,2.52745 L4.73285,2.52745 Z M7.19135,8.56095 L6.4516,6.7377 L3.01685,6.7377 L2.2716,8.56095 L0.44835,8.56095 L3.9326,0.3797 L5.5826,0.3797 L9.06135,8.56095 L7.19135,8.56095 L7.19135,8.56095 Z" id="Fill-18"></path>
                    </g>
                    <g id="Fill-19-Clipped" transform="translate(101.000000, 215.000000)" fill="#FFFFFF">
                        <path d="M0.0374,8.56205 L0.0374,0.43855 L1.82215,0.43855 L1.82215,6.9368 L5.87565,6.9368 L5.87565,8.56205 L0.0374,8.56205 L0.0374,8.56205 Z" id="Fill-19"></path>
                    </g>
                    <g id="Fill-20-Clipped" transform="translate(109.000000, 215.000000)" fill="#FFFFFF">
                        <path d="M6.1394,8.56205 L3.6204,5.1053 L2.6799,6.0788 L2.6799,8.56205 L0.8924,8.56205 L0.8924,0.43855 L2.6799,0.43855 L2.6799,3.9888 L5.9744,0.43855 L8.13315,0.43855 L4.8249,3.88705 L8.2844,8.56205 L6.1394,8.56205 L6.1394,8.56205 Z" id="Fill-20"></path>
                    </g>
                    <g id="Fill-21-Clipped" transform="translate(90.000000, 230.000000)" fill="#FFFFFF">
                        <path d="M4.60295,2.400275 L4.60295,8.876525 L2.8182,8.876525 L2.8182,2.400275 L0.3432,2.400275 L0.3432,0.753025 L7.07245,0.753025 L7.07245,2.400275 L4.60295,2.400275 L4.60295,2.400275 Z" id="Fill-21"></path>
                    </g>
                    <g id="Fill-22-Clipped" transform="translate(99.000000, 230.000000)" fill="#FFFFFF">
                        <path d="M7.3603,4.8145 C7.3603,3.423 6.3373,2.2625 4.8963,2.2625 C3.4608,2.2625 2.46255,3.39825 2.46255,4.7925 L2.46255,4.8145 C2.46255,6.206 3.4828,7.3665 4.92105,7.3665 C6.3593,7.3665 7.3603,6.23075 7.3603,4.83925 L7.3603,4.8145 L7.3603,4.8145 Z M4.8963,9.0165 C2.39105,9.0165 0.59255,7.1465 0.59255,4.83925 L0.59255,4.8145 C0.59255,2.5045 2.41305,0.6125 4.92105,0.6125 C7.42905,0.6125 9.22755,2.4825 9.22755,4.7925 L9.22755,4.8145 C9.22755,7.1245 7.4043,9.0165 4.8963,9.0165 L4.8963,9.0165 L4.8963,9.0165 Z" id="Fill-22"></path>
                    </g>
                    <g id="Fill-23-Clipped" transform="translate(70.000000, 246.000000)" fill="#FFFFFF">
                        <path d="M4.84805,1.772225 L4.84805,8.248475 L3.0633,8.248475 L3.0633,1.772225 L0.59105,1.772225 L0.59105,0.124975 L7.3203,0.124975 L7.3203,1.772225 L4.84805,1.772225 L4.84805,1.772225 Z" id="Fill-23"></path>
                    </g>
                    <g id="Fill-24-Clipped" transform="translate(78.000000, 246.000000)" fill="#FFFFFF">
                        <path d="M5.036175,2.213875 L3.955425,4.848375 L6.116925,4.848375 L5.036175,2.213875 L5.036175,2.213875 Z M7.497425,8.247375 L6.754925,6.426875 L3.320175,6.426875 L2.574925,8.247375 L0.751675,8.247375 L4.235925,0.066125 L5.883175,0.066125 L9.364675,8.247375 L7.497425,8.247375 L7.497425,8.247375 Z" id="Fill-24"></path>
                    </g>
                    <g id="Fill-25-Clipped" transform="translate(90.000000, 246.000000)" fill="#FFFFFF">
                        <path d="M0.38225,0.12525 L2.16975,0.12525 L2.16975,8.24875 L0.38225,8.24875 L0.38225,0.12525 L0.38225,0.12525 Z" id="Fill-25"></path>
                    </g>
                    <g id="Fill-26-Clipped" transform="translate(95.000000, 246.000000)" fill="#FFFFFF">
                        <path d="M9.7488,8.306225 L8.19505,8.306225 L6.36355,2.990475 L4.5293,8.306225 L2.97005,8.306225 L0.19805,0.124975 L2.1148,0.124975 L3.79505,5.624975 L5.6183,0.102975 L7.15005,0.102975 L8.9733,5.624975 L10.65355,0.124975 L12.52355,0.124975 L9.7488,8.306225 L9.7488,8.306225 Z" id="Fill-26"></path>
                    </g>
                    <g id="Fill-27-Clipped" transform="translate(109.000000, 246.000000)" fill="#FFFFFF">
                        <path d="M4.455575,2.213875 L3.374825,4.848375 L5.536325,4.848375 L4.455575,2.213875 L4.455575,2.213875 Z M6.916825,8.247375 L6.174325,6.426875 L2.739575,6.426875 L1.994325,8.247375 L0.171075,8.247375 L3.655325,0.066125 L5.305325,0.066125 L8.784075,8.247375 L6.916825,8.247375 L6.916825,8.247375 Z" id="Fill-27"></path>
                    </g>
                    <g id="Fill-28-Clipped" transform="translate(120.000000, 246.000000)" fill="#FFFFFF">
                        <path d="M6.45895,8.2471 L2.5237,3.0826 L2.5237,8.2471 L0.76095,8.2471 L0.76095,0.1236 L2.4082,0.1236 L6.21695,5.12585 L6.21695,0.1236 L7.9797,0.1236 L7.9797,8.2471 L6.45895,8.2471 L6.45895,8.2471 Z" id="Fill-28"></path>
                    </g>
                </g>
            </g>
        </g>
    </g>
</svg>