<?xml version="1.0" encoding="UTF-8" standalone="no"?>
<svg width="220px" height="220px" viewBox="0 0 220 220" version="1.1" xmlns="http://www.w3.org/2000/svg" xmlns:xlink="http://www.w3.org/1999/xlink" xmlns:sketch="http://www.bohemiancoding.com/sketch/ns">
    <!-- Generator: Sketch 3.4 (15575) - http://www.bohemiancoding.com/sketch -->
    <title>logo-small</title>
    <desc>Created with Sketch.</desc>
    <defs>
        <path id="path-1" d="M0,0.5506875 L294.38475,0.5506875 L294.38475,294.9375 L0,294.9375 L0,0.5506875 Z"></path>
    </defs>
    <g id="Page-1" stroke="none" stroke-width="1" fill="none" fill-rule="evenodd" sketch:type="MSPage">
        <g sketch:type="MSLayerGroup" transform="translate(-38.000000, -44.000000)">
            <path d="M293.354325,288.060094 C293.354325,291.275531 290.724638,293.907281 287.507137,293.907281 L6.8772,293.907281 C3.6617625,293.907281 1.032075,291.275531 1.032075,288.060094 L1.032075,7.42809375 C1.032075,4.21059375 3.6617625,1.58090625 6.8772,1.58090625 L287.507137,1.58090625 C290.724638,1.58090625 293.354325,4.21059375 293.354325,7.42809375 L293.354325,288.060094 L293.354325,288.060094 Z" id="Stroke-3" stroke="#FFFFFF" stroke-width="2.0625" sketch:type="MSShapeGroup"></path>
            <path d="M147.238988,134.625356 C131.506238,134.625356 118.757925,147.375731 118.757925,163.106419 C118.757925,178.839169 131.506238,191.587481 147.238988,191.587481 C162.971738,191.587481 175.72005,178.839169 175.72005,163.106419 C175.72005,147.375731 162.971738,134.625356 147.238988,134.625356" id="Fill-5" fill="#FF0087" sketch:type="MSShapeGroup"></path>
            <path d="M138.940725,109.377881 L138.940725,60.0531938 L106.072725,60.0531938 L73.2026625,60.0531938 L73.2026625,109.377881 L73.2026625,191.587069 L106.072725,191.587069 L106.072725,109.377881 L138.940725,109.377881 Z" id="Fill-7" fill="#FF0087" sketch:type="MSShapeGroup"></path>
            <path d="M205.426031,60.0531937 L171.961969,60.0531937 L171.961969,109.377881 L205.426031,109.377881 L205.426031,191.587069 L221.183531,191.587069 L221.183531,109.377881 L221.183531,60.0531937 L205.426031,60.0531937 Z" id="Fill-9" fill="#AAAAAA" sketch:type="MSShapeGroup"></path>
            <mask id="mask-2" sketch:name="Clip 12" fill="white">
                <use xlink:href="#path-1"></use>
            </mask>
            <g id="Clip-12"></g>
            <path d="M200.6895,242.816063 L208.74975,242.816063 L208.74975,247.190625 L200.6895,247.190625 L200.6895,242.816063 Z M196.73775,250.760813 L212.784,250.760813 L212.784,239.243813 L196.73775,239.243813 L196.73775,250.760813 Z" id="Fill-11" fill="#FFFFFF" sketch:type="MSShapeGroup" mask="url(#mask-2)"></path>
            <path d="M216.35625,227.106 L209.065313,227.106 L209.065313,224.802188 L216.35625,224.802188 L216.35625,227.106 Z M216.35625,232.77375 L209.065313,232.77375 L209.065313,230.469938 L216.35625,230.469938 L216.35625,232.77375 Z M205.792125,220.89375 L205.792125,236.801813 L216.35625,236.801813 L216.35625,251.36925 L221.1825,251.36925 L221.1825,220.89375 L205.792125,220.89375 Z" id="Fill-13" fill="#FFFFFF" sketch:type="MSShapeGroup" mask="url(#mask-2)"></path>
            <path d="M200.373938,227.106 L193.186125,227.106 L193.186125,224.802188 L200.373938,224.802188 L200.373938,227.106 Z M200.373938,232.77375 L193.186125,232.77375 L193.186125,230.469938 L200.373938,230.469938 L200.373938,232.77375 Z M203.624438,220.89375 L188.337188,220.89375 L188.337188,251.36925 L193.1655,251.36925 L193.1655,236.801813 L203.624438,236.801813 L203.624438,220.89375 Z" id="Fill-14" fill="#FFFFFF" sketch:type="MSShapeGroup" mask="url(#mask-2)"></path>
            <path d="M84.147525,226.498181 L89.6069625,226.498181 L89.6069625,222.175181 L73.2018375,222.175181 L73.2018375,226.498181 L79.9008375,226.498181 L79.9008375,247.240744 C79.0263375,247.178869 78.174525,247.038619 77.3515875,246.822056 L77.3515875,231.489431 L73.22865,231.489431 L73.22865,244.953431 L73.22865,249.662119 C74.5239,250.274681 75.9078375,250.738744 77.3515875,251.027494 C78.4839,251.252306 79.6492125,251.369869 80.8454625,251.369869 C83.59065,251.369869 86.1914625,250.746994 88.511775,249.635306 L88.511775,244.984369 C87.1690875,245.900119 85.7748375,246.506494 84.147525,246.898369 L84.147525,238.654556 L88.511775,238.654556 L88.511775,234.560494 L84.147525,234.560494 L84.147525,226.498181 Z" id="Fill-15" fill="#FFFFFF" sketch:type="MSShapeGroup" mask="url(#mask-2)"></path>
            <path d="M98.48025,238.837912 C97.2778125,236.307225 96.3290625,233.477475 95.7103125,230.447662 L95.893875,230.0166 L101.20275,230.0166 C100.730437,233.413537 99.6826875,236.307225 98.48025,238.837912 M101.066625,242.832975 C105.12975,234.894412 106.088812,226.3536 106.088812,226.3536 L97.205625,226.3536 C97.4840625,225.390412 97.7480625,224.4066 97.989375,223.40835 C98.1853125,222.579225 98.368875,221.74185 98.5194375,220.894162 L94.00875,220.894162 L93.95925,220.894162 C92.783625,225.33885 91.1934375,229.5216 88.749375,233.337225 L91.1274375,237.472537 C91.66575,236.6661 92.206125,235.814287 92.73825,234.92535 L92.9795625,235.476037 C93.781875,238.173787 94.730625,240.60135 95.9660625,242.799975 C94.6873125,244.324162 92.610375,245.6256 90.6778125,246.70635 L90.6778125,251.369662 C93.649875,250.016662 96.479625,248.319225 98.406,246.295912 C100.148812,248.350162 103.44675,250.074412 106.088812,251.338725 L106.088812,246.345412 C104.630625,245.363662 102.161812,244.179787 101.066625,242.832975" id="Fill-16" fill="#FFFFFF" sketch:type="MSShapeGroup" mask="url(#mask-2)"></path>
            <path d="M136.9104,222.815381 L136.9104,227.672569 L135.569775,227.672569 L135.569775,222.815381 L133.715587,222.815381 L133.715587,221.577881 L138.762525,221.577881 L138.762525,222.815381 L136.9104,222.815381 Z" id="Fill-17" fill="#FFFFFF" sketch:type="MSShapeGroup" mask="url(#mask-2)"></path>
            <path d="M143.049638,223.145587 L142.239075,225.121462 L143.8602,225.121462 L143.049638,223.145587 Z M144.893513,227.670712 L144.3387,226.303275 L141.762638,226.303275 L141.2037,227.670712 L139.836263,227.670712 L142.44945,221.534775 L143.68695,221.534775 L146.296013,227.670712 L144.893513,227.670712 Z" id="Fill-18" fill="#FFFFFF" sketch:type="MSShapeGroup" mask="url(#mask-2)"></path>
            <path d="M148.52805,227.671537 L148.52805,221.578912 L149.866613,221.578912 L149.866613,226.4526 L152.906738,226.4526 L152.906738,227.671537 L148.52805,227.671537 Z" id="Fill-19" fill="#FFFFFF" sketch:type="MSShapeGroup" mask="url(#mask-2)"></path>
            <path d="M159.10455,227.671537 L157.2153,225.078975 L156.509925,225.8091 L156.509925,227.671537 L155.1693,227.671537 L155.1693,221.578912 L156.509925,221.578912 L156.509925,224.2416 L158.9808,221.578912 L160.599863,221.578912 L158.118675,224.165287 L160.7133,227.671537 L159.10455,227.671537 Z" id="Fill-20" fill="#FFFFFF" sketch:type="MSShapeGroup" mask="url(#mask-2)"></path>
            <path d="M143.702212,234.300206 L143.702212,239.157394 L142.36365,239.157394 L142.36365,234.300206 L140.5074,234.300206 L140.5074,233.064769 L145.554337,233.064769 L145.554337,234.300206 L143.702212,234.300206 Z" id="Fill-21" fill="#FFFFFF" sketch:type="MSShapeGroup" mask="url(#mask-2)"></path>
            <path d="M152.520225,236.110875 C152.520225,235.06725 151.752975,234.196875 150.672225,234.196875 C149.5956,234.196875 148.846912,235.048687 148.846912,236.094375 L148.846912,236.110875 C148.846912,237.1545 149.6121,238.024875 150.690787,238.024875 C151.769475,238.024875 152.520225,237.173062 152.520225,236.129437 L152.520225,236.110875 Z M150.672225,239.262375 C148.793287,239.262375 147.444412,237.859875 147.444412,236.129437 L147.444412,236.110875 C147.444412,234.378375 148.809787,232.959375 150.690787,232.959375 C152.571787,232.959375 153.920662,234.361875 153.920662,236.094375 L153.920662,236.110875 C153.920662,237.843375 152.553225,239.262375 150.672225,239.262375 L150.672225,239.262375 Z" id="Fill-22" fill="#FFFFFF" sketch:type="MSShapeGroup" mask="url(#mask-2)"></path>
            <path d="M128.886038,245.829169 L128.886038,250.686356 L127.547475,250.686356 L127.547475,245.829169 L125.693288,245.829169 L125.693288,244.593731 L130.740225,244.593731 L130.740225,245.829169 L128.886038,245.829169 Z" id="Fill-23" fill="#FFFFFF" sketch:type="MSShapeGroup" mask="url(#mask-2)"></path>
            <path d="M135.027131,246.160406 L134.216569,248.136281 L135.837694,248.136281 L135.027131,246.160406 Z M136.873069,250.685531 L136.316194,249.320156 L133.740131,249.320156 L133.181194,250.685531 L131.813756,250.685531 L134.426944,244.549594 L135.662381,244.549594 L138.273506,250.685531 L136.873069,250.685531 Z" id="Fill-24" fill="#FFFFFF" sketch:type="MSShapeGroup" mask="url(#mask-2)"></path>
            <path d="M140.536687,244.593938 L141.877313,244.593938 L141.877313,250.686563 L140.536687,250.686563 L140.536687,244.593938 Z" id="Fill-25" fill="#FFFFFF" sketch:type="MSShapeGroup" mask="url(#mask-2)"></path>
            <path d="M151.3116,250.729669 L150.146287,250.729669 L148.772662,246.742856 L147.396975,250.729669 L146.227537,250.729669 L144.148537,244.593731 L145.5861,244.593731 L146.846287,248.718731 L148.213725,244.577231 L149.362537,244.577231 L150.729975,248.718731 L151.990162,244.593731 L153.392662,244.593731 L151.3116,250.729669 Z" id="Fill-26" fill="#FFFFFF" sketch:type="MSShapeGroup" mask="url(#mask-2)"></path>
            <path d="M157.841681,246.160406 L157.031119,248.136281 L158.652244,248.136281 L157.841681,246.160406 Z M159.687619,250.685531 L159.130744,249.320156 L156.554681,249.320156 L155.995744,250.685531 L154.628306,250.685531 L157.241494,244.549594 L158.478994,244.549594 L161.088056,250.685531 L159.687619,250.685531 Z" id="Fill-27" fill="#FFFFFF" sketch:type="MSShapeGroup" mask="url(#mask-2)"></path>
            <path d="M167.594212,250.685325 L164.642775,246.81195 L164.642775,250.685325 L163.320712,250.685325 L163.320712,244.5927 L164.55615,244.5927 L167.412712,248.344387 L167.412712,244.5927 L168.734775,244.5927 L168.734775,250.685325 L167.594212,250.685325 Z" id="Fill-28" fill="#FFFFFF" sketch:type="MSShapeGroup" mask="url(#mask-2)"></path>
        </g>
    </g>
</svg>