<?xml version="1.0" encoding="UTF-8" standalone="no"?>
<svg width="16px" height="16px" viewBox="0 0 16 16" version="1.1" xmlns="http://www.w3.org/2000/svg" xmlns:xlink="http://www.w3.org/1999/xlink" xmlns:sketch="http://www.bohemiancoding.com/sketch/ns">
    <!-- Generator: Sketch 3.4.2 (15855) - http://www.bohemiancoding.com/sketch -->
    <title>poplink</title>
    <desc>Created with Sketch.</desc>
    <defs></defs>
    <g id="Page-1" stroke="none" stroke-width="1" fill="none" fill-rule="evenodd" sketch:type="MSPage">
        <path d="M7.7858,6.2794 L9.652,8.1449 L13.1632,4.633 L14.9762,6.446 L14.979,1.0322 L9.5295,1 L11.2977,2.7675 L7.7858,6.2794 L7.7858,6.2794 Z M13.6042,7.2993 L13.6287,13.6042 L2.4182,13.6105 L2.4294,2.4294 L8.7,2.4014 L7.3,1.0014 L2.4,1.0014 C1.6272,1.0014 1,1.6286 1,2.4014 L1,13.6014 C1,14.3742 1.6272,15.0014 2.4,15.0014 L13.6,15.0014 C14.3728,15.0014 15,14.3742 15,13.6014 L14.9482,8.6622 L13.6042,7.2993 Z" id="Shape" fill="#FD1C85" sketch:type="MSShapeGroup"></path>
    </g>
</svg>