<?xml version="1.0" encoding="UTF-8" standalone="no"?>
<svg width="98px" height="110px" viewBox="0 0 98 110" version="1.1" xmlns="http://www.w3.org/2000/svg" xmlns:xlink="http://www.w3.org/1999/xlink" xmlns:sketch="http://www.bohemiancoding.com/sketch/ns">
    <!-- Generator: Sketch 3.4 (15575) - http://www.bohemiancoding.com/sketch -->
    <title>TTT-pattern</title>
    <desc>Created with Sketch.</desc>
    <defs>
        <rect id="path-1" x="0" y="0" width="98" height="110"></rect>
    </defs>
    <g id="Page-1" stroke="none" stroke-width="1" fill="none" fill-rule="evenodd" sketch:type="MSPage">
        <mask id="mask-2" sketch:name="Mask" fill="white">
            <use xlink:href="#path-1"></use>
        </mask>
        <use id="Mask" sketch:type="MSShapeGroup" xlink:href="#path-1"></use>
        <g id="TTT-pattern" sketch:type="MSLayerGroup" mask="url(#mask-2)">
            <g transform="translate(-20.000000, 9.000000)">
                <g id="Group-8" transform="translate(50.800000, 0.400000)">
                    <path d="M18.76992,19.55628 C14.78112,19.55628 11.54712,22.78908 11.54712,26.77908 C11.54712,30.76908 14.78112,33.99948 18.76992,33.99948 C22.75992,33.99948 25.98912,30.76908 25.98912,26.77908 C25.98912,22.78908 22.75992,19.55628 18.76992,19.55628" id="Fill-1" fill="#121212" sketch:type="MSShapeGroup"></path>
                    <path d="M16.66524,13.15548 L16.66524,0.64908 L8.33244,0.64908 L-0.00036,0.64908 L-0.00036,13.15548 L-0.00036,33.99948 L8.33244,33.99948 L8.33244,13.15548 L16.66524,13.15548 L16.66524,13.15548 Z" id="Fill-3" fill="#121212" sketch:type="MSShapeGroup"></path>
                    <path d="M33.52272,0.6492 L25.03872,0.6492 L25.03872,13.1556 L33.52272,13.1556 L33.52272,33.9996 L37.51752,33.9996 L37.51752,13.1556 L37.51752,0.6492 L33.52272,0.6492 L33.52272,0.6492 Z" id="Fill-6" fill="#121212" sketch:type="MSShapeGroup"></path>
                </g>
                <g id="Group-30" transform="translate(107.800000, 13.400000)">
                    <path d="M5.52072,0.95828 L5.52072,2.99948 L4.95672,2.99948 L4.95672,0.95828 L4.17912,0.95828 L4.17912,0.43748 L6.30192,0.43748 L6.30192,0.95828 L5.52072,0.95828 L5.52072,0.95828 Z" id="Fill-9" fill="#626262" sketch:type="MSShapeGroup"></path>
                    <path d="M8.1024,1.09772 L7.7628,1.92692 L8.4444,1.92692 L8.1024,1.09772 L8.1024,1.09772 Z M8.8776,2.99972 L8.6412,2.42372 L7.5612,2.42372 L7.3272,2.99972 L6.7524,2.99972 L7.8504,0.42212 L8.37,0.42212 L9.468,2.99972 L8.8776,2.99972 L8.8776,2.99972 Z" id="Fill-11" fill="#626262" sketch:type="MSShapeGroup"></path>
                    <path d="M8.37888,5.78636 L8.37888,7.82756 L7.81248,7.82756 L7.81248,5.78636 L7.03368,5.78636 L7.03368,5.26676 L9.15528,5.26676 L9.15528,5.78636 L8.37888,5.78636 L8.37888,5.78636 Z" id="Fill-17" fill="#626262" sketch:type="MSShapeGroup"></path>
                    <path d="M12.08328,6.54812 C12.08328,6.10892 11.76288,5.74292 11.30688,5.74292 C10.85448,5.74292 10.53648,6.10172 10.53648,6.53852 L10.53648,6.54812 C10.53648,6.98612 10.85928,7.35092 11.31288,7.35092 C11.76768,7.35092 12.08328,6.99332 12.08328,6.55532 L12.08328,6.54812 L12.08328,6.54812 Z M11.30688,7.87292 C10.51848,7.87292 9.94968,7.28372 9.94968,6.55532 L9.94968,6.54812 C9.94968,5.81972 10.52448,5.22212 11.31288,5.22212 C12.10608,5.22212 12.67248,5.81372 12.67248,6.53852 L12.67248,6.54812 C12.67248,7.27532 12.09768,7.87292 11.30688,7.87292 L11.30688,7.87292 L11.30688,7.87292 Z" id="Fill-19" fill="#626262" sketch:type="MSShapeGroup"></path>
                    <path d="M2.1504,10.63208 L2.1504,12.67328 L1.5852,12.67328 L1.5852,10.63208 L0.8064,10.63208 L0.8064,10.11248 L2.928,10.11248 L2.928,10.63208 L2.1504,10.63208 L2.1504,10.63208 Z" id="Fill-21" fill="#626262" sketch:type="MSShapeGroup"></path>
                    <path d="M4.72968,10.77152 L4.39008,11.60312 L5.06808,11.60312 L4.72968,10.77152 L4.72968,10.77152 Z M5.50608,12.67352 L5.27088,12.09992 L4.18968,12.09992 L3.95448,12.67352 L3.37968,12.67352 L4.47888,10.09472 L4.99728,10.09472 L6.09408,12.67352 L5.50608,12.67352 L5.50608,12.67352 Z" id="Fill-23" fill="#626262" sketch:type="MSShapeGroup"></path>
                    <path d="M11.5758,12.69224 L11.0838,12.69224 L10.5066,11.01704 L9.9282,12.69224 L9.4374,12.69224 L8.565,10.11344 L9.1662,10.11344 L9.6978,11.84744 L10.2726,10.10504 L10.7538,10.10504 L11.3286,11.84744 L11.859,10.11344 L12.4506,10.11344 L11.5758,12.69224 L11.5758,12.69224 Z" id="Fill-27" fill="#626262" sketch:type="MSShapeGroup"></path>
                    <path d="M7.0452,10.1132 L7.6128,10.1132 L7.6128,12.674 L7.0452,12.674 L7.0452,10.1132 L7.0452,10.1132 Z" id="Fill-25" fill="#626262" sketch:type="MSShapeGroup"></path>
                </g>
                <g id="Group-52" transform="translate(59.800000, 70.200000)">
                    <path d="M5.4528,1.35856 L5.4528,3.39976 L4.8888,3.39976 L4.8888,1.35856 L4.1112,1.35856 L4.1112,0.83776 L6.234,0.83776 L6.234,1.35856 L5.4528,1.35856 L5.4528,1.35856 Z" id="Fill-31" fill="#626262" sketch:type="MSShapeGroup"></path>
                    <path d="M8.03436,1.49812 L7.69476,2.32732 L8.37636,2.32732 L8.03436,1.49812 L8.03436,1.49812 Z M8.80956,3.40012 L8.57316,2.82412 L7.49316,2.82412 L7.25916,3.40012 L6.68436,3.40012 L7.78236,0.82132 L8.30196,0.82132 L9.39996,3.40012 L8.80956,3.40012 L8.80956,3.40012 Z" id="Fill-33" fill="#626262" sketch:type="MSShapeGroup"></path>
                    <path d="M10.33716,3.4 L10.33716,0.838 L10.89996,0.838 L10.89996,2.8888 L12.17556,2.8888 L12.17556,3.4 L10.33716,3.4 L10.33716,3.4 Z" id="Fill-35" fill="#626262" sketch:type="MSShapeGroup"></path>
                    <path d="M14.78208,3.4 L13.99008,2.3104 L13.69368,2.6176 L13.69368,3.4 L13.12848,3.4 L13.12848,0.838 L13.69368,0.838 L13.69368,1.9588 L14.72808,0.838 L15.41088,0.838 L14.36688,1.9252 L15.45888,3.4 L14.78208,3.4 L14.78208,3.4 Z" id="Fill-37" fill="#626262" sketch:type="MSShapeGroup"></path>
                    <path d="M8.31096,6.18676 L8.31096,8.22796 L7.74456,8.22796 L7.74456,6.18676 L6.96576,6.18676 L6.96576,5.66716 L9.08856,5.66716 L9.08856,6.18676 L8.31096,6.18676 L8.31096,6.18676 Z" id="Fill-39" fill="#626262" sketch:type="MSShapeGroup"></path>
                    <path d="M12.01524,6.94852 C12.01524,6.50932 11.69484,6.14332 11.23884,6.14332 C10.78644,6.14332 10.46844,6.50212 10.46844,6.93892 L10.46844,6.94852 C10.46844,7.38652 10.79124,7.75132 11.24484,7.75132 C11.69964,7.75132 12.01524,7.39372 12.01524,6.95572 L12.01524,6.94852 L12.01524,6.94852 Z M11.23884,8.27332 C10.45044,8.27332 9.88164,7.68412 9.88164,6.95572 L9.88164,6.94852 C9.88164,6.22012 10.45644,5.62372 11.24484,5.62372 C12.03804,5.62372 12.60444,6.21412 12.60444,6.93892 L12.60444,6.94852 C12.60444,7.67572 12.02964,8.27332 11.23884,8.27332 L11.23884,8.27332 L11.23884,8.27332 Z" id="Fill-41" fill="#626262" sketch:type="MSShapeGroup"></path>
                    <path d="M2.08248,11.03248 L2.08248,13.07368 L1.51728,13.07368 L1.51728,11.03248 L0.73848,11.03248 L0.73848,10.51288 L2.86008,10.51288 L2.86008,11.03248 L2.08248,11.03248 L2.08248,11.03248 Z" id="Fill-43" fill="#626262" sketch:type="MSShapeGroup"></path>
                    <path d="M4.66176,11.17192 L4.32216,12.00352 L5.00016,12.00352 L4.66176,11.17192 L4.66176,11.17192 Z M5.43816,13.07392 L5.20296,12.50032 L4.12176,12.50032 L3.88776,13.07392 L3.31176,13.07392 L4.41096,10.49512 L4.92936,10.49512 L6.02616,13.07392 L5.43816,13.07392 L5.43816,13.07392 Z" id="Fill-45" fill="#626262" sketch:type="MSShapeGroup"></path>
                    <path d="M18.3516,13.0738 L17.1108,11.4466 L17.1108,13.0738 L16.554,13.0738 L16.554,10.513 L17.0772,10.513 L18.2772,12.0898 L18.2772,10.513 L18.8292,10.513 L18.8292,13.0738 L18.3516,13.0738 L18.3516,13.0738 Z" id="Fill-51" fill="#626262" sketch:type="MSShapeGroup"></path>
                    <path d="M14.2524,11.17192 L13.9128,12.00352 L14.592,12.00352 L14.2524,11.17192 L14.2524,11.17192 Z M15.0276,13.07392 L14.7948,12.50032 L13.7124,12.50032 L13.4772,13.07392 L12.9024,13.07392 L14.0004,10.49512 L14.5212,10.49512 L15.618,13.07392 L15.0276,13.07392 L15.0276,13.07392 Z" id="Fill-50" fill="#626262" sketch:type="MSShapeGroup"></path>
                    <path d="M11.50788,13.09264 L11.01588,13.09264 L10.43868,11.41744 L9.86028,13.09264 L9.36948,13.09264 L8.49708,10.51384 L9.09828,10.51384 L9.62868,12.24784 L10.20468,10.50544 L10.68588,10.50544 L11.26068,12.24784 L11.79108,10.51384 L12.38268,10.51384 L11.50788,13.09264 L11.50788,13.09264 Z" id="Fill-49" fill="#626262" sketch:type="MSShapeGroup"></path>
                    <path d="M6.9768,10.5136 L7.5444,10.5136 L7.5444,13.0744 L6.9768,13.0744 L6.9768,10.5136 L6.9768,10.5136 Z" id="Fill-47" fill="#626262" sketch:type="MSShapeGroup"></path>
                </g>
                <g id="Group-59" transform="translate(98.600000, 58.000000)">
                    <path d="M18.902,19.15668 C14.9132,19.15668 11.6792,22.38948 11.6792,26.37948 C11.6792,30.36948 14.9132,33.59988 18.902,33.59988 C22.892,33.59988 26.1212,30.36948 26.1212,26.37948 C26.1212,22.38948 22.892,19.15668 18.902,19.15668" id="Fill-53" fill="#121212" sketch:type="MSShapeGroup"></path>
                    <path d="M16.79732,12.75588 L16.79732,0.24948 L8.46452,0.24948 L0.13172,0.24948 L0.13172,12.75588 L0.13172,33.59988 L8.46452,33.59988 L8.46452,12.75588 L16.79732,12.75588 L16.79732,12.75588 Z" id="Fill-55" fill="#121212" sketch:type="MSShapeGroup"></path>
                </g>
                <g id="Group-30" transform="translate(9.800000, 13.400000)">
                    <path d="M10.40508,2.9996 L10.40508,0.4376 L10.96788,0.4376 L10.96788,2.4884 L12.24348,2.4884 L12.24348,2.9996 L10.40508,2.9996 L10.40508,2.9996 Z" id="Fill-13" fill="#626262" sketch:type="MSShapeGroup"></path>
                    <path d="M14.85,2.9996 L14.058,1.91 L13.7616,2.2172 L13.7616,2.9996 L13.1964,2.9996 L13.1964,0.4376 L13.7616,0.4376 L13.7616,1.5584 L14.796,0.4376 L15.4788,0.4376 L14.4348,1.5248 L15.5268,2.9996 L14.85,2.9996 L14.85,2.9996 Z" id="Fill-15" fill="#626262" sketch:type="MSShapeGroup"></path>
                    <path d="M12.08328,6.54812 C12.08328,6.10892 11.76288,5.74292 11.30688,5.74292 C10.85448,5.74292 10.53648,6.10172 10.53648,6.53852 L10.53648,6.54812 C10.53648,6.98612 10.85928,7.35092 11.31288,7.35092 C11.76768,7.35092 12.08328,6.99332 12.08328,6.55532 L12.08328,6.54812 L12.08328,6.54812 Z M11.30688,7.87292 C10.51848,7.87292 9.94968,7.28372 9.94968,6.55532 L9.94968,6.54812 C9.94968,5.81972 10.52448,5.22212 11.31288,5.22212 C12.10608,5.22212 12.67248,5.81372 12.67248,6.53852 L12.67248,6.54812 C12.67248,7.27532 12.09768,7.87292 11.30688,7.87292 L11.30688,7.87292 L11.30688,7.87292 Z" id="Fill-19" fill="#626262" sketch:type="MSShapeGroup"></path>
                    <path d="M18.41952,12.67352 L17.17872,11.04632 L17.17872,12.67352 L16.62192,12.67352 L16.62192,10.11272 L17.14392,10.11272 L18.34392,11.68952 L18.34392,10.11272 L18.89712,10.11272 L18.89712,12.67352 L18.41952,12.67352 L18.41952,12.67352 Z" id="Fill-29" fill="#626262" sketch:type="MSShapeGroup"></path>
                    <path d="M14.32032,10.77152 L13.98072,11.60312 L14.65992,11.60312 L14.32032,10.77152 L14.32032,10.77152 Z M15.09432,12.67352 L14.86272,12.09992 L13.78032,12.09992 L13.54392,12.67352 L12.97032,12.67352 L14.06832,10.09472 L14.58912,10.09472 L15.68592,12.67352 L15.09432,12.67352 L15.09432,12.67352 Z" id="Fill-28" fill="#626262" sketch:type="MSShapeGroup"></path>
                    <path d="M11.5758,12.69224 L11.0838,12.69224 L10.5066,11.01704 L9.9282,12.69224 L9.4374,12.69224 L8.565,10.11344 L9.1662,10.11344 L9.6978,11.84744 L10.2726,10.10504 L10.7538,10.10504 L11.3286,11.84744 L11.859,10.11344 L12.4506,10.11344 L11.5758,12.69224 L11.5758,12.69224 Z" id="Fill-27" fill="#626262" sketch:type="MSShapeGroup"></path>
                </g>
                <g id="Group-59" transform="translate(0.600000, 58.000000)">
                    <path d="M18.902,19.15668 C14.9132,19.15668 11.6792,22.38948 11.6792,26.37948 C11.6792,30.36948 14.9132,33.59988 18.902,33.59988 C22.892,33.59988 26.1212,30.36948 26.1212,26.37948 C26.1212,22.38948 22.892,19.15668 18.902,19.15668" id="Fill-53" fill="#121212" sketch:type="MSShapeGroup"></path>
                    <path d="M33.65468,0.2496 L25.17068,0.2496 L25.17068,12.756 L33.65468,12.756 L33.65468,33.6 L37.64948,33.6 L37.64948,12.756 L37.64948,0.2496 L33.65468,0.2496 L33.65468,0.2496 Z" id="Fill-57" fill="#121212" sketch:type="MSShapeGroup"></path>
                </g>
            </g>
        </g>
    </g>
</svg>