<?xml version="1.0" encoding="UTF-8" standalone="no"?>
<svg width="96px" height="96px" viewBox="0 0 96 96" version="1.1" xmlns="http://www.w3.org/2000/svg" xmlns:xlink="http://www.w3.org/1999/xlink" xmlns:sketch="http://www.bohemiancoding.com/sketch/ns">
    <!-- Generator: Sketch 3.4.2 (15855) - http://www.bohemiancoding.com/sketch -->
    <title>boven</title>
    <desc>Created with Sketch.</desc>
    <defs></defs>
    <g id="Page-1" stroke="none" stroke-width="1" fill="none" fill-rule="evenodd" sketch:type="MSPage">
        <g id="boven" sketch:type="MSArtboardGroup" fill="#FFFFFF">
            <g id="Page-1" sketch:type="MSLayerGroup" transform="translate(2.000000, 30.500000)">
                <path d="M29.6030264,17.9750978 C26.6902335,17.9750978 24.299652,15.4793445 24.299652,12.5164987 C24.299652,9.52710661 26.4571938,7.16104493 29.5511498,7.16104493 C32.4355727,7.16104493 34.9039692,9.55304493 34.9039692,12.4119348 C34.9039692,15.5571595 32.5920132,17.9750978 29.6030264,17.9750978 M29.6030264,4.17205815 C25.0547004,4.17205815 21.3106652,7.94061322 21.3106652,12.5164987 C21.3106652,17.0127454 25.0806388,20.7563753 29.6030264,20.7817057 C34.4382952,20.8084546 37.9211233,17.0394943 37.9211233,12.4119348 C37.9211233,7.91568811 34.1254141,4.17205815 29.6030264,4.17205815" id="Fill-1" sketch:type="MSShapeGroup"></path>
                <path d="M45.2306855,29.2518661 C45.2306855,29.1898573 45.2148793,29.1414256 45.1822537,29.1063683 C45.1500335,29.0715137 45.1040335,29.0540863 45.0444564,29.0540863 C44.912941,29.0540863 44.8172934,29.1736458 44.757311,29.4119542 C44.7246855,29.5288793 44.6969233,29.6206767 44.6717956,29.6875489 C44.5826326,29.9408529 44.458615,30.1797692 44.2993374,30.4032846 C44.1400599,30.6263947 44.0608264,30.7518308 44.0608264,30.779593 C44.0608264,30.8266062 44.0802802,30.8675401 44.1206062,30.9025974 C44.1605269,30.937452 44.2071348,30.954474 44.2618485,30.954474 C44.331963,30.954474 44.4166678,30.8948969 44.5171789,30.7759454 C44.6180952,30.6565885 44.7642009,30.4365181 44.9548881,30.1165445 C45.1163947,30.2604211 45.2466943,30.4332758 45.3461921,30.6359189 C45.4456899,30.8385621 45.5391084,30.9396811 45.6260423,30.9396811 C45.7103419,30.9396811 45.8122714,30.8722009 45.9314256,30.7366326 C46.0503771,30.6010643 46.1958749,30.3895048 46.3671084,30.1013463 C46.5087559,30.2478573 46.6402714,30.419496 46.7622626,30.615452 C46.884659,30.8116106 46.9754432,30.9098925 47.0380599,30.9098925 C47.100474,30.9098925 47.1523507,30.885778 47.1942978,30.8373463 C47.2362449,30.7889145 47.2577251,30.7287295 47.2577251,30.6565885 C47.2577251,30.5471612 47.0704828,30.3064211 46.6951877,29.9335577 C46.623452,29.8614167 46.5675225,29.8056899 46.5273991,29.7661744 C46.5695489,29.6518837 46.602985,29.5505621 46.6281128,29.4622097 C46.6530379,29.3742626 46.6656018,29.3090115 46.6656018,29.2664564 C46.6656018,29.2170115 46.6445269,29.1756722 46.6037956,29.1420335 C46.562659,29.1081921 46.5132141,29.091778 46.456474,29.091778 C46.3419806,29.091778 46.2357956,29.2502449 46.1379189,29.5688 C46.0402449,29.8867471 45.8929233,30.1704476 45.6961568,30.4217251 C45.6296899,30.3048 45.5502537,30.1905093 45.4582537,30.0770291 C45.3658485,29.9639542 45.2539894,29.8441921 45.1226767,29.7175401 C45.1625974,29.5781216 45.1907648,29.473963 45.2065709,29.404659 C45.2225797,29.3351524 45.2306855,29.2838837 45.2306855,29.2518661" id="Fill-3" sketch:type="MSShapeGroup"></path>
                <path d="M49.3516167,30.3509621 L48.2824714,30.3509621 L48.2824714,29.4046185 C48.2824714,29.2830326 48.3063833,29.1989357 48.3554229,29.1529357 C48.4032467,29.1069357 48.4909912,29.084037 48.6176432,29.084037 L49.3516167,29.084037 L49.3516167,30.3509621 Z M49.3516167,32.0614731 L48.2824714,32.0614731 L48.2824714,30.7422661 L49.3516167,30.7422661 L49.3516167,32.0614731 Z M49.3516167,33.9614555 L48.66263,33.9614555 C48.5106476,33.9614555 48.4097313,33.9371383 48.3590705,33.8889093 C48.3073965,33.8402749 48.2824714,33.7503013 48.2824714,33.6185833 L48.2824714,32.4414291 L49.3516167,32.4414291 L49.3516167,33.9614555 Z M50.6148943,33.9614555 L49.7615639,33.9614555 L49.7615639,32.4414291 L50.4096167,32.4414291 C50.4768943,32.4414291 50.5283656,32.4248123 50.562815,32.3927947 C50.5970617,32.3609797 50.6148943,32.3131559 50.6148943,32.2515524 C50.6148943,32.1942044 50.5970617,32.1482044 50.5607885,32.1133498 C50.5247181,32.0780899 50.4740573,32.0614731 50.4096167,32.0614731 L49.7615639,32.0614731 L49.7615639,30.7424687 L50.4325154,30.7424687 C50.4920925,30.7424687 50.5403216,30.7250414 50.5774053,30.6897815 C50.6148943,30.6549269 50.6335374,30.6117639 50.6335374,30.5596846 C50.6335374,30.4948388 50.6161101,30.4439753 50.579837,30.406689 C50.5429559,30.3698079 50.4947269,30.3509621 50.4325154,30.3509621 L49.7615639,30.3509621 L49.7615639,29.084037 L50.562815,29.084037 C50.6325242,29.084037 50.686022,29.0680282 50.7227004,29.0358079 C50.7601894,29.0035877 50.7792379,28.9559665 50.7792379,28.8941604 C50.7792379,28.8343806 50.7591762,28.7877727 50.7210793,28.7541339 C50.6829824,28.7211031 50.6296872,28.7040811 50.562815,28.7040811 L49.7469736,28.7040811 C49.7885154,28.6370062 49.8472819,28.5452088 49.921652,28.4284863 C50.1206476,28.1301956 50.2197401,27.9316053 50.2197401,27.8321075 C50.2197401,27.7798256 50.1992731,27.7368652 50.1585419,27.7018079 C50.1176079,27.6669533 50.0667445,27.6497286 50.00737,27.6497286 C49.8912555,27.6497286 49.7812203,27.7666537 49.6798987,27.9994907 C49.5601366,28.2681956 49.4344978,28.5028564 49.303793,28.7040811 L48.4350617,28.7040811 C48.4648502,28.6345744 48.5059868,28.5401427 48.5580661,28.4209885 C48.6950529,28.1156053 48.763141,27.9275524 48.763141,27.8582485 C48.763141,27.7964423 48.7400396,27.7447683 48.6942423,27.7036317 C48.6484449,27.6624952 48.5915022,27.6420282 48.5244273,27.6420282 C48.4006123,27.6420282 48.2936167,27.7751648 48.2042511,28.04083 C48.1268414,28.2592793 48.0538899,28.4446978 47.9843833,28.5962749 C47.8251057,28.9336758 47.6544802,29.2459489 47.4721013,29.5330943 C47.2895198,29.820037 47.1983304,29.9683718 47.1983304,29.978504 C47.1983304,30.0232881 47.2157577,30.0644247 47.2504097,30.1033322 C47.2846564,30.142037 47.3259956,30.1606802 47.3732115,30.1606802 C47.4250881,30.1606802 47.4842599,30.1288652 47.5501189,30.0640194 C47.6161806,29.9995789 47.7150705,29.871711 47.8463833,29.6802132 L47.8463833,33.8834379 C47.8463833,34.0396758 47.9031233,34.15883 48.0159956,34.2406978 C48.1286652,34.3227683 48.2909824,34.3637022 48.5019339,34.3637022 L50.6148943,34.3637022 C50.6819692,34.3637022 50.7332379,34.345667 50.7697137,34.3100018 C50.8059868,34.2739313 50.8236167,34.2236758 50.8236167,34.15883 C50.8236167,34.1014819 50.8039604,34.0544687 50.7658634,34.017385 C50.7275639,33.9800987 50.6773084,33.9614555 50.6148943,33.9614555 L50.6148943,33.9614555 Z" id="Fill-5" sketch:type="MSShapeGroup"></path>
                <path d="M47.1309515,31.7928291 L45.9537974,31.7928291 L45.9537974,31.3273577 C45.9537974,31.2600802 45.934141,31.2118511 45.8956388,31.1816573 C45.8575419,31.1520714 45.7959383,31.1372784 45.7116388,31.1372784 C45.6443612,31.1372784 45.5912687,31.1540978 45.5531718,31.1875339 C45.5148722,31.2211727 45.4952159,31.2673753 45.4952159,31.3273577 L45.4952159,31.7928291 L44.220793,31.7928291 C44.1735771,31.7928291 44.1350749,31.8112696 44.105489,31.8471374 C44.0757004,31.8828026 44.0607048,31.9320449 44.0607048,31.9942564 C44.0607048,32.0463357 44.0746872,32.0886881 44.1034626,32.1209084 C44.1324405,32.152926 44.1715507,32.1693401 44.220793,32.1693401 L45.4952159,32.1693401 C45.2565022,32.5667233 44.9468634,32.9331022 44.565489,33.268274 C44.1847225,33.6036485 43.9940352,33.7989965 43.9940352,33.8535075 C43.9940352,33.9033577 44.0132863,33.9461154 44.053207,33.9821859 C44.093533,34.0178511 44.1419648,34.036089 44.1985022,34.036089 C44.3225198,34.036089 44.4978062,33.9361859 44.7221322,33.7361771 C44.9468634,33.5359656 45.2048282,33.2496308 45.4952159,32.8773753 L45.4952159,34.2523093 C45.4952159,34.3193841 45.5156828,34.3690317 45.5568194,34.401252 C45.5979559,34.4332696 45.6593568,34.4492784 45.7412247,34.4492784 C45.8052599,34.4492784 45.8575419,34.4314458 45.8956388,34.3953753 C45.934141,34.3597101 45.9537974,34.3118863 45.9537974,34.2523093 L45.9537974,32.9217542 C46.2097357,33.1031198 46.4391278,33.3191374 46.6409604,33.5700097 C46.8434009,33.8212872 46.9678238,33.9463181 47.0152423,33.9463181 C47.0794802,33.9463181 47.1331806,33.9226088 47.1735066,33.8755956 C47.2148458,33.828785 47.2351101,33.7677894 47.2351101,33.6930141 C47.2351101,33.5493401 47.1236564,33.3742564 46.8997357,33.167763 C46.6760176,32.9616749 46.3607048,32.7430229 45.9537974,32.5120097 L45.9537974,32.1693401 L47.1309515,32.1693401 C47.1858678,32.1693401 47.230652,32.1511022 47.2667225,32.1152344 C47.3031982,32.0793665 47.3212335,32.0327586 47.3212335,31.9752079 C47.3212335,31.9211022 47.3031982,31.876926 47.2685463,31.8432872 C47.2342996,31.8096485 47.1878943,31.7928291 47.1309515,31.7928291" id="Fill-7" sketch:type="MSShapeGroup"></path>
                <path d="M47.2837242,28.5661621 C47.2837242,28.5088141 47.2679181,28.4642326 47.2350899,28.432215 C47.202667,28.3999947 47.1601119,28.3835806 47.104993,28.3835806 L45.9314863,28.3835806 L45.9314863,27.7951048 C45.9436449,27.733096 45.9304731,27.6846643 45.8921736,27.6498097 C45.853874,27.6147524 45.7959181,27.5975278 45.7189137,27.5975278 C45.644341,27.5975278 45.5849665,27.6157656 45.5399797,27.6514308 C45.4951956,27.6875013 45.4729048,27.7351225 45.4729048,27.7951048 L45.4729048,28.3835806 L44.2059797,28.3835806 C44.1640326,28.3835806 44.1277595,28.4018185 44.0981736,28.437889 C44.0681824,28.4733515 44.0533894,28.5193515 44.0533894,28.5736599 C44.0533894,28.6310079 44.0671692,28.6757921 44.0941207,28.707607 C44.1214775,28.7398273 44.1585612,28.7562414 44.2059797,28.7562414 L47.104993,28.7562414 C47.167407,28.7562414 47.2117859,28.7412458 47.2409665,28.7114573 C47.2697419,28.6816687 47.2837242,28.633237 47.2837242,28.5661621" id="Fill-9" sketch:type="MSShapeGroup"></path>
                <path d="M56.6257974,28.8008634 L54.5353304,28.8008634 C54.4712952,28.8008634 54.4204317,28.8245623 54.3829427,28.8717277 C54.3452511,28.9184285 54.3272159,28.9804638 54.3272159,29.0569043 C54.3272159,29.1254452 54.3476828,29.1832984 54.3886167,29.2306961 C54.429348,29.2771646 54.4789956,29.3008634 54.5353304,29.3008634 L56.6257974,29.3008634 C56.6811189,29.3008634 56.7254978,29.2766999 56.7619736,29.2283727 C56.7984493,29.1798133 56.8158767,29.1168486 56.8158767,29.0401757 C56.8158767,28.9746553 56.7964229,28.9184285 56.7581233,28.8717277 C56.7198238,28.8245623 56.6752423,28.8008634 56.6257974,28.8008634" id="Fill-11" sketch:type="MSShapeGroup"></path>
                <path d="M54.7256326,30.3254273 L56.3796062,30.3254273 C56.4294564,30.3254273 56.4701877,30.3017394 56.5007868,30.2545959 C56.5317912,30.2076846 56.5475974,30.1456781 56.5475974,30.0690409 C56.5475974,30.0007641 56.530778,29.94317 56.4971392,29.8957942 C56.4639057,29.848883 56.4247956,29.8254273 56.3796062,29.8254273 L54.7256326,29.8254273 C54.6632185,29.8254273 54.6127604,29.8474896 54.5748661,29.8920785 C54.5365665,29.9359707 54.5167075,29.9919392 54.5167075,30.0604482 C54.5167075,30.1433558 54.5353507,30.2076846 54.5728396,30.2545959 C54.6103286,30.3017394 54.6611921,30.3254273 54.7256326,30.3254273" id="Fill-13" sketch:type="MSShapeGroup"></path>
                <path d="M56.130274,33.7228837 C56.130274,33.8049542 56.1156837,33.8639233 56.0858952,33.9001965 C56.0557013,33.936267 56.0062564,33.9540996 55.9363445,33.9540996 L55.1502916,33.9540996 C55.0712608,33.9540996 55.0157366,33.9378881 54.9847322,33.9054652 C54.9539304,33.8734476 54.9381242,33.8148837 54.9381242,33.7305841 L54.9381242,32.5345841 C54.9381242,32.452311 54.954741,32.3951656 54.9881771,32.363148 C55.0216132,32.3309278 55.0789612,32.3149189 55.1577894,32.3149189 L55.9363445,32.3149189 C56.0062564,32.3149189 56.0557013,32.3309278 56.0858952,32.363148 C56.1156837,32.3951656 56.130274,32.452311 56.130274,32.5345841 L56.130274,33.7228837 Z M56.1191286,31.9009189 L54.9454194,31.9009189 C54.7989084,31.9009189 54.6894811,31.9351656 54.6175427,32.003659 C54.545807,32.0717471 54.5095339,32.1783374 54.5095339,32.3220115 L54.5095339,33.9461965 C54.5095339,34.1105401 54.5391198,34.220778 54.5988996,34.278126 C54.6586793,34.3352714 54.7739833,34.3636414 54.9454194,34.3636414 L56.1191286,34.3636414 C56.2636132,34.3636414 56.3704062,34.3289894 56.4415339,34.2592802 C56.5122564,34.1901789 56.5475163,34.085615 56.5475163,33.9461965 L56.5475163,32.3220115 C56.5475163,32.1805665 56.5122564,32.0745841 56.4415339,32.0052802 C56.3704062,31.9357736 56.2636132,31.9009189 56.1191286,31.9009189 L56.1191286,31.9009189 Z" id="Fill-15" sketch:type="MSShapeGroup"></path>
                <path d="M54.597096,27.8931955 C54.5662943,27.939131 54.5504881,27.9987751 54.5504881,28.0721276 C54.5504881,28.1373032 54.5673075,28.1957448 54.6009463,28.2469713 C54.6341797,28.2984384 54.6706555,28.3248934 54.7105762,28.3248934 L56.3874485,28.3248934 C56.4322326,28.3248934 56.4703295,28.3006029 56.5009286,28.2537053 C56.5317304,28.2068078 56.5475366,28.1490877 56.5475366,28.0810261 C56.5475366,28.0043066 56.5317304,27.9422575 56.5009286,27.89536 C56.4703295,27.8484624 56.4295982,27.8248934 56.3795454,27.8248934 L54.7105762,27.8248934 C54.6657921,27.8248934 54.6276952,27.8475004 54.597096,27.8931955" id="Fill-17" sketch:type="MSShapeGroup"></path>
                <path d="M56.3950476,30.83917 L54.7033824,30.83917 C54.6557612,30.83917 54.6168537,30.8626475 54.5838229,30.9098349 C54.5509947,30.9565573 54.5353912,31.0160645 54.5353912,31.0867293 C54.5353912,31.1580915 54.5509947,31.2178311 54.5838229,31.2666456 C54.6168537,31.3152277 54.6557612,31.33917 54.7033824,31.33917 L56.4096379,31.33917 C56.457259,31.33917 56.4955586,31.3156926 56.5253471,31.2685052 C56.5551357,31.2215503 56.5699286,31.1613458 56.5699286,31.0867293 C56.5699286,31.0186215 56.5522987,30.9600441 56.5158229,30.9116945 C56.4795498,30.8633448 56.4396291,30.83917 56.3950476,30.83917" id="Fill-19" sketch:type="MSShapeGroup"></path>
                <path d="M60.1282211,32.4898 C60.0585119,32.4898 60.0082564,32.510267 59.9758335,32.5514035 C59.9430053,32.5921348 59.9269965,32.662452 59.9269965,32.7617471 L59.9269965,32.9072449 C59.9269965,33.4191216 59.8759304,33.7271392 59.7746088,33.8329189 C59.6724767,33.9382934 59.4469348,33.9915885 59.0961595,33.9915885 C58.8803445,33.9915885 58.7281595,33.9613947 58.6416308,33.9001965 C58.5548996,33.8389982 58.5113313,33.7378793 58.5113313,33.5962317 L58.5113313,31.5023198 C58.5113313,31.4449718 58.4890405,31.3993771 58.4440537,31.3645225 C58.3992696,31.3292626 58.3403004,31.3122405 58.2653225,31.3122405 C58.2106088,31.3122405 58.1637982,31.331289 58.125904,31.3701965 C58.0874018,31.408496 58.067948,31.4526722 58.067948,31.5023198 L58.067948,33.8238 C58.067948,34.0300907 58.1360361,34.1796414 58.2726176,34.272452 C58.4100097,34.3656678 58.6349436,34.4120731 58.9506617,34.4120731 C59.5768291,34.4120731 59.965296,34.3421612 60.115252,34.2017295 C60.2654106,34.0615004 60.3407938,33.6783022 60.3407938,33.0523374 C60.3407938,32.8138264 60.3249877,32.6606282 60.2943885,32.5921348 C60.2637894,32.5236414 60.2074546,32.4898 60.1282211,32.4898" id="Fill-21" sketch:type="MSShapeGroup"></path>
                <path d="M57.3784952,31.4279093 C57.2789974,31.4279093 57.2210414,31.5267991 57.2036141,31.7257947 C57.2060458,31.7387639 57.2060458,31.7482881 57.2036141,31.7555833 C57.161667,32.4038388 57.0700722,32.9963674 56.9314643,33.5329665 C56.9091736,33.6075392 56.8980282,33.6509048 56.8980282,33.6634687 C56.8980282,33.7358123 56.9211295,33.7955921 56.968548,33.8440238 C57.0161692,33.8924555 57.0739225,33.9167727 57.1438344,33.9167727 C57.2828476,33.9167727 57.3918696,33.7362176 57.4696846,33.3744996 C57.5481075,33.0131868 57.5872176,32.5047551 57.5872176,31.8485965 C57.5872176,31.6945877 57.5714115,31.5861736 57.5385833,31.5229489 C57.5061604,31.4595216 57.4530678,31.4279093 57.3784952,31.4279093" id="Fill-23" sketch:type="MSShapeGroup"></path>
                <path d="M61.1124388,32.6350546 C61.0747471,32.419037 61.0394872,32.2289577 61.0056458,32.0648167 C60.972007,31.9008784 60.9444476,31.7805084 60.9225621,31.703504 C60.8844652,31.5867815 60.8408969,31.4972132 60.7916546,31.4352044 C60.742007,31.3733982 60.688104,31.3419885 60.6311612,31.3419885 C60.5693551,31.3419885 60.5233551,31.3590106 60.4935665,31.3926493 C60.4633727,31.4258828 60.4491877,31.4761383 60.4491877,31.5430106 C60.4491877,31.5604379 60.4895137,31.7726053 60.5719894,32.1784996 C60.6536546,32.5847991 60.7033022,32.9850194 60.7207295,33.3801736 C60.7235665,33.3925348 60.7235665,33.411178 60.7207295,33.4361031 C60.7381568,33.709874 60.8177956,33.8460502 60.9588352,33.8460502 C61.041311,33.8460502 61.1065621,33.8164643 61.1551965,33.7585084 C61.2034256,33.7003498 61.2273374,33.6201031 61.2273374,33.5181736 C61.2273374,33.3740943 61.1936987,33.1098476 61.1268264,32.7244203 C61.1193286,32.6849048 61.1144652,32.6553189 61.1124388,32.6350546" id="Fill-25" sketch:type="MSShapeGroup"></path>
                <path d="M59.256896,31.4575965 C59.1845524,31.1520106 59.087689,30.9994203 58.9659004,30.9994203 C58.9091604,30.9994203 58.8643762,31.0178608 58.831548,31.0551471 C58.7993278,31.0924335 58.7835216,31.1432969 58.7835216,31.2079401 C58.9071339,31.7943894 58.981504,32.2385833 59.007037,32.5417374 C59.0114952,32.628874 59.0167639,32.7451912 59.0216273,32.8919048 C59.0262881,33.2177551 59.1002529,33.3800722 59.2414952,33.3800722 C59.3306581,33.3800722 59.3969225,33.3545392 59.4390722,33.3038784 C59.4806141,33.2528123 59.5022969,33.1737815 59.5022969,33.0673938 C59.5022969,32.9308123 59.4806141,32.7099313 59.4374511,32.4059665 C59.3932749,32.1017991 59.3355216,31.798037 59.2635833,31.4948828 L59.256896,31.4575965 Z" id="Fill-27" sketch:type="MSShapeGroup"></path>
                <path d="M57.1288388,28.5513286 C57.0919577,28.5936811 57.0729093,28.6443419 57.0729093,28.7041216 C57.0729093,28.7689674 57.0907419,28.821452 57.1249885,28.8625885 C57.1592352,28.9033198 57.204222,28.9239894 57.2591383,28.9239894 L58.8316493,28.9239894 L58.8316493,30.2279982 L57.3714026,30.2279982 C57.3160811,30.2279982 57.2676493,30.2508969 57.2238784,30.2968969 C57.1801075,30.3430996 57.1586273,30.3968 57.1586273,30.4590115 C57.1586273,30.5210203 57.1784863,30.572289 57.2180018,30.6118044 C57.2583278,30.6515225 57.3089885,30.6713815 57.3714026,30.6713815 L60.9225216,30.6713815 C60.9666978,30.6713815 61.0056053,30.649496 61.0394467,30.606333 C61.0728828,30.5629674 61.0894996,30.5112934 61.0894996,30.4517163 C61.0894996,30.3895048 61.0720722,30.336615 61.0374203,30.293452 C61.0031736,30.2496811 60.9636581,30.2279982 60.9225216,30.2279982 L59.2863806,30.2279982 L59.2863806,28.9239894 L60.9962837,28.9239894 C61.0516053,28.9239894 61.0965921,28.904941 61.1322573,28.8660335 C61.168733,28.8275313 61.1867683,28.7784916 61.1867683,28.7187119 C61.1867683,28.6569057 61.1671119,28.6030026 61.1267859,28.5568 C61.0870678,28.5108 61.0443101,28.488104 60.9962837,28.488104 L59.2863806,28.488104 L59.2863806,27.832148 C59.2863806,27.7798661 59.265711,27.7352846 59.2251824,27.6982009 C59.1842485,27.6607119 59.1307507,27.6420687 59.0663101,27.6420687 C58.9945744,27.6420687 58.9349974,27.6607119 58.8896053,27.6982009 C58.8438079,27.7352846 58.8209093,27.7798661 58.8209093,27.832148 L58.8316493,28.488104 L57.2591383,28.488104 C57.2100987,28.488104 57.1659225,28.5087736 57.1288388,28.5513286" id="Fill-29" sketch:type="MSShapeGroup"></path>
                <path d="M66.8361357,29.6207374 C66.7739242,29.6207374 66.7287348,29.6057419 66.7017833,29.5759533 C66.6750344,29.5461648 66.6614573,29.4989489 66.6614573,29.4343057 L66.6614573,29.1773542 C66.6614573,29.1102793 66.6730079,29.0642793 66.6965145,29.0395568 C66.7200211,29.0148344 66.7662238,29.0020678 66.8361357,29.0020678 L69.1014837,29.0020678 C69.1689639,29.0020678 69.2141533,29.0132132 69.2396863,29.0357066 C69.2646115,29.0579974 69.27677,29.1050106 69.27677,29.1773542 L69.27677,29.4343057 L69.27677,29.5054335 C69.27677,29.5423145 69.2617744,29.5704819 69.2321885,29.5907463 C69.2024,29.6110106 69.1582238,29.6207374 69.1014837,29.6207374 L66.8361357,29.6207374 Z M70.1151048,30.4294863 L68.1849286,30.4294863 L68.1849286,29.963407 L69.3138537,29.963407 C69.4360476,29.963407 69.5244,29.9362529 69.5805322,29.8813366 C69.636259,29.8270282 69.6646291,29.742526 69.6646291,29.6280326 L69.6646291,29.0095656 C69.6646291,28.8977066 69.6336247,28.8101648 69.5710079,28.7469401 C69.5085938,28.6835128 69.4230784,28.6519004 69.3138537,28.6519004 L66.6981357,28.6519004 C66.5392634,28.6519004 66.431052,28.6780414 66.3724881,28.7301207 C66.3137216,28.7824026 66.2847436,28.8829137 66.2847436,29.032059 L66.2847436,29.5873013 C66.2847436,29.7362441 66.3131137,29.8363498 66.3686379,29.8868079 C66.4243648,29.9376714 66.5348053,29.963407 66.6981357,29.963407 L67.7751841,29.963407 L67.7751841,30.4294863 L65.8115718,30.4294863 C65.7716511,30.4294863 65.7359859,30.446711 65.7051841,30.481363 C65.6743824,30.5162176 65.6591841,30.5597859 65.6591841,30.6118652 C65.6591841,30.6590811 65.6743824,30.700015 65.7051841,30.734667 C65.7359859,30.7699269 65.7716511,30.7871515 65.8115718,30.7871515 L70.1151048,30.7871515 C70.1550256,30.7871515 70.1884617,30.7699269 70.217237,30.734667 C70.2466203,30.700015 70.2604,30.6590811 70.2604,30.6118652 C70.2604,30.5575568 70.2466203,30.5129753 70.2192634,30.4795392 C70.1925145,30.4459004 70.1566467,30.4294863 70.1151048,30.4294863 L70.1151048,30.4294863 Z" id="Fill-31" sketch:type="MSShapeGroup"></path>
                <path d="M70.7039656,33.4511595 C70.7039656,33.6572476 70.6711374,33.7926132 70.6066969,33.8572564 C70.5426617,33.9218996 70.4166176,33.9539172 70.2305912,33.9539172 L65.6996925,33.9539172 C65.5183269,33.9539172 65.3949172,33.9192652 65.3308819,33.8495559 C65.2666441,33.7804546 65.2338159,33.6471154 65.2338159,33.4511595 L65.2338159,28.659459 C65.2338159,28.4633004 65.2636044,28.3338115 65.3235868,28.2718026 C65.3829612,28.2099965 65.5088026,28.1787894 65.6996925,28.1787894 L70.2305912,28.1787894 C70.4062828,28.1787894 70.5298952,28.2120229 70.5994018,28.2795031 C70.669111,28.346578 70.7039656,28.47323 70.7039656,28.659459 L70.7039656,33.4511595 Z M70.3833841,27.742904 L65.5357542,27.742904 C65.270089,27.742904 65.0727145,27.8067366 64.945252,27.934807 C64.8175868,28.0626749 64.7529436,28.2606573 64.7529436,28.5287542 L64.7529436,33.6487366 C64.7529436,33.8793445 64.8232608,34.0607101 64.9618687,34.1920229 C65.1004767,34.3245515 65.2925824,34.3900053 65.5357542,34.3900053 L70.3833841,34.3900053 C70.6636396,34.3900053 70.8646617,34.3326573 70.9870581,34.2185692 C71.1090493,34.1044811 71.169437,33.9144018 71.169437,33.6487366 L71.169437,28.5287542 C71.169437,28.2434326 71.1090493,28.0407894 70.9888819,27.9218379 C70.8687145,27.8024811 70.666274,27.742904 70.3833841,27.742904 L70.3833841,27.742904 Z" id="Fill-33" sketch:type="MSShapeGroup"></path>
                <path d="M69.4739621,32.9552511 C69.4739621,33.0200969 69.4620062,33.0669075 69.4366758,33.0950749 C69.411548,33.1234449 69.3706141,33.1380352 69.3136714,33.1380352 L66.66857,33.1380352 C66.5867022,33.1380352 66.5315833,33.1268899 66.5030106,33.1043965 C66.47383,33.0819031 66.4596449,33.0324581 66.4596449,32.9552511 L66.4596449,31.6328018 C66.4596449,31.5604581 66.4720062,31.5150661 66.4971339,31.4950044 C66.5222617,31.4747401 66.5787991,31.4650132 66.66857,31.4650132 L69.2990811,31.4650132 C69.3663586,31.4650132 69.4107374,31.4743348 69.4334335,31.4927753 C69.4557242,31.5114185 69.466667,31.5430308 69.466667,31.587815 C69.4715304,31.6127401 69.4739621,31.6328018 69.4739621,31.6475947 L69.4739621,32.9552511 Z M69.5039533,31.1223436 L66.4673454,31.1223436 C66.3226581,31.1223436 66.2180943,31.1539559 66.1506141,31.2173833 C66.0835392,31.2806079 66.0501031,31.3815242 66.0501031,31.5209427 L66.0501031,33.059815 C66.0501031,33.2237533 66.0827286,33.3350044 66.1467639,33.3933656 C66.2110018,33.4513216 66.3293454,33.4809075 66.5007815,33.4809075 L69.5039533,33.4809075 C69.6502617,33.4809075 69.7507727,33.453348 69.8058916,33.398837 C69.8610106,33.344326 69.8877595,33.243815 69.8877595,33.0971013 L69.8877595,31.5209427 C69.8877595,31.3742291 69.8593894,31.2710837 69.8022441,31.2117093 C69.7450987,31.1521322 69.6458035,31.1223436 69.5039533,31.1223436 L69.5039533,31.1223436 Z" id="Fill-35" sketch:type="MSShapeGroup"></path>
                <path d="M68.5057533,32.4337894 C68.5057533,32.4708731 68.494,32.4992432 68.4717093,32.5197101 C68.4496211,32.5393665 68.4171982,32.549296 68.3750485,32.549296 L67.5737974,32.549296 C67.5245551,32.549296 67.4870661,32.5403797 67.4641674,32.5233577 C67.4404581,32.506133 67.4285022,32.4761419 67.4285022,32.4337894 L67.4285022,32.1768379 C67.4285022,32.1340802 67.441674,32.1018599 67.467815,32.0797718 C67.4941586,32.0576837 67.5290132,32.0463357 67.5737974,32.0463357 L68.3750485,32.0463357 C68.4092952,32.0463357 68.4392863,32.0570758 68.4623877,32.077948 C68.4860969,32.0988203 68.4978502,32.1209084 68.4978502,32.1431991 L68.5057533,32.1768379 L68.5057533,32.4337894 Z M68.7795242,31.81897 C68.7233921,31.7719568 68.6443612,31.7482476 68.542837,31.7482476 L67.3912159,31.7482476 C67.2821938,31.7482476 67.1987048,31.770741 67.1417621,31.8153225 C67.0848194,31.8601066 67.0560441,31.9271815 67.0560441,32.0165471 L67.0560441,32.5272079 C67.0560441,32.6463621 67.0791454,32.72823 67.1249427,32.7730141 C67.1705374,32.8175956 67.2599031,32.8396837 67.3912159,32.8396837 L68.542837,32.8396837 C68.6569251,32.8396837 68.7389956,32.8153665 68.7884405,32.7653137 C68.8382907,32.7156661 68.8636211,32.6364326 68.8636211,32.5272079 L68.8636211,32.0165471 C68.8636211,31.9322476 68.8350485,31.8659833 68.7795242,31.81897 L68.7795242,31.81897 Z" id="Fill-37" sketch:type="MSShapeGroup"></path>
                <path d="M80.4900097,33.1082264 L75.7060097,33.1082264 L75.7060097,32.7617066 C75.7060097,32.7118564 75.7272872,32.6686934 75.7708555,32.6332308 C75.8148291,32.597363 75.8683269,32.5791251 75.93297,32.5791251 L80.2589965,32.5791251 C80.3307322,32.5791251 80.3878775,32.5955392 80.4286088,32.6275568 C80.4697454,32.6597771 80.4900097,32.7045612 80.4900097,32.7617066 L80.4900097,33.1082264 Z M80.4900097,33.8085612 C80.4900097,33.8855656 80.4717718,33.9414952 80.4342828,33.9763498 C80.3967938,34.0112044 80.33823,34.0286317 80.2589965,34.0286317 L75.93297,34.0286317 C75.8588026,34.0286317 75.8016573,34.0099885 75.763763,33.9727022 C75.7254634,33.9352132 75.7060097,33.8809048 75.7060097,33.8085612 L75.7060097,33.488385 L80.4900097,33.488385 L80.4900097,33.8085612 Z M80.426785,32.1989665 L75.7953753,32.1989665 C75.6063093,32.1989665 75.4685119,32.2380767 75.3799568,32.3167022 C75.2916044,32.3947198 75.2476308,32.5181295 75.2476308,32.6871339 L75.2476308,33.954059 C75.2476308,34.1104996 75.2916044,34.2262088 75.3799568,34.3003762 C75.4685119,34.3751515 75.6063093,34.4122352 75.7953753,34.4122352 L80.426785,34.4122352 C80.5984238,34.4122352 80.7277101,34.3733278 80.8162652,34.2949048 C80.9050229,34.2168872 80.9485912,34.1030018 80.9485912,33.954059 L80.9485912,32.6871339 C80.9485912,32.5282617 80.9050229,32.4072837 80.8162652,32.3239974 C80.7277101,32.240711 80.5984238,32.1989665 80.426785,32.1989665 L80.426785,32.1989665 Z" id="Fill-39" sketch:type="MSShapeGroup"></path>
                <path d="M78.2770652,29.2370123 L80.5199198,29.2370123 L80.5199198,29.5351004 C80.5199198,29.6072414 80.5041137,29.6554705 80.4716907,29.680193 C80.4388626,29.7049154 80.3632767,29.7174793 80.2441225,29.7174793 L78.2770652,29.7174793 L78.2770652,29.2370123 Z M78.2770652,28.3834793 L80.2518229,28.3834793 C80.3513207,28.3834793 80.4206247,28.3984749 80.4601401,28.4284661 C80.5002634,28.458052 80.5199198,28.5087128 80.5199198,28.5810564 L80.5199198,28.8270652 L78.2770652,28.8270652 L78.2770652,28.3834793 Z M80.4828361,30.1014881 C80.6346159,30.1014881 80.7545806,30.0658229 80.8441489,29.9951004 C80.9335145,29.9245806 80.9782987,29.829541 80.9782987,29.7101841 L80.9782987,29.2370123 L81.3882458,29.2370123 C81.4622106,29.2370123 81.5197612,29.2185718 81.5594793,29.1825013 C81.5994,29.1472414 81.6190564,29.0967833 81.6190564,29.0319374 C81.6190564,28.9626335 81.5994,28.9111621 81.5611004,28.8771181 C81.5230035,28.8438846 81.4654529,28.8270652 81.3882458,28.8270652 L80.9782987,28.8270652 L80.9782987,28.3911797 C80.9782987,28.2742546 80.932704,28.1788097 80.840096,28.1040344 C80.7482987,28.029867 80.6287392,27.992378 80.4828361,27.992378 L78.2770652,27.992378 L78.2770652,27.7952062 C78.2770652,27.7451533 78.2543692,27.7013824 78.2097877,27.6624749 C78.1650035,27.6241753 78.1098846,27.6051269 78.0458493,27.6051269 C77.9832326,27.6051269 77.9313559,27.6231621 77.8892062,27.6608537 C77.8470564,27.6981401 77.8257789,27.7429242 77.8257789,27.7952062 L77.8257789,27.992378 L75.4076379,27.992378 C75.3434,27.992378 75.2915233,28.0112238 75.2532238,28.0483075 C75.2147216,28.0853912 75.1952678,28.1340256 75.1952678,28.1936026 C75.1952678,28.2511533 75.213911,28.2965454 75.2509947,28.3314 C75.2886863,28.3662546 75.340563,28.3834793 75.4076379,28.3834793 L77.8257789,28.3834793 L77.8257789,28.8270652 L74.8564485,28.8270652 C74.794237,28.8270652 74.7435762,28.8463163 74.7032502,28.8848185 C74.6635322,28.9235233 74.6436731,28.9723604 74.6436731,29.0319374 C74.6436731,29.0917172 74.6635322,29.1405542 74.7032502,29.179259 C74.7435762,29.2177612 74.794237,29.2370123 74.8564485,29.2370123 L77.8257789,29.2370123 L77.8257789,29.7174793 L75.4076379,29.7174793 C75.3379286,29.7174793 75.2856467,29.7345013 75.2493736,29.7679374 C75.2126952,29.8015762 75.1952678,29.8481841 75.1952678,29.9075586 C75.1952678,29.9673383 75.213911,30.0141489 75.2509947,30.0492062 C75.2886863,30.0844661 75.340563,30.1014881 75.4076379,30.1014881 L77.8257789,30.1014881 L77.8257789,30.5410211 L75.2552502,30.5410211 C75.1908097,30.5410211 75.1375145,30.5596643 75.0969859,30.596748 C75.0556467,30.634237 75.0351797,30.6828714 75.0351797,30.7424485 C75.0351797,30.7993912 75.0544308,30.8464044 75.0949595,30.8838934 C75.1348802,30.9209771 75.1875674,30.9396203 75.2552502,30.9396203 L77.8257789,30.9396203 L77.8257789,31.4052943 L74.8564485,31.4052943 C74.794237,31.4052943 74.7417524,31.4263692 74.7000079,31.4687216 C74.6580608,31.511074 74.6365806,31.5633559 74.6365806,31.6253648 C74.6365806,31.6900079 74.6568449,31.7420872 74.6979815,31.7820079 C74.7387128,31.8213207 74.7918053,31.8417877 74.8564485,31.8417877 L81.3430564,31.8417877 C81.4131709,31.8417877 81.467074,31.8227392 81.5071974,31.7852502 C81.5475233,31.7483692 81.5667744,31.6977084 81.5667744,31.6326599 C81.5667744,31.5605189 81.5475233,31.5045894 81.5071974,31.465074 C81.467074,31.4253559 81.4131709,31.4052943 81.3430564,31.4052943 L78.2770652,31.4052943 L78.2770652,30.9396203 L80.9708009,30.9396203 C81.030378,30.9396203 81.0779991,30.922193 81.113867,30.887541 C81.1505454,30.8526863 81.168378,30.806889 81.168378,30.7497436 C81.168378,30.6851004 81.1505454,30.634237 81.116096,30.596748 C81.0814441,30.5596643 81.033215,30.5410211 80.9708009,30.5410211 L78.2770652,30.5410211 L78.2770652,30.1014881 L80.4828361,30.1014881 Z" id="Fill-41" sketch:type="MSShapeGroup"></path>
                <path d="M89.1630969,32.6016185 L90.9252819,32.6016185 C91.0375463,32.6016185 91.1137401,32.6212749 91.154674,32.6611956 C91.1958106,32.700711 91.2164802,32.7730546 91.2164802,32.8772132 L91.2164802,33.7493894 C91.2164802,33.8480767 91.195,33.917178 91.1532555,33.9558828 C91.1111057,33.9947903 91.0345066,34.0138388 90.9252819,34.0138388 L89.4834758,34.0138388 C89.3543921,34.0138388 89.2680661,33.9970194 89.2263216,33.9635833 C89.1849824,33.9299445 89.1630969,33.8588167 89.1630969,33.7493894 L89.1630969,32.6016185 Z M89.1630969,30.0675656 C89.1630969,29.9836714 89.1849824,29.9218652 89.228348,29.8835656 C89.2723216,29.8448608 89.3450705,29.825407 89.4463921,29.825407 L90.6575903,29.825407 C90.7645859,29.825407 90.8371322,29.8428344 90.8754317,29.877689 C90.9137313,29.9127463 90.9329824,29.9761736 90.9329824,30.0675656 L90.9329824,30.719874 C90.9329824,30.792015 90.9137313,30.8428784 90.8736079,30.8728696 C90.8332819,30.9024555 90.7621542,30.9172485 90.6575903,30.9172485 L89.1630969,30.9172485 L89.1630969,30.0675656 Z M91.3842687,28.2907903 L90.3742952,28.2907903 L90.3742952,27.8099181 C90.3742952,27.755407 90.352207,27.7096097 90.3074229,27.6739445 C90.2624361,27.6380767 90.203467,27.6196361 90.1321366,27.6196361 C90.0545242,27.6196361 89.9923128,27.6380767 89.9438811,27.6739445 C89.8950441,27.7096097 89.8713348,27.755407 89.8713348,27.8099181 L89.8713348,28.2907903 L88.8577137,28.2907903 C88.6666211,28.2907903 88.5215286,28.3299004 88.4238546,28.4097419 C88.3257753,28.489178 88.276533,28.6046846 88.276533,28.756059 L88.276533,29.6653189 C88.276533,29.7196273 88.2986211,29.7656273 88.3436079,29.8016978 C88.3881894,29.837363 88.4477665,29.8551956 88.5225419,29.8551956 C88.5549648,29.8551956 88.5869824,29.8517507 88.6175815,29.8442529 C88.6481806,29.8367551 88.6799956,29.825407 88.7124185,29.8108167 L88.7124185,33.8833366 C88.7124185,34.0671339 88.7543656,34.2000678 88.8390705,34.2819357 C88.923978,34.3636009 89.0587357,34.4049401 89.2451674,34.4049401 L91.1384626,34.4049401 C91.3368502,34.4049401 91.4762687,34.365222 91.5552996,34.2855833 C91.6347357,34.2059445 91.6744537,34.0722 91.6744537,33.8833366 L91.6744537,32.7542088 C91.6744537,32.5704115 91.6321013,32.4356537 91.5461806,32.3501383 C91.4602599,32.2644203 91.324489,32.2216626 91.1384626,32.2216626 L89.1630969,32.2216626 L89.1630969,31.2824115 L90.8253789,31.2824115 C91.0233612,31.2824115 91.1678458,31.2483674 91.2576167,31.1800767 C91.3469824,31.1115833 91.3917665,31.0029665 91.3917665,30.8540238 L91.3917665,29.8851868 C91.3917665,29.7435392 91.3437401,29.6389753 91.2480925,29.5702793 C91.1520396,29.5019885 91.0067445,29.4679445 90.8103833,29.4679445 L89.2933965,29.4679445 C89.1493172,29.4679445 89.0411057,29.4831427 88.9697753,29.5145524 C88.8976344,29.5455568 88.8271145,29.6004731 88.757,29.6803145 L88.757,28.9388432 C88.757,28.8470458 88.7807093,28.7836185 88.8261013,28.7487639 C88.8718987,28.7137066 88.9632907,28.6966846 89.0998722,28.6966846 L91.160348,28.6966846 C91.2545771,28.6916185 91.3208414,28.7076273 91.3579251,28.7451163 C91.3950088,28.7824026 91.4140573,28.8470458 91.4140573,28.9388432 L91.4140573,29.6653189 C91.4140573,29.707874 91.4371586,29.7449577 91.4845771,29.777178 C91.5319956,29.8096009 91.5887357,29.825407 91.6558106,29.825407 C91.7230881,29.825407 91.7769912,29.8108167 91.8181278,29.7808256 C91.8592643,29.751037 91.8795286,29.7123322 91.8795286,29.6653189 L91.8795286,28.756059 C91.8795286,28.6146141 91.8345419,28.5017419 91.7453789,28.4174423 C91.6558106,28.3329401 91.5362511,28.2907903 91.3842687,28.2907903 L91.3842687,28.2907903 Z" id="Fill-43" sketch:type="MSShapeGroup"></path>
                <path d="M87.6057639,28.2384476 C87.5512529,28.1912317 87.509711,28.1551612 87.4831648,28.1302361 C87.3013938,27.9687295 87.1364423,27.8447119 86.9874996,27.7575753 C86.8379489,27.6704388 86.7189974,27.6272758 86.6294291,27.6272758 C86.5279048,27.6272758 86.3771383,27.7442009 86.178548,27.9774432 C86.0476405,28.1338837 85.9372,28.254659 85.850874,28.3387559 C85.6897727,28.4929674 85.4932088,28.6680511 85.2623982,28.8642097 C85.0340194,29.0579366 84.919526,29.1845885 84.919526,29.2443683 C84.919526,29.287126 84.9420194,29.3278573 84.9863982,29.36717 C85.0309797,29.4070907 85.0794115,29.4269498 85.131896,29.4269498 C85.1959313,29.4269498 85.3181251,29.3578485 85.4966537,29.2202537 C85.6755877,29.0824564 85.8909974,28.8927824 86.1414643,28.6518396 C86.2059048,28.5871965 86.2867595,28.5028969 86.3838256,28.3985357 C86.5506009,28.2198044 86.6638784,28.1302361 86.7266978,28.1302361 C86.7982308,28.1302361 86.8999577,28.183126 87.0296493,28.2885004 C87.1603542,28.3942802 87.3072705,28.5424123 87.4677639,28.7339101 C87.4951207,28.7661304 87.5309885,28.8099013 87.5757727,28.8642097 C87.7149885,29.0358485 87.8219841,29.1211612 87.8965568,29.1211612 C87.9589709,29.1211612 88.0092264,29.0990731 88.0491471,29.0540863 C88.0894731,29.0097075 88.1087242,28.9535753 88.1087242,28.8865004 C88.1087242,28.754985 87.9411383,28.5385621 87.6057639,28.2384476" id="Fill-45" sketch:type="MSShapeGroup"></path>
                <path d="M85.8060291,30.9545348 L87.445615,30.9545348 L87.445615,31.4129137 C87.445615,31.5267991 87.4300115,31.6064379 87.3971833,31.651222 C87.3645577,31.6960062 87.310452,31.7184996 87.2332449,31.7184996 L85.8060291,31.7184996 L85.8060291,30.9545348 Z M85.8060291,30.0752661 C85.8060291,29.9707022 85.8238617,29.9007903 85.8603374,29.8649225 C85.8960026,29.828852 85.9634828,29.8106141 86.0629806,29.8106141 L87.2332449,29.8106141 C87.3049806,29.8106141 87.3590863,29.8327022 87.393333,29.8758652 C87.427985,29.9192308 87.445615,29.9859004 87.445615,30.0752661 L87.445615,30.6041648 L85.8060291,30.6041648 L85.8060291,30.0752661 Z M87.6134035,32.8772132 C87.5041789,32.6960502 87.4129894,32.5693982 87.3410511,32.4970546 C87.2697207,32.4249137 87.1967692,32.3890458 87.1246282,32.3890458 C87.0778176,32.3890458 87.0385048,32.4052573 87.0056767,32.4374775 C86.9734564,32.4699004 86.9576502,32.5098211 86.9576502,32.5566317 C86.9576502,32.6038476 87.0020291,32.7015216 87.0913947,32.8492485 C87.1811656,32.9967727 87.2508749,33.1256537 87.3003198,33.2348784 C87.0940291,33.3368079 86.8672714,33.4269841 86.6202493,33.5068256 C86.37343,33.586667 86.1014828,33.6559709 85.8060291,33.715548 L85.8060291,32.0684643 L87.3446987,32.0684643 C87.5311304,32.0684643 87.6675093,32.0307727 87.7526194,31.9549841 C87.8387427,31.878993 87.8815004,31.7594335 87.8815004,31.5952925 L87.8815004,29.9074775 C87.8815004,29.768059 87.8369189,29.6547815 87.7475533,29.5666317 C87.6577824,29.4784819 87.5424784,29.4343057 87.4012361,29.4343057 L86.8713242,29.4343057 L86.8713242,28.8865612 C86.8713242,28.8342793 86.8510599,28.7911163 86.8103286,28.756059 C86.7693947,28.721407 86.7163022,28.7041824 86.6518617,28.7041824 C86.5746546,28.7041824 86.5150775,28.7203938 86.471104,28.7528167 C86.4275357,28.7848344 86.4060555,28.8294159 86.4060555,28.8865612 L86.4060555,29.4343057 L85.8581084,29.4343057 C85.7195004,29.4343057 85.6041965,29.4796978 85.513615,29.5702793 C85.4232361,29.6612661 85.3774388,29.7735304 85.3774388,29.9074775 L85.3853419,33.8085612 C85.2406546,33.8310546 85.1466282,33.8596273 85.1018441,33.8944819 C85.0570599,33.9297419 85.0347692,33.9816185 85.0347692,34.0507198 C85.0347692,34.1425172 85.0596943,34.2132396 85.1091392,34.2612661 C85.1585841,34.3101031 85.2311304,34.3342176 85.3255621,34.3342176 C85.4550511,34.3342176 85.7138264,34.2673454 86.1043198,34.1346141 C86.4944079,34.0016802 86.9493419,33.8221383 87.4677031,33.5961912 C87.4875621,33.6460414 87.5135004,33.7119004 87.5463286,33.7939709 C87.6356943,34.0322793 87.7335709,34.1514335 87.8409718,34.1514335 C87.9175709,34.1514335 87.9791744,34.1315744 88.0251744,34.0918564 C88.0703639,34.052341 88.0936678,34.0010722 88.0936678,33.9390634 C88.0936678,33.8624643 88.0519233,33.7305436 87.9676238,33.5441119 C87.8825137,33.3576802 87.7651833,33.1357859 87.6134035,32.8772132 L87.6134035,32.8772132 Z" id="Fill-47" sketch:type="MSShapeGroup"></path>
                <path d="M77.0353692,4.28914537 C76.4896511,4.4324141 75.9712899,4.66626432 75.5159507,4.99008811 L75.5159507,19.932185 C75.9725057,20.2543877 76.4904617,20.4872247 77.0353692,20.631304 L77.0353692,4.28914537 Z" id="Fill-49" sketch:type="MSShapeGroup"></path>
                <path d="M78.8096925,20.7843806 L78.8096925,4.14008106 C78.506133,4.11231894 78.1997366,4.1106978 77.8959744,4.13481233 L77.8959744,20.787015 C78.1997366,20.8117374 78.5057278,20.8109269 78.8096925,20.7843806" id="Fill-51" sketch:type="MSShapeGroup"></path>
                <path d="M50.0904537,19.9201885 L56.269652,4.90959824 C55.8505859,4.76085815 55.4027445,4.68344846 54.9467974,4.68344846 C54.2290352,4.68344846 53.5374141,4.87494626 52.9675815,5.2164 L48.6476344,15.7714749 L44.4741982,5.73699031 C43.895652,5.2713163 43.2054493,4.92054097 42.4706652,4.71587137 L49.0178634,20.4697568 C49.3972115,20.3297304 49.7581189,20.146541 50.0904537,19.9201885" id="Fill-53" sketch:type="MSShapeGroup"></path>
                <path d="M46.0194943,20.7125436 L39.3697586,4.71264934 C38.8945604,4.83990925 38.4355736,5.02451718 38.0110361,5.26140705 L44.1142432,19.9512132 C44.6848863,20.3303586 45.3380053,20.5844731 46.0194943,20.7125436" id="Fill-55" sketch:type="MSShapeGroup"></path>
                <path d="M48.1299216,20.7143269 L41.4023709,4.52658238 C41.2430934,4.51320793 41.0817894,4.50611542 40.921296,4.50611542 C40.7103445,4.50611542 40.4983797,4.51766608 40.2878335,4.54056476 L47.0496308,20.810785 C47.4119568,20.8124062 47.7748907,20.7803885 48.1299216,20.7143269" id="Fill-57" sketch:type="MSShapeGroup"></path>
                <path d="M10.6394555,18.0257586 C7.74956123,17.947741 5.58188722,15.4714414 5.60843348,12.6072828 C5.66051278,9.7692652 7.77610749,7.3430185 10.6394555,7.21434009 C13.5560987,7.1369304 15.9292529,9.56216388 16.031993,12.4520581 C16.1612793,15.5227101 13.6584335,18.1029656 10.6394555,18.0257586 M11.0007683,4.1690185 C8.8590326,4.19536211 7.20769339,4.84098326 5.73812511,6.05299207 L5.73812511,1.0128511 L5.73812511,1.00130044 C5.29393128,0.686798238 4.790363,0.457811454 4.26024846,0.313934802 L4.26024846,0.323459031 C4.24626608,0.319406167 4.2322837,0.315555947 4.21830132,0.31190837 L4.21830132,20.6232388 C4.2322837,20.6197938 4.24626608,20.6153357 4.26024846,20.6118907 L4.26024846,20.6143225 C4.60697093,20.5196881 4.94234537,20.3877674 5.25705022,20.2195736 C5.42342026,20.1310185 5.58431894,20.0327366 5.73812511,19.9243225 L5.73812511,18.8778731 C7.38824846,20.2447013 8.78223084,20.7348952 11.0007683,20.7867718 C15.5428123,20.8635736 19.3089357,17.0453709 19.2063982,12.4520581 C19.0769093,7.44656916 15.4392617,4.11774978 11.0007683,4.1690185" id="Fill-59" sketch:type="MSShapeGroup"></path>
                <path d="M2.41202115,0.152185022 L2.41202115,20.7804493 C2.71618855,20.8057797 3.02217974,20.8049692 3.32594185,20.7780176 L3.32594185,0.152792952 C3.02217974,0.126651982 2.71578326,0.126246696 2.41202115,0.152185022" id="Fill-61" sketch:type="MSShapeGroup"></path>
                <path d="M59.6274493,10.7832308 C60.2860396,8.66175947 62.1560308,7.16098414 64.6199692,7.16098414 C66.9337489,7.16098414 68.9788238,8.69965374 69.6984097,10.7832308 L59.6274493,10.7832308 Z M64.6722511,4.17199736 C60.1237225,4.17199736 56.3800925,7.94075507 56.3800925,12.5164379 C56.3800925,17.0126846 60.1498634,20.7563145 64.6722511,20.7816449 C68.410815,20.8025172 71.3402247,18.5539885 72.4770529,15.3941736 L69.1818722,15.3941736 C68.258022,16.9618211 66.6074934,17.975037 64.6722511,17.975037 C62.1738634,17.975037 60.0604978,16.1394952 59.5091057,13.7476978 L72.8912555,13.7476978 C72.956304,13.3122176 72.990348,12.8664026 72.990348,12.411874 C72.990348,7.91582996 69.1944361,4.17199736 64.6722511,4.17199736 L64.6722511,4.17199736 Z" id="Fill-66" sketch:type="MSShapeGroup"></path>
                <path d="M0,19.9243427 C0.456555066,20.2465454 0.974511013,20.479585 1.51962115,20.623259 L1.51962115,0.311928634 C0.973700441,0.455197357 0.45554185,0.688844934 0,1.01287137 L0,19.9243427 Z" id="Fill-68" sketch:type="MSShapeGroup"></path>
                <path d="M85.2275841,4.18782379 C83.5322714,4.18782379 82.1705093,4.98421145 81.1941744,5.88313656 L81.1941744,4.96475771 C80.7653815,4.66707489 80.283496,4.44761233 79.7762802,4.30738326 L79.7762802,4.31812335 C79.7410203,4.30799119 79.7055577,4.29826432 79.6702978,4.28914537 L79.6702978,20.631304 C80.2152053,20.4872247 80.7329586,20.2543877 81.1899189,19.932185 L81.1899189,19.4255771 C81.1911348,19.4245639 81.1927559,19.4237533 81.1941744,19.4225374 L81.1941744,11.6390132 C81.1941744,8.7606696 82.8655753,7.03901322 85.0739806,7.01408811 C87.2836018,6.98794714 88.7989674,8.32356828 88.7989674,11.4069868 L88.8007912,20.7934185 L90.1580952,20.7934185 C90.8596458,20.6870308 91.4760863,20.3224758 91.9075137,19.7992511 L91.9075137,17.4966167 L91.9075137,11.14963 C91.9075137,6.62825551 89.0301833,4.11061674 85.2275841,4.18782379" id="Fill-63" sketch:type="MSShapeGroup"></path>
            </g>
        </g>
    </g>
</svg>