<?xml version="1.0" encoding="UTF-8" standalone="no"?>
<svg width="96px" height="96px" viewBox="0 0 96 96" version="1.1" xmlns="http://www.w3.org/2000/svg" xmlns:xlink="http://www.w3.org/1999/xlink" xmlns:sketch="http://www.bohemiancoding.com/sketch/ns">
    <!-- Generator: Sketch 3.4.2 (15855) - http://www.bohemiancoding.com/sketch -->
    <title>designbutik</title>
    <desc>Created with Sketch.</desc>
    <defs>
        <path id="path-1" d="M0,0.819310345 L70.3787586,0.819310345 L70.3787586,44.6896552 L0,44.6896552"></path>
        <path id="path-3" d="M0,0.819310345 L70.3787586,0.819310345 L70.3787586,44.6896552 L0,44.6896552 L0,0.819310345 Z"></path>
    </defs>
    <g id="Page-1" stroke="none" stroke-width="1" fill="none" fill-rule="evenodd" sketch:type="MSPage">
        <g id="designbutik" sketch:type="MSArtboardGroup">
            <g id="Page-1" sketch:type="MSLayerGroup" transform="translate(12.000000, 25.655172)">
                <g id="Group-3">
                    <mask id="mask-2" sketch:name="Clip 2" fill="white">
                        <use xlink:href="#path-1"></use>
                    </mask>
                    <g id="Clip-2"></g>
                    <path d="M9.60504828,3.68515862 C8.47787586,2.42888276 6.99566897,1.80074483 5.15842759,1.80074483 L0.865737931,1.80074483 L0.865737931,14.2269517 L5.15842759,14.2269517 C6.74987586,14.2269517 8.13028966,13.6881931 9.29966897,12.6181241 C10.5584276,11.4661241 11.1865655,9.92929655 11.1865655,8.00267586 C11.1865655,6.28957241 10.6602207,4.85205517 9.60504828,3.68515862 M10.255531,12.9135724 C8.95456552,14.3237793 7.25635862,15.0313655 5.15842759,15.0313655 L-0.000744827586,15.0313655 L-0.000744827586,1.01867586 L5.15842759,1.01867586 C7.24146207,1.01867586 8.93222069,1.72129655 10.2331862,3.13646897 C11.4621517,4.45729655 12.0778759,6.08102069 12.0778759,8.00267586 C12.0778759,9.94171034 11.4696,11.5753655 10.255531,12.9135724" id="Fill-1" fill="#FEFEFE" sketch:type="MSShapeGroup" mask="url(#mask-2)"></path>
                </g>
                <path d="M14.8310069,15.0323586 L14.8310069,1.01718621 L22.266869,1.01718621 L22.266869,1.8216 L15.7173517,1.8216 L15.7173517,6.92366897 L22.266869,6.92366897 L22.266869,7.78766897 L15.7173517,7.78766897 L15.7173517,14.2279448 L22.266869,14.2279448 L22.266869,15.0323586 L14.8310069,15.0323586 Z" id="Fill-4" fill="#FEFEFE" sketch:type="MSShapeGroup"></path>
                <path d="M30.2030069,14.9159172 C29.6369379,15.0946759 28.9740414,15.1865379 28.206869,15.1865379 C25.8358345,15.1865379 24.3114207,14.1735724 23.6336276,12.1476414 L24.5224552,11.8695724 C25.0264552,13.5479172 26.2579034,14.3821241 28.206869,14.3821241 C29.3216276,14.3821241 30.1955586,14.136331 30.8311448,13.6372966 C31.4816276,13.1258483 31.8043862,12.3835034 31.8043862,11.400331 C31.8043862,10.4717793 31.4220414,9.69715862 30.6598345,9.08143448 C30.4562483,8.9126069 30.1459034,8.72391724 29.7263172,8.51536552 C29.306731,8.30681379 28.7704552,8.06846897 28.1199724,7.80777931 C26.8934897,7.31122759 26.0543172,6.87922759 25.6049379,6.51177931 C24.8551448,5.92336552 24.4777655,5.14377931 24.4777655,4.17798621 C24.4777655,3.20722759 24.8625931,2.43012414 25.6272828,1.84171034 C26.3795586,1.2384 27.3056276,0.937986207 28.4030069,0.937986207 C30.222869,0.937986207 31.5089379,1.55371034 32.2612138,2.78267586 L31.4170759,3.11536552 C31.1265931,2.68584828 30.7790069,2.36557241 30.3743172,2.15453793 C29.8703172,1.86653793 29.2099034,1.72253793 28.4030069,1.72253793 C27.5514207,1.72253793 26.8413517,1.93853793 26.2777655,2.37053793 C25.6694897,2.82984828 25.3690759,3.43067586 25.3690759,4.17798621 C25.3690759,4.84336552 25.6843862,5.42681379 26.3199724,5.92336552 C26.6824552,6.18405517 27.4074207,6.53908966 28.4923862,6.98350345 C29.1676966,7.25908966 29.7536276,7.52971034 30.2476966,7.79784828 C30.7368,8.06598621 31.1340414,8.34157241 31.4369379,8.6121931 C32.2761103,9.35950345 32.6956966,10.2905379 32.6956966,11.400331 C32.6956966,13.180469 31.8639724,14.3498483 30.2030069,14.9159172" id="Fill-6" fill="#FEFEFE" sketch:type="MSShapeGroup"></path>
                <mask id="mask-4" sketch:name="Clip 9" fill="white">
                    <use xlink:href="#path-3"></use>
                </mask>
                <g id="Clip-9"></g>
                <path d="M35.2328276,1.01793103 L36.1017931,1.01793103 L36.1017931,15.0331034 L35.2328276,15.0331034 L35.2328276,1.01793103 Z" id="Fill-8" fill="#FEFEFE" sketch:type="MSShapeGroup" mask="url(#mask-4)"></path>
                <path d="M52.7077241,13.0876138 C51.218069,14.5127172 49.2467586,15.225269 46.7888276,15.225269 C44.4475862,15.225269 42.5383448,14.5623724 41.066069,13.2241655 C39.5764138,11.8785103 38.8315862,10.1455448 38.8315862,8.02526897 C38.8315862,5.92982069 39.5764138,4.20926897 41.066069,2.86113103 C42.5681379,1.50057931 44.4773793,0.820303448 46.7888276,0.820303448 C49.562069,0.820303448 51.7444138,1.78361379 53.3358621,3.70526897 L52.6208276,4.19685517 C51.2329655,2.46885517 49.2889655,1.60485517 46.7888276,1.60485517 C44.7504828,1.60485517 43.0597241,2.21313103 41.7165517,3.42968276 C40.3708966,4.64871724 39.698069,6.17809655 39.698069,8.02526897 C39.698069,9.88237241 40.3634483,11.4117517 41.6917241,12.6183724 C43.0522759,13.8225103 44.7504828,14.4233379 46.7888276,14.4233379 C48.9711724,14.4233379 50.7264828,13.7604414 52.0572414,12.4396138 C53.0677241,11.4465103 53.6486897,10.3193379 53.7902069,9.06306207 L48.6757241,9.06306207 L48.6757241,8.25864828 L54.765931,8.25864828 C54.765931,10.1678897 54.0806897,11.7792 52.7077241,13.0876138" id="Fill-10" fill="#FEFEFE" sketch:type="MSShapeGroup" mask="url(#mask-4)"></path>
                <path d="M58.5181241,3.13721379 L58.5181241,15.0321103 L57.6516414,15.0321103 L57.6516414,0.920110345 L69.2064,13.1874207 L69.2064,1.01693793 L70.0977103,1.01693793 L70.0977103,15.2679724 L58.5181241,3.13721379 Z" id="Fill-11" fill="#FEFEFE" sketch:type="MSShapeGroup" mask="url(#mask-4)"></path>
                <path d="M3.18463448,25.7536552 L3.18463448,29.5224828 L6.97332414,29.5224828 C7.65111724,29.5224828 8.17497931,29.438069 8.55484138,29.2742069 C9.2376,28.9663448 9.58022069,28.377931 9.58022069,27.5089655 C9.58022069,26.774069 9.24753103,26.2675862 8.58463448,25.9969655 C8.21470345,25.8405517 7.6958069,25.7611034 7.02546207,25.7536552 L3.18463448,25.7536552 Z M3.18463448,20.304 L3.18463448,23.4173793 L6.97828966,23.4173793 C7.65608276,23.4173793 8.20477241,23.3006897 8.62932414,23.0673103 C9.0513931,22.833931 9.26242759,22.4193103 9.26242759,21.825931 C9.26242759,21.168 8.98187586,20.7310345 8.42325517,20.5224828 C7.9416,20.376 7.32835862,20.304 6.58104828,20.304 L3.18463448,20.304 Z M11.6582897,19.3531034 C12.1349793,19.953931 12.3733241,20.6714483 12.3733241,21.5106207 C12.3733241,22.3721379 12.1349793,23.0673103 11.6508414,23.5886897 C11.3827034,23.8816552 10.9854621,24.1497931 10.4616,24.3955862 C11.2585655,24.6562759 11.8593931,25.0733793 12.2665655,25.6394483 C12.6687724,26.2104828 12.8723586,26.8982069 12.8723586,27.710069 C12.8723586,28.5467586 12.6414621,29.2990345 12.1771862,29.961931 C11.8817379,30.4038621 11.5142897,30.7713103 11.0723586,31.0742069 C10.5758069,31.4193103 9.9873931,31.6551724 9.3096,31.7842759 C8.6318069,31.9108966 7.89691034,31.9754483 7.10491034,31.9754483 L0.073737931,31.9754483 L0.073737931,17.846069 L7.61387586,17.846069 C9.51566897,17.8733793 10.8638069,18.3748966 11.6582897,19.3531034 L11.6582897,19.3531034 Z" id="Fill-12" fill="#FEFEFE" sketch:type="MSShapeGroup" mask="url(#mask-4)"></path>
                <path d="M16.7623448,17.8470621 L20.0768276,17.8470621 L20.0768276,26.5243034 C20.0768276,27.4950621 20.2009655,28.2026483 20.4566897,28.6520276 C20.8489655,29.4440276 21.708,29.8387862 23.0288276,29.8387862 C24.3446897,29.8387862 25.1987586,29.4440276 25.5935172,28.6520276 C25.8467586,28.2026483 25.9733793,27.4950621 25.9733793,26.5243034 L25.9733793,17.8470621 L29.2853793,17.8470621 L29.2853793,26.5317517 C29.2853793,28.0338207 29.0296552,29.2007172 28.5157241,30.0398897 C27.5573793,31.5717517 25.7275862,32.3389241 23.0288276,32.3389241 C20.330069,32.3389241 18.4977931,31.5717517 17.5344828,30.0398897 C17.0205517,29.2007172 16.7623448,28.0338207 16.7623448,26.5317517 L16.7623448,17.8470621 Z" id="Fill-13" fill="#FEFEFE" sketch:type="MSShapeGroup" mask="url(#mask-4)"></path>
                <path d="M45.198869,17.8470621 L45.198869,20.3496828 L40.5312828,20.3496828 L40.5312828,31.9764414 L37.2490759,31.9764414 L37.2490759,20.3496828 L32.5566621,20.3496828 L32.5566621,17.8470621 L45.198869,17.8470621 Z" id="Fill-14" fill="#FEFEFE" sketch:type="MSShapeGroup" mask="url(#mask-4)"></path>
                <path d="M51.8797241,31.9754483 L48.6397241,31.9754483 L48.6397241,17.846069 L51.8797241,17.846069 L51.8797241,31.9754483 Z" id="Fill-15" fill="#FEFEFE" sketch:type="MSShapeGroup" mask="url(#mask-4)"></path>
                <path d="M56.5992,17.8470621 L59.8069241,17.8470621 L59.8069241,23.669131 L65.8350621,17.8470621 L70.0483034,17.8470621 L63.6477517,23.6592 L70.3785103,31.9764414 L66.185131,31.9764414 L61.3785103,25.809269 L59.8069241,27.2517517 L59.8069241,31.9764414 L56.5992,31.9764414 L56.5992,17.8470621 Z" id="Fill-16" fill="#FEFEFE" sketch:type="MSShapeGroup" mask="url(#mask-4)"></path>
                <path d="M13.454069,40.6849655 L11.4877241,40.6849655 L11.4877241,41.1467586 L13.454069,41.1467586 L13.454069,40.6849655 Z M13.454069,39.6993103 L11.4877241,39.6993103 L11.4877241,40.1462069 L13.454069,40.1462069 L13.454069,39.6993103 Z M13.454069,38.7657931 L11.4877241,38.7657931 L11.4877241,39.1605517 L13.454069,39.1605517 L13.454069,38.7657931 Z M13.905931,44.6896552 L13.1685517,44.6896552 L13.1685517,42.8002759 C12.7837241,43.1975172 12.3715862,43.5128276 11.9321379,43.7486897 C11.4951724,43.9845517 10.9241379,44.2104828 10.2215172,44.4289655 L9.84910345,43.7685517 C10.9191724,43.5525517 11.7608276,43.2273103 12.3691034,42.7928276 L9.97572414,42.7928276 L9.97572414,42.1497931 L13.1685517,42.1497931 L13.1685517,41.7550345 L10.7677241,41.7550345 L10.7677241,39.6993103 L10.5467586,40.0022069 C10.4772414,40.0915862 10.4027586,40.1784828 10.3233103,40.257931 L10.2761379,40.3026207 L9.83917241,39.590069 C10.4971034,38.961931 11.0085517,38.2295172 11.3784828,37.3953103 L12.1233103,37.5293793 C12.0388966,37.7577931 11.9445517,37.953931 11.8377931,38.1227586 C11.8328276,38.1351724 11.8228966,38.1525517 11.8055172,38.1798621 L13.3845517,38.1798621 L13.2554483,37.9042759 C13.1735172,37.7255172 13.1089655,37.6038621 13.0667586,37.5368276 L13.7892414,37.4002759 L14.0027586,37.8 L14.1691034,38.1798621 L16.7213793,38.1798621 L16.7213793,38.7657931 L14.1442759,38.7657931 L14.1442759,39.1605517 L16.4110345,39.1605517 L16.4110345,39.6993103 L14.1442759,39.6993103 L14.1442759,40.1462069 L16.4110345,40.1462069 L16.4110345,40.6849655 L14.1442759,40.6849655 L14.1442759,41.1442759 L16.8405517,41.1442759 L16.8405517,41.7550345 L13.905931,41.7550345 L13.905931,42.1497931 L17.0391724,42.1497931 L17.0391724,42.7928276 L14.6830345,42.7928276 C15.3062069,43.209931 16.128,43.5153103 17.1409655,43.713931 L16.8008276,44.4289655 C15.4998621,44.0714483 14.5365517,43.5302069 13.905931,42.8002759 L13.905931,44.6896552 Z" id="Fill-17" fill="#FEFEFE" sketch:type="MSShapeGroup" mask="url(#mask-4)"></path>
                <path d="M29.6044138,41.6507586 L28.0998621,41.6507586 L28.0998621,43.5624828 L29.6044138,43.5624828 L29.6044138,41.6507586 Z M27.3525517,41.0102069 L30.3417931,41.0102069 L30.3417931,44.6896552 L29.6044138,44.6896552 L29.6044138,44.2129655 L28.0973793,44.2129655 L28.0973793,44.6896552 L27.3525517,44.6896552 L27.3525517,41.0102069 Z M28.9390345,38.4182069 L25.3464828,38.4182069 L25.3464828,39.6074483 L28.9390345,39.6074483 L28.9390345,38.4182069 Z M24.5942069,37.7428966 L29.7012414,37.7428966 L29.7012414,40.2728276 L24.5942069,40.2728276 L24.5942069,37.7428966 Z M25.9497931,41.6507586 L24.5445517,41.6507586 L24.5445517,43.5624828 L25.9497931,43.5624828 L25.9497931,41.6507586 Z M23.8096552,41.0102069 L26.6946207,41.0102069 L26.6946207,44.6896552 L25.9497931,44.6896552 L25.9497931,44.2129655 L24.5470345,44.2129655 L24.5470345,44.6896552 L23.8096552,44.6896552 L23.8096552,41.0102069 Z" id="Fill-18" fill="#FEFEFE" sketch:type="MSShapeGroup" mask="url(#mask-4)"></path>
                <path d="M39.1737103,39.5203034 C39.4691586,40.4910621 39.9756414,41.3401655 40.6956414,42.0576828 C41.388331,41.3401655 41.8948138,40.4910621 42.2175724,39.5203034 L39.1737103,39.5203034 Z M40.6335724,38.7978207 L40.1494345,38.3459586 C39.8316414,38.0703724 39.6230897,37.8965793 39.5237793,37.8220966 L40.1022621,37.3975448 C40.1395034,37.4198897 40.1692966,37.4397517 40.1966069,37.4596138 C40.6981241,37.8022345 41.0755034,38.1125793 41.3212966,38.3856828 L40.7676414,38.7978207 L44.2385379,38.7978207 L44.2385379,39.5203034 L43.0567448,39.5203034 C42.7464,40.6449931 42.1629517,41.6505103 41.3064,42.5393379 L41.5422621,42.6957517 C42.3665379,43.2369931 43.2677793,43.6392 44.248469,43.9048552 L43.8437793,44.6894069 C42.6694345,44.2872 41.6142621,43.7484414 40.6807448,43.0805793 C39.732331,43.7980966 38.6572966,44.3343724 37.4531586,44.6894069 L37.048469,43.9048552 C38.3419862,43.5994759 39.3574345,43.145131 40.092331,42.549269 C39.3276414,41.7349241 38.7491586,40.7219586 38.3568828,39.5203034 L37.0881931,39.5203034 L37.0881931,38.7978207 L40.6335724,38.7978207 Z" id="Fill-19" fill="#FEFEFE" sketch:type="MSShapeGroup" mask="url(#mask-4)"></path>
                <path d="M56.9713655,37.3965517 L57.7087448,37.3965517 L57.7087448,43.6555862 L57.7087448,43.7548966 C57.7087448,44.0503448 57.6466759,44.2588966 57.5225379,44.3830345 C57.3984,44.5071724 57.1600552,44.5692414 56.8050207,44.5692414 L55.8938483,44.5692414 L55.7200552,43.7747586 L56.7181241,43.8169655 C56.884469,43.8169655 56.9713655,43.7325517 56.9713655,43.5612414 L56.9713655,37.3965517 Z M55.6157793,37.9253793 L56.3308138,37.9253793 L56.3308138,42.9430345 L55.6157793,42.9430345 L55.6157793,37.9253793 Z M54.4265379,43.0075862 L52.6091586,43.0075862 L52.6091586,43.7375172 L54.4265379,43.7375172 L54.4265379,43.0075862 Z M51.936331,42.4291034 L55.0993655,42.4291034 L55.0993655,44.6908966 L54.4265379,44.6908966 L54.4265379,44.316 L52.6116414,44.316 L52.6116414,44.6908966 L51.936331,44.6908966 L51.936331,42.4291034 Z M54.2750897,39.996 L51.936331,39.996 L51.936331,40.4155862 L54.2750897,40.4155862 L54.2750897,39.996 Z M51.9214345,41.4211034 L54.2750897,41.4211034 L54.2750897,40.9543448 L51.9288828,40.9543448 L51.9214345,41.4211034 Z M51.484469,39.4150345 L52.9989517,39.4150345 C52.9567448,39.3157241 52.8921931,39.2064828 52.8028138,39.0848276 L52.5396414,38.7248276 L53.2050207,38.5684138 C53.4433655,38.8365517 53.6146759,39.1195862 53.7214345,39.4150345 L54.8858483,39.4150345 C54.240331,38.8464828 53.6295724,38.3946207 53.0535724,38.0668966 C52.5694345,38.6006897 52.0455724,39.050069 51.484469,39.4150345 L51.484469,39.4150345 Z M51.288331,41.4211034 L51.288331,39.5342069 L50.9556414,39.7477241 L50.5981241,39.0748966 C51.5440552,38.5758621 52.2218483,38.0271724 52.6339862,37.4362759 L53.3167448,37.4362759 C53.4532966,37.5182069 53.5675034,37.5877241 53.6568828,37.6423448 C54.0913655,37.9055172 54.6971586,38.330069 55.4817103,38.916 L55.1614345,39.645931 L54.9255724,39.4473103 L54.9255724,42.002069 L51.9040552,42.002069 C51.8469517,42.9628966 51.6110897,43.8244138 51.1989517,44.5841379 L50.5981241,44.1248276 C51.0574345,43.3129655 51.288331,42.4117241 51.288331,41.4211034 L51.288331,41.4211034 Z" id="Fill-20" fill="#FEFEFE" sketch:type="MSShapeGroup" mask="url(#mask-4)"></path>
            </g>
        </g>
    </g>
</svg>