<?xml version="1.0" encoding="UTF-8" standalone="no"?>
<svg width="96px" height="96px" viewBox="0 0 96 96" version="1.1" xmlns="http://www.w3.org/2000/svg" xmlns:xlink="http://www.w3.org/1999/xlink" xmlns:sketch="http://www.bohemiancoding.com/sketch/ns">
    <!-- Generator: Sketch 3.4.2 (15855) - http://www.bohemiancoding.com/sketch -->
    <title>g0v</title>
    <desc>Created with Sketch.</desc>
    <defs></defs>
    <g id="Page-1" stroke="none" stroke-width="1" fill="none" fill-rule="evenodd" sketch:type="MSPage">
        <g id="g0v" sketch:type="MSArtboardGroup">
            <g id="logotype-copy" sketch:type="MSLayerGroup" transform="translate(8.500000, 23.035461)">
                <g id="type" transform="translate(0.000000, 31.886525)" fill="#FFFFFF" sketch:type="MSShapeGroup">
                    <g id="府" transform="translate(62.751773, 0.226950)">
                        <path d="M16.7943262,1.6149208 L10.4785909,1.6149208 L10.4785906,0 L8.05543597,0 L8.05543597,1.61492086 L1.45389284,1.6149208 L1.45389284,7.81910444 C1.45389284,10.9118244 0.838784329,13.7608755 0,15.72897 L2.05036169,17.1347518 C2.74002881,15.3353511 3.1687408,13.4609754 3.41105627,10.8930806 L4.54807503,12.2051436 C4.86494911,11.7740372 5.06998528,11.4179058 5.42413866,10.8368493 L5.42413866,17.116008 L7.43722105,17.116008 L7.43722105,7.2193042 C7.86593305,6.26337259 8.16416747,5.41990351 8.44376225,4.44522814 L6.43067986,3.90165918 C5.77829205,6.22588507 4.7531112,8.17523582 3.46697523,10.0683553 C3.52289418,9.18739871 3.54153384,8.43764842 3.54153384,7.81910444 L3.54153384,3.69547785 L16.7943262,3.69547785 L16.7943262,1.6149208 Z" id="Path"></path>
                        <path d="M17.248227,6.26794483 L15.2027668,6.26639821 L15.2027668,4.19858156 L13.057539,4.19858156 L13.057539,6.26639821 L8.17021277,6.26794483 L8.17021277,8.39215648 L13.057539,8.39060986 L13.057539,14.2180932 C13.057539,14.5940598 12.8505434,14.7820431 12.4553698,14.7820431 C12.2483742,14.7820431 10.4848006,14.6520014 10.4848006,14.6520014 L10.7670674,16.9078014 L13.5844371,16.9062548 C14.6570509,16.9062548 15.2027668,16.2859098 15.2027668,15.0640181 L15.2027668,8.39060986 L17.248227,8.39215648 L17.248227,6.26794483 Z" id="Path"></path>
                        <path d="M9.79669031,8.96453901 L8.17021277,9.99121918 C8.92671395,11.0739001 9.39952719,11.8765773 10.250591,13.2765957 L12.0283688,12.0632464 C11.177305,10.887231 10.6099291,10.0098861 9.79669031,8.96453901 Z" id="Path"></path>
                    </g>
                    <g id="政" transform="translate(41.872340, 0.000000)">
                        <path d="M14.3941488,12.4257063 C15.4424107,10.6158848 16.0167232,9.10879777 16.3970779,5.48588026 L17.5280153,5.48588026 L17.5280153,3.35556953 L12.4660955,3.35556953 C12.74688,2.62032955 13.252394,1.34032947 13.4583026,0.491975646 L11.3726981,0 C10.6394535,2.62604443 9.77288682,4.37744154 8.93541612,6.19090917 L6.94400141,6.16154277 L6.96272021,3.31102931 L9.39618548,3.31102931 L9.37746652,1.23727551 L0.710586361,1.23727551 L0.729305325,3.31102931 L4.82875836,3.31102931 L4.81003939,13.0199676 C4.30462738,13.1519337 4.25479545,13.18518 3.7119455,13.3359984 L3.7119455,5.57568341 L1.72773536,5.57568341 L1.72773536,13.8073061 L0,14.2488211 L0.711320618,16.5110979 C3.94970132,15.7004487 7.50957895,14.3936024 9.75585459,13.3378732 L9.51250806,11.3772332 C8.91350123,11.6600178 7.74891668,12.0207953 6.94400125,12.3224322 L6.94400141,8.3217625 L7.89753604,8.3217625 L7.61134383,8.70129804 L9.2838717,9.91617247 C9.58337512,9.4637171 9.77709732,9.1954873 10.0766007,8.53565655 C10.6661726,10.4647622 11.0434543,10.9929309 11.7922128,12.2748878 C10.5239741,13.6058147 9.65793705,14.278689 7.69275979,15.505468 L9.05284837,17.4751773 C10.6804453,16.2128331 11.9794025,14.98962 13.0089455,14.0281524 C13.8700178,15.0084724 14.9560895,16.3174868 16.282455,17.4594499 L17.7021277,15.56961 C16.2523559,14.4605698 15.2717066,13.5787128 14.3941488,12.4257063 Z M13.0555787,10.7801418 C12.2091316,9.13845369 11.75766,8.18092196 11.4609929,5.98988584 C11.5537014,5.8213446 11.6278682,5.69025697 11.7205766,5.44680851 L14.2978723,5.44680851 C14.0939137,8.01238072 13.8909873,9.00093852 13.0555787,10.7801418 Z" id="Path"></path>
                    </g>
                    <g id="時" transform="translate(22.014184, 0.113475)">
                        <path d="M16.5673759,5.67976355 L12.3362265,5.67976355 L12.3362265,4.26518396 L15.914996,4.26518396 L15.914996,2.34949629 L12.3362265,2.34949629 L12.3362265,0 L10.118135,0 L10.118135,2.34949629 L6.66984151,2.34949629 L6.66984151,4.26518396 L10.118135,4.26518396 L10.118135,5.67976355 L6.24113475,5.67976355 L6.24113475,7.68935748 L12.0782448,7.68935748 L12.0782448,8.93205031 L6.24113475,8.93205031 L6.24113475,11.0543318 L12.0782448,11.0543318 L12.0782448,14.4881706 C12.0782448,14.9201394 11.8732112,15.1267332 11.4817833,15.1267332 C11.3326679,15.1267332 10.0435773,15.0140457 10.0435773,15.0140457 L10.3231687,17.3617021 L12.7119853,17.3617021 C13.7744325,17.3617021 14.3149758,16.7231396 14.3149758,15.4460145 L14.3149758,11.0543318 L16.5114576,11.0543318 L16.5114576,8.93205031 L14.3149758,8.93205031 L14.3149758,7.68935748 L16.5673759,7.68935748 L16.5673759,5.67976355 Z" id="Path"></path>
                        <path d="M5.78723404,1.92907801 L8.63295311e-08,1.92907801 L0,14.9787229 L5.78723387,14.9787234 L5.78723404,1.92907801 Z M2.04255319,7.26241135 L2.04255319,3.74468085 L3.63120567,3.74468085 L3.63120567,7.26241135 L2.04255319,7.26241135 Z M2.04255319,13.0496454 L2.04255319,9.19148936 L3.63120567,9.19148936 L3.63120567,13.0496454 L2.04255319,13.0496454 Z" id="Path"></path>
                        <path d="M8.3984101,11.4609929 L6.80851064,12.4346099 C7.38835632,13.2584397 7.79985971,14.0260993 8.4732289,15.2056738 L10.212766,14.1009929 C9.55810147,13.1086525 9.05307458,12.3409929 8.3984101,11.4609929 Z" id="Path"></path>
                    </g>
                    <g id="零" transform="translate(0.000000, 0.794326)">
                        <path d="M10.7581033,7.12861547 L14.0582982,7.14960001 L14.0582982,5.98614804 L10.5985438,5.98614781 L10.598544,7.08336764 C10.2791053,6.95201016 10.1468771,6.9056504 9.90260047,6.77429292 L9.90260047,3.82813229 L14.6783852,3.82813229 L14.6783852,6.92441576 L16.8017132,6.92441576 L16.8017132,2.30813859 L9.90260047,2.30813859 L9.90260047,1.59505512 L15.9749306,1.59505512 L15.9749306,0 L1.48145622,0 L1.48145622,1.59505512 L7.55378632,1.59505512 L7.55378632,2.30813859 L0.804997741,2.30813859 L0.804997741,6.92441576 L2.92832574,6.92441576 L2.92832574,3.82813229 L7.55378632,3.82813229 L7.55378632,6.81182363 C7.32830016,6.94318111 7.102814,7.01824253 6.85853733,7.1120693 L6.85853733,5.98614804 L3.49204113,5.98614804 L3.49204113,7.14960001 L6.76458476,7.14960001 C4.75399985,8.14416379 2.17969953,8.85724725 0,9.15749292 L0.714039503,11.0715591 C1.24017387,10.9402016 1.78509876,10.8088441 2.44276672,10.6024252 L2.44276672,12.1224189 L12.0635095,12.1224189 C10.9548692,12.8355024 10.2972013,13.1920441 8.83154122,13.7925354 C9.19898284,14.7551524 10.2853961,14.8262042 11.1615649,14.3554961 C12.9654541,13.398463 14.2619995,12.5540221 15.2391062,11.6532851 L15.2391062,10.696252 C15.8216121,10.8651402 16.291375,10.9777323 16.7423473,11.0715591 L17.4751773,9.13872757 C15.3518493,8.85724725 12.9565933,8.12317925 10.7581033,7.12861547 Z M14.4113475,10.4397162 L9.88564642,10.4397163 C9.88564628,9.79075187 9.88564628,8.89934296 9.88564628,8.89934296 L7.5409261,8.8993429 C7.5409261,8.8993429 7.5409261,9.86058872 7.54092618,10.4397162 L2.95035461,10.4397162 C5.4076215,9.6758759 7.13333565,8.83751453 8.72774547,7.94326241 C10.5284907,8.89340529 12.1979315,9.69450615 14.4113475,10.4397162 Z" id="Path"></path>
                        <path d="M8.95843192,13.8982216 C7.19309606,13.3218017 6.76438437,13.1924034 5.29661469,12.7510048 L4.48388259,14.2577123 L12.2857918,17.1214635 L13.1632902,15.3042162 C13.1632902,15.3042162 12.1281678,14.9544234 11.2381928,14.6480745 C10.2036963,14.1154677 10.4637395,14.029919 8.95843192,13.8982216 Z" id="Path"></path>
                        <path d="M14.070922,4.42553191 L10.5531915,4.42553193 L10.5531915,5.56028369 L14.070922,5.56028367 L14.070922,4.42553191 Z" id="Path"></path>
                        <path d="M6.80851064,4.42553191 L3.40425532,4.42553191 L3.40425532,5.56028369 L6.80851064,5.56028369 L6.80851064,4.42553191 Z" id="Path"></path>
                    </g>
                </g>
                <g id="g0v-logo" transform="translate(6.695035, 0.000000)" sketch:type="MSShapeGroup">
                    <path d="M9.6574619,10.239324 C13.0837614,10.239324 15.5191214,10.7463407 17.2658623,11.4223631 L17.2658623,8.58306926 C15.7878508,8.10985363 13.4532643,7.60283688 9.72464424,7.60283688 C4.97149343,7.60283688 2.70408933,8.5661687 1.57878508,9.69850611 C0.537458749,10.7463407 0,12.1490871 0,13.9574468 C0,15.7658065 0.537458749,17.1685529 1.57878508,18.2163875 C2.72088492,19.382526 4.93790226,20.3120567 9.57348397,20.3120567 C13.2853085,20.3120567 15.5695081,19.7881394 16.9803374,18.3684925 C17.7529343,17.5910668 18.1560284,16.4925306 18.1560284,14.599668 L18.1560284,13.0279161 L7.80994745,13.0279161 L7.80994745,15.3939943 L15.0656406,15.3939943 C15.0824361,15.6644032 15.0824361,16.2897239 14.6625465,16.7122378 C13.9067451,17.4727629 12.0424351,17.7262713 9.57348397,17.7262713 C6.5502785,17.7262713 4.97149343,17.1685529 4.23248765,16.4249283 C3.6950289,15.8672099 3.40950394,15.0728837 3.40950394,13.9574468 C3.40950394,12.8758111 3.71182449,12.0307832 4.29966999,11.4392636 C4.95469784,10.7801418 6.5502785,10.239324 9.6574619,10.239324 C9.6574619,10.239324 6.5502785,10.239324 9.6574619,10.239324 L9.6574619,10.239324 L9.6574619,10.239324 Z" id="Path" fill="#FFFFFF"></path>
                    <path d="M67.858156,8.17021277 L63.9619563,8.17021277 L57.7212901,17.459615 L51.4974905,8.17021277 L47.4326241,8.17021277 L55.5792235,19.9716312 L59.7115566,19.9716312 L59.7115566,19.9716312 L67.858156,8.17021277 L67.858156,8.17021277 Z" id="Path" fill="#FFFFFF"></path>
                    <path d="M46.5248227,0 L43.1784882,0 L21.3333333,28.0283688 L24.7301151,28.0283688 L46.5248227,0 Z" id="/" fill="#C60000"></path>
                    <path d="M41.8793512,9.73230723 C40.7688369,8.61687038 38.6319381,7.60283688 33.937491,7.60283688 C29.4113037,7.60283688 27.1061451,8.59996982 25.9788048,9.73230723 C24.9524203,10.7632413 24.3971631,12.0476837 24.3971631,13.9574468 C24.3971631,15.8672099 24.9524203,17.1347518 25.9788048,18.1656858 C27.0893191,19.2811227 29.3271738,20.3120567 33.937491,20.3120567 C38.5478082,20.3120567 40.7688369,19.2980232 41.8793512,18.1825864 C42.9057357,17.1516523 43.4609929,15.8672099 43.4609929,13.9574468 C43.4609929,12.0307832 42.9057357,10.7632413 41.8793512,9.73230723 Z M33.9942758,17.7021277 C30.9486082,17.7021277 29.3750133,17.0742148 28.6981983,16.3953901 C28.1736667,15.8693009 27.8014184,15.1904762 27.8014184,13.9007092 C27.8014184,12.6109422 28.1229056,11.9151469 28.681278,11.3551165 C29.3750133,10.6593212 30.9486082,10.0992908 33.9942758,10.0992908 C37.0399433,10.0992908 38.5627771,10.6762918 39.2734329,11.3890578 C39.8318053,11.9490881 40.1702128,12.6109422 40.1702128,13.9007092 C40.1702128,15.1904762 39.8487256,15.8862715 39.2903533,16.4463019 C38.5796975,17.1590679 37.0399433,17.7021277 33.9942758,17.7021277 Z" id="Path" fill="#FFFFFF"></path>
                </g>
            </g>
        </g>
    </g>
</svg>