<?xml version="1.0" encoding="UTF-8" standalone="no"?>
<svg width="96px" height="96px" viewBox="0 0 96 96" version="1.1" xmlns="http://www.w3.org/2000/svg" xmlns:xlink="http://www.w3.org/1999/xlink" xmlns:sketch="http://www.bohemiancoding.com/sketch/ns">
    <!-- Generator: Sketch 3.4.2 (15855) - http://www.bohemiancoding.com/sketch -->
    <title>houth</title>
    <desc>Created with Sketch.</desc>
    <defs>
        <path id="path-1" d="M0,0.00565714286 L54.3234857,0.00565714286 L54.3234857,72 L0,72 L0,0.00565714286 Z"></path>
        <path id="path-3" d="M0,0.00565714286 L54.3234857,0.00565714286 L54.3234857,72 L0,72 L0,0.00565714286 Z"></path>
        <path id="path-5" d="M0,0.00565714286 L54.3234857,0.00565714286 L54.3234857,72 L0,72 L0,0.00565714286 Z"></path>
    </defs>
    <g id="Page-1" stroke="none" stroke-width="1" fill="none" fill-rule="evenodd" sketch:type="MSPage">
        <g id="houth" sketch:type="MSArtboardGroup">
            <g id="Page-1" sketch:type="MSLayerGroup" transform="translate(20.742857, 12.000000)">
                <path d="M18.9224743,36.1832914 L18.9224743,24.4241486 L17.2613314,25.5098057 L17.2603029,36.1832914 L17.2680171,36.1832914 L17.2680171,36.94392 L17.2613314,36.94392 L17.2613314,38.6045486 L17.2603029,38.9933486 L17.2613314,50.0592343 L18.9224743,51.09912 L18.9224743,38.9933486 L18.9224743,38.6060914 L18.9224743,36.94392 L18.8962457,36.94392 L18.89676,36.1832914 L18.9224743,36.1832914 Z" id="Fill-1" fill="#FFFFFF" sketch:type="MSShapeGroup"></path>
                <path d="M35.4001886,36.9440229 L35.4012171,38.6046514 L35.4007029,51.15528 L37.0613314,50.1133371 L37.06236,39.9762514 L37.0613314,38.6046514 L37.0613314,36.9440229 L37.06236,35.5554514 L37.0613314,25.5135086 L35.4007029,24.4268229 L35.4001886,36.9440229 Z" id="Fill-2" fill="#FFFFFF" sketch:type="MSShapeGroup"></path>
                <g id="Group-82" transform="translate(0.000000, 0.000000)">
                    <g id="Group-5">
                        <mask id="mask-2" sketch:name="Clip 4" fill="white">
                            <use xlink:href="#path-1"></use>
                        </mask>
                        <g id="Clip-4"></g>
                        <path d="M27.9929314,63.9062229 L27.9924171,63.6902229 L27.9929314,62.0203371 L27.9929314,61.9185086 L27.9929314,56.7813086 L26.33076,56.7813086 L26.33076,62.0475943 C26.3297314,62.0475943 26.32716,62.0486229 26.3261314,62.0460514 L26.3261314,63.7082229 C26.32716,63.7082229 26.3292171,63.70668 26.3317886,63.7082229 L26.33076,71.1689657 L24.9344743,71.1689657 L24.9344743,71.9985086 L29.3537314,72.0000514 L29.3542457,71.1689657 L27.9924171,71.1689657 L27.9929314,63.9062229 Z" id="Fill-3" fill="#FFFFFF" sketch:type="MSShapeGroup" mask="url(#mask-2)"></path>
                    </g>
                    <path d="M35.4008571,20.5608857 L37.0614857,21.5364857 L37.0614857,11.7804857 L38.5863429,11.7804857 L38.5863429,10.9494 L34.1660571,10.9494 L34.1660571,11.7804857 L35.4008571,11.7804857 L35.4008571,20.5608857 Z" id="Fill-6" fill="#FFFFFF" sketch:type="MSShapeGroup"></path>
                    <path d="M28.8101829,61.9183029 L28.8225257,61.9183029 L28.8220114,63.6046457 C35.8764686,62.6059029 36.8937257,55.8955029 37.03824,54.0661886 L35.2480114,55.1158457 C34.8653829,57.2953886 33.5179543,61.1257886 28.8101829,61.9183029" id="Fill-8" fill="#FFFFFF" sketch:type="MSShapeGroup"></path>
                    <path d="M17.2611257,21.5439429 L18.92124,20.6130857 L18.9222686,11.7807429 L20.4460971,11.7807429 L20.4460971,10.9496571 L16.02684,10.9496571 L16.0263257,11.7807429 L17.2621543,11.7807429 L17.2611257,21.5439429 Z" id="Fill-10" fill="#FFFFFF" sketch:type="MSShapeGroup"></path>
                    <path d="M45.2754514,39.4535314 L43.6101943,39.4535314 C43.1375657,44.1211886 40.7121943,48.2200457 37.1677371,50.9226171 C36.6395657,51.32016 35.9761371,51.7660457 35.4011657,52.0972457 C35.3425371,52.1332457 35.2844229,52.16616 35.2268229,52.1995886 C33.0678514,53.4102171 30.6147086,54.1543886 27.9995657,54.2860457 L27.99288,54.2860457 C27.8442514,54.29376 27.6961371,54.29376 27.5469943,54.29736 L26.7750514,54.29736 C26.62848,54.29376 26.4788229,54.29376 26.3307086,54.2860457 L26.31168,54.2860457 C23.6307086,54.1492457 21.1194514,53.3680457 18.9229371,52.0972457 L18.9224229,52.0782171 L17.6063657,51.2538171 C17.4906514,51.1715314 17.3733943,51.0913029 17.26128,51.00696 C17.2556229,51.0018171 17.2494514,50.9977029 17.2437943,50.99256 C13.6407086,48.2822743 11.1762514,44.1350743 10.7103086,39.4087886 L9.04453714,39.4087886 C9.55162286,45.0823886 12.6723086,50.0107886 17.19288,52.98336 C17.2155086,52.9987886 17.2381371,53.0126743 17.26128,53.0281029 C17.7642514,53.35416 18.28368,53.6555314 18.8190514,53.9358171 L18.9393943,54.0062743 C18.93888,54.00216 18.9383657,53.9995886 18.93888,53.9959886 C21.1775657,55.1351314 23.68008,55.8289029 26.3307086,55.9482171 C26.3708229,55.9492457 26.4109371,55.9492457 26.4510514,55.9502743 L27.8725371,55.9502743 C27.9126514,55.9492457 27.9522514,55.9492457 27.9923657,55.9482171 C30.6429943,55.8278743 33.1455086,55.13616 35.3847086,53.9959886 C35.9617371,53.7018171 36.5223086,53.3783314 37.0623086,53.02656 C41.6070514,50.06736 44.7529371,45.1363886 45.2754514,39.4535314" id="Fill-12" fill="#FFFFFF" sketch:type="MSShapeGroup"></path>
                    <g id="Group-16">
                        <mask id="mask-4" sketch:name="Clip 15" fill="white">
                            <use xlink:href="#path-3"></use>
                        </mask>
                        <g id="Clip-15"></g>
                        <path d="M3.04143429,47.21112 L3.04143429,47.21112 L4.41972,47.21112 L4.41972,46.3815771 L3.04040571,46.3800343 L3.04143429,38.6045486 L7.72503429,38.6045486 L8.98863429,38.6060914 L10.6497771,38.6045486 L11.87172,38.6060914 L16.4370343,38.6045486 L16.43652,36.94392 L10.6502914,36.94392 C10.6502914,36.9387771 10.6497771,36.9336343 10.6502914,36.9284914 L8.98863429,36.9284914 C8.98812,36.9336343 8.98863429,36.9387771 8.98760571,36.94392 L3.04092,36.94392 L3.04092,28.7518629 L4.41972,28.7518629 L4.41972,27.92232 L-5.14285714e-05,27.92232 L0.000462857143,28.7518629 L1.37926286,28.7518629 L1.37977714,46.3815771 L-5.14285714e-05,46.3815771 L0.000462857143,47.21112 L1.38029143,47.21112 L3.04143429,47.21112 Z" id="Fill-14" fill="#FFFFFF" sketch:type="MSShapeGroup" mask="url(#mask-4)"></path>
                    </g>
                    <path d="M27.9929314,53.4678171 L27.9929314,38.60496 L34.5361886,38.6059886 L34.5361886,36.9438171 L19.7273314,36.9438171 L19.7273314,38.60496 L26.3317886,38.60496 L26.33076,53.4662743 L27.9929314,53.4678171 Z" id="Fill-17" fill="#FFFFFF" sketch:type="MSShapeGroup"></path>
                    <path d="M25.4948914,61.9604229 C20.7500914,61.2651086 19.4288914,57.2649943 19.0637486,55.0566514 L17.2802057,54.01008 C17.4056914,55.7730514 18.3560914,62.7776229 25.4948914,63.6380229 L25.4948914,61.9604229 Z" id="Fill-19" fill="#FFFFFF" sketch:type="MSShapeGroup"></path>
                    <path d="M42.4795371,13.2226457 L41.7513086,12.82356 L38.79468,18.2292171 L39.5239371,18.62676 L42.4795371,13.2226457 Z" id="Fill-21" fill="#FFFFFF" sketch:type="MSShapeGroup"></path>
                    <path d="M41.8658914,20.3038971 L43.8464057,17.7381257 L43.1876057,17.2320686 L41.2086343,19.7962971 L41.8658914,20.3038971 Z" id="Fill-23" fill="#FFFFFF" sketch:type="MSShapeGroup"></path>
                    <path d="M43.9762629,22.2624514 L48.4227771,17.8277657 L47.8359771,17.2409657 L43.3884343,21.67308 L43.9762629,22.2624514 Z" id="Fill-25" fill="#FFFFFF" sketch:type="MSShapeGroup"></path>
                    <path d="M45.3065143,23.8196057 L45.8094857,24.4820057 L48.3876,22.51692 L47.8836,21.8560629 L45.3065143,23.8196057 Z" id="Fill-27" fill="#FFFFFF" sketch:type="MSShapeGroup"></path>
                    <path d="M47.31012,26.9364343 L52.9832057,24.2580343 L52.6283486,23.5061486 L46.9557771,26.1845486 L47.31012,26.9364343 Z" id="Fill-29" fill="#FFFFFF" sketch:type="MSShapeGroup"></path>
                    <path d="M24.5143029,15.1134686 L24.1013314,11.8981543 L23.2769314,12.0040971 L23.6909314,15.2194114 L24.5143029,15.1134686 Z" id="Fill-31" fill="#FFFFFF" sketch:type="MSShapeGroup"></path>
                    <path d="M27.4003714,8.7264 L26.5708286,8.72485714 L26.5610571,15.0048 L27.3906,15.0058286 L27.4003714,8.7264 Z" id="Fill-33" fill="#FFFFFF" sketch:type="MSShapeGroup"></path>
                    <path d="M30.6916971,12.0669429 L29.8678114,11.9543143 L29.4347829,15.1644857 L30.25764,15.2771143 L30.6916971,12.0669429 Z" id="Fill-35" fill="#FFFFFF" sketch:type="MSShapeGroup"></path>
                    <path d="M7.58334857,26.2511486 L2.17820571,23.2955486 L1.77963429,24.0227486 L7.18374857,26.9798914 L7.58334857,26.2511486 Z" id="Fill-37" fill="#FFFFFF" sketch:type="MSShapeGroup"></path>
                    <path d="M9.25940571,23.9077543 L6.69312,21.9287829 L6.18552,22.58604 L8.75077714,24.5650114 L9.25940571,23.9077543 Z" id="Fill-39" fill="#FFFFFF" sketch:type="MSShapeGroup"></path>
                    <path d="M11.2182171,21.7984114 L6.78353143,17.3508686 L6.19570286,17.9386971 L10.62936,22.38624 L11.2182171,21.7984114 Z" id="Fill-41" fill="#FFFFFF" sketch:type="MSShapeGroup"></path>
                    <path d="M13.4366914,19.9650857 L11.47212,17.3864571 L10.8117771,17.8914857 L12.7748057,20.4685714 L13.4366914,19.9650857 Z" id="Fill-43" fill="#FFFFFF" sketch:type="MSShapeGroup"></path>
                    <path d="M15.8912743,18.4641943 L13.2128743,12.7916229 L12.4604743,13.1469943 L15.1399029,18.8195657 L15.8912743,18.4641943 Z" id="Fill-45" fill="#FFFFFF" sketch:type="MSShapeGroup"></path>
                    <path d="M12.3045943,62.2711029 L13.0338514,62.6712171 L15.9899657,57.2660743 L15.2612229,56.8669886 L12.3045943,62.2711029 Z" id="Fill-47" fill="#FFFFFF" sketch:type="MSShapeGroup"></path>
                    <path d="M12.9192686,55.1924229 L10.9387543,57.7566514 L11.5965257,58.2642514 L13.5765257,55.7000229 L12.9192686,55.1924229 Z" id="Fill-49" fill="#FFFFFF" sketch:type="MSShapeGroup"></path>
                    <path d="M10.8094629,53.2325314 L6.36192,57.6661886 L6.94974857,58.2540171 L11.3957486,53.8208743 L10.8094629,53.2325314 Z" id="Fill-51" fill="#FFFFFF" sketch:type="MSShapeGroup"></path>
                    <path d="M6.90063429,53.6390743 L9.47823429,51.6755314 L8.97526286,51.0131314 L6.39714857,52.9782171 L6.90063429,53.6390743 Z" id="Fill-53" fill="#FFFFFF" sketch:type="MSShapeGroup"></path>
                    <path d="M7.47468,48.5598343 L1.80108,51.2382343 L2.15593714,51.9885771 L7.82953714,49.3101771 L7.47468,48.5598343 Z" id="Fill-55" fill="#FFFFFF" sketch:type="MSShapeGroup"></path>
                    <path d="M47.20212,49.2438857 L52.60572,52.2010286 L53.0058343,51.4707429 L47.6006914,48.5151429 L47.20212,49.2438857 Z" id="Fill-57" fill="#FFFFFF" sketch:type="MSShapeGroup"></path>
                    <path d="M45.5263714,51.5859429 L48.0911143,53.5664571 L48.5992286,52.9092 L46.0339714,50.9286857 L45.5263714,51.5859429 Z" id="Fill-59" fill="#FFFFFF" sketch:type="MSShapeGroup"></path>
                    <path d="M43.5671486,53.6953886 L48.00132,58.1419029 L48.5886343,57.5561314 L44.1549771,53.1096171 L43.5671486,53.6953886 Z" id="Fill-61" fill="#FFFFFF" sketch:type="MSShapeGroup"></path>
                    <path d="M41.34744,55.5298971 L43.31304,58.1085257 L43.9728686,57.6060686 L42.0088114,55.0264114 L41.34744,55.5298971 Z" id="Fill-63" fill="#FFFFFF" sketch:type="MSShapeGroup"></path>
                    <path d="M38.8941943,57.0295029 L41.5710514,62.7031029 L42.3229371,62.3477314 L39.6450514,56.67516 L38.8941943,57.0295029 Z" id="Fill-65" fill="#FFFFFF" sketch:type="MSShapeGroup"></path>
                    <path d="M54.3229714,28.7773714 L54.3224571,27.9462857 L49.9032,27.9462857 L49.9032,28.7773714 L51.2814857,28.7773714 L51.282,36.9442286 L45.3348,36.9442286 L43.6736571,36.9442286 L37.8920571,36.9442286 L37.8920571,38.6048571 L43.6731429,38.6048571 C43.6736571,38.6110286 43.6736571,38.6177143 43.6736571,38.6228571 L45.3337714,38.6228571 C45.3348,38.6177143 45.3353143,38.6110286 45.3348,38.6058857 L51.282,38.6048571 L51.282,46.3803429 L49.9032,46.3813714 L49.9032,47.2109143 L51.282,47.2109143 L52.9431429,47.2109143 L54.3234857,47.2109143 L54.3224571,46.3813714 L52.9436571,46.3813714 L52.9436571,28.7773714 L54.3229714,28.7773714 Z" id="Fill-67" fill="#FFFFFF" sketch:type="MSShapeGroup"></path>
                    <path d="M37.0810286,24.55596 C40.6774286,27.2621314 43.1388,31.3980171 43.6114286,36.1129886 L45.2766857,36.1129886 C44.7593143,30.4229314 41.6113714,25.4842457 37.0614857,22.52196 L37.062,22.5142457 L36.9396,22.4437886 L35.6729143,21.7001314 L35.4013714,21.5401886 L35.4003429,21.56076 C32.9256,20.2976743 30.1263429,19.5802457 27.162,19.5802457 C24.2418857,19.5802457 21.4832571,20.27556 19.0347429,21.50316 C18.9977143,21.5221886 18.9601714,21.5412171 18.9226286,21.56076 C18.3564,21.8497886 17.8076571,22.1665886 17.2779429,22.5116743 L17.2604571,22.5204171 L17.2609714,22.52196 C12.7157143,25.4816743 9.57034286,30.4136743 9.04731429,36.0965314 L10.7130857,36.0965314 C11.1903429,31.3903029 13.6481143,27.2621314 17.2388571,24.5611029 C17.2455429,24.5533886 17.2532571,24.5472171 17.2609714,24.5420743 C17.3268,24.4932171 17.3946857,24.4459029 17.4620571,24.39756 C17.8683429,24.1018457 18.2874857,23.8246457 18.7205143,23.5664743 C18.7868571,23.5258457 18.8552571,23.4898457 18.9226286,23.4502457 C18.9365143,23.4409886 18.9514286,23.4332743 18.9653143,23.4260743 C21.3829714,22.0400743 24.1801714,21.2424171 27.1614857,21.2424171 C30.1494857,21.2408743 32.9533714,22.0426457 35.3746286,23.4358457 C35.3833714,23.43996 35.3910857,23.4451029 35.4013714,23.4502457 C35.4605143,23.4847029 35.5196571,23.5181314 35.5788,23.5536171 L36.9200571,24.4397314 C36.9673714,24.4741886 37.0157143,24.5076171 37.0614857,24.5431029 C37.0686857,24.5472171 37.0748571,24.5518457 37.0810286,24.55596" id="Fill-69" fill="#FFFFFF" sketch:type="MSShapeGroup"></path>
                    <path d="M6.93452571,6.05705143 C6.88155429,5.98659429 6.81161143,5.98299429 6.72572571,6.04779429 L6.64601143,5.94185143 L7.55372571,5.26299429 L7.63344,5.36945143 C7.60566857,5.38950857 7.58766857,5.41779429 7.57944,5.45122286 C7.57069714,5.48568 7.57995429,5.52013714 7.60618286,5.55459429 L9.60726857,8.23145143 C9.63349714,8.26590857 9.66384,8.28545143 9.69932571,8.28648 C9.73378286,8.28802286 9.76515429,8.27876571 9.79241143,8.25716571 L9.87161143,8.36310857 L8.96389714,9.04196571 L8.88469714,8.93602286 C8.97109714,8.87225143 8.98806857,8.80436571 8.93509714,8.73288 L8.10658286,7.62562286 L6.20886857,9.04453714 L7.03738286,10.1517943 C7.06361143,10.1877943 7.09395429,10.20528 7.12892571,10.2078514 C7.16389714,10.2093943 7.19526857,10.1991086 7.22252571,10.1785371 L7.30172571,10.2849943 L6.41149714,10.9509943 L6.33229714,10.8445371 C6.40686857,10.78848 6.41818286,10.7257371 6.36521143,10.6542514 L4.36464,7.97842286 C4.31166857,7.90796571 4.24738286,7.90025143 4.17332571,7.95682286 L4.09412571,7.85088 L4.98384,7.18436571 L5.06304,7.29082286 C5.03578286,7.31139429 5.01778286,7.33813714 5.00904,7.37259429 C5.00081143,7.40550857 5.01006857,7.43996571 5.03629714,7.47596571 L5.78561143,8.47830857 L7.68384,7.05939429 L6.93452571,6.05705143 Z" id="Fill-71" fill="#FFFFFF" sketch:type="MSShapeGroup"></path>
                    <path d="M16.1025429,2.20062857 C15.9384857,2.30657143 15.7991143,2.43308571 15.6849429,2.58017143 C15.5702571,2.72725714 15.4900286,2.8908 15.4437429,3.07131429 C15.3969429,3.25337143 15.4015714,3.44262857 15.4566,3.64217143 C15.5121429,3.84017143 15.6062571,4.00525714 15.7389429,4.13537143 C15.8726571,4.26702857 16.0259143,4.36577143 16.1997429,4.43211429 C16.3735714,4.49742857 16.5582,4.53445714 16.7536286,4.54062857 C16.9490571,4.54834286 17.1362571,4.52674286 17.3162571,4.47531429 C17.4957429,4.42594286 17.6675143,4.34777143 17.8310571,4.24182857 C17.9951143,4.13434286 18.1344857,4.00782857 18.2486571,3.86177143 C18.3633429,3.71468571 18.4440857,3.55114286 18.4903714,3.3696 C18.5366571,3.1896 18.5320286,2.99828571 18.4775143,2.80028571 C18.4219714,2.60177143 18.3278571,2.4372 18.1946571,2.30657143 C18.0609429,2.17491429 17.9076857,2.07668571 17.7338571,2.00982857 C17.5600286,1.94348571 17.3754,1.908 17.1804857,1.90028571 C16.9845429,1.8936 16.7973429,1.91571429 16.6178571,1.9656 C16.4378571,2.01548571 16.2660857,2.09468571 16.1025429,2.20062857 M17.2627714,1.2096 C17.5538571,1.21217143 17.8320857,1.26102857 18.0979714,1.35565714 C18.3633429,1.44874286 18.6004286,1.59582857 18.8087143,1.79537143 C19.017,1.99491429 19.1661429,2.25668571 19.2571714,2.58274286 C19.3476857,2.90982857 19.3554,3.21274286 19.2798,3.48994286 C19.2047143,3.76868571 19.0776857,4.01657143 18.8987143,4.23411429 C18.7202571,4.45268571 18.5058,4.63422857 18.2558571,4.77977143 C18.0064286,4.92531429 17.7513429,5.03537143 17.4916286,5.10685714 C17.2319143,5.17988571 16.9572857,5.21845714 16.6677429,5.22205714 C16.3787143,5.22617143 16.101,5.18142857 15.8361429,5.0868 C15.5702571,4.99217143 15.3331714,4.84611429 15.1254,4.64708571 C14.9166,4.44754286 14.7674571,4.18422857 14.6769429,3.85817143 C14.5859143,3.53211429 14.5782,3.23022857 14.6538,2.95097143 C14.7288857,2.67377143 14.8559143,2.42537143 15.0348857,2.2068 C15.2138571,1.98977143 15.4267714,1.80411429 15.6746571,1.65085714 C15.9225429,1.49862857 16.1760857,1.386 16.4363143,1.31348571 C16.6960286,1.24045714 16.9716857,1.206 17.2627714,1.2096" id="Fill-73" fill="#FFFFFF" sketch:type="MSShapeGroup"></path>
                    <g id="Group-77">
                        <mask id="mask-6" sketch:name="Clip 76" fill="white">
                            <use xlink:href="#path-5"></use>
                        </mask>
                        <g id="Clip-76"></g>
                        <path d="M26.8673143,0.18324 C26.7593143,0.17964 26.7037714,0.221811429 26.7006857,0.309754286 L26.6173714,2.51655429 C26.6060571,2.82461143 26.6970857,3.04061143 26.8914857,3.16404 C27.0853714,3.28644 27.3738857,3.35586857 27.756,3.36975429 C28.1386286,3.38364 28.4312571,3.33786857 28.6344,3.23038286 C28.8370286,3.12135429 28.9445143,2.91255429 28.9563429,2.60449714 L29.0391429,0.398211429 C29.0427429,0.309754286 28.9707429,0.26244 28.8236571,0.257297143 L28.8288,0.124611429 L30.0054857,0.169354286 L30.0003429,0.30204 C29.8825714,0.296897143 29.8218857,0.339068571 29.8188,0.427525714 L29.7370286,2.59678286 C29.7262286,2.88581143 29.6753143,3.12341143 29.5848,3.30958286 C29.4942857,3.49626857 29.3636571,3.64181143 29.1929143,3.74826857 C29.0216571,3.85421143 28.8118286,3.92312571 28.5629143,3.95295429 C28.314,3.98226857 28.0275429,3.99101143 27.7035429,3.97969714 C27.3800571,3.96684 27.0951429,3.93598286 26.8488,3.88764 C26.6029714,3.84032571 26.3988,3.75598286 26.2362857,3.63666857 C26.0737714,3.51786857 25.9544571,3.36204 25.8783429,3.17021143 C25.8022286,2.97786857 25.7693143,2.73769714 25.7801143,2.44712571 L25.8618857,0.277868571 C25.8654857,0.189411429 25.7986286,0.14364 25.6613143,0.138497143 L25.6664571,0.00529714286 L26.8724571,0.0515828571 L26.8673143,0.18324 Z" id="Fill-75" fill="#FFFFFF" sketch:type="MSShapeGroup" mask="url(#mask-6)"></path>
                    </g>
                    <path d="M37.8094629,5.73994286 L37.7667771,5.86542857 L36.6934629,5.50234286 L36.7356343,5.37685714 C36.7680343,5.38714286 36.8004343,5.38714286 36.8333486,5.37428571 C36.8657486,5.36297143 36.8894057,5.33622857 36.9038057,5.29354286 L37.8408343,2.51742857 L36.6908914,2.12914286 C36.64872,2.11474286 36.6039771,2.11371429 36.5566629,2.12245714 C36.5093486,2.13274286 36.4748914,2.16977143 36.4527771,2.23508571 L36.3272914,2.19291429 L36.6574629,1.21628571 L36.7824343,1.25948571 C36.7608343,1.3248 36.7654629,1.37468571 36.7973486,1.41171429 C36.82872,1.44874286 36.8657486,1.47342857 36.9074057,1.48731429 L40.0034057,2.5344 C40.0450629,2.54828571 40.0898057,2.54982857 40.1366057,2.54057143 C40.18392,2.53028571 40.2188914,2.49325714 40.2410057,2.42794286 L40.3664914,2.47062857 L40.0368343,3.44622857 L39.9113486,3.40405714 C39.9334629,3.33925714 39.92832,3.28937143 39.8969486,3.25234286 C39.8650629,3.2148 39.8285486,3.1896 39.7863771,3.1752 L38.63592,2.7864 L37.6983771,5.56251429 C37.6700914,5.64531429 37.70712,5.70548571 37.8094629,5.73994286" id="Fill-78" fill="#FFFFFF" sketch:type="MSShapeGroup"></path>
                    <path d="M49.0539086,8.00151429 C49.1058514,7.93002857 49.0878514,7.86317143 49.0009371,7.7994 L49.0785943,7.69191429 L49.9955657,8.35945714 L49.9173943,8.4654 C49.8896229,8.44637143 49.8582514,8.43608571 49.82328,8.43865714 C49.7888229,8.44122857 49.75848,8.45922857 49.7322514,8.49522857 L47.7666514,11.1978 C47.7409371,11.2332857 47.7321943,11.2677429 47.7414514,11.3011714 C47.74968,11.3356286 47.7687086,11.3623714 47.79648,11.3829429 L47.7183086,11.4888857 L46.8013371,10.8228857 L46.8795086,10.7154 C46.9669371,10.7796857 47.0363657,10.7755714 47.0883086,10.7040857 L47.9024229,9.58551429 L45.9861943,8.19077143 L45.17208,9.30934286 C45.1458514,9.34534286 45.1376229,9.3798 45.1463657,9.41425714 C45.1551086,9.44717143 45.1736229,9.47442857 45.2013943,9.49448571 L45.1232229,9.60197143 L44.2247657,8.94728571 L44.3024229,8.84134286 C44.3780229,8.89637143 44.4417943,8.88762857 44.4932229,8.81562857 L46.4588229,6.1146 C46.51128,6.04311429 46.4994514,5.97882857 46.4238514,5.92534286 L46.5020229,5.81785714 L47.40048,6.471 L47.3223086,6.57848571 C47.2945371,6.55791429 47.26368,6.54917143 47.2287086,6.55174286 C47.1937371,6.55328571 47.1633943,6.57231429 47.13768,6.6078 L46.4012229,7.6194 L48.3179657,9.01414286 L49.0539086,8.00151429 Z" id="Fill-80" fill="#FFFFFF" sketch:type="MSShapeGroup"></path>
                </g>
            </g>
        </g>
    </g>
</svg>