<?xml version="1.0" encoding="UTF-8" standalone="no"?>
<svg width="96px" height="96px" viewBox="0 0 96 96" version="1.1" xmlns="http://www.w3.org/2000/svg" xmlns:xlink="http://www.w3.org/1999/xlink" xmlns:sketch="http://www.bohemiancoding.com/sketch/ns">
    <!-- Generator: Sketch 3.4.2 (15855) - http://www.bohemiancoding.com/sketch -->
    <title>ifoffice</title>
    <desc>Created with Sketch.</desc>
    <defs>
        <path id="path-1" d="M0,0.0180352423 L91.8611894,0.0180352423 L91.8611894,11.5506608 L0,11.5506608 L0,0.0180352423 Z"></path>
        <path id="path-3" d="M0,0.0180352423 L91.8611894,0.0180352423 L91.8611894,11.5506608 L0,11.5506608 L0,0.0180352423 Z"></path>
    </defs>
    <g id="Page-1" stroke="none" stroke-width="1" fill="none" fill-rule="evenodd" sketch:type="MSPage">
        <g id="ifoffice" sketch:type="MSArtboardGroup">
            <g id="Page-1" sketch:type="MSLayerGroup" transform="translate(2.000000, 42.224670)">
                <path d="M0,11.3597709 L2.45319824,11.3597709 L2.45319824,0.20953304 L0,0.20953304 L0,11.3597709 Z" id="Fill-1" fill="#ECEBEB" sketch:type="MSShapeGroup"></path>
                <path d="M6.66667665,0.209431718 L6.66667665,11.3596696 L9.11967225,11.3596696 L9.11967225,7.04255947 L14.4402714,7.04255947 L14.4402714,4.81287665 L9.11967225,4.81287665 L9.11967225,2.43931718 L15.1568176,2.43931718 L15.1568176,0.209431718 L6.66667665,0.209431718 Z" id="Fill-2" fill="#ECEBEB" sketch:type="MSShapeGroup"></path>
                <g id="Group-14">
                    <g id="Group-5">
                        <mask id="mask-2" sketch:name="Clip 4" fill="white">
                            <use xlink:href="#path-1"></use>
                        </mask>
                        <g id="Clip-4"></g>
                        <path d="M33.8744608,5.78442907 C33.8744608,3.87350396 32.4725753,2.27991806 30.4974123,2.27991806 C28.5222493,2.27991806 27.1525841,3.84148634 27.1525841,5.7526141 L27.1525841,5.78442907 C27.1525841,7.69555683 28.5544696,9.2885348 30.5292273,9.2885348 C32.5043903,9.2885348 33.8744608,7.72777709 33.8744608,5.81624405 L33.8744608,5.78442907 Z M30.4974123,11.5506405 C27.0569366,11.5506405 24.5877295,8.98639383 24.5877295,5.81624405 L24.5877295,5.78442907 C24.5877295,2.61468458 27.0883463,0.018014978 30.5292273,0.018014978 C33.9701084,0.018014978 36.4389101,2.5828696 36.4389101,5.7526141 L36.4389101,5.78442907 C36.4389101,8.95417357 33.9380907,11.5506405 30.4974123,11.5506405 L30.4974123,11.5506405 Z" id="Fill-3" fill="#ECEBEB" sketch:type="MSShapeGroup" mask="url(#mask-2)"></path>
                    </g>
                    <path d="M42.4881736,2.43943877 L42.4881736,4.81279559 L47.8087727,4.81279559 L47.8087727,7.04268106 L42.4881736,7.04268106 L42.4881736,11.3597912 L40.035178,11.3597912 L40.035178,0.209350661 L48.5253189,0.209350661 L48.5253189,2.43943877 L42.4881736,2.43943877 Z" id="Fill-6" fill="#ECEBEB" sketch:type="MSShapeGroup"></path>
                    <path d="M54.3052088,2.43943877 L54.3052088,4.81279559 L59.6254026,4.81279559 L59.6254026,7.04268106 L54.3052088,7.04268106 L54.3052088,11.3597912 L51.8524159,11.3597912 L51.8524159,0.209350661 L60.3421515,0.209350661 L60.3421515,2.43943877 L54.3052088,2.43943877 Z" id="Fill-8" fill="#ECEBEB" sketch:type="MSShapeGroup"></path>
                    <mask id="mask-4" sketch:name="Clip 11" fill="white">
                        <use xlink:href="#path-3"></use>
                    </mask>
                    <g id="Clip-11"></g>
                    <path d="M63.7535683,0.209330396 L66.2065639,0.209330396 L66.2065639,11.3595683 L63.7535683,11.3595683 L63.7535683,0.209330396 Z" id="Fill-10" fill="#ECEBEB" sketch:type="MSShapeGroup" mask="url(#mask-4)"></path>
                    <path d="M75.5635515,11.5506608 C72.2821507,11.5506608 69.8451639,9.01822907 69.8451639,5.81626432 L69.8451639,5.78444934 C69.8451639,2.61470485 72.2341242,0.0180352423 75.6589965,0.0180352423 C77.76223,0.0180352423 79.0200361,0.71938326 80.0557454,1.73847577 L78.4943797,3.53896035 C77.6339568,2.75837885 76.7583357,2.27993833 75.643393,2.27993833 C73.7634722,2.27993833 72.4094106,3.84150661 72.4094106,5.75263436 L72.4094106,5.78444934 C72.4094106,7.69557709 73.7318599,9.28855507 75.643393,9.28855507 C76.9172079,9.28855507 77.6979921,8.77911013 78.5738159,7.98312775 L80.1347762,9.55948899 C78.9882211,10.7864934 77.7137982,11.5506608 75.5635515,11.5506608" id="Fill-12" fill="#ECEBEB" sketch:type="MSShapeGroup" mask="url(#mask-4)"></path>
                    <path d="M83.3712511,11.3596899 L83.3712511,0.209451982 L91.7817533,0.209451982 L91.7817533,2.39131101 L85.8084405,2.39131101 L85.8084405,4.65341674 L91.0650044,4.65341674 L91.0650044,6.83568106 L85.8084405,6.83568106 L85.8084405,9.17742555 L91.8611894,9.17742555 L91.8611894,11.3596899 L83.3712511,11.3596899 Z" id="Fill-13" fill="#ECEBEB" sketch:type="MSShapeGroup" mask="url(#mask-4)"></path>
                </g>
            </g>
        </g>
    </g>
</svg>