<?xml version="1.0" encoding="UTF-8" standalone="no"?>
<svg width="96px" height="96px" viewBox="0 0 96 96" version="1.1" xmlns="http://www.w3.org/2000/svg" xmlns:xlink="http://www.w3.org/1999/xlink" xmlns:sketch="http://www.bohemiancoding.com/sketch/ns">
    <!-- Generator: Sketch 3.4.2 (15855) - http://www.bohemiancoding.com/sketch -->
    <title>jldesign</title>
    <desc>Created with Sketch.</desc>
    <defs>
        <path id="path-1" d="M0,1.79862069 L40.6013793,1.79862069 L40.6013793,80 L0,80"></path>
        <path id="path-3" d="M0,1.79862069 L40.6013793,1.79862069 L40.6013793,80 L0,80 L0,1.79862069 Z"></path>
    </defs>
    <g id="Page-1" stroke="none" stroke-width="1" fill="none" fill-rule="evenodd" sketch:type="MSPage">
        <g id="jldesign" sketch:type="MSArtboardGroup">
            <g id="Page-1" sketch:type="MSLayerGroup" transform="translate(27.310345, 8.000000)">
                <path d="M29.2104828,25.7489655 C24.9291034,28.6096552 22.2918621,32.2262069 19.7815172,40.5131034 C18.7111724,44.0358621 13.673931,61.1806897 12.4353103,65.0813793 L8.05737931,65.9172414 L7.87806897,66.5075862 C10.0573793,66.3641379 14.313931,66.32 17.078069,66.2758621 C19.8366897,66.2344828 24.5787586,66.3034483 25.4946207,66.2813793 C27.433931,66.2289655 28.8132414,65.8896552 29.5663448,65.4731034 C30.3111724,65.0537931 30.998069,64.16 31.1691034,63.68 C31.1553103,63.702069 30.438069,63.6855172 30.438069,63.6855172 C29.4146207,65.1034483 27.6022069,65.4537931 24.6863448,65.3655172 C22.6366897,65.302069 17.7235862,64.8110345 17.5884138,64.7944828 C18.5842759,61.4648276 22.5263448,47.4289655 25.113931,38.8965517 C28.0353103,29.2717241 31.4670345,25.5862069 36.6228966,23.1144828 L36.6918621,22.8937931 C35.033931,23.0868966 32.7442759,23.3682759 29.2104828,25.7489655 M20.8187586,27.8013793 C21.8918621,24.2731034 26.9235862,7.1337931 28.1677241,3.23310345 L32.5428966,2.39724138 L32.7194483,1.79862069 C31.6297931,1.79862069 27.4118621,1.97241379 25.6491034,1.97241379 C24.1125517,1.97241379 18.2697931,1.98896552 17.2849655,1.98896552 L17.1553103,2.58206897 L23.0670345,3.31862069 C22.176,6.26758621 18.1263448,20.7062069 15.4808276,29.417931 C12.5649655,39.0289655 9.13324138,42.72 3.98013793,45.2 L3.90841379,45.4151724 C5.56358621,45.2275862 7.85875862,44.9406897 11.3842759,42.56 C15.6684138,39.6993103 18.3084138,36.0827586 20.8187586,27.8013793" id="Fill-1" fill="#FEFEFE" sketch:type="MSShapeGroup"></path>
                <g id="Group-5">
                    <mask id="mask-2" sketch:name="Clip 4" fill="white">
                        <use xlink:href="#path-1"></use>
                    </mask>
                    <g id="Clip-4"></g>
                    <path d="M1.19613793,80 C0.696827586,80 0.324413793,79.8482759 -0.00110344828,79.5310345 L0.374068966,79.1531034 C0.564413793,79.3434483 0.765793103,79.497931 1.19613793,79.497931 C1.88027586,79.497931 2.272,79.062069 2.272,78.2924138 L2.272,74.72 L2.82924138,74.72 L2.82924138,78.3668966 C2.82924138,79.3737931 2.15337931,80 1.19613793,80" id="Fill-3" fill="#FEFEFE" sketch:type="MSShapeGroup" mask="url(#mask-2)"></path>
                </g>
                <path d="M5.00524138,79.9569655 L5.00524138,74.7211034 L5.56248276,74.7211034 L5.56248276,79.4548966 L8.23834483,79.4548966 L8.23834483,79.9569655 L5.00524138,79.9569655 Z" id="Fill-6" fill="#FEFEFE" sketch:type="MSShapeGroup"></path>
                <path d="M15.2504828,75.6033103 C14.9746207,75.321931 14.6242759,75.2198621 14.2215172,75.2198621 L13.0794483,75.2198621 L13.0794483,79.4543448 L14.2215172,79.4543448 C14.6242759,79.4543448 14.9746207,79.3467586 15.2504828,79.0681379 C15.6118621,78.6957241 15.5925517,77.9150345 15.5925517,77.2777931 C15.5925517,76.6377931 15.6118621,75.9757241 15.2504828,75.6033103 M15.6366897,79.4708966 C15.3222069,79.7853793 14.856,79.9564138 14.3153103,79.9564138 L12.5222069,79.9564138 L12.5222069,74.7205517 L14.3153103,74.7205517 C14.856,74.7205517 15.3222069,74.8915862 15.6366897,75.2033103 C16.1801379,75.7495172 16.1553103,76.5522759 16.1553103,77.2777931 C16.1553103,78.006069 16.1801379,78.921931 15.6366897,79.4708966" id="Fill-8" fill="#FEFEFE" sketch:type="MSShapeGroup"></path>
                <path d="M18.2057931,79.9569655 L18.2057931,74.7211034 L21.4554483,74.7211034 L21.4554483,75.2204138 L18.7630345,75.2204138 L18.7630345,77.0631724 L21.0554483,77.0631724 L21.0554483,77.5652414 L18.7630345,77.5652414 L18.7630345,79.4548966 L21.4554483,79.4548966 L21.4554483,79.9569655 L18.2057931,79.9569655 Z" id="Fill-10" fill="#FEFEFE" sketch:type="MSShapeGroup"></path>
                <path d="M24.6954483,80 C23.912,80 23.3961379,79.8013793 22.9051034,79.3048276 L23.2857931,78.9213793 C23.7188966,79.36 24.1244138,79.497931 24.7147586,79.497931 C25.4788966,79.497931 25.9478621,79.1393103 25.9478621,78.5296552 C25.9478621,78.2537931 25.8651034,78.022069 25.6968276,77.8731034 C25.5285517,77.7268966 25.3961379,77.6827586 25.0126897,77.6248276 L24.4057931,77.5310345 C23.9892414,77.462069 23.672,77.3268966 23.4402759,77.1337931 C23.1726897,76.8965517 23.0430345,76.5737931 23.0430345,76.1517241 C23.0430345,75.2634483 23.6857931,74.6758621 24.7202759,74.6758621 C25.3878621,74.6758621 25.8292414,74.8496552 26.2761379,75.2524138 L25.9202759,75.6082759 C25.5947586,75.3186207 25.249931,75.1613793 24.6954483,75.1613793 C24.0002759,75.1613793 23.5947586,75.5503448 23.5947586,76.1324138 C23.5947586,76.3889655 23.672,76.5958621 23.8347586,76.7337931 C23.9892414,76.8744828 24.2651034,76.9765517 24.5354483,77.0206897 L25.1064828,77.1117241 C25.6002759,77.1834483 25.8430345,77.2855172 26.0637241,77.4786207 C26.3533793,77.7213793 26.5078621,78.0827586 26.5078621,78.5131034 C26.5078621,79.4344828 25.7851034,80 24.6954483,80" id="Fill-12" fill="#FEFEFE" sketch:type="MSShapeGroup"></path>
                <mask id="mask-4" sketch:name="Clip 15" fill="white">
                    <use xlink:href="#path-3"></use>
                </mask>
                <g id="Clip-15"></g>
                <path d="M28.4110345,74.72 L28.9682759,74.72 L28.9682759,79.9558621 L28.4110345,79.9558621 L28.4110345,74.72 Z" id="Fill-14" fill="#FEFEFE" sketch:type="MSShapeGroup" mask="url(#mask-4)"></path>
                <path d="M34.2482759,79.3911724 C33.8813793,79.7911724 33.3903448,80.0008276 32.8524138,80.0008276 C32.3365517,80.0008276 31.8648276,79.8049655 31.5172414,79.4546207 C31.0234483,78.9608276 31.0234483,78.4477241 31.0234483,77.3387586 C31.0234483,76.2297931 31.0234483,75.7111724 31.5172414,75.2201379 C31.8648276,74.8697931 32.3337931,74.6766897 32.8524138,74.6766897 C33.8482759,74.6766897 34.5268966,75.3222069 34.6813793,76.238069 L34.1241379,76.238069 C33.9751724,75.5815172 33.5089655,75.1787586 32.8524138,75.1787586 C32.5048276,75.1787586 32.1765517,75.3166897 31.9475862,75.5484138 C31.6193103,75.8877241 31.5806897,76.238069 31.5806897,77.3387586 C31.5806897,78.4311724 31.6193103,78.7925517 31.9475862,79.1263448 C32.1765517,79.3635862 32.5048276,79.4987586 32.8524138,79.4987586 C33.2358621,79.4987586 33.6027586,79.3415172 33.8455172,79.0518621 C34.057931,78.7925517 34.137931,78.5084138 34.137931,78.1028966 L34.137931,77.7056552 L32.8524138,77.7056552 L32.8524138,77.2146207 L34.697931,77.2146207 L34.697931,78.0394483 C34.697931,78.6463448 34.5710345,79.0518621 34.2482759,79.3911724" id="Fill-16" fill="#FEFEFE" sketch:type="MSShapeGroup" mask="url(#mask-4)"></path>
                <path d="M40.0725517,79.9569655 L37.2946207,75.7611034 L37.2946207,79.9569655 L36.7346207,79.9569655 L36.7346207,74.7211034 L37.2642759,74.7211034 L40.0422069,78.9004138 L40.0422069,74.7211034 L40.5994483,74.7211034 L40.5994483,79.9569655 L40.0725517,79.9569655 Z" id="Fill-17" fill="#FEFEFE" sketch:type="MSShapeGroup" mask="url(#mask-4)"></path>
            </g>
        </g>
    </g>
</svg>