<?xml version="1.0" encoding="UTF-8" standalone="no"?>
<svg width="96px" height="96px" viewBox="0 0 96 96" version="1.1" xmlns="http://www.w3.org/2000/svg" xmlns:xlink="http://www.w3.org/1999/xlink" xmlns:sketch="http://www.bohemiancoding.com/sketch/ns">
    <!-- Generator: Sketch 3.4.2 (15855) - http://www.bohemiancoding.com/sketch -->
    <title>livehouseIn</title>
    <desc>Created with Sketch.</desc>
    <defs>
        <path id="path-1" d="M0,0.220965517 L70.3787586,0.220965517 L70.3787586,54.6206897 L0,54.6206897 L0,0.220965517 Z"></path>
    </defs>
    <g id="Page-1" stroke="none" stroke-width="1" fill="none" fill-rule="evenodd" sketch:type="MSPage">
        <g id="livehouseIn" sketch:type="MSArtboardGroup">
            <g id="Page-1" sketch:type="MSLayerGroup" transform="translate(12.000000, 20.689655)">
                <path d="M40.1702897,35.2973793 C39.7829793,35.2998621 39.4627034,35.4612414 39.2119448,35.7790345 C39.0878069,35.9230345 39.0009103,36.0844138 38.9438069,36.2731034 C38.9264276,36.3202759 38.963669,36.3550345 38.9959448,36.3550345 L39.0009103,36.3550345 L41.1261517,36.3550345 C41.1708414,36.3550345 41.1931862,36.3351724 41.1907034,36.2855172 C41.1385655,35.9826207 41.0392552,35.7616552 40.8952552,35.6151724 C40.6817379,35.4016552 40.4384276,35.2973793 40.1702897,35.2973793" id="Fill-1" fill="#FEFEFE" sketch:type="MSShapeGroup"></path>
                <path d="M26.6241103,35.4984828 C26.4155586,35.3817931 26.1921103,35.3197241 25.9537655,35.3197241 C25.6806621,35.3197241 25.4572138,35.3718621 25.2859034,35.4761379 C25.1170759,35.5878621 24.9705931,35.7368276 24.8489379,35.9230345 C24.7272828,36.144 24.6652138,36.4369655 24.6652138,36.7969655 C24.6652138,37.1594483 24.7173517,37.4822069 24.8216276,37.7155862 C24.9457655,37.9315862 25.0897655,38.1004138 25.2610759,38.222069 C25.4522483,38.3437241 25.6781793,38.4082759 25.9314207,38.4082759 C26.2293517,38.4082759 26.4751448,38.3412414 26.6663172,38.2071724 C26.8450759,38.0706207 26.9816276,37.9017931 27.0710069,37.7006897 C27.1529379,37.4822069 27.1926621,37.1842759 27.1926621,36.8491034 C27.1876966,36.4642759 27.1305931,36.1713103 27.0263172,35.9726897 C26.9046621,35.7641379 26.7705931,35.6077241 26.6241103,35.4984828" id="Fill-3" fill="#FEFEFE" sketch:type="MSShapeGroup"></path>
                <g id="Group-7">
                    <mask id="mask-2" sketch:name="Clip 6" fill="white">
                        <use xlink:href="#path-1"></use>
                    </mask>
                    <g id="Clip-6"></g>
                    <path d="M57.993269,22.3696552 L54.5869241,24.5544828 C53.8545103,25.0634483 52.8589241,24.4973793 52.8589241,23.7823448 L52.8589241,19.5070345 C52.8589241,18.7175172 53.9314759,18.1936552 54.557131,18.6331034 L57.9907862,20.8402759 C58.5568552,21.2722759 58.5369931,21.9078621 57.993269,22.3696552 L57.993269,22.3696552 Z M58.4029241,29.9817931 C58.4029241,30.0314483 58.3632,30.0761379 58.3110621,30.0786207 L58.2986483,30.0786207 L58.1273379,30.0786207 L49.4128552,30.0786207 C48.1540966,30.0786207 47.5234759,29.4405517 47.5234759,28.1693793 L47.5234759,21.5528276 L47.5234759,15.4005517 C47.5358897,14.1442759 48.1665103,13.5136552 49.4128552,13.5136552 L56.8512,13.5136552 C58.1025103,13.5136552 58.353269,15.470069 58.4054069,16.1354483 L58.4054069,16.1428966 C58.4054069,16.2 58.3632,16.2397241 58.3085793,16.2446897 L50.3463724,16.2446897 C50.2967172,16.2446897 50.2520276,16.2868966 50.2520276,16.3365517 L50.2520276,27.2507586 C50.2520276,27.3202759 50.2967172,27.3426207 50.3463724,27.3426207 L56.8040276,27.3426207 C58.0826483,27.3426207 58.3433379,29.2692414 58.4029241,29.9693793 L58.4029241,29.9817931 Z M51.3394759,39.2747586 L51.3394759,39.2797241 C51.3369931,39.3144828 51.3146483,39.3343448 51.2848552,39.3343448 L51.2724414,39.3343448 C51.0589241,39.3045517 50.433269,39.2102069 50.433269,38.8948966 L50.433269,36.3277241 C50.433269,35.9851034 50.3587862,35.7442759 50.2073379,35.5928276 C50.0385103,35.424 49.785269,35.3395862 49.4550621,35.3395862 C49.2365793,35.3395862 49.065269,35.3867586 48.9287172,35.4835862 C48.7574069,35.6151724 48.6382345,35.7641379 48.5761655,35.9304828 C48.5165793,36.0695172 48.4768552,36.2333793 48.4619586,36.432 L48.4619586,39.2722759 L48.4619586,39.2747586 C48.4619586,39.3045517 48.4346483,39.3293793 48.4048552,39.3293793 L48.4023724,39.3293793 C48.3974069,39.3293793 48.3974069,39.3293793 48.3974069,39.3268966 C48.1640276,39.2946207 47.553269,39.1481379 47.553269,38.8353103 L47.553269,36.4965517 L47.553269,34.4507586 C47.553269,34.416 47.5805793,34.3936552 47.6103724,34.3936552 L47.6153379,34.3936552 C47.6153379,34.3936552 47.6178207,34.3986207 47.6227862,34.3986207 C47.8685793,34.4333793 48.2782345,34.5550345 48.4569931,34.92 L48.4569931,34.9274483 L48.4619586,34.929931 C48.4718897,34.9398621 48.4867862,34.9547586 48.5066483,34.9547586 C48.5265103,34.9547586 48.5364414,34.9473103 48.5438897,34.9373793 C48.8592,34.632 49.2266483,34.4830345 49.641269,34.4830345 C49.9689931,34.4830345 50.2644414,34.550069 50.5201655,34.6866207 C50.7709241,34.8231724 50.9695448,35.0044138 51.1209931,35.2353103 C51.2649931,35.4761379 51.3394759,35.8411034 51.3394759,36.3277241 L51.3394759,39.2747586 Z M46.3665103,33.6016552 C46.2696828,33.6984828 46.1430621,33.7531034 45.9816828,33.7531034 C45.8178207,33.7531034 45.6887172,33.7034483 45.5894069,33.6091034 C45.4900966,33.5073103 45.4379586,33.3757241 45.4379586,33.2118621 C45.4379586,33.0529655 45.4900966,32.9213793 45.5894069,32.8146207 C45.6887172,32.7177931 45.8178207,32.6731034 45.9816828,32.6731034 C46.1430621,32.6731034 46.2696828,32.7227586 46.3665103,32.8245517 C46.4683034,32.9238621 46.5204414,33.0529655 46.5204414,33.2118621 C46.5204414,33.3757241 46.4683034,33.5048276 46.3665103,33.6016552 L46.3665103,33.6016552 Z M46.4409931,39.2747586 L46.4409931,39.2797241 C46.4409931,39.3070345 46.4136828,39.3343448 46.3863724,39.3343448 L46.3764414,39.3343448 C46.1505103,39.2995862 45.5347862,39.1903448 45.5347862,38.8675862 L45.5347862,34.5773793 L45.5347862,34.4582069 L45.5347862,34.4507586 C45.5347862,34.4209655 45.5596138,34.3986207 45.5869241,34.3986207 L45.6018207,34.3986207 C45.8724414,34.4507586 46.4409931,34.5922759 46.4409931,34.9944828 L46.4409931,39.2747586 Z M45.2418207,13.8016552 C45.2393379,13.8041379 45.2393379,13.814069 45.2368552,13.8165517 C44.9836138,14.4521379 43.5585103,18.0471724 42.1607172,21.5751724 C40.6834759,25.3017931 39.2335448,28.9588966 39.2335448,28.9588966 C39.1317517,29.2171034 38.9529931,29.4678621 38.6898207,29.7037241 C38.4167172,29.9693793 38.0840276,30.0984828 37.6992,30.0984828 C37.2721655,30.0984828 36.9245793,29.9693793 36.6514759,29.7037241 C36.3783724,29.4430345 36.197131,29.1947586 36.1077517,28.9588966 L33.3295448,21.5751724 L30.4023724,13.7817931 L30.3998897,13.761931 C30.3924414,13.7594483 30.3899586,13.752 30.3899586,13.7395862 C30.3899586,13.6998621 30.4222345,13.6651034 30.4594759,13.6502069 L30.4694069,13.6502069 C30.9684414,13.5384828 33.0365793,13.1710345 33.5803034,14.4248276 L36.1524414,21.5751724 L37.6123034,25.6295172 L37.6147862,25.6295172 C37.6247172,25.6667586 37.6594759,25.694069 37.7016828,25.694069 C37.7364414,25.694069 37.7736828,25.6717241 37.7860966,25.632 L37.7860966,25.6369655 L39.345269,21.5751724 L42.1383724,14.2758621 C42.6225103,13.1933793 44.6186483,13.5409655 45.1698207,13.6849655 L45.177269,13.6849655 C45.2169931,13.6998621 45.2443034,13.7321379 45.2443034,13.7743448 C45.2443034,13.7867586 45.2443034,13.7966897 45.2418207,13.8016552 L45.2418207,13.8016552 Z M44.0699586,39.1704828 C43.9557517,39.2747586 43.809269,39.3268966 43.6230621,39.3268966 C43.4368552,39.3268966 43.2854069,39.2722759 43.1736828,39.1704828 C43.0569931,39.0413793 42.9949241,38.88 42.9949241,38.7012414 C42.9998897,38.5026207 43.0569931,38.3586207 43.1563034,38.2543448 C43.2854069,38.1277241 43.4418207,38.0656552 43.6230621,38.0656552 C43.8192,38.0731034 43.9780966,38.1351724 44.0947862,38.2543448 C44.2040276,38.366069 44.2586483,38.5175172 44.2586483,38.7012414 C44.2487172,38.8948966 44.189131,39.0488276 44.0699586,39.1704828 L44.0699586,39.1704828 Z M41.6716138,37.1644138 L38.9554759,37.1644138 C38.913269,37.1644138 38.8934069,37.1867586 38.9033379,37.2388966 C38.9554759,37.5194483 39.0696828,37.7851034 39.2534069,37.9961379 C39.4992,38.2841379 39.8169931,38.4281379 40.2043034,38.4281379 C40.3954759,38.4281379 40.5643034,38.385931 40.713269,38.304 C40.877131,38.2096552 41.0037517,38.0855172 41.1005793,37.9365517 C41.3463724,37.6882759 41.813131,38.0110345 41.9943724,38.1525517 L41.9968552,38.1525517 C42.009269,38.16 42.0167172,38.1798621 42.0167172,38.1972414 C42.0167172,38.1972414 42.0167172,38.2096552 42.0142345,38.2146207 L42.009269,38.222069 C41.9918897,38.2617931 41.9745103,38.304 41.9521655,38.3437241 C41.793269,38.601931 41.5400276,38.8353103 41.1849931,39.0388966 C40.8498207,39.2325517 40.5220966,39.3343448 40.2043034,39.3343448 C39.5414069,39.3343448 38.9927172,39.0811034 38.5582345,38.5845517 C38.1460966,38.1202759 37.9400276,37.5343448 37.9400276,36.8714483 C37.9449931,36.2333793 38.1287172,35.6822069 38.4763034,35.2154483 C38.9008552,34.6717241 39.4594759,34.3986207 40.1521655,34.3986207 C40.4625103,34.3986207 40.7629241,34.4731034 41.0633379,34.6195862 C41.361269,34.7809655 41.6219586,35.0317241 41.8429241,35.3867586 C42.0539586,35.721931 42.1582345,36.1812414 42.1582345,36.7671724 C42.153269,37.0278621 41.9894069,37.1644138 41.6716138,37.1644138 L41.6716138,37.1644138 Z M36.8426483,38.9296552 C36.5273379,39.1977931 36.0779586,39.3343448 35.4969931,39.3343448 C35.0674759,39.3343448 34.7025103,39.2449655 34.3996138,39.0612414 C34.1289931,38.8948966 33.9254069,38.6813793 33.7888552,38.4082759 C33.7342345,38.313931 33.6969931,38.2245517 33.6796138,38.1401379 C33.6796138,38.1401379 33.677131,38.1351724 33.677131,38.1277241 L33.677131,38.1202759 C33.677131,38.1053793 33.6870621,38.0904828 33.6945103,38.0830345 C33.6994759,38.078069 33.7044414,38.0731034 33.7094069,38.0706207 C33.9204414,37.9291034 34.4368552,37.6783448 34.5634759,37.9142069 C34.6305103,38.0656552 34.7422345,38.1947586 34.901131,38.2891034 C35.0625103,38.3809655 35.2859586,38.4281379 35.5689931,38.4281379 C35.889269,38.4281379 36.1027862,38.3735172 36.2070621,38.2791724 C36.3386483,38.16 36.4032,38.0507586 36.4032,37.9464828 C36.4007172,37.8347586 36.3684414,37.7404138 36.3138207,37.665931 C36.2318897,37.5715862 35.9314759,37.4176552 35.4150621,37.2041379 C34.6106483,36.8863448 34.1364414,36.6430345 33.9874759,36.4568276 C33.8583724,36.2830345 33.7938207,36.0744828 33.7938207,35.8187586 C33.7938207,35.4488276 33.9328552,35.1285517 34.2009931,34.8628966 C34.5187862,34.5550345 34.9632,34.3986207 35.529269,34.3986207 C35.837131,34.3986207 36.125131,34.4582069 36.3957517,34.5748966 C36.6887172,34.6990345 36.9121655,34.8926897 37.0636138,35.1583448 C37.1008552,35.2228966 37.1281655,35.289931 37.1430621,35.3470345 C37.1455448,35.352 37.1480276,35.3569655 37.1480276,35.3644138 C37.1480276,35.3644138 37.1505103,35.3668966 37.1505103,35.3718621 C37.1505103,35.3867586 37.1430621,35.3991724 37.1356138,35.4091034 C37.1281655,35.414069 37.1281655,35.4165517 37.1207172,35.4165517 C36.9494069,35.558069 36.5248552,35.8783448 36.2914759,35.6474483 C36.2169931,35.5456552 36.1176828,35.4562759 36.0034759,35.3991724 C35.8669241,35.3321379 35.6832,35.2973793 35.4473379,35.2973793 C35.1816828,35.2973793 34.9830621,35.352 34.8440276,35.4537931 C34.7347862,35.5456552 34.6801655,35.6474483 34.6801655,35.7641379 C34.6826483,35.8857931 34.7248552,35.9677241 34.7943724,36.0248276 C34.8887172,36.0993103 35.1990621,36.2308966 35.7353379,36.4295172 C36.3907862,36.6728276 36.8203034,36.8838621 37.0238897,37.0824828 C37.2498207,37.296 37.3615448,37.5566897 37.3615448,37.8571034 C37.3615448,38.2766897 37.1902345,38.6342069 36.8426483,38.9296552 L36.8426483,38.9296552 Z M32.8230621,39.2747586 L32.8230621,39.2797241 C32.8205793,39.3070345 32.7957517,39.3343448 32.7634759,39.3343448 L32.7560276,39.3343448 C32.5350621,39.3144828 31.8969931,39.2052414 31.8969931,38.7856552 L31.8969931,38.529931 C31.8969931,38.4951724 31.8721655,38.4678621 31.8423724,38.4678621 C31.8200276,38.4678621 31.8026483,38.4777931 31.7927172,38.4976552 C31.7182345,38.601931 31.6114759,38.7161379 31.4674759,38.8402759 C31.2390621,39.0463448 30.9361655,39.1481379 30.5687172,39.1481379 C30.0324414,39.1481379 29.6327172,39.0041379 29.3794759,38.7186207 C29.0989241,38.3958621 28.9598897,37.9216552 28.9598897,37.2910345 L28.9598897,34.4606897 L28.9598897,34.4582069 C28.9598897,34.4234483 28.9847172,34.4011034 29.0169931,34.3986207 C29.0169931,34.3986207 29.0219586,34.4011034 29.0244414,34.4011034 C29.2429241,34.416 29.8859586,34.5004138 29.8859586,34.9473103 L29.8859586,37.2910345 C29.8859586,37.5964138 29.9505103,37.8198621 30.0820966,37.9737931 C30.221131,38.1401379 30.4396138,38.222069 30.725131,38.222069 C31.0354759,38.2171034 31.2912,38.1202759 31.4923034,37.9315862 C31.7629241,37.6857931 31.8969931,37.358069 31.8969931,36.9583448 L31.8969931,34.4656552 L31.8969931,34.4507586 C31.8994759,34.4234483 31.9243034,34.4011034 31.9540966,34.4011034 L31.9615448,34.4011034 C32.1825103,34.416 32.8230621,34.5103448 32.8230621,34.9522759 L32.8230621,39.2747586 Z M27.8848552,38.1401379 C27.7110621,38.5051034 27.4826483,38.7831724 27.2020966,38.9693793 C26.8321655,39.2126897 26.4076138,39.3343448 25.9309241,39.3343448 C25.4765793,39.3268966 25.0843034,39.2251034 24.749131,39.0190345 C24.441269,38.817931 24.1954759,38.5572414 24.0142345,38.222069 C23.8329931,37.8422069 23.741131,37.3506207 23.741131,36.7969655 C23.741131,36.2855172 23.8503724,35.8386207 24.0638897,35.4537931 C24.2401655,35.1608276 24.4958897,34.9001379 24.8236138,34.6717241 C25.1240276,34.488 25.5038897,34.3986207 25.953269,34.3986207 C26.3778207,34.3986207 26.7403034,34.4805517 27.0432,34.6468966 C27.3684414,34.8430345 27.6142345,35.0863448 27.7780966,35.3867586 C28.0040276,35.7964138 28.1157517,36.278069 28.1157517,36.8491034 C28.1157517,37.358069 28.041269,37.8049655 27.8848552,38.1401379 L27.8848552,38.1401379 Z M23.0186483,30.0587586 L23.0037517,30.0587586 L13.8597517,30.0587586 C12.5985103,30.0587586 11.9728552,29.4206897 11.9728552,28.1495172 L11.9728552,21.5329655 L11.9728552,13.608 C11.9728552,13.5533793 12.0125793,13.5136552 12.0622345,13.5136552 C12.0647172,13.5136552 12.0721655,13.5161379 12.0721655,13.5161379 C12.6804414,13.5732414 14.7014069,13.9332414 14.7014069,15.057931 L14.7014069,21.5329655 L14.7014069,27.2358621 C14.7014069,27.2904828 14.7436138,27.3252414 14.8007172,27.3252414 L21.6605793,27.3252414 C22.8498207,27.3252414 23.0558897,29.4008276 23.1005793,29.952 L23.1005793,29.9693793 C23.1005793,30.0190345 23.0633379,30.0587586 23.0186483,30.0587586 L23.0186483,30.0587586 Z M22.8994759,39.2722759 L22.8994759,39.2797241 C22.8969931,39.3144828 22.8721655,39.3343448 22.8448552,39.3343448 L22.8374069,39.3343448 C22.6189241,39.3070345 21.9758897,39.1878621 21.9758897,38.7831724 L21.9758897,36.3401379 C21.9758897,35.9975172 21.8989241,35.7467586 21.7425103,35.5928276 C21.5687172,35.424 21.3129931,35.3395862 20.9753379,35.3395862 C20.7568552,35.3395862 20.5780966,35.3867586 20.4390621,35.4835862 C20.2627862,35.6151724 20.1436138,35.7691034 20.0815448,35.9428966 C20.0169931,36.0794483 19.9797517,36.2532414 19.9623724,36.4518621 L19.9623724,39.2747586 L19.9623724,39.2797241 C19.9623724,39.3070345 19.9350621,39.3343448 19.9027862,39.3343448 L19.8953379,39.3343448 C19.6718897,39.3070345 19.0387862,39.1878621 19.0387862,38.817931 L19.0387862,31.8587586 L19.0387862,31.8190345 C19.0387862,31.7842759 19.0636138,31.761931 19.0934069,31.761931 L19.1008552,31.761931 C19.3218207,31.7817931 19.9623724,31.8786207 19.9623724,32.3131034 L19.9623724,34.776 C19.9623724,34.8182069 19.9847172,34.838069 20.0194759,34.8355862 C20.0393379,34.8355862 20.0467862,34.8281379 20.0641655,34.8182069 C20.3695448,34.5401379 20.7369931,34.3986207 21.1665103,34.3986207 C21.4992,34.3986207 21.7996138,34.4656552 22.065269,34.6046897 C22.3060966,34.7337931 22.497269,34.9125517 22.6437517,35.1285517 C22.8175448,35.4016552 22.8994759,35.8038621 22.8994759,36.3401379 L22.8994759,39.2722759 Z M25.3797517,13.608 C25.3847172,13.5533793 25.4244414,13.5136552 25.4765793,13.5136552 C25.4765793,13.5136552 25.4840276,13.5161379 25.4865103,13.5161379 C26.0898207,13.5732414 28.1107862,13.9332414 28.1107862,15.057931 L28.1107862,29.9842759 C28.1107862,30.0314483 28.0710621,30.0761379 28.0189241,30.0761379 L28.0065103,30.0761379 C27.4032,30.0190345 25.3797517,29.6590345 25.3797517,28.5293793 L25.3797517,13.608 Z M36.7632,0.220965517 L33.6125793,0.220965517 C15.0489931,0.220965517 1.13064828,7.47062069 0.000993103448,25.425931 C0.000993103448,34.4656552 3.6854069,40.3175172 9.6489931,43.9274483 C9.32623448,44.8708966 8.85947586,46.0055172 8.2089931,47.4008276 C6.5654069,50.9462069 3.89892414,54.081931 4.52706207,54.5362759 C5.15271724,54.9831724 9.27161379,53.6151724 13.0106483,51.5470345 C16.8564414,49.4193103 18.6142345,48.1009655 19.0958897,47.6987586 C19.1380966,47.6664828 19.1927172,47.6267586 19.2423724,47.5845517 C23.5996138,48.5602759 28.4707862,48.9674483 33.6125793,48.9674483 L36.7632,48.9674483 C55.329269,48.9674483 70.377269,44.6673103 70.377269,25.425931 C68.6790621,6.2217931 55.329269,0.220965517 36.7632,0.220965517 L36.7632,0.220965517 Z" id="Fill-5" fill="#FEFEFE" sketch:type="MSShapeGroup" mask="url(#mask-2)"></path>
                </g>
            </g>
        </g>
    </g>
</svg>