<?xml version="1.0" encoding="UTF-8" standalone="no"?>
<svg width="96px" height="96px" viewBox="0 0 96 96" version="1.1" xmlns="http://www.w3.org/2000/svg" xmlns:xlink="http://www.w3.org/1999/xlink" xmlns:sketch="http://www.bohemiancoding.com/sketch/ns">
    <!-- Generator: Sketch 3.4.2 (15855) - http://www.bohemiancoding.com/sketch -->
    <title>mgrmedia</title>
    <desc>Created with Sketch.</desc>
    <defs>
        <path id="path-1" d="M0,1.80137931 L52.9351724,1.80137931 L52.9351724,80 L0,80"></path>
        <path id="path-3" d="M0,1.80137931 L52.9351724,1.80137931 L52.9351724,80 L0,80 L0,1.80137931 Z"></path>
    </defs>
    <g id="Page-1" stroke="none" stroke-width="1" fill="none" fill-rule="evenodd" sketch:type="MSPage">
        <g id="mgrmedia" sketch:type="MSArtboardGroup">
            <g id="Page-1" sketch:type="MSLayerGroup" transform="translate(20.413793, 8.000000)">
                <path d="M3.38372414,73.9817931 L3.38372414,73.7942069 C3.84717241,73.7445517 3.87751724,73.7004138 3.872,73.1211034 L3.8582069,70.7542069 L3.82786207,70.7542069 L2.44855172,73.9431724 L2.29958621,73.9431724 L1.02786207,70.8204138 L1.0057931,70.8204138 L0.925793103,72.4452414 C0.903724138,72.9417931 0.903724138,73.2176552 0.920275862,73.4273103 C0.939586207,73.7004138 1.06648276,73.750069 1.46924138,73.7886897 L1.46924138,73.9817931 L0.0375172414,73.9817931 L0.0375172414,73.7886897 C0.379586207,73.7555862 0.492689655,73.6590345 0.536827586,73.4383448 C0.572689655,73.2369655 0.614068966,72.9417931 0.658206897,72.3128276 L0.746482759,71.0990345 C0.801655172,70.3762759 0.760275862,70.3128276 0.23337931,70.2631724 L0.23337931,70.070069 L1.38372414,70.070069 L2.61958621,72.8397241 L3.87751724,70.070069 L5.01958621,70.070069 L5.01958621,70.2631724 C4.52027586,70.3128276 4.49544828,70.3514483 4.50648276,70.8893793 L4.56165517,73.1211034 C4.58096552,73.7004138 4.60303448,73.7445517 5.09131034,73.7942069 L5.09131034,73.9817931 L3.38372414,73.9817931 Z" id="Fill-1" fill="#FEFEFE" sketch:type="MSShapeGroup"></path>
                <path d="M8.64496552,73.0011034 C8.60634483,73.2493793 8.48772414,73.8038621 8.43531034,73.9804138 L5.42565517,73.9804138 L5.42565517,73.7928276 C5.94703448,73.7486897 6.0022069,73.7073103 6.0022069,73.1997241 L6.0022069,70.8631724 C6.0022069,70.328 5.94703448,70.3004138 5.50289655,70.2645517 L5.50289655,70.0714483 L8.28358621,70.0714483 C8.28910345,70.1928276 8.31944828,70.6093793 8.34427586,70.9652414 L8.13737931,70.990069 C8.08496552,70.7638621 8.01048276,70.5928276 7.91393103,70.4742069 C7.82013793,70.3555862 7.65737931,70.3114483 7.28496552,70.3114483 L6.92910345,70.3114483 C6.71944828,70.3114483 6.70013793,70.3224828 6.70013793,70.5183448 L6.70013793,71.8369655 L7.16358621,71.8369655 C7.69324138,71.8369655 7.75393103,71.7983448 7.83117241,71.3790345 L8.0297931,71.3790345 L8.0297931,72.5707586 L7.83117241,72.5707586 C7.75393103,72.1431724 7.68772414,72.1128276 7.16910345,72.1128276 L6.70013793,72.1128276 L6.70013793,73.1831724 C6.70013793,73.4755862 6.73048276,73.6162759 6.84634483,73.6797241 C6.95944828,73.7404138 7.16910345,73.745931 7.42289655,73.745931 C7.7897931,73.745931 7.98289655,73.7017931 8.12082759,73.5445517 C8.23668966,73.4148966 8.34427586,73.2217931 8.44634483,72.968 L8.64496552,73.0011034 Z" id="Fill-3" fill="#FEFEFE" sketch:type="MSShapeGroup"></path>
                <path d="M10.3663448,72.0689655 C10.6394483,72.0689655 10.8353103,72.0303448 10.9815172,71.9062069 C11.1911724,71.7351724 11.2822069,71.4924138 11.2822069,71.1806897 C11.2822069,70.5268966 10.8877241,70.2951724 10.5125517,70.2951724 C10.3470345,70.2951724 10.2587586,70.3172414 10.2146207,70.3558621 C10.176,70.3944828 10.1622069,70.457931 10.1622069,70.5986207 L10.1622069,72.0689655 L10.3663448,72.0689655 Z M12.6063448,74.0413793 C12.5566897,74.0413793 12.4932414,74.0303448 12.4187586,74.0303448 C11.7704828,74.0027586 11.5332414,73.8482759 11.273931,73.4593103 C11.1028966,73.1944828 10.9208276,72.8551724 10.7470345,72.5489655 C10.6449655,72.3696552 10.5428966,72.2951724 10.3001379,72.2951724 L10.1622069,72.2951724 L10.1622069,73.2 C10.1622069,73.702069 10.2146207,73.7489655 10.678069,73.7931034 L10.678069,73.9806897 L8.95117241,73.9806897 L8.95117241,73.7931034 C9.41462069,73.7489655 9.47531034,73.702069 9.47531034,73.2 L9.47531034,70.8524138 C9.47531034,70.3558621 9.42013793,70.3062069 8.976,70.2648276 L8.976,70.0689655 L10.5897931,70.0689655 C11.0891034,70.0689655 11.3897931,70.1296552 11.6242759,70.2896552 C11.8642759,70.4524138 12.0297931,70.7172414 12.0297931,71.0896552 C12.0297931,71.6110345 11.6904828,71.9117241 11.2684138,72.0910345 C11.3649655,72.2731034 11.5994483,72.6731034 11.7815172,72.9462069 C11.9911724,73.2744828 12.118069,73.4537931 12.2504828,73.5944828 C12.3884138,73.7434483 12.5042759,73.8151724 12.6394483,73.8565517 L12.6063448,74.0413793 Z" id="Fill-5" fill="#FEFEFE" sketch:type="MSShapeGroup"></path>
                <path d="M14.2565517,72.0689655 C14.5268966,72.0689655 14.7255172,72.0303448 14.8689655,71.9062069 C15.0813793,71.7351724 15.1696552,71.4924138 15.1696552,71.1806897 C15.1696552,70.5268966 14.777931,70.2951724 14.4,70.2951724 C14.2372414,70.2951724 14.1462069,70.3172414 14.1048276,70.3558621 C14.0634483,70.3944828 14.0524138,70.457931 14.0524138,70.5986207 L14.0524138,72.0689655 L14.2565517,72.0689655 Z M16.4965517,74.0413793 C16.4468966,74.0413793 16.3806897,74.0303448 16.3062069,74.0303448 C15.657931,74.0027586 15.4234483,73.8482759 15.1641379,73.4593103 C14.9903448,73.1944828 14.8082759,72.8551724 14.6344828,72.5489655 C14.5324138,72.3696552 14.4275862,72.2951724 14.1903448,72.2951724 L14.0524138,72.2951724 L14.0524138,73.2 C14.0524138,73.702069 14.1048276,73.7489655 14.5682759,73.7931034 L14.5682759,73.9806897 L12.8413793,73.9806897 L12.8413793,73.7931034 C13.3048276,73.7489655 13.3655172,73.702069 13.3655172,73.2 L13.3655172,70.8524138 C13.3655172,70.3558621 13.3103448,70.3062069 12.8662069,70.2648276 L12.8662069,70.0689655 L14.4772414,70.0689655 C14.9793103,70.0689655 15.2772414,70.1296552 15.5117241,70.2896552 C15.7544828,70.4524138 15.9172414,70.7172414 15.9172414,71.0896552 C15.9172414,71.6110345 15.5806897,71.9117241 15.1586207,72.0910345 C15.2524138,72.2731034 15.4896552,72.6731034 15.6717241,72.9462069 C15.8813793,73.2744828 16.0082759,73.4537931 16.1406897,73.5944828 C16.2758621,73.7434483 16.3917241,73.8151724 16.5296552,73.8565517 L16.4965517,74.0413793 Z" id="Fill-7" fill="#FEFEFE" sketch:type="MSShapeGroup"></path>
                <path d="M20.0405517,70.264 C19.6488276,70.3081379 19.5467586,70.4046897 19.3177931,70.7605517 C19.0750345,71.1412414 18.904,71.4391724 18.606069,71.9936552 C18.5233103,72.1508966 18.504,72.2198621 18.504,72.3908966 L18.504,73.1853793 C18.504,73.7122759 18.5536552,73.7508966 19.0943448,73.7922759 L19.0943448,73.9826207 L17.2350345,73.9826207 L17.2350345,73.7922759 C17.7536552,73.7564138 17.806069,73.7122759 17.806069,73.1853793 L17.806069,72.4681379 C17.806069,72.321931 17.784,72.2695172 17.7095172,72.1233103 C17.5302069,71.784 17.3150345,71.384 16.9646897,70.7771034 C16.7357241,70.3715862 16.6474483,70.3081379 16.3053793,70.264 L16.3053793,70.0708966 L17.921931,70.0708966 L17.921931,70.264 C17.5136552,70.3191724 17.5246897,70.3936552 17.6322759,70.6033103 C17.8557241,71.0446897 18.1205517,71.5081379 18.3688276,71.9550345 C18.5536552,71.5936552 18.8653793,71.0171034 19.0226207,70.6529655 C19.1329655,70.3881379 19.1191724,70.3191724 18.6695172,70.264 L18.6695172,70.0708966 L20.0405517,70.0708966 L20.0405517,70.264 Z" id="Fill-9" fill="#FEFEFE" sketch:type="MSShapeGroup"></path>
                <path d="M25.2237241,72.3277241 C24.8982069,72.3828966 24.8678621,72.4132414 24.8678621,72.7966897 L24.8678621,73.2877241 C24.8678621,73.5028966 24.8733793,73.696 24.912,73.8587586 C24.5423448,73.9442759 24.0237241,74.073931 23.5464828,74.073931 C22.169931,74.073931 21.2816552,73.2711724 21.2816552,72.0684138 C21.2816552,70.6835862 22.3961379,69.9828966 23.6347586,69.9828966 C24.1257931,69.9828966 24.5892414,70.1015172 24.8016552,70.1566897 C24.8209655,70.3608276 24.8485517,70.6835862 24.8982069,71.1249655 L24.694069,71.1691034 C24.5423448,70.473931 24.0982069,70.2146207 23.5271724,70.2146207 C22.7326897,70.2146207 22.0871724,70.8794483 22.0871724,71.9718621 C22.0871724,72.8711724 22.5561379,73.8422069 23.609931,73.8422069 C23.7616552,73.8422069 23.9161379,73.8146207 24.0126897,73.7566897 C24.1175172,73.696 24.169931,73.6049655 24.169931,73.4008276 L24.169931,72.8546207 C24.169931,72.4242759 24.134069,72.3828966 23.5216552,72.3277241 L23.5216552,72.1401379 L25.2237241,72.1401379 L25.2237241,72.3277241 Z" id="Fill-11" fill="#FEFEFE" sketch:type="MSShapeGroup"></path>
                <path d="M26.4386207,71.9128276 C26.4386207,72.9804138 26.9517241,73.8355862 27.7544828,73.8355862 C28.3586207,73.8355862 28.8717241,73.2755862 28.8717241,72.1555862 C28.8717241,70.928 28.3255172,70.2328276 27.5889655,70.2328276 C26.9627586,70.2328276 26.4386207,70.8397241 26.4386207,71.9128276 M29.6855172,71.9873103 C29.6855172,73.2866207 28.7586207,74.0728276 27.6386207,74.0728276 C26.4772414,74.0728276 25.6275862,73.2066207 25.6275862,72.0535172 C25.6275862,71.0024828 26.3751724,69.990069 27.7103448,69.990069 C28.7806897,69.990069 29.6855172,70.7983448 29.6855172,71.9873103" id="Fill-13" fill="#FEFEFE" sketch:type="MSShapeGroup"></path>
                <path d="M32.7561379,72.0689655 C33.0264828,72.0689655 33.2251034,72.0303448 33.3685517,71.9062069 C33.5809655,71.7351724 33.6692414,71.4924138 33.6692414,71.1806897 C33.6692414,70.5268966 33.2775172,70.2951724 32.8995862,70.2951724 C32.7368276,70.2951724 32.6457931,70.3172414 32.6044138,70.3558621 C32.5630345,70.3944828 32.552,70.457931 32.552,70.5986207 L32.552,72.0689655 L32.7561379,72.0689655 Z M34.9933793,74.0413793 C34.9464828,74.0413793 34.8802759,74.0303448 34.8057931,74.0303448 C34.1575172,74.0027586 33.9230345,73.8482759 33.6637241,73.4593103 C33.489931,73.1944828 33.3078621,72.8551724 33.134069,72.5489655 C33.032,72.3696552 32.9271724,72.2951724 32.6871724,72.2951724 L32.552,72.2951724 L32.552,73.2 C32.552,73.702069 32.6044138,73.7489655 33.0678621,73.7931034 L33.0678621,73.9806897 L31.3409655,73.9806897 L31.3409655,73.7931034 C31.8044138,73.7489655 31.8651034,73.702069 31.8651034,73.2 L31.8651034,70.8524138 C31.8651034,70.3558621 31.809931,70.3062069 31.3657931,70.2648276 L31.3657931,70.0689655 L32.9768276,70.0689655 C33.4788966,70.0689655 33.7768276,70.1296552 34.0113103,70.2896552 C34.254069,70.4524138 34.4168276,70.7172414 34.4168276,71.0896552 C34.4168276,71.6110345 34.0775172,71.9117241 33.6582069,72.0910345 C33.752,72.2731034 33.9892414,72.6731034 34.1713103,72.9462069 C34.3809655,73.2744828 34.5078621,73.4537931 34.6402759,73.5944828 C34.7754483,73.7434483 34.8913103,73.8151724 35.0292414,73.8565517 L34.9933793,74.0413793 Z" id="Fill-15" fill="#FEFEFE" sketch:type="MSShapeGroup"></path>
                <path d="M36.0049655,71.9128276 C36.0049655,72.9804138 36.518069,73.8355862 37.3208276,73.8355862 C37.9249655,73.8355862 38.438069,73.2755862 38.438069,72.1555862 C38.438069,70.928 37.8918621,70.2328276 37.1553103,70.2328276 C36.5291034,70.2328276 36.0049655,70.8397241 36.0049655,71.9128276 M39.2518621,71.9873103 C39.2518621,73.2866207 38.3249655,74.0728276 37.2049655,74.0728276 C36.0435862,74.0728276 35.193931,73.2066207 35.193931,72.0535172 C35.193931,71.0024828 35.9415172,69.990069 37.2766897,69.990069 C38.3497931,69.990069 39.2518621,70.7983448 39.2518621,71.9873103" id="Fill-17" fill="#FEFEFE" sketch:type="MSShapeGroup"></path>
                <path d="M43.7823448,70.264 C43.4402759,70.2915862 43.294069,70.3991724 43.2692414,70.6198621 C43.2416552,70.801931 43.2223448,71.0336552 43.2223448,71.5026207 L43.2223448,72.1012414 C43.2223448,72.7688276 43.1230345,73.281931 42.7782069,73.6433103 C42.4995862,73.921931 42.0995862,74.0681379 41.6747586,74.0681379 C41.2995862,74.0681379 40.929931,73.9826207 40.654069,73.7674483 C40.3037241,73.4971034 40.1437241,73.0502069 40.1437241,72.3495172 L40.1437241,70.8984828 C40.1437241,70.344 40.0885517,70.3081379 39.6306207,70.264 L39.6306207,70.0708966 L41.3464828,70.0708966 L41.3464828,70.264 C40.894069,70.3026207 40.8416552,70.344 40.8416552,70.8984828 L40.8416552,72.2253793 C40.8416552,73.1522759 41.1837241,73.6902069 41.8761379,73.6902069 C42.6457931,73.6902069 42.9382069,73.0805517 42.9382069,72.0736552 L42.9382069,71.5026207 C42.9382069,71.0336552 42.9188966,70.7964138 42.8857931,70.6143448 C42.8554483,70.3991724 42.7175172,70.2971034 42.3037241,70.264 L42.3037241,70.0708966 L43.7823448,70.0708966 L43.7823448,70.264 Z" id="Fill-19" fill="#FEFEFE" sketch:type="MSShapeGroup"></path>
                <path d="M48.1897931,70.264 C47.8642759,70.286069 47.7318621,70.3605517 47.7015172,70.6308966 C47.6766897,70.8184828 47.6546207,71.0943448 47.6546207,71.6377931 L47.6546207,74.046069 L47.4008276,74.046069 L44.873931,70.9867586 L44.8628966,70.9867586 L44.8628966,72.3964138 C44.8628966,72.9371034 44.8877241,73.2046897 44.9042759,73.3895172 C44.9346207,73.6681379 45.0532414,73.7674483 45.4835862,73.7922759 L45.4835862,73.9826207 L44.0325517,73.9826207 L44.0325517,73.7922759 C44.3691034,73.7674483 44.5125517,73.6791724 44.5373793,73.406069 C44.5622069,73.2046897 44.5897931,72.9371034 44.5897931,72.3964138 L44.5897931,71.121931 C44.5897931,70.7053793 44.5787586,70.6253793 44.4711724,70.4902069 C44.3497931,70.3384828 44.2201379,70.2915862 43.9525517,70.264 L43.9525517,70.0708966 L44.9815172,70.0708966 L47.3594483,72.8543448 L47.376,72.8543448 L47.376,71.6377931 C47.376,71.0998621 47.3456552,70.8184828 47.3346207,70.6474483 C47.3070345,70.3771034 47.1746207,70.2915862 46.7415172,70.264 L46.7415172,70.0708966 L48.1897931,70.0708966 L48.1897931,70.264 Z" id="Fill-21" fill="#FEFEFE" sketch:type="MSShapeGroup"></path>
                <path d="M49.7495172,73.1572414 C49.7495172,73.5986207 49.881931,73.7393103 50.304,73.7393103 C51.2308966,73.7393103 51.7715862,73.0165517 51.7715862,71.982069 C51.7715862,71.3889655 51.5784828,70.9062069 51.2226207,70.6248276 C50.9715862,70.4041379 50.6405517,70.302069 50.2322759,70.302069 C49.9977931,70.302069 49.8653793,70.3406897 49.8157241,70.3765517 C49.7688276,70.4262069 49.7495172,70.5172414 49.7495172,70.7158621 L49.7495172,73.1572414 Z M50.3205517,70.0703448 C51.0791724,70.0703448 51.6557241,70.222069 52.041931,70.5917241 C52.3371034,70.8731034 52.566069,71.3034483 52.566069,71.8689655 C52.566069,72.6027586 52.2764138,73.1296552 51.8129655,73.4855172 C51.3688276,73.8248276 50.7481379,73.982069 50.0033103,73.982069 L48.4998621,73.982069 L48.4998621,73.7917241 C48.9936552,73.7558621 49.046069,73.7117241 49.046069,73.2013793 L49.046069,70.8565517 C49.046069,70.3406897 48.9936552,70.3075862 48.5522759,70.2634483 L48.5522759,70.0703448 L50.3205517,70.0703448 Z" id="Fill-23" fill="#FEFEFE" sketch:type="MSShapeGroup"></path>
                <path d="M3.38372414,79.9084138 L3.38372414,79.7153103 C3.84717241,79.6656552 3.87751724,79.6215172 3.872,79.0422069 L3.8582069,76.6753103 L3.82786207,76.6753103 L2.44855172,79.8642759 L2.29958621,79.8642759 L1.02786207,76.7415172 L1.0057931,76.7415172 L0.925793103,78.3663448 C0.903724138,78.8684138 0.903724138,79.1387586 0.920275862,79.3484138 C0.939586207,79.6215172 1.06648276,79.6711724 1.46924138,79.7097931 L1.46924138,79.9084138 L0.0375172414,79.9084138 L0.0375172414,79.7097931 C0.379586207,79.6766897 0.492689655,79.5856552 0.536827586,79.3594483 C0.572689655,79.1608276 0.614068966,78.8684138 0.658206897,78.233931 L0.746482759,77.0256552 C0.801655172,76.3028966 0.760275862,76.233931 0.23337931,76.1897931 L0.23337931,75.9966897 L1.38372414,75.9966897 L2.61958621,78.7663448 L3.87751724,75.9966897 L5.01958621,75.9966897 L5.01958621,76.1897931 C4.52027586,76.233931 4.49544828,76.2725517 4.50648276,76.816 L4.56165517,79.0422069 C4.58096552,79.6215172 4.60303448,79.6656552 5.09131034,79.7153103 L5.09131034,79.9084138 L3.38372414,79.9084138 Z" id="Fill-25" fill="#FEFEFE" sketch:type="MSShapeGroup"></path>
                <path d="M8.64496552,78.9277241 C8.60634483,79.176 8.48772414,79.7249655 8.43531034,79.9070345 L5.42565517,79.9070345 L5.42565517,79.713931 C5.94703448,79.6725517 6.0022069,79.6284138 6.0022069,79.1263448 L6.0022069,76.7842759 C6.0022069,76.2546207 5.94703448,76.2242759 5.50289655,76.1911724 L5.50289655,75.998069 L8.28358621,75.998069 C8.28910345,76.113931 8.31944828,76.5304828 8.34427586,76.8863448 L8.13737931,76.9166897 C8.08496552,76.6877241 8.01048276,76.513931 7.91393103,76.4008276 C7.82013793,76.2766897 7.65737931,76.2325517 7.28496552,76.2325517 L6.92910345,76.2325517 C6.71944828,76.2325517 6.70013793,76.2491034 6.70013793,76.4394483 L6.70013793,77.758069 L7.16358621,77.758069 C7.69324138,77.758069 7.75393103,77.7222069 7.83117241,77.3001379 L8.0297931,77.3001379 L8.0297931,78.4918621 L7.83117241,78.4918621 C7.75393103,78.0670345 7.68772414,78.033931 7.16910345,78.033931 L6.70013793,78.033931 L6.70013793,79.1042759 C6.70013793,79.3966897 6.73048276,79.5428966 6.84634483,79.6008276 C6.95944828,79.6615172 7.16910345,79.6670345 7.42289655,79.6670345 C7.7897931,79.6670345 7.98289655,79.6228966 8.12082759,79.4656552 C8.23668966,79.3415172 8.34427586,79.1428966 8.44634483,78.8891034 L8.64496552,78.9277241 Z" id="Fill-27" fill="#FEFEFE" sketch:type="MSShapeGroup"></path>
                <path d="M10.1751724,79.0841379 C10.1751724,79.52 10.3075862,79.6606897 10.7268966,79.6606897 C11.6537931,79.6606897 12.1944828,78.937931 12.1944828,77.9034483 C12.1944828,77.3103448 12.0041379,76.8275862 11.6482759,76.5517241 C11.3944828,76.3255172 11.0634483,76.2234483 10.6551724,76.2234483 C10.4206897,76.2234483 10.2882759,76.262069 10.2386207,76.3034483 C10.1917241,76.3531034 10.1751724,76.4386207 10.1751724,76.6372414 L10.1751724,79.0841379 Z M10.7462069,75.9972414 C11.502069,75.9972414 12.0813793,76.1489655 12.4675862,76.5131034 C12.76,76.7944828 12.9889655,77.2303448 12.9889655,77.7958621 C12.9889655,78.5241379 12.702069,79.0510345 12.2386207,79.4068966 C11.7944828,79.7517241 11.1710345,79.9089655 10.4262069,79.9089655 L8.92275862,79.9089655 L8.92275862,79.7158621 C9.41655172,79.6772414 9.46896552,79.6386207 9.46896552,79.1282759 L9.46896552,76.777931 C9.46896552,76.262069 9.41655172,76.2289655 8.97517241,76.1903448 L8.97517241,75.9972414 L10.7462069,75.9972414 Z" id="Fill-29" fill="#FEFEFE" sketch:type="MSShapeGroup"></path>
                <path d="M13.4132414,79.9084138 L13.4132414,79.7153103 C13.8766897,79.6711724 13.9291034,79.638069 13.9291034,79.1277241 L13.9291034,76.7773793 C13.9291034,76.2670345 13.8766897,76.2284138 13.4132414,76.1897931 L13.4132414,75.9966897 L15.1401379,75.9966897 L15.1401379,76.1897931 C14.6766897,76.2284138 14.6270345,76.2670345 14.6270345,76.7773793 L14.6270345,79.1277241 C14.6270345,79.638069 14.6766897,79.6711724 15.1401379,79.7153103 L15.1401379,79.9084138 L13.4132414,79.9084138 Z" id="Fill-31" fill="#FEFEFE" sketch:type="MSShapeGroup"></path>
                <path d="M17.0852414,76.8913103 L17.0742069,76.8913103 C16.8921379,77.3547586 16.7293793,77.8237241 16.5638621,78.2761379 L17.568,78.2761379 L17.0852414,76.8913103 Z M17.625931,79.9092414 L17.625931,79.7133793 C17.9873103,79.6609655 18.0314483,79.5947586 17.9404138,79.3437241 C17.8742069,79.1423448 17.7721379,78.8582069 17.6617931,78.5713103 L16.4645517,78.5713103 C16.3873103,78.7864828 16.3045517,79.0237241 16.230069,79.2609655 C16.128,79.592 16.1583448,79.6609655 16.5969655,79.7133793 L16.5969655,79.9092414 L15.2673103,79.9092414 L15.2673103,79.7133793 C15.6562759,79.6664828 15.7390345,79.6057931 15.9404138,79.089931 L17.1817931,75.9754483 L17.4466207,75.9064828 C17.8245517,76.9492414 18.2024828,78.0333793 18.5969655,79.0733793 C18.7928276,79.6002759 18.870069,79.672 19.2562759,79.7133793 L19.2562759,79.9092414 L17.625931,79.9092414 Z" id="Fill-33" fill="#FEFEFE" sketch:type="MSShapeGroup"></path>
                <path d="M20.9268966,79.9084138 L20.9268966,79.7153103 C21.3903448,79.6711724 21.4427586,79.638069 21.4427586,79.1277241 L21.4427586,76.7773793 C21.4427586,76.2670345 21.3903448,76.2284138 20.9268966,76.1897931 L20.9268966,75.9966897 L22.6537931,75.9966897 L22.6537931,76.1897931 C22.1903448,76.2284138 22.1406897,76.2670345 22.1406897,76.7773793 L22.1406897,79.1277241 C22.1406897,79.638069 22.1903448,79.6711724 22.6537931,79.7153103 L22.6537931,79.9084138 L20.9268966,79.9084138 Z" id="Fill-35" fill="#FEFEFE" sketch:type="MSShapeGroup"></path>
                <path d="M27.2333793,76.1906207 C26.9106207,76.2071724 26.7754483,76.2816552 26.7451034,76.5575172 C26.7202759,76.7395862 26.6982069,77.0209655 26.6982069,77.5588966 L26.6982069,79.9671724 L26.4471724,79.9671724 L23.9175172,76.9133793 L23.9064828,76.9133793 L23.9064828,78.3175172 C23.9064828,78.8582069 23.9313103,79.1313103 23.9506207,79.3106207 C23.9782069,79.5947586 24.0968276,79.694069 24.5271724,79.7133793 L24.5271724,79.9092414 L23.0761379,79.9092414 L23.0761379,79.7133793 C23.4126897,79.694069 23.5561379,79.6002759 23.5809655,79.3326897 C23.6057931,79.1313103 23.6333793,78.8582069 23.6333793,78.3175172 L23.6333793,77.0430345 C23.6333793,76.6264828 23.6223448,76.552 23.5147586,76.4113103 C23.3933793,76.2595862 23.2637241,76.2126897 22.9988966,76.1906207 L22.9988966,75.9975172 L24.0278621,75.9975172 L26.4030345,78.7754483 L26.4223448,78.7754483 L26.4223448,77.5588966 C26.4223448,77.0264828 26.3892414,76.7395862 26.3782069,76.5685517 C26.3506207,76.3037241 26.2182069,76.2126897 25.7851034,76.1906207 L25.7851034,75.9975172 L27.2333793,75.9975172 L27.2333793,76.1906207 Z" id="Fill-37" fill="#FEFEFE" sketch:type="MSShapeGroup"></path>
                <path d="M31.225931,78.8902069 C31.1486897,79.1798621 30.9914483,79.6377931 30.8893793,79.8446897 C30.7238621,79.8750345 30.1886897,79.9991724 29.7748966,79.9991724 C28.2107586,79.9991724 27.5486897,78.9536552 27.5486897,78.001931 C27.5486897,76.7577931 28.505931,75.9053793 29.9045517,75.9053793 C30.3928276,75.9053793 30.825931,76.0295172 30.9914483,76.0681379 C31.0466207,76.401931 31.0852414,76.6695172 31.1238621,77.0253793 L30.9197241,77.0695172 C30.7376552,76.3798621 30.310069,76.1536552 29.7748966,76.1536552 C28.8562759,76.1536552 28.3542069,76.984 28.3542069,77.8777931 C28.3542069,78.9922759 28.9748966,79.7426207 29.8273103,79.7426207 C30.3707586,79.7426207 30.7238621,79.4115862 31.0273103,78.8157241 L31.225931,78.8902069 Z" id="Fill-39" fill="#FEFEFE" sketch:type="MSShapeGroup"></path>
                <g id="Group-43">
                    <mask id="mask-2" sketch:name="Clip 42" fill="white">
                        <use xlink:href="#path-1"></use>
                    </mask>
                    <g id="Clip-42"></g>
                    <path d="M31.6731034,79.5583448 C31.6731034,79.3266207 31.8441379,79.150069 32.0731034,79.150069 C32.3075862,79.150069 32.4841379,79.3266207 32.4841379,79.5583448 C32.4841379,79.8121379 32.3075862,79.9776552 32.0675862,79.9776552 C31.8441379,79.9776552 31.6731034,79.8121379 31.6731034,79.5583448" id="Fill-41" fill="#FEFEFE" sketch:type="MSShapeGroup" mask="url(#mask-2)"></path>
                </g>
                <path d="M6.41158621,61.1583448 L5.41572414,61.1583448 C5.3302069,61.1583448 5.09848276,61.1804138 4.70675862,61.2217931 L4.61296552,60.8190345 C4.89710345,60.9045517 5.13986207,60.9376552 5.40744828,60.9376552 L8.31227586,60.9376552 C8.54675862,60.6838621 8.62124138,60.6093793 8.86675862,60.3666207 C9.32193103,60.6948966 9.45710345,60.7969655 9.91227586,61.1583448 C9.98675862,61.2217931 10.0198621,61.265931 10.0198621,61.310069 C10.0198621,61.4342069 9.93158621,61.4535172 9.44882759,61.4866207 C8.86675862,61.9831724 8.66262069,62.1542069 8.13572414,62.5431724 L8.03917241,62.5211034 C8.24055172,61.9335172 8.30675862,61.7073103 8.42262069,61.1583448 L7.4902069,61.1583448 L7.4902069,63.3955862 L8.07227586,63.3955862 C8.35641379,63.0535172 8.44193103,62.945931 8.72882759,62.6176552 C9.1702069,62.945931 9.29986207,63.0535172 9.73296552,63.4424828 C9.77434483,63.4755862 9.79641379,63.5086897 9.79641379,63.528 C9.79641379,63.5831724 9.744,63.6162759 9.68882759,63.6162759 L7.4902069,63.6162759 L7.4902069,65.8562759 C7.74124138,65.8893793 8.18813793,65.9114483 8.57986207,65.9114483 C8.83365517,65.9114483 8.97158621,65.9004138 10.1550345,65.8231724 L10.1550345,65.9307586 C9.8377931,66.0990345 9.66951724,66.2728276 9.53158621,66.6011034 C9.48744828,66.7031724 9.47641379,66.7335172 9.44882759,66.8907586 C9.41572414,67.0535172 9.34951724,67.0755862 9.024,67.0755862 C8.63227586,67.0755862 8.00882759,67.0093793 7.584,66.9238621 C6.45296552,66.7142069 5.71089655,65.9638621 5.3302069,64.6176552 C5.12882759,65.2742069 4.87503448,65.7597241 4.51641379,66.1955862 C4.2102069,66.5790345 3.92606897,66.8107586 3.22813793,67.2521379 L3.13986207,67.1611034 C3.81848276,66.4052414 4.1577931,65.7486897 4.38951724,64.7252414 C4.56882759,63.9666207 4.66537931,63.1776552 4.66537931,62.430069 C4.66537931,62.3638621 4.65434483,62.248 4.65434483,62.1238621 C5.93434483,62.3004138 6.12468966,62.3555862 6.12468966,62.4935172 C6.12468966,62.5955862 5.9977931,62.6728276 5.72193103,62.7252414 C5.584,63.6162759 5.54537931,63.8673103 5.40744828,64.3638621 C5.59503448,64.9017931 5.90124138,65.2631724 6.41158621,65.550069 L6.41158621,61.1583448 Z M2.84468966,59.688 C3.09848276,59.3707586 3.17296552,59.2769655 3.4377931,58.9928276 C3.8102069,59.2990345 3.92606897,59.4011034 4.29296552,59.7404138 C4.32606897,59.7845517 4.34813793,59.8066207 4.34813793,59.8369655 C4.34813793,59.8811034 4.29296552,59.9142069 4.22124138,59.9142069 L2.35641379,59.9142069 C2.33710345,60.6617931 2.32882759,60.8190345 2.29572414,61.390069 L2.84468966,61.390069 C3.07641379,61.1252414 3.07641379,61.1252414 3.36606897,60.8190345 L3.73296552,61.1031724 C4.10262069,60.4907586 4.28468966,60.1348966 4.51641379,59.5086897 C4.81434483,58.705931 4.97986207,58.1045517 5.04606897,57.5224828 C6.57986207,57.8838621 6.74813793,57.9417931 6.74813793,58.0935172 C6.74813793,58.2066207 6.6102069,58.270069 6.24055172,58.3362759 C5.80744828,59.0617931 5.75503448,59.1473103 5.4902069,59.4976552 L8.06124138,59.4976552 C8.41158621,59.0838621 8.52744828,58.9707586 8.86675862,58.5873103 C9.39365517,59.0038621 9.55365517,59.128 10.0805517,59.5638621 C10.1357241,59.608 10.166069,59.6328276 10.166069,59.665931 C10.166069,59.6990345 10.1246897,59.7211034 10.0805517,59.7211034 L5.34124138,59.7211034 C4.94124138,60.2590345 4.45296552,60.750069 3.84882759,61.2024828 L4.14675862,61.4342069 C4.24331034,61.5197241 4.28468966,61.5831724 4.28468966,61.6383448 C4.28468966,61.6962759 4.23227586,61.7404138 3.95365517,61.9224828 C3.85986207,63.7073103 3.81848276,64.1321379 3.62813793,65.2107586 C3.44882759,66.2617931 3.25572414,66.6369655 2.81158621,66.8742069 C2.61296552,66.9652414 2.29572414,67.0535172 2.09434483,67.0535172 C1.97848276,67.0535172 1.94537931,67.0093793 1.94537931,66.8631724 C1.92331034,66.3197241 1.80744828,66.1542069 1.33296552,65.9417931 L1.344,65.8038621 C1.5977931,65.8342069 2.16882759,65.8893793 2.22951724,65.8893793 C2.35641379,65.8893793 2.43365517,65.8231724 2.48606897,65.6576552 C2.70675862,64.945931 2.88882759,63.1997241 2.91917241,61.6162759 L2.27365517,61.6162759 C2.01986207,64.5266207 1.53158621,65.7597241 0.0833103448,67.1886897 L0.000551724138,67.150069 C0.610206897,66.0548966 0.930206897,64.990069 1.09848276,63.4535172 C1.19503448,62.5955862 1.24744828,61.5942069 1.26951724,59.9142069 L0.803310345,59.9142069 C0.632275862,59.9142069 0.516413793,59.9197241 0.284689655,59.9611034 L0.188137931,59.608 C0.348137931,59.6328276 0.348137931,59.6328276 0.82537931,59.688 L1.48193103,59.688 L1.48193103,58.4328276 C1.48193103,58.2286897 1.45986207,58.0493793 1.41572414,57.585931 C2.784,57.7431724 3.024,57.7955862 3.024,57.9307586 C3.024,58.0273103 2.94951724,58.0714483 2.60193103,58.2066207 L2.60193103,59.688 L2.84468966,59.688 Z" id="Fill-44" fill="#FEFEFE" sketch:type="MSShapeGroup"></path>
                <mask id="mask-4" sketch:name="Clip 47" fill="white">
                    <use xlink:href="#path-3"></use>
                </mask>
                <g id="Clip-47"></g>
                <path d="M19.3296552,61.0344828 L18.3144828,61.0344828 L18.3144828,62.0055172 L19.3296552,62.0055172 L19.3296552,61.0344828 Z M19.3296552,59.8924138 L18.3144828,59.8924138 L18.3144828,60.8082759 L19.3296552,60.8082759 L19.3296552,59.8924138 Z M17.3296552,61.0344828 L16.4082759,61.0344828 L16.4082759,62.0055172 L17.3296552,62.0055172 L17.3296552,61.0344828 Z M17.3296552,59.8924138 L16.4082759,59.8924138 L16.4082759,60.8082759 L17.3296552,60.8082759 L17.3296552,59.8924138 Z M19.7627586,64.4717241 C19.9531034,64.2675862 20.0165517,64.1958621 20.2289655,63.9806897 C20.5158621,64.1958621 20.6096552,64.2675862 20.9158621,64.5462069 C20.96,64.5848276 20.9793103,64.6068966 20.9793103,64.64 C20.9793103,64.6703448 20.937931,64.6924138 20.8937931,64.6924138 L19.5944828,64.6924138 L19.5944828,65.3710345 C19.5944828,65.4731034 19.5944828,65.4731034 19.6055172,66.3751724 C19.5944828,66.8634483 19.4565517,67.0317241 18.9682759,67.1668966 C18.7586207,67.2303448 18.5241379,67.2744828 18.3751724,67.2744828 C18.2813793,67.2744828 18.2593103,67.2413793 18.2482759,67.1172414 C18.2262069,66.8634483 18.1434483,66.6482759 18.0165517,66.5572414 C17.8896552,66.4496552 17.7737931,66.4055172 17.4234483,66.32 C17.2662069,66.5572414 17.1062069,66.6593103 16.9268966,66.6593103 C16.8,66.6593103 16.7172414,66.5572414 16.6289655,66.2924138 C16.4717241,65.7710345 16.217931,65.3489655 15.8482759,64.9682759 L15.8924138,64.9131034 C16.4524138,65.0427586 16.8634483,65.1668966 17.1282759,65.3075862 C17.4124138,65.4537931 17.5310345,65.6248276 17.5310345,65.9117241 C17.5310345,66.0082759 17.52,66.0662069 17.4868966,66.1627586 C18.0386207,66.2068966 18.0717241,66.2068966 18.4082759,66.2068966 C18.5462069,66.2068966 18.5986207,66.1627586 18.5986207,66.0358621 L18.5986207,64.6924138 L15.68,64.6924138 C15.52,64.6924138 15.4041379,64.7034483 15.1917241,64.7255172 L15.1172414,64.3972414 C15.3186207,64.4496552 15.4675862,64.4717241 15.6468966,64.4717241 L18.5986207,64.4717241 L18.5986207,64.32 C18.5986207,64.1434483 18.5875862,63.9806897 18.5462069,63.6468966 C19.2248276,63.7186207 19.4234483,63.737931 19.7296552,63.7931034 C19.5834483,63.5393103 19.5724138,63.5172414 19.3903448,63.2855172 C18.4937931,63.5282759 16.9075862,63.8262069 15.7324138,63.9806897 C15.68,64.24 15.6248276,64.3310345 15.5310345,64.3310345 C15.3931034,64.3310345 15.3406897,64.1655172 15.1613793,63.097931 C15.6137931,63.12 15.8262069,63.1255172 16.0082759,63.1255172 C16.057931,63.1255172 16.7889655,63.1034483 17.3296552,63.097931 L17.3296552,62.2317241 L16.4082759,62.2317241 L16.4082759,62.5048276 C16.3972414,62.5875862 16.3668966,62.617931 16.2813793,62.64 C16.2068966,62.662069 15.9006897,62.6841379 15.7103448,62.6841379 C15.4758621,62.6841379 15.4151724,62.64 15.4151724,62.4937931 L15.4151724,62.2096552 C15.4151724,62.1655172 15.4151724,62.1655172 15.4262069,61.7296552 C15.4262069,61.6275862 15.4372414,60.6317241 15.4372414,59.9310345 C15.4372414,59.6551724 15.4262069,59.4455172 15.3931034,59.1062069 C15.8813793,59.3158621 16.0193103,59.3903448 16.4634483,59.6662069 L17.3296552,59.6662069 L17.3296552,58.777931 L15.8482759,58.777931 C15.657931,58.777931 15.5089655,58.7889655 15.2662069,58.8193103 L15.2027586,58.457931 C15.4372414,58.5241379 15.6689655,58.5572414 15.8482759,58.5572414 L17.3296552,58.5572414 L17.3296552,58.3889655 C17.3296552,58.0606897 17.3186207,57.862069 17.2882759,57.4786207 C17.5724138,57.5117241 17.782069,57.5310345 17.9310345,57.5531034 C18.502069,57.6027586 18.7255172,57.6662069 18.7255172,57.7737931 C18.7255172,57.862069 18.6924138,57.8813793 18.3144828,58.0386207 L18.3144828,58.5572414 L19.2137931,58.5572414 C19.497931,58.2482759 19.5834483,58.1462069 19.8675862,57.8289655 C20.3227586,58.1572414 20.4606897,58.2703448 20.8937931,58.6427586 C20.9268966,58.6758621 20.9489655,58.7062069 20.9489655,58.7282759 C20.9489655,58.7558621 20.9048276,58.777931 20.8524138,58.777931 L18.3144828,58.777931 L18.3144828,59.6662069 L19.2027586,59.6662069 C19.5089655,59.3682759 19.5089655,59.3682759 19.7737931,59.1062069 C20.102069,59.337931 20.2068966,59.4124138 20.5268966,59.6662069 C20.5986207,59.7186207 20.64,59.7627586 20.64,59.817931 C20.64,59.8924138 20.5655172,59.9503448 20.3227586,60.0910345 L20.3227586,60.7586207 C20.3227586,61.0013793 20.3337931,61.8593103 20.3448276,62.2675862 C20.3337931,62.3641379 20.3227586,62.3972414 20.2593103,62.4413793 C20.1655172,62.4827586 19.8372414,62.537931 19.6358621,62.537931 C19.4455172,62.537931 19.3296552,62.4937931 19.3296552,62.4193103 L19.3296552,62.3972414 L19.3296552,62.2317241 L18.3144828,62.2317241 L18.3144828,63.0648276 C18.7806897,63.0455172 18.7806897,63.0455172 19.1806897,63.0344828 C19.0124138,62.8496552 18.9268966,62.7806897 18.6841379,62.5875862 L18.7255172,62.5048276 C20.1434483,62.8165517 20.4606897,62.9903448 20.4606897,63.3986207 C20.4606897,63.6965517 20.2289655,63.9751724 19.9944828,63.9751724 C19.9613793,63.9751724 19.9227586,63.9668966 19.8675862,63.9558621 C19.8262069,64.0248276 19.7848276,64.0468966 19.5944828,64.1213793 L19.5944828,64.4717241 L19.7627586,64.4717241 Z M14.0386207,62.0055172 L13.4786207,62.0055172 L13.4786207,63.4868966 L14.0386207,63.4868966 L14.0386207,62.0055172 Z M14.0386207,60.4910345 L13.4786207,60.4910345 L13.4786207,61.7848276 L14.0386207,61.7848276 L14.0386207,60.4910345 Z M12.5903448,62.0055172 L12.0303448,62.0055172 L12.0303448,63.4868966 L12.5903448,63.4868966 L12.5903448,62.0055172 Z M12.5986207,60.4910345 L12.0275862,60.4910345 L12.0275862,61.7848276 L12.5986207,61.7848276 L12.5986207,60.4910345 Z M13.4786207,63.7075862 L13.4786207,64.902069 L13.9641379,64.902069 C14.1958621,64.617931 14.2731034,64.5268966 14.537931,64.24 L15.0648276,64.6924138 L15.36,64.9462069 C15.3931034,64.9903448 15.4151724,65.0206897 15.4151724,65.0427586 C15.4151724,65.097931 15.36,65.1282759 15.2993103,65.1282759 L13.4786207,65.1282759 C13.4786207,65.4537931 13.4786207,65.4537931 13.5006897,67.0206897 C13.5006897,67.0317241 13.5117241,67.0537931 13.5117241,67.0648276 C13.5117241,67.1972414 13.3406897,67.2524138 12.8855172,67.2524138 C12.6096552,67.2524138 12.5489655,67.2193103 12.56,67.0731034 C12.5793103,66.1103448 12.5793103,66.0882759 12.5793103,65.1282759 L11.3848276,65.1282759 C11.1834483,65.1282759 11.0455172,65.1337931 10.8331034,65.177931 L10.7586207,64.8110345 C10.9627586,64.8717241 11.1724138,64.902069 11.3627586,64.902069 L12.5903448,64.902069 L12.5903448,63.7075862 L12.0275862,63.7075862 L12.0275862,64.057931 C12.0275862,64.1213793 12.0193103,64.1434483 11.9862069,64.1655172 C11.9227586,64.217931 11.6882759,64.262069 11.4455172,64.262069 C11.2055172,64.262069 11.1282759,64.217931 11.1282759,64.0882759 C11.1393103,63.657931 11.1613793,61.3627586 11.1613793,60.6096552 C11.1613793,60.2593103 11.1503448,60.08 11.1172414,59.7296552 C11.5503448,59.942069 11.6882759,60.0165517 12.1048276,60.2703448 L12.5986207,60.2703448 L12.5793103,59.2248276 L11.4675862,59.2248276 C11.3517241,59.2248276 11.2468966,59.2358621 10.9517241,59.2662069 L10.8855172,58.9268966 C11.1503448,58.982069 11.2662069,59.0041379 11.4565517,59.0041379 L12.5793103,59.0041379 C12.5682759,58.6758621 12.5682759,58.4331034 12.5682759,58.2593103 C12.5682759,57.8510345 12.5682759,57.7627586 12.5268966,57.4675862 C13.84,57.6137931 13.9227586,57.6248276 13.9227586,57.7627586 C13.9227586,57.862069 13.8289655,57.9089655 13.4786207,58.0055172 L13.4786207,59.0041379 L13.8289655,59.0041379 C14.102069,58.6537931 14.102069,58.6537931 14.3668966,58.3255172 C14.7172414,58.6206897 14.822069,58.7172414 15.1503448,59.062069 C15.1806897,59.1062069 15.2027586,59.1393103 15.2027586,59.1586207 C15.2027586,59.1917241 15.1503448,59.2248276 15.097931,59.2248276 L13.4675862,59.2248276 L13.4675862,59.9503448 L13.4675862,60.2703448 L13.9641379,60.2703448 C14.262069,59.9613793 14.262069,59.9613793 14.4717241,59.7517241 C14.7696552,59.9724138 14.8551724,60.0386207 15.1282759,60.2813793 C15.2027586,60.3337931 15.2248276,60.377931 15.2248276,60.4193103 C15.2248276,60.5075862 15.1503448,60.5655172 14.8827586,60.6951724 L14.8827586,61.9337931 C14.8827586,62.2455172 14.8937931,63.222069 14.9048276,63.8675862 C14.9048276,63.8786207 14.9158621,63.9006897 14.9158621,63.9006897 C14.9158621,63.9558621 14.8937931,63.9806897 14.8772414,64.0137931 C14.8,64.08 14.5903448,64.1213793 14.3227586,64.1213793 C14.1131034,64.1213793 14.0386207,64.08 14.0386207,63.9668966 L14.0386207,63.7075862 L13.4786207,63.7075862 Z" id="Fill-46" fill="#FEFEFE" sketch:type="MSShapeGroup" mask="url(#mask-4)"></path>
                <path d="M27.4543448,60.1238621 C27.2943448,60.5128276 27.2005517,60.7390345 26.9881379,61.1362759 C27.3164138,62.2562759 27.6336552,62.9045517 28.1936552,63.6162759 C28.6929655,62.6066207 28.9357241,61.6962759 29.126069,60.1238621 L27.4543448,60.1238621 Z M30.3315862,60.1238621 C30.0777931,62.0576552 29.7081379,63.1886897 28.9357241,64.3528276 C29.6971034,64.968 30.4281379,65.2962759 31.6336552,65.5611034 L31.6143448,65.6907586 C31.2198621,65.9307586 30.9771034,66.2617931 30.7977931,66.7886897 C30.7646897,66.8742069 30.7343448,66.9128276 30.681931,66.9128276 C30.6074483,66.9128276 30.3757241,66.7997241 30.0446897,66.6011034 C29.424,66.2066207 28.8198621,65.6686897 28.3536552,65.0866207 C27.4764138,66.0355862 26.6929655,66.5238621 24.9688276,67.1666207 L24.9053793,67.0645517 C26.3646897,66.065931 27.126069,65.3514483 27.8157241,64.2783448 C27.3605517,63.4645517 27.0102069,62.4521379 26.8391724,61.4011034 C26.4805517,62.0355862 26.121931,62.5211034 25.4433103,63.2769655 L25.3384828,63.1886897 C26.006069,61.9114483 26.3536552,60.8190345 26.6736552,59.0562759 C26.8115862,58.3362759 26.8281379,58.0935172 26.8281379,57.5335172 C28.5357241,57.8066207 28.566069,57.8176552 28.566069,57.9528276 C28.566069,58.0493793 28.4805517,58.0935172 28.0998621,58.1845517 C27.846069,59.0728276 27.7384828,59.3790345 27.5508966,59.9031724 L29.6336552,59.9031724 C29.961931,59.4783448 30.0667586,59.3486897 30.406069,58.9707586 C30.9026207,59.3790345 31.0515862,59.5086897 31.5371034,59.9611034 C31.5812414,60.0052414 31.5922759,60.0383448 31.5922759,60.0604138 C31.5922759,60.1017931 31.5481379,60.1238621 31.4846897,60.1238621 L30.3315862,60.1238621 Z M23.5067586,58.8742069 C23.401931,58.9376552 23.3522759,58.9597241 23.1812414,58.9928276 C23.0515862,59.4893793 22.9798621,59.688 22.8198621,60.1128276 L23.5067586,60.1128276 L23.5067586,58.8742069 Z M24.7784828,60.1128276 C25.0322759,59.7735172 25.104,59.6769655 25.3605517,59.3597241 C25.7302069,59.710069 25.8350345,59.8176552 26.1633103,60.1790345 C26.1964138,60.2038621 26.2184828,60.248 26.2184828,60.270069 C26.2184828,60.3004138 26.1743448,60.3335172 26.1108966,60.3335172 L24.6295172,60.3335172 L24.6295172,62.2369655 C25.3908966,61.9721379 25.3908966,61.9721379 25.6584828,61.8811034 L25.686069,61.9611034 C25.4129655,62.1983448 25.4129655,62.1983448 24.6295172,62.7252414 L24.6295172,64.2783448 C24.6295172,65.6797241 24.6295172,65.6797241 24.6488276,66.9652414 C24.6488276,67.0645517 24.6405517,67.0948966 24.6102069,67.1390345 C24.5329655,67.208 24.2708966,67.2521379 23.8791724,67.2521379 C23.5067586,67.2521379 23.4571034,67.2190345 23.4571034,67.0093793 C23.4957241,65.6024828 23.5067586,65.1555862 23.5067586,64.4190345 L23.5067586,63.3735172 C23.264,63.5390345 23.2115862,63.5721379 22.9577931,63.7073103 L22.4915862,63.9666207 C22.4805517,64.3307586 22.441931,64.4493793 22.3343448,64.4493793 C22.2074483,64.4493793 22.0805517,64.1762759 21.6557241,62.968 C22.0474483,62.9376552 22.864,62.7362759 23.5067586,62.5155862 L23.5067586,60.3335172 L22.726069,60.3335172 C22.441931,61.0893793 22.1108966,61.6742069 21.6143448,62.3445517 L21.5095172,62.3114483 C21.7108966,61.665931 21.8598621,60.9266207 21.9867586,60.0604138 C22.0474483,59.5086897 22.0998621,58.8962759 22.0998621,58.568 L22.0998621,58.3776552 C22.4088276,58.4548966 22.6626207,58.5017931 22.8198621,58.5348966 C23.2971034,58.6314483 23.424,58.6645517 23.5067586,58.728 C23.5067586,58.2811034 23.4874483,57.8976552 23.4571034,57.5004138 C24.7453793,57.6245517 24.8308966,57.6355862 24.9577931,57.688 C25.0433103,57.7211034 25.0846897,57.7542069 25.0846897,57.8066207 C25.0846897,57.8976552 24.9688276,57.9638621 24.6295172,58.0493793 L24.6295172,60.1128276 L24.7784828,60.1128276 Z" id="Fill-48" fill="#FEFEFE" sketch:type="MSShapeGroup" mask="url(#mask-4)"></path>
                <path d="M37.7398621,63.5075862 C38.9564138,63.7944828 39.4529655,64.1006897 39.4529655,64.5862069 C39.4529655,64.9448276 39.1991724,65.3062069 38.9564138,65.3062069 C38.7991724,65.3062069 38.7550345,65.2537931 38.5867586,64.8593103 C38.3329655,64.3103448 38.1315862,64.0234483 37.6874483,63.582069 L37.7398621,63.5075862 Z M36.184,63.6951724 C37.3398621,64.1972414 37.8226207,64.5972414 37.8226207,65.0441379 C37.8226207,65.4248276 37.486069,65.8662069 37.201931,65.8662069 C37.1357241,65.8662069 37.064,65.8358621 37.0198621,65.7806897 C36.9784828,65.7172414 36.9784828,65.7172414 36.8736552,65.3393103 C36.7026207,64.7241379 36.5122759,64.3213793 36.1205517,63.7724138 L36.184,63.6951724 Z M36.6695172,61.5737931 L34.766069,61.5737931 L34.766069,62.9696552 L36.6695172,62.9696552 L36.6695172,61.5737931 Z M36.6695172,60.0151724 L34.766069,60.0151724 L34.766069,61.3448276 L36.6695172,61.3448276 L36.6695172,60.0151724 Z M36.6695172,58.4813793 L34.766069,58.4813793 L34.766069,59.7972414 L36.6695172,59.7972414 L36.6695172,58.4813793 Z M34.7136552,63.8027586 C35.5274483,64.3958621 36.0046897,64.9889655 36.0046897,65.4248276 C36.0046897,65.8248276 35.5715862,66.3296552 35.2322759,66.3296552 C35.0308966,66.3296552 34.9343448,66.1751724 34.9343448,65.8137931 C34.926069,64.9558621 34.8515862,64.4924138 34.6281379,63.8468966 L34.7136552,63.8027586 Z M40.2777931,62.9696552 L40.881931,62.3103448 C41.2929655,62.5972414 41.4115862,62.6827586 41.8033103,62.9917241 C41.8971034,63.0662069 41.9302069,63.1048276 41.9302069,63.1572414 C41.9302069,63.2648276 41.8336552,63.3393103 41.5384828,63.4855172 C41.441931,64.5751724 41.3371034,65.3503448 41.1991724,65.8772414 C41.0281379,66.5668966 40.744,66.9006897 40.206069,67.0855172 C40.0129655,67.1489655 39.6736552,67.2096552 39.5081379,67.2096552 C39.3591724,67.2096552 39.3591724,67.2096552 39.2957241,66.9117241 C39.2405517,66.6386207 39.0529655,66.4482759 38.7136552,66.3213793 C38.4708966,66.2275862 38.321931,66.1862069 37.7508966,66.0124138 L37.7729655,65.8882759 C38.2998621,65.9434483 39.1357241,65.9958621 39.4750345,65.9958621 C39.7922759,65.9958621 39.9191724,65.9213793 40.001931,65.6786207 C40.1950345,65.1986207 40.3108966,64.4068966 40.3853793,63.1903448 L34.766069,63.1903448 L34.766069,63.4110345 C34.7550345,63.4965517 34.744,63.5406897 34.6943448,63.582069 C34.5950345,63.6482759 34.321931,63.6841379 33.9936552,63.6841379 C33.6129655,63.6841379 33.5495172,63.6593103 33.5412414,63.4524138 C33.5908966,62.44 33.601931,61.6758621 33.601931,59.9958621 C33.601931,58.862069 33.5908966,58.3462069 33.5412414,57.6344828 C34.1205517,57.8717241 34.2998621,57.9517241 34.881931,58.2606897 L39.4115862,58.2606897 C39.7508966,57.8993103 39.8557241,57.7972414 40.184,57.457931 C40.6888276,57.8275862 40.8488276,57.9406897 41.3591724,58.3241379 C41.4005517,58.3682759 41.4226207,58.3986207 41.4226207,58.4206897 C41.4226207,58.4593103 41.3784828,58.4813793 41.304,58.4813793 L37.8226207,58.4813793 L37.8226207,59.7944828 L39.0088276,59.7944828 C39.326069,59.4441379 39.4198621,59.3310345 39.7288276,59.0027586 C40.2253793,59.3586207 40.3743448,59.4662069 40.8598621,59.8496552 C40.904,59.8910345 40.9233103,59.9186207 40.9233103,59.9406897 C40.9233103,59.9848276 40.8708966,60.0151724 40.7964138,60.0151724 L37.8226207,60.0151724 L37.8226207,61.3475862 L38.9646897,61.3475862 C39.2957241,60.9806897 39.3922759,60.862069 39.7067586,60.5117241 C40.1950345,60.8951724 40.3302069,61.0137931 40.8074483,61.4 C40.8488276,61.4551724 40.8708966,61.4772414 40.8708966,61.5075862 C40.8708966,61.5406897 40.8295172,61.5737931 40.766069,61.5737931 L37.8226207,61.5737931 L37.8226207,62.9696552 L40.2777931,62.9696552 Z M33.7398621,63.9213793 C33.8557241,64.3544828 33.8888276,64.5696552 33.8888276,64.9034483 C33.8888276,65.4303448 33.7729655,65.8993103 33.5688276,66.2082759 C33.3591724,66.5144828 33.086069,66.6910345 32.8212414,66.6910345 C32.4929655,66.6910345 32.2474483,66.3627586 32.2474483,65.9103448 C32.2474483,65.6455172 32.321931,65.5268966 32.5757241,65.3834483 C33.2626207,64.9889655 33.486069,64.6827586 33.6350345,63.9103448 L33.7398621,63.9213793 Z" id="Fill-49" fill="#FEFEFE" sketch:type="MSShapeGroup" mask="url(#mask-4)"></path>
                <path d="M52.5158621,79.9724138 L34.2124138,79.9724138 L34.2124138,75.8565517 L52.5158621,75.8565517 L52.5158621,79.9724138 Z" id="Fill-50" fill="#FDBA30" sketch:type="MSShapeGroup" mask="url(#mask-4)"></path>
                <path d="M52.9351724,66.8 L44.0689655,66.8 L44.0689655,57.9365517 L52.9351724,57.9365517 L52.9351724,66.8 Z" id="Fill-51" fill="#FDBA30" sketch:type="MSShapeGroup" mask="url(#mask-4)"></path>
                <path d="M46.4493793,23.2057931 C46.1321379,23.1147586 46.1266207,23.4375172 45.4838621,23.2554483 C44.8438621,23.0761379 45.1335172,22.9161379 44.6093793,22.689931 C44.2397241,22.5326897 44.3611034,22.0306207 44.4686897,21.7409655 L44.568,21.7409655 C44.4907586,21.9892414 44.4438621,22.3175172 44.6783448,22.4195862 C44.9486897,22.5326897 45.0342069,22.6457931 45.105931,22.7313103 C45.1748966,22.8223448 45.2328276,22.894069 45.5417931,22.9795862 C45.6052414,23.0016552 45.665931,23.0182069 45.7211034,23.0237241 C45.928,23.054069 46.030069,23.0126897 46.1238621,22.974069 C46.2093793,22.9354483 46.3031724,22.894069 46.4411034,22.9161379 C46.4631724,22.9188966 46.4852414,22.9244138 46.5073103,22.929931 C46.5128276,22.9354483 46.5211034,22.9354483 46.5293793,22.9354483 C46.7362759,22.9685517 47.0204138,22.6347586 47.1335172,22.0968276 C47.1748966,22.0913103 47.2107586,22.0857931 47.2493793,22.0747586 C47.2548966,22.1023448 47.2548966,22.1271724 47.2521379,22.1547586 C47.1445517,22.8444138 46.7693793,23.2968276 46.4493793,23.2057931 M26.5045517,13.032 L26.5045517,8.43613793 C26.7307586,8.43613793 26.9128276,8.24855172 26.9128276,8.02234483 C26.9128276,7.79062069 26.728,7.60855172 26.4990345,7.60855172 C23.3983448,7.60855172 20.8052414,7.96993103 18.6452414,8.52441379 L18.6452414,4.11062069 C18.9183448,3.77682759 22.2507586,0.124413793 30.3307586,5.90096552 L30.3307586,12.1437241 C28.8686897,12.3588966 27.5997241,12.6733793 26.5045517,13.032 M30.9486897,41.432 C31.1473103,41.3188966 31.3735172,41.1947586 31.7155862,41.2057931 C31.7735172,41.2113103 31.8314483,41.2168276 31.8921379,41.2278621 C31.9086897,41.2278621 31.9252414,41.2333793 31.9445517,41.2333793 C32.4631724,41.2554483 33.070069,40.3561379 33.2107586,39.0044138 C33.310069,38.9768276 33.4066207,38.9437241 33.5031724,38.9051034 C33.5142069,38.9657931 33.5252414,39.0237241 33.5252414,39.0844138 C33.4452414,40.8361379 32.6452414,42.0582069 31.8231724,41.9230345 C30.9983448,41.7878621 31.0811034,42.5851034 29.4369655,42.3175172 C27.7928276,42.0416552 28.4714483,41.5561379 27.0976552,41.1423448 C26.1762759,40.8609655 26.2921379,39.6664828 26.4714483,38.9051034 C26.5404138,38.8995862 26.6121379,38.8913103 26.6838621,38.8913103 L26.7252414,38.8913103 C26.6176552,39.5147586 26.6176552,40.2788966 27.2024828,40.4526897 C27.9031724,40.6678621 28.1486897,40.9161379 28.3473103,41.1202759 C28.5514483,41.3244138 28.705931,41.4871724 29.5031724,41.6168276 C29.6686897,41.6444138 29.8204138,41.6637241 29.9583448,41.6692414 C30.4852414,41.6913103 30.7197241,41.5616552 30.9486897,41.432 M10.1321379,30.4306207 C10.1652414,30.4306207 10.1955862,30.4416552 10.2286897,30.4471724 C10.2369655,30.4526897 10.248,30.4526897 10.2590345,30.4526897 C10.545931,30.4968276 10.9348966,30.0223448 11.0838621,29.2664828 C11.1362759,29.2554483 11.1914483,29.2444138 11.2438621,29.2306207 C11.2521379,29.2664828 11.2548966,29.3051034 11.2493793,29.3437241 C11.1142069,30.312 10.6038621,30.9547586 10.1542069,30.8361379 C9.70455172,30.712 9.70731034,31.1644138 8.80524138,30.9271724 C7.90317241,30.6844138 8.30868966,30.4526897 7.56386207,30.152 C7.06455172,29.9395862 7.1942069,29.2775172 7.33489655,28.8637241 C7.35972414,28.8637241 7.38455172,28.8582069 7.40937931,28.8582069 C7.43144828,28.8582069 7.45627586,28.8637241 7.47834483,28.8637241 C7.38455172,29.2085517 7.34041379,29.6388966 7.66041379,29.774069 C8.03834483,29.9257931 8.16248276,30.0747586 8.2617931,30.1988966 C8.36110345,30.3285517 8.44386207,30.4251034 8.87972414,30.5382069 C8.968,30.5657931 9.05075862,30.5823448 9.13075862,30.5933793 C9.42041379,30.6347586 9.55834483,30.5713103 9.69351724,30.5106207 C9.80937931,30.4637241 9.9417931,30.4030345 10.1321379,30.4306207 M51.7376552,20.894069 C51.7238621,20.8554483 51.6576552,20.6568276 51.5252414,20.4968276 C51.3928276,20.1823448 51.0535172,19.6388966 51.0535172,19.6388966 C51.0535172,19.6388966 50.8245517,19.2995862 50.4962759,19.2416552 C50.5073103,19.1368276 50.5624828,19.0044138 50.728,18.8361379 C50.728,18.8361379 50.2645517,18.8526897 50.1762759,19.2030345 C50.1128276,19.2030345 50.0769655,19.1975172 50.0024828,19.1975172 C48.7307586,19.2775172 47.928,21.0926897 47.6411034,21.649931 C47.4038621,22.1023448 46.8548966,21.9671724 46.1128276,21.8844138 L46.1128276,14.1271724 C46.2866207,14.1106207 46.4411034,13.992 46.4852414,13.809931 C46.5348966,13.5837241 46.3969655,13.3630345 46.1735172,13.3078621 C39.5142069,11.752 34.4576552,11.6002759 30.6645517,12.1023448 L30.6645517,6.11613793 C30.7086897,6.12717241 30.7528276,6.1382069 30.7942069,6.1382069 C30.9238621,6.1382069 31.0507586,6.07751724 31.1307586,5.96441379 C31.2686897,5.77682759 31.2245517,5.51751724 31.0397241,5.38234483 C21.8038621,-1.34593103 18.110069,3.432 17.9555862,3.63613793 C17.8176552,3.82648276 17.8562759,4.08303448 18.0411034,4.2182069 C18.1211034,4.28441379 18.2204138,4.2982069 18.3114483,4.29544828 L18.3114483,8.60993103 C11.3817931,10.4913103 9.06455172,14.3809655 8.94041379,14.5961379 C8.82455172,14.7947586 8.89627586,15.0485517 9.09489655,15.1671724 C9.16110345,15.2057931 9.23282759,15.2195862 9.3017931,15.2195862 C9.38731034,15.2195862 9.47282759,15.1892414 9.5417931,15.1395862 L9.5417931,29.0954483 C9.51144828,29.089931 9.48386207,29.089931 9.45075862,29.0844138 C8.41075862,28.9823448 7.4617931,28.3202759 6.54317241,28.9382069 C6.44110345,28.632 6.21489655,28.2430345 5.64386207,28.6154483 C4.85213793,29.1257931 4.28386207,30.1188966 2.97627586,30.0857931 C1.6742069,30.0471724 1.44248276,28.8195862 1.44248276,28.8195862 C1.44248276,28.8195862 1.3542069,29.774069 1.99144828,30.5823448 C2.71696552,31.5147586 3.70455172,31.3630345 4.44662069,31.0568276 C5.19696552,30.7423448 5.40662069,29.9147586 5.69075862,29.5423448 C5.80110345,29.3961379 5.97213793,29.2775172 6.13213793,29.3106207 C5.34868966,30.1713103 5.8617931,30.6457931 5.98041379,31.2223448 C6.10455172,31.8264828 5.0617931,32.1133793 5.0617931,32.1133793 C4.47144828,32.1878621 4.67558621,32.5713103 4.67558621,32.5713103 C4.67558621,32.5713103 4.78317241,32.8113103 4.89351724,33.1313103 C5.86455172,33.5837241 6.07972414,34.3037241 6.07972414,34.3037241 C6.07972414,34.3037241 6.21213793,34.2954483 6.168,34.6016552 C6.15144828,34.7037241 5.7017931,34.9023448 5.7017931,35.0430345 C5.7017931,35.1892414 6.18731034,35.7216552 6.33075862,35.6885517 C6.4742069,35.6526897 6.43006897,35.3382069 6.54317241,35.1175172 C6.73903448,34.9575172 6.64524138,34.5961379 6.72248276,34.3644138 C6.78041379,34.1906207 6.60662069,33.8375172 6.13489655,33.4375172 C5.85903448,33.2223448 5.48110345,32.8057931 5.50593103,32.7037241 C5.528,32.6071724 6.34731034,32.5851034 6.88248276,32.5161379 C7.42041379,32.4416552 7.56386207,31.8595862 7.78731034,31.7713103 C8.01351724,31.6857931 9.39558621,32.5051034 11.6411034,32.2954483 C12.3914483,32.3809655 12.7445517,32.6016552 13.1362759,32.6982069 C13.4121379,32.769931 14.2066207,32.9409655 14.670069,33.1037241 C15.1804138,33.4154483 15.3762759,34.0361379 15.505931,34.2954483 C15.6328276,34.5464828 15.7486897,34.9409655 15.7486897,34.9409655 C15.7486897,34.9409655 15.8066207,34.9244138 15.8369655,34.9988966 C15.9197241,35.1947586 15.790069,35.2416552 15.7266207,35.2968276 C15.6686897,35.3437241 15.7017931,35.6085517 15.7017931,35.6085517 C15.7017931,35.6085517 16.1707586,36.0885517 16.2921379,36.0775172 C16.4135172,36.0609655 16.4714483,35.6085517 16.430069,35.4568276 C16.3914483,35.3023448 16.3169655,34.8113103 16.2011034,34.6651034 C16.0824828,34.5271724 15.4783448,33.1202759 15.4783448,33.1202759 C15.4783448,33.1202759 15.4231724,32.9685517 15.345931,32.872 C15.2797241,32.7864828 14.4686897,31.9726897 14.1707586,31.6857931 C14.3804138,31.3961379 14.4797241,30.7175172 14.2286897,29.8871724 C13.8176552,29.0292414 15.5666207,26.5464828 15.6935172,26.712 C16.0190345,27.1506207 16.7693793,27.0044138 16.9845517,26.8637241 C17.425931,26.8416552 18.2645517,27.192 18.2645517,27.192 C18.2645517,27.192 18.4024828,27.1506207 18.5293793,26.9878621 C18.625931,26.8637241 18.6093793,26.5464828 18.5735172,26.5023448 C18.4162759,26.2926897 16.8576552,25.2968276 16.8576552,25.2968276 C16.8576552,25.2968276 16.3666207,24.974069 15.8976552,24.9409655 C15.8011034,24.8223448 15.7348966,24.7092414 15.9086897,24.3644138 C15.9086897,24.3644138 15.2935172,24.5575172 15.4783448,25.1009655 C15.3955862,25.1395862 15.1831724,25.2113103 15.0893793,25.2582069 C13.5611034,26.174069 12.5569655,27.0733793 11.9473103,28.4747586 C11.6769655,29.0954483 10.8686897,29.1864828 9.87558621,29.1230345 L9.87558621,14.6982069 C10.8217931,13.409931 15.128,8.54096552 26.168,8.44165517 L26.168,13.1478621 C21.9886897,14.6237241 20.4742069,16.8471724 20.3583448,17.0264828 C20.2314483,17.2195862 20.2866207,17.4733793 20.4797241,17.6030345 C20.5486897,17.6444138 20.6286897,17.6664828 20.705931,17.6664828 C20.8438621,17.6664828 20.9762759,17.6030345 21.0562759,17.4844138 C21.0921379,17.4292414 23.3955862,14.1106207 30.3307586,13.032 L30.3307586,38.8085517 C30.2093793,38.814069 30.088,38.814069 29.9638621,38.8195862 C28.0493793,38.8802759 26.385931,37.9313103 24.7748966,39.2885517 C24.6673103,39.0044138 24.3224828,38.4223448 23.8066207,38.0609655 C22.8935172,37.4126897 21.6466207,37.2885517 20.5955862,37.6195862 C20.1707586,37.7575172 19.790069,37.9588966 19.4314483,38.2264828 C18.8411034,38.6678621 18.6314483,39.4568276 17.9997241,39.8595862 C17.6107586,40.1133793 17.0369655,40.2044138 16.5735172,40.209931 C16.2617931,40.2154483 15.950069,40.1188966 15.665931,40.0057931 C15.5445517,39.9561379 15.425931,39.8982069 15.3128276,39.8375172 C15.2107586,39.7851034 14.968,39.694069 14.9073103,39.5892414 C15.5362759,40.6457931 16.2093793,41.0733793 16.910069,41.3961379 C18.545931,42.1492414 20.190069,40.9106207 21.3597241,40.0168276 C21.8424828,39.6444138 23.0066207,39.2444138 23.5969655,39.5257931 C23.7983448,39.6168276 24.0107586,39.752 24.1293793,39.9947586 C23.5886897,40.7809655 23.448,41.7023448 23.4838621,42.2347586 C23.4838621,42.2347586 23.5914483,43.8044138 24.1542069,44.974069 C23.9555862,46.7506207 21.6355862,46.9768276 21.5224828,47.089931 C21.4066207,47.1975172 21.9142069,49.0788966 19.8562759,49.5257931 C19.8562759,49.5257931 20.0273103,50.2044138 18.7638621,49.8485517 C18.3997241,51.0071724 18.7611034,51.5368276 18.7611034,51.5368276 C18.7611034,51.5368276 19.7514483,51.6278621 20.0273103,51.1368276 C20.4135172,50.9437241 21.8921379,48.5078621 23.5666207,48.0388966 C23.5666207,48.0388966 25.5086897,47.9147586 26.4548966,46.7285517 C26.7362759,46.3671724 27.4038621,45.2195862 27.6162759,44.7892414 C27.9528276,44.9078621 30.7693793,45.3492414 32.4411034,44.8857931 C34.0631724,44.4333793 34.7583448,44.1216552 34.7583448,44.1216552 C34.7583448,44.1216552 35.1252414,44.3037241 35.3735172,44.3754483 C35.6852414,44.4664828 37.5307586,44.8002759 38.5569655,44.7671724 C39.6190345,44.7313103 40.750069,45.1064828 40.750069,45.1064828 C40.750069,45.1064828 39.1969655,46.8361379 38.8548966,47.0788966 C38.5128276,47.3271724 38.1211034,47.3437241 37.9114483,47.3382069 C37.6962759,47.3382069 37.4452414,46.9409655 37.2162759,46.9713103 C37.0452414,46.9988966 36.385931,48.4526897 36.385931,48.4526897 C36.385931,48.4526897 36.9486897,48.6044138 37.5886897,48.4361379 C38.110069,48.4526897 38.6838621,48.152 39.0893793,47.9837241 C39.4507586,47.8292414 40.7142069,46.4857931 41.9086897,45.4954483 C43.0011034,44.5851034 41.2907586,43.969931 41.2907586,43.969931 C41.2907586,43.969931 38.9652414,43.1616552 38.4135172,43.1478621 C38.4135172,43.1478621 38.7583448,42.7368276 38.9597241,41.9947586 C39.1611034,41.249931 39.1611034,41.249931 38.6893793,39.4926897 C38.3776552,38.334069 39.3817931,34.0830345 39.5307586,34.4333793 C39.8314483,35.1561379 40.2148966,35.4044138 40.8907586,35.4678621 C41.6107586,36.0830345 41.5666207,37.1175172 41.5666207,37.1175172 C41.5666207,37.1175172 41.8783448,37.4733793 42.2507586,37.4954483 C42.6093793,37.5202759 43.0590345,36.9823448 43.0783448,36.8802759 C43.0976552,36.7782069 43.1886897,36.2651034 43.0948966,35.7437241 C43.1804138,34.9078621 43.0204138,33.6251034 43.0204138,33.6251034 C43.0204138,33.6251034 42.8824828,32.3644138 42.225931,31.6582069 C42.2728276,31.3851034 42.5790345,31.1533793 43.2217931,31.0623448 C43.2217931,31.0623448 42.2728276,30.5437241 41.5086897,31.1588966 C41.3211034,31.0402759 40.545931,30.8995862 40.0797241,30.9602759 C36.625931,31.6057931 34.7445517,36.3368276 34.1790345,37.7906207 C33.7348966,38.9326897 32.430069,38.8030345 30.6645517,38.8085517 L30.6645517,12.9851034 C34.3362759,12.4609655 39.265931,12.574069 45.7790345,14.072 L45.7790345,21.854069 C45.1224828,21.7630345 44.5542069,21.4182069 43.9583448,21.7464828 C43.9666207,21.5837241 43.9252414,21.192 43.3707586,21.3354483 C42.6783448,21.5202759 42.6176552,22.4582069 41.6935172,22.3064828 C40.7666207,22.1547586 41.2797241,21.0816552 41.2824828,21.0816552 C41.2493793,21.1478621 40.9735172,21.432 40.8935172,21.752 C40.7831724,22.2044138 40.8742069,22.7368276 41.2521379,23.0292414 C41.6135172,23.3078621 42.1569655,23.2857931 42.5431724,23.0706207 C42.9569655,22.8388966 43.0590345,22.4030345 43.3376552,22.0582069 C43.4452414,21.9230345 43.5693793,21.8595862 43.6686897,21.9561379 C43.0562759,22.5216552 43.3155862,22.9630345 43.3762759,23.3988966 C43.4342069,23.8402759 42.9486897,23.9975172 42.9486897,23.9975172 C42.5266207,24.0195862 42.6535172,24.2982069 42.6535172,24.2982069 C42.6535172,24.2982069 42.7804138,24.3809655 42.8714483,24.6016552 C43.7376552,25.0595862 43.7790345,25.3713103 43.7790345,25.3713103 C43.7790345,25.3713103 43.8783448,25.3657931 43.8921379,25.5561379 C43.8948966,25.6306207 43.5831724,25.8678621 43.6052414,25.969931 C43.6245517,26.0664828 43.9914483,26.3947586 44.088,26.3533793 C44.1845517,26.3037241 44.1073103,26.0885517 44.1569655,25.9147586 C44.270069,25.7768276 44.1569655,25.5395862 44.1735172,25.3657931 C44.1735172,25.3657931 44.2038621,25.112 43.7348966,24.7478621 C43.4231724,24.5106207 43.150069,24.4113103 43.1776552,24.3588966 C43.2052414,24.2982069 43.8424828,24.2623448 44.225931,24.2402759 C44.6121379,24.2126897 44.7417931,23.809931 44.7417931,23.809931 C44.7417931,23.809931 44.9321379,23.6802759 45.7431724,24.0416552 C46.5569655,24.4030345 47.4176552,24.2982069 47.4176552,24.2982069 C47.4176552,24.2982069 47.5307586,24.4609655 47.6162759,24.5161379 C47.8755862,24.6926897 48.0438621,24.7423448 49.1390345,24.7037241 C49.5335172,24.6871724 50.3638621,24.5961379 50.3638621,24.5961379 C50.3638621,24.5961379 49.9748966,25.5561379 49.8976552,25.7051034 C49.8204138,25.8513103 49.7514483,25.8292414 49.665931,25.8237241 C49.5831724,25.8182069 49.4728276,25.6637241 49.4038621,25.6747586 C49.3348966,25.6830345 48.9707586,26.2761379 48.9707586,26.2761379 C48.9707586,26.2761379 49.2935172,26.2761379 49.4645517,26.3092414 C49.630069,26.3368276 50.0052414,26.1216552 50.1321379,26.0278621 C50.2562759,25.9313103 50.5873103,25.0871724 50.8466207,24.5271724 C51.105931,23.9588966 50.4024828,24.0664828 50.4024828,24.0664828 C50.4024828,24.0664828 49.3348966,24.1492414 49.1169655,24.1161379 C49.5031724,23.6637241 49.5197241,22.6788966 49.4148966,22.209931 C49.310069,21.7409655 49.8286897,20.609931 49.9555862,20.689931 C50.2755862,20.8830345 50.328,20.7478621 50.6976552,20.8251034 C51.070069,20.8995862 51.2493793,21.3051034 51.2493793,21.3051034 C51.2493793,21.3051034 51.4314483,21.329931 51.5638621,21.272 C51.6686897,21.2223448 51.7514483,20.9326897 51.7376552,20.894069" id="Fill-52" fill="#FEFEFE" sketch:type="MSShapeGroup" mask="url(#mask-4)"></path>
                <path d="M27.2684138,45.4794483 C27.273931,45.473931 27.2766897,45.4684138 27.2794483,45.4684138 L27.2794483,45.4628966 C27.2766897,45.473931 27.2711724,45.473931 27.2684138,45.4794483" id="Fill-53" fill="#FEFEFE" sketch:type="MSShapeGroup" mask="url(#mask-4)"></path>
                <path d="M27.2791724,45.4686897 L27.2929655,45.4686897 C27.2929655,45.4576552 27.2874483,45.4576552 27.2791724,45.4686897" id="Fill-54" fill="#FEFEFE" sketch:type="MSShapeGroup" mask="url(#mask-4)"></path>
            </g>
        </g>
    </g>
</svg>