<?xml version="1.0" encoding="UTF-8" standalone="no"?>
<svg width="96px" height="96px" viewBox="0 0 96 96" version="1.1" xmlns="http://www.w3.org/2000/svg" xmlns:xlink="http://www.w3.org/1999/xlink" xmlns:sketch="http://www.bohemiancoding.com/sketch/ns">
    <!-- Generator: Sketch 3.4.2 (15855) - http://www.bohemiancoding.com/sketch -->
    <title>simpleinfo</title>
    <desc>Created with Sketch.</desc>
    <defs>
        <path id="path-1" d="M0,2.27310345 L78.1958621,2.27310345 L78.1958621,49.6551724 L0,49.6551724"></path>
    </defs>
    <g id="Page-1" stroke="none" stroke-width="1" fill="none" fill-rule="evenodd" sketch:type="MSPage">
        <g id="simpleinfo" sketch:type="MSArtboardGroup">
            <g id="Page-1" sketch:type="MSLayerGroup" transform="translate(8.000000, 23.172414)">
                <path d="M27.3362759,37.2968276 C27.248,37.9257931 26.6742069,38.5078621 26.0562759,38.5988966 C25.4383448,38.689931 25.0024828,38.2485517 25.0935172,37.614069 C25.1790345,36.9823448 25.7528276,36.3947586 26.3707586,36.3147586 C26.9942069,36.2209655 27.4217931,36.6651034 27.3362759,37.2968276" id="Fill-1" fill="#FFCB04" sketch:type="MSShapeGroup"></path>
                <path d="M30.7064828,36.8253793 C30.6154483,37.4571034 30.0444138,38.0391724 29.4237241,38.1246897 C28.8057931,38.2157241 28.3726897,37.7688276 28.4582069,37.1426207 C28.5437241,36.5136552 29.1202759,35.926069 29.7382069,35.8377931 C30.3588966,35.7467586 30.792,36.1908966 30.7064828,36.8253793" id="Fill-3" fill="#FFCB04" sketch:type="MSShapeGroup"></path>
                <path d="M34.0697931,36.3511724 C33.9842759,36.9828966 33.4104828,37.5677241 32.7925517,37.656 C32.1718621,37.7387586 31.7415172,37.2973793 31.8270345,36.6656552 C31.9153103,36.033931 32.4863448,35.4518621 33.1070345,35.3635862 C33.7277241,35.278069 34.1608276,35.7194483 34.0697931,36.3511724" id="Fill-5" fill="#FFCB04" sketch:type="MSShapeGroup"></path>
                <path d="M51.9348966,10.7208276 L51.4990345,10.3373793 C51.2948966,10.1608276 50.9362759,10.2297931 50.6962759,10.4973793 L48.0369655,13.4408276 L46.1031724,11.1401379 C45.9293793,10.9304828 45.5735172,10.9608276 45.3142069,11.2091034 L44.7514483,11.7304828 C44.4921379,11.9732414 44.4204138,12.3346207 44.5942069,12.5470345 L46.6438621,14.993931 L43.8273103,18.1166897 C43.5873103,18.3842759 43.5542069,18.7484138 43.7638621,18.9277241 L44.1942069,19.3056552 C44.3983448,19.4904828 44.7569655,19.416 44.9997241,19.1511724 L47.6562759,16.1966897 L49.5928276,18.5028966 C49.7666207,18.7097931 50.1197241,18.6822069 50.3817931,18.4422069 L50.9417931,17.9153103 C51.2038621,17.6725517 51.2728276,17.3056552 51.0990345,17.096 L49.0493793,14.6546207 L51.8686897,11.5263448 C52.1114483,11.2587586 52.1390345,10.8973793 51.9348966,10.7208276" id="Fill-7" fill="#FFCB04" sketch:type="MSShapeGroup"></path>
                <path d="M5.9462069,40.5241379 L6.03724138,39.8813793 C6.06482759,39.7241379 6.13931034,39.5613793 6.2662069,39.44 C6.95034483,38.7806897 7.68965517,38.4110345 8.47862069,38.3310345 C9.03310345,38.2206897 9.63448276,38.3117241 10.2937931,38.6096552 C10.8896552,38.8468966 11.4303448,38.9296552 11.9158621,38.8606897 C12.2772414,38.7944828 12.6358621,38.6455172 12.9972414,38.4137931 C13.4055172,38.1489655 13.8358621,38.3475862 13.7724138,38.7917241 L13.6841379,39.4565517 C13.662069,39.5972414 13.5931034,39.7517241 13.4772414,39.8703448 C12.9117241,40.4496552 12.2303448,40.8 11.4441379,40.9103448 C10.8924138,40.9848276 10.2910345,40.9103448 9.62344828,40.6868966 C8.96413793,40.4193103 8.40965517,40.3227586 7.96,40.3834483 C7.56275862,40.4413793 7.15172414,40.6151724 6.72137931,40.9048276 C6.31862069,41.177931 5.88827586,40.9682759 5.9462069,40.5241379" id="Fill-9" fill="#FFCB04" sketch:type="MSShapeGroup"></path>
                <path d="M67.0736552,14.1988966 L66.624,13.7575172 C66.4364138,13.5726897 66.4695172,13.2223448 66.704,12.9602759 L71.1867586,7.89268966 C71.4350345,7.60855172 71.8184828,7.53958621 72.0226207,7.7382069 L72.806069,8.51062069 C73.0074483,8.70924138 72.9522759,9.08993103 72.6874483,9.35751724 L67.8708966,14.0885517 C67.6171034,14.3368276 67.2667586,14.3837241 67.0736552,14.1988966" id="Fill-11" fill="#FFCB04" sketch:type="MSShapeGroup"></path>
                <path d="M64.9412414,16.3944828 L64.5246897,15.9917241 C64.326069,15.7903448 64.3702069,15.4234483 64.624,15.1641379 L64.8915862,14.8827586 C65.1426207,14.6206897 65.5067586,14.5627586 65.7026207,14.7531034 L66.121931,15.1668966 C66.3177931,15.36 66.2736552,15.7296552 66.0226207,15.9917241 L65.7522759,16.2703448 C65.5012414,16.5324138 65.1371034,16.5848276 64.9412414,16.3944828" id="Fill-13" fill="#FFCB04" sketch:type="MSShapeGroup"></path>
                <g id="Group-17">
                    <mask id="mask-2" sketch:name="Clip 16" fill="white">
                        <use xlink:href="#path-1"></use>
                    </mask>
                    <g id="Clip-16"></g>
                    <path d="M75.2725517,19.8750345 L68.9084138,20.7715862 C68.593931,20.8157241 68.3732414,20.5895172 68.4173793,20.2667586 L68.5387586,19.3729655 C68.5828966,19.0474483 68.8753103,18.7522759 69.1925517,18.7081379 L73.5346207,18.0957241 C73.8518621,18.0571034 74.1442759,17.7508966 74.1884138,17.4308966 L75.8849655,5.12744828 C75.9263448,4.80468966 75.7084138,4.58124138 75.3911724,4.62537931 L71.0518621,5.23503448 C70.7346207,5.27365517 70.513931,5.05296552 70.558069,4.7302069 L70.6849655,3.83641379 C70.7263448,3.51365517 71.0187586,3.21848276 71.3332414,3.17158621 L77.6973793,2.2777931 C78.0173793,2.23365517 78.2353103,2.45710345 78.1911724,2.77986207 L75.9263448,19.2129655 C75.8849655,19.5357241 75.5925517,19.8281379 75.2725517,19.8750345" id="Fill-15" fill="#FFCB04" sketch:type="MSShapeGroup" mask="url(#mask-2)"></path>
                </g>
                <path d="M65.3845517,21.2651034 L59.0231724,22.1616552 C58.7031724,22.2057931 58.4824828,21.9795862 58.5293793,21.6595862 L60.7914483,5.22648276 C60.8355862,4.90096552 61.128,4.6057931 61.4452414,4.56165517 L67.8066207,3.66786207 C68.1266207,3.62372414 68.3473103,3.84717241 68.3031724,4.16993103 L68.1817931,5.06372414 C68.1321379,5.38648276 67.8397241,5.68441379 67.5252414,5.73131034 L63.185931,6.3382069 C62.8686897,6.37958621 62.5735172,6.68027586 62.5321379,7.00303448 L60.8355862,19.3064828 C60.7914483,19.6292414 61.0093793,19.8582069 61.3266207,19.8168276 L65.665931,19.2044138 C65.985931,19.1547586 66.2066207,19.3837241 66.1597241,19.7092414 L66.0355862,20.6030345 C65.9942069,20.9230345 65.7017931,21.2209655 65.3845517,21.2651034" id="Fill-18" fill="#FFCB04" sketch:type="MSShapeGroup"></path>
                <path d="M55.1285517,22.5070345 L48.7644138,23.4008276 C48.449931,23.4422069 48.2264828,23.2187586 48.2706207,22.896 L48.3947586,22.0022069 C48.4416552,21.6794483 48.7313103,21.3787586 49.0485517,21.3373793 L53.3906207,20.7249655 C53.7051034,20.6835862 53.9975172,20.3828966 54.0416552,20.0601379 L55.7409655,7.75393103 C55.7823448,7.42841379 55.5644138,7.20772414 55.2444138,7.25186207 L50.9078621,7.86151724 C50.5906207,7.90565517 50.369931,7.6822069 50.4113103,7.35393103 L50.5354483,6.46289655 C50.5823448,6.14013793 50.8747586,5.84496552 51.1892414,5.79806897 L57.5506207,4.90427586 C57.8706207,4.85737931 58.0913103,5.08358621 58.0471724,5.41186207 L55.7823448,21.8394483 C55.7382069,22.1622069 55.4457931,22.4546207 55.1285517,22.5070345" id="Fill-20" fill="#FFCB04" sketch:type="MSShapeGroup"></path>
                <path d="M45.2388966,23.8891034 L38.872,24.7884138 C38.5575172,24.8297931 38.3395862,24.6063448 38.3837241,24.2835862 L40.6485517,7.856 C40.689931,7.53324138 40.9851034,7.23255172 41.2995862,7.18565517 L47.6637241,6.29462069 C47.9782069,6.25324138 48.2016552,6.47668966 48.1575172,6.79944828 L48.0333793,7.69324138 C47.9892414,8.01324138 47.6968276,8.31393103 47.3768276,8.35806897 L43.0402759,8.97048276 C42.7230345,9.01186207 42.4306207,9.30703448 42.3864828,9.63255172 L40.689931,21.9332414 C40.6457931,22.256 40.8664828,22.4822069 41.1809655,22.4463448 L45.5202759,21.833931 C45.8375172,21.7870345 46.0609655,22.0077241 46.0168276,22.3387586 L45.889931,23.2242759 C45.8457931,23.5497931 45.5533793,23.8504828 45.2388966,23.8891034" id="Fill-22" fill="#FFCB04" sketch:type="MSShapeGroup"></path>
                <path d="M36.5845517,44.6377931 L30.2231724,45.5371034 C29.9086897,45.5784828 29.6852414,45.3577931 29.7321379,45.0322759 L29.8535172,44.1357241 C29.8976552,43.8074483 30.1928276,43.5150345 30.5045517,43.4764138 L34.8466207,42.8584828 C35.1638621,42.8198621 35.4562759,42.5136552 35.5004138,42.1991724 L37.1969655,29.8874483 C37.2438621,29.5702069 37.0204138,29.3412414 36.705931,29.3881379 L32.3638621,29.9977931 C32.0466207,30.0446897 31.825931,29.8157241 31.8728276,29.4929655 L31.9942069,28.601931 C32.0383448,28.2764138 32.3307586,27.9812414 32.648,27.9343448 L39.0121379,27.0377931 C39.3266207,26.9936552 39.550069,27.2226207 39.505931,27.5453793 L37.2383448,43.9729655 C37.1942069,44.2984828 36.9017931,44.5908966 36.5845517,44.6377931" id="Fill-24" fill="#FFCB04" sketch:type="MSShapeGroup"></path>
                <path d="M26.6965517,46.0333793 L20.3324138,46.9188966 C20.017931,46.9713103 19.7972414,46.7451034 19.8413793,46.4223448 L22.1062069,29.9947586 C22.1503448,29.6637241 22.4427586,29.3713103 22.7572414,29.3244138 L29.1213793,28.4278621 C29.4386207,28.3837241 29.6593103,28.6126897 29.6151724,28.9354483 L29.4910345,29.8264828 C29.4468966,30.152 29.1544828,30.4526897 28.8372414,30.4913103 L24.497931,31.0982069 C24.177931,31.1478621 23.8855172,31.4457931 23.8413793,31.7657931 L22.1475862,44.0747586 C22.1034483,44.3975172 22.3241379,44.6209655 22.6386207,44.5768276 L26.9806897,43.9671724 C27.297931,43.9230345 27.5186207,44.1464828 27.4717241,44.472 L27.3503448,45.3630345 C27.3089655,45.6830345 27.0110345,45.9837241 26.6965517,46.0333793" id="Fill-26" fill="#FFCB04" sketch:type="MSShapeGroup"></path>
                <path d="M16.7503448,47.3613793 L10.3889655,48.257931 C10.0717241,48.302069 9.8537931,48.0758621 9.89517241,47.7531034 L10.0193103,46.862069 C10.0634483,46.5337931 10.3558621,46.2413793 10.6731034,46.1944828 L15.0124138,45.5848276 C15.3268966,45.5462069 15.6193103,45.24 15.6662069,44.9227586 L17.3655172,32.6165517 C17.4068966,32.2937931 17.1862069,32.0648276 16.8689655,32.1144828 L12.5296552,32.7213793 C12.2096552,32.7682759 11.9917241,32.5393103 12.0358621,32.2165517 L12.1627586,31.3255172 C12.2041379,31.0027586 12.4965517,30.6993103 12.8137931,30.657931 L19.177931,29.7668966 C19.4951724,29.7172414 19.7158621,29.9434483 19.6717241,30.2662069 L17.4041379,46.6993103 C17.3627586,47.0248276 17.0675862,47.3172414 16.7503448,47.3613793" id="Fill-28" fill="#FFCB04" sketch:type="MSShapeGroup"></path>
                <path d="M6.86206897,48.7542069 L0.497931034,49.648 C0.183448276,49.6976552 -0.04,49.4686897 0.00689655172,49.1486897 L2.27172414,32.7155862 C2.31310345,32.390069 2.60827586,32.0948966 2.92275862,32.048 L9.28689655,31.1542069 C9.60413793,31.110069 9.82206897,31.3362759 9.78068966,31.6590345 L9.65655172,32.5528276 C9.61241379,32.8755862 9.32,33.1735172 9,33.2148966 L4.66344828,33.830069 C4.34344828,33.8686897 4.05103448,34.1721379 4.00965517,34.4948966 L2.31310345,46.7983448 C2.26896552,47.1183448 2.48965517,47.3473103 2.80413793,47.3004138 L7.1462069,46.6907586 C7.46068966,46.6493793 7.68413793,46.870069 7.64,47.1983448 L7.51586207,48.0921379 C7.47172414,48.4121379 7.18206897,48.7045517 6.86206897,48.7542069" id="Fill-30" fill="#FFCB04" sketch:type="MSShapeGroup"></path>
                <path d="M8.21848276,14.6648276 L17.7964138,13.3186207 C17.9122759,13.3048276 18.0143448,13.4041379 17.9977931,13.5172414 L16.5246897,24.2427586 C16.5136552,24.3255172 16.4502069,24.3834483 16.3729655,24.3944828 L6.79227586,25.7351724 C6.67641379,25.7544828 6.57986207,25.6524138 6.59641379,25.5365517 L8.06675862,14.8137931 C8.08055172,14.7310345 8.13848276,14.6731034 8.21848276,14.6648276 L8.21848276,14.6648276 Z M17.8708966,25.7213793 C17.9481379,25.7131034 18.0115862,25.6524138 18.0226207,25.5751724 L19.9233103,11.7737931 C19.9398621,11.6606897 19.8377931,11.5586207 19.721931,11.5751724 L6.67641379,13.4068966 C6.59917241,13.4234483 6.53848276,13.4786207 6.52744828,13.5613793 L4.6102069,27.4731034 C4.59365517,27.5917241 4.69296552,27.6882759 4.81158621,27.6744828 L17.8708966,25.7213793 Z" id="Fill-32" fill="#FFCB04" sketch:type="MSShapeGroup"></path>
                <path d="M11.0377931,16.1787586 L11.0708966,15.9470345 C11.081931,15.8697931 11.1426207,15.8063448 11.2226207,15.7925517 L14.2984828,15.3622069 C14.4171034,15.3484138 14.5164138,15.4449655 14.4998621,15.5608276 L14.4695172,15.7897931 C14.4584828,15.8697931 14.3950345,15.9332414 14.3177931,15.9442759 L11.241931,16.3773793 C11.1205517,16.3911724 11.0212414,16.2973793 11.0377931,16.1787586 M13.5674483,16.9787586 L15.9343448,16.6422069 C16.0143448,16.6311724 16.0750345,16.5732414 16.0888276,16.4904828 L16.3812414,14.3415172 C16.3977931,14.2228966 16.2957241,14.1208276 16.1826207,14.1373793 L9.62537931,15.0587586 C9.54813793,15.0753103 9.48744828,15.136 9.47641379,15.2132414 L9.17848276,17.3649655 C9.16193103,17.478069 9.26124138,17.5828966 9.37710345,17.5663448 L11.4046897,17.2766897 C11.5205517,17.2656552 11.6226207,17.3649655 11.606069,17.478069 L11.5950345,17.5470345 C11.584,17.6242759 11.5205517,17.6877241 11.4488276,17.7042759 L8.24882759,18.1511724 C8.17158621,18.1622069 8.11089655,18.2173793 8.09986207,18.3028966 L7.98951724,19.0918621 C7.97296552,19.2104828 8.07227586,19.3042759 8.19089655,19.2932414 L16.704,18.0932414 C16.7812414,18.0794483 16.841931,18.0187586 16.8529655,17.9387586 L16.9633103,17.1553103 C16.9798621,17.033931 16.8805517,16.9373793 16.7591724,16.9511724 L13.6088276,17.3953103 C13.4957241,17.4118621 13.3936552,17.3097931 13.4102069,17.193931 L13.4212414,17.1304828 C13.4295172,17.0504828 13.4929655,16.9870345 13.5674483,16.9787586" id="Fill-34" fill="#FFCB04" sketch:type="MSShapeGroup"></path>
                <path d="M11.5362759,21.502069 L12.3997241,21.377931 C12.5155862,21.3668966 12.6148966,21.4662069 12.5983448,21.582069 L12.5597241,21.7724138 C12.545931,21.8524138 12.4852414,21.9103448 12.4052414,21.9158621 L11.5445517,22.0455172 C11.425931,22.062069 11.3266207,21.96 11.345931,21.8441379 L11.3873103,21.6537931 C11.3955862,21.5710345 11.4590345,21.5158621 11.5362759,21.502069 M10.1376552,23.0110345 L13.6135172,22.5227586 C13.6907586,22.5117241 13.7542069,22.4510345 13.7652414,22.3737931 L14.0217931,20.6441379 C14.0355862,20.5255172 13.9362759,20.4262069 13.8176552,20.4427586 L10.3445517,20.9282759 C10.2617931,20.9448276 10.2038621,21.0055172 10.190069,21.0827586 L9.93903448,22.8124138 C9.92248276,22.9282759 10.0245517,23.0275862 10.1376552,23.0110345" id="Fill-36" fill="#FFCB04" sketch:type="MSShapeGroup"></path>
                <path d="M9.76358621,20.5726897 L14.5194483,19.9051034 C14.638069,19.8913103 14.7373793,19.9878621 14.7208276,20.1037241 L14.3428966,22.7271724 C14.3318621,22.809931 14.2684138,22.8706207 14.193931,22.8844138 L9.43531034,23.5492414 C9.31944828,23.5630345 9.22013793,23.4692414 9.23393103,23.3478621 L9.61462069,20.7244138 C9.62289655,20.6444138 9.68634483,20.5809655 9.76358621,20.5726897 L9.76358621,20.5726897 Z M15.6670345,23.7947586 C15.7470345,23.7892414 15.8104828,23.7285517 15.8187586,23.6457931 L16.4946207,18.8182069 C16.5111724,18.7023448 16.4118621,18.6002759 16.2932414,18.6168276 L8.2822069,19.7395862 C8.20496552,19.7533793 8.14427586,19.8168276 8.13324138,19.894069 L7.45737931,24.7216552 C7.44358621,24.8402759 7.54289655,24.9451034 7.65875862,24.9257931 L15.6670345,23.7947586 Z" id="Fill-38" fill="#FFCB04" sketch:type="MSShapeGroup"></path>
                <path d="M28.3613793,18.0485517 C28.2813793,18.134069 28.1406897,18.1313103 28.0662069,18.0430345 C27.6910345,17.5933793 27.3351724,17.094069 27.0041379,16.5561379 C26.662069,15.9988966 26.3889655,15.3533793 26.1931034,14.6113103 C26.1627586,14.5009655 26.24,14.3823448 26.3558621,14.3657931 L30.9434483,13.7285517 C31.1006897,13.7009655 31.2193103,13.8664828 31.1475862,14.009931 C30.72,14.8568276 30.2786207,15.5988966 29.8206897,16.2444138 C29.3462069,16.9064828 28.8606897,17.5078621 28.3613793,18.0485517 M32.5351724,20.7382069 C32.0524138,20.5644138 31.5613793,20.3851034 31.0758621,20.1671724 C30.6675862,19.9795862 30.2786207,19.7588966 29.92,19.5133793 C29.8206897,19.449931 29.8096552,19.3064828 29.8924138,19.2182069 C30.6593103,18.4044138 31.3682759,17.5326897 32,16.5947586 C32.6648276,15.6264828 33.2634483,14.5644138 33.8013793,13.4195862 C33.8289655,13.3588966 33.8868966,13.312 33.9503448,13.3037241 L35.8786207,13.0333793 C35.9668966,13.0223448 36.0331034,12.9506207 36.0468966,12.8651034 L36.2372414,11.4913103 C36.2537931,11.3561379 36.1434483,11.2457931 36.0137931,11.2678621 L30.4772414,12.0457931 C30.3475862,12.0568276 30.2344828,11.9547586 30.2510345,11.8195862 L30.4993103,10.032 C30.5158621,9.89958621 30.4055172,9.78924138 30.2758621,9.80855172 L28.5351724,10.054069 C28.4468966,10.0623448 28.3806897,10.1313103 28.3668966,10.2223448 L28.0882759,12.2361379 C28.0772414,12.3271724 28.0082759,12.3906207 27.9227586,12.4044138 L22.297931,13.1961379 C22.2096552,13.2071724 22.1434483,13.2706207 22.1324138,13.3644138 L21.942069,14.7354483 C21.9255172,14.8678621 22.0331034,14.9782069 22.1655172,14.9588966 L23.9613793,14.7051034 C24.0606897,14.6913103 24.1572414,14.7547586 24.1793103,14.8568276 C24.4248276,15.8526897 24.7668966,16.7326897 25.2,17.4995862 C25.6248276,18.249931 25.9668966,18.7382069 26.4993103,19.3864828 C26.5682759,19.4775172 26.5544828,19.5961379 26.4744828,19.6733793 C25.6689655,20.3354483 24.777931,20.9754483 23.8041379,21.609931 C22.8137931,22.2471724 21.6413793,22.8761379 20.2924138,23.4885517 C20.1875862,23.5326897 20.1434483,23.6623448 20.1986207,23.7644138 L21.0537931,25.2706207 C21.1089655,25.3588966 21.222069,25.4030345 21.3186207,25.3506207 C22.5765517,24.7161379 23.7572414,24.0513103 24.8606897,23.3451034 C25.9696552,22.6361379 26.9875862,21.8830345 27.9172414,21.094069 C27.9889655,21.0333793 28.0882759,21.0306207 28.1627586,21.0857931 C28.4993103,21.3368276 28.8717241,21.5713103 29.2827586,21.8002759 C29.7434483,22.0595862 30.2289655,22.2857931 30.7393103,22.5009655 C31.2468966,22.7106207 31.7655172,22.9037241 32.297931,23.0692414 C32.7862069,23.2182069 33.2717241,23.3506207 33.7544828,23.4637241 C33.8344828,23.4830345 33.9144828,23.4416552 33.9641379,23.3782069 L34.8772414,21.6651034 C34.9572414,21.552 34.8937931,21.3892414 34.7503448,21.3616552 C34.4275862,21.2982069 33.5255172,21.094069 32.5351724,20.7382069" id="Fill-40" fill="#FFCB04" sketch:type="MSShapeGroup"></path>
                <path d="M56.9307586,26.5343448 L44.1169655,28.3329655 C44.0286897,28.3467586 43.9624828,28.4157241 43.945931,28.504 L43.7638621,29.8446897 C43.7445517,29.9743448 43.8576552,30.0874483 43.9873103,30.0626207 L49.1321379,29.3398621 C49.3004138,29.3122759 49.4190345,29.5026207 49.3252414,29.646069 C48.5307586,30.8791724 47.6066207,32.0488276 46.4148966,33.2074483 C45.1486897,34.446069 43.6673103,35.5577931 42.0369655,36.6695172 C41.9514483,36.7302069 41.9266207,36.8488276 41.9817931,36.9371034 L42.8866207,38.0708966 C42.9473103,38.1674483 43.0742069,38.1950345 43.1652414,38.1288276 C44.2217931,37.4143448 45.1845517,36.6998621 46.0507586,35.9798621 C46.8011034,35.3481379 47.510069,34.7081379 48.1721379,34.0377931 C48.3073103,33.8998621 48.5335172,34.0102069 48.5086897,34.2005517 L47.5542069,41.1274483 C47.5376552,41.2571034 47.6452414,41.3674483 47.7776552,41.3508966 L49.4107586,41.121931 C49.5017931,41.1053793 49.568,41.041931 49.5790345,40.9536552 L50.6631724,33.1081379 C50.6824828,32.9233103 50.8948966,32.8322759 51.0493793,32.9426207 C51.6397241,33.3702069 52.3211034,33.8695172 52.8452414,34.3026207 C53.5376552,34.8791724 54.1528276,35.4171034 54.9169655,36.0543448 C54.9997241,36.1288276 55.1155862,36.1288276 55.1928276,36.0515862 L56.288,34.9288276 C56.3707586,34.8433103 56.3624828,34.7108966 56.2714483,34.6391724 C54.7514483,33.4198621 52.4948966,31.6902069 51.3335172,30.8571034 C51.1376552,30.7246897 51.0935172,30.4598621 51.225931,30.264 C51.4714483,29.8915862 51.6893793,29.5495172 51.9155862,29.1688276 C52.0011034,29.0226207 52.1528276,28.9177931 52.3211034,28.8929655 L56.8011034,28.2612414 C56.8893793,28.2529655 56.9555862,28.1867586 56.9693793,28.1012414 L57.1514483,26.7550345 C57.1707586,26.6253793 57.0576552,26.5122759 56.9307586,26.5343448" id="Fill-42" fill="#FFCB04" sketch:type="MSShapeGroup"></path>
                <path d="M67.2488276,35.0582069 C67.1550345,34.8871724 67.0722759,34.7161379 66.9977931,34.5616552 C66.9012414,34.3547586 66.8074483,34.1588966 66.7053793,33.9713103 C66.6088276,33.792 66.5012414,33.6071724 66.3936552,33.4195862 C66.3136552,33.2816552 66.2281379,33.1575172 66.1371034,33.0168276 C66.0791724,32.9257931 65.9577931,32.8982069 65.8695172,32.9588966 L64.5922759,33.7451034 C64.5012414,33.8085517 64.4764138,33.9271724 64.5343448,34.0237241 C64.7633103,34.3906207 64.9343448,34.7464828 65.086069,35.0747586 C65.2295172,35.3892414 65.3867586,35.7175172 65.5164138,36.0816552 C65.5550345,36.1975172 65.6984828,36.249931 65.806069,36.1864828 L67.1771034,35.3175172 C67.2653793,35.2651034 67.2957241,35.1492414 67.2488276,35.0582069" id="Fill-44" fill="#FFCB04" sketch:type="MSShapeGroup"></path>
                <path d="M72.9988966,29.7348966 L71.7354483,29.9086897 C71.6030345,29.928 71.4954483,29.8176552 71.512,29.688 L71.8071724,27.5942069 C71.8264828,27.4728276 71.7161379,27.3542069 71.5864828,27.3762759 L70.0913103,27.585931 C70.0030345,27.5942069 69.934069,27.6686897 69.9230345,27.7514483 L69.5947586,30.0631724 C69.5837241,30.1542069 69.5147586,30.2204138 69.4237241,30.2369655 L64.4333793,30.9376552 C64.3451034,30.9514483 64.2733793,31.0204138 64.2623448,31.105931 L64.0913103,32.3693793 C64.072,32.5045517 64.1823448,32.6121379 64.3147586,32.590069 L69.0871724,31.9224828 C69.2168276,31.9004138 69.3244138,32.008 69.3078621,32.1431724 L68.7726897,36.0383448 C68.7202759,36.408 68.3947586,36.4852414 68.3947586,36.4852414 L66.3782069,36.7886897 C66.2568276,36.7831724 66.1602759,36.8962759 66.174069,37.0121379 L66.3506207,38.4190345 C66.3616552,38.5183448 66.4526897,38.5955862 66.552,38.5928276 L69.7244138,38.1128276 C69.7244138,38.1128276 70.4306207,37.9969655 70.6264828,36.1266207 L71.2251034,31.7652414 C71.2388966,31.6797241 71.3078621,31.6052414 71.3961379,31.5914483 L72.8830345,31.3873103 C72.9685517,31.3735172 73.0375172,31.3045517 73.0485517,31.2162759 L73.2223448,29.9555862 C73.2416552,29.825931 73.1285517,29.7128276 72.9988966,29.7348966" id="Fill-46" fill="#FFCB04" sketch:type="MSShapeGroup"></path>
                <path d="M73.6427586,24.7053793 L69.9958621,25.2212414 C69.8413793,25.2350345 69.7282759,25.0833103 69.7862069,24.9453793 C69.8165517,24.8736552 69.8413793,24.8074483 69.8689655,24.7495172 C69.902069,24.6667586 69.937931,24.5784828 69.9710345,24.4984828 C70.0289655,24.366069 69.937931,24.2253793 69.8,24.2198621 L68.2744828,24.1757241 C68.1889655,24.1757241 68.1144828,24.2253793 68.0841379,24.3026207 C67.9627586,24.606069 67.8082759,24.9646897 67.617931,25.3674483 C67.5131034,25.5936552 67.3944828,25.8281379 67.2565517,26.0681379 C67.1462069,26.2584828 66.8593103,26.1591724 66.8896552,25.944 L66.8951724,25.8915862 C66.9117241,25.761931 66.8041379,25.6515862 66.6717241,25.6708966 L63.9213793,26.0571034 C63.7558621,26.0736552 63.6427586,25.9053793 63.7172414,25.761931 C63.777931,25.6543448 63.8331034,25.5467586 63.8855172,25.4364138 C63.9462069,25.3122759 63.8634483,25.1633103 63.7282759,25.1522759 L62.2413793,25.0171034 C62.1586207,25.0088276 62.0896552,25.0446897 62.0510345,25.1164138 C61.6675862,25.8143448 61.2124138,26.5067586 60.68,27.2046897 C60.1613793,27.8750345 59.6013793,28.504 58.9972414,29.0695172 C58.9172414,29.1467586 58.9089655,29.2708966 58.9862069,29.3508966 L59.8662069,30.3053793 C59.9406897,30.3853793 60.0703448,30.3964138 60.1503448,30.3191724 C60.4813793,30.0046897 60.8206897,29.6571034 61.1682759,29.2791724 C61.2206897,29.224 61.2731034,29.1688276 61.3255172,29.1081379 C61.4386207,28.9812414 61.6427586,29.0115862 61.72,29.166069 L61.9131034,29.5384828 C61.9517241,29.6102069 61.9462069,29.6929655 61.9048276,29.7702069 C61.5710345,30.3329655 61.2206897,30.9122759 60.7875862,31.4971034 C60.1558621,32.366069 59.4082759,33.2791724 58.4455172,34.2198621 C58.3903448,34.2777931 58.3682759,34.3577931 58.3958621,34.4322759 L58.9337931,35.7177931 C58.9806897,35.8529655 59.1406897,35.8805517 59.2565517,35.7950345 C59.5710345,35.5715862 59.8772414,35.2377931 60.12,34.9922759 C60.1889655,34.926069 60.2993103,34.984 60.2855172,35.0750345 L60.2358621,35.441931 L59.6703448,39.4226207 C59.6510345,39.5495172 59.7641379,39.6653793 59.8965517,39.646069 L61.4551724,39.4446897 C61.5434483,39.4281379 61.6096552,39.3591724 61.6206897,39.2764138 L62.6137931,32.0929655 C62.6165517,32.0543448 62.6275862,32.0295172 62.6468966,32.001931 C63.16,31.2736552 63.6344828,30.4902069 64.0703448,29.6543448 C64.1034483,29.5964138 64.1034483,29.5329655 64.0786207,29.4750345 L63.3972414,28.0846897 C63.3227586,27.9384828 63.4165517,27.7591724 63.5793103,27.7398621 L64.7793103,27.5743448 L65.9489655,27.4005517 C66.1227586,27.3812414 66.2441379,27.5853793 66.1337931,27.726069 C65.9627586,27.9467586 65.7806897,28.1646897 65.5958621,28.3771034 C65.5186207,28.4626207 65.537931,28.6033103 65.64,28.6695172 L66.7655172,29.3812414 C66.8510345,29.4336552 66.9558621,29.4198621 67.022069,29.3481379 C67.6731034,28.6088276 68.2303448,27.8584828 68.6937931,27.0915862 C68.7241379,27.041931 68.7765517,27.0088276 68.8317241,27.0005517 L69.16,26.9508966 L71.2703448,26.6584828 L73.5268966,26.344 C73.6151724,26.3274483 73.6841379,26.2584828 73.697931,26.1757241 L73.8662069,24.9288276 C73.8855172,24.7964138 73.7696552,24.686069 73.6427586,24.7053793" id="Fill-48" fill="#FFCB04" sketch:type="MSShapeGroup"></path>
            </g>
        </g>
    </g>
</svg>