<?xml version="1.0" encoding="UTF-8" standalone="no"?>
<svg width="96px" height="96px" viewBox="0 0 96 96" version="1.1" xmlns="http://www.w3.org/2000/svg" xmlns:xlink="http://www.w3.org/1999/xlink" xmlns:sketch="http://www.bohemiancoding.com/sketch/ns">
    <!-- Generator: Sketch 3.4.2 (15855) - http://www.bohemiancoding.com/sketch -->
    <title>thenewslens</title>
    <desc>Created with Sketch.</desc>
    <defs>
        <path id="path-1" d="M0,1.62372414 L54.3624828,1.62372414 L54.3624828,72 L0,72 L0,1.62372414 Z"></path>
    </defs>
    <g id="Page-1" stroke="none" stroke-width="1" fill="none" fill-rule="evenodd" sketch:type="MSPage">
        <g id="thenewslens" sketch:type="MSArtboardGroup">
            <g id="Page-1" sketch:type="MSLayerGroup" transform="translate(20.689655, 12.000000)">
                <path d="M54.2110345,29.6572966 L54.2110345,53.2832276 C54.2110345,54.6835034 53.0615172,55.8330207 51.6612414,55.8330207 L2.5497931,55.8330207 C1.14703448,55.8330207 0,54.6835034 0,53.2832276 L0,39.424469 L26.8411034,39.424469 L31.6477241,28.3712276 L38.726069,45.3532966 L45.5561379,29.6572966 L54.2110345,29.6572966 Z" id="Fill-1" fill="#00A7DB" sketch:type="MSShapeGroup"></path>
                <path d="M2.55078621,1.62446897 L51.6597517,1.62446897 C53.0625103,1.62446897 54.2120276,2.76902069 54.2120276,4.17426207 L54.2120276,27.3110897 L43.6528552,27.3110897 L38.8462345,38.3618483 L31.785269,21.3797793 L24.9527172,37.0807448 L0.000993103448,37.0807448 L0.000993103448,4.17426207 C0.000993103448,2.76902069 1.14554483,1.62446897 2.55078621,1.62446897" id="Fill-3" fill="#00A7DB" sketch:type="MSShapeGroup"></path>
                <path d="M54.2110345,27.3103448 L54.2110345,29.6565517 L45.5561379,29.6565517 L38.726069,45.3550345 L31.6477241,28.3729655 L26.8411034,39.4237241 L0,39.4237241 L0,37.0824828 L24.9542069,37.0824828 L31.7867586,21.3790345 L38.8452414,38.3611034 L43.6518621,27.3103448 L54.2110345,27.3103448 Z" id="Fill-5" fill="#FEFEFE" sketch:type="MSShapeGroup"></path>
                <mask id="mask-2" sketch:name="Clip 8" fill="white">
                    <use xlink:href="#path-1"></use>
                </mask>
                <g id="Clip-8"></g>
                <path d="M11.7782069,62.2278621 L8.63503448,62.2278621 L8.63503448,62.9255172 L11.7782069,62.9255172 L11.7782069,62.2278621 Z M8.63751724,61.4234483 L11.7806897,61.4234483 L11.7806897,60.8077241 L8.63751724,60.8077241 L8.63751724,61.4234483 Z M10.1817931,70.6617931 L11.3164138,70.7288276 C11.6242759,70.7288276 11.7782069,70.5897931 11.7782069,70.3017931 L11.7782069,63.8143448 L7.488,63.8143448 L7.488,59.9213793 L12.9848276,59.9213793 L12.9848276,70.2943448 L12.9848276,70.6369655 C12.9848276,71.0242759 12.897931,71.3296552 12.7291034,71.5431724 C12.5627586,71.7566897 12.2176552,71.8634483 11.6962759,71.8634483 L10.5889655,71.8634483 L10.1817931,70.6617931 Z M8.5257931,68.0822069 L8.5257931,69.1969655 L9.70262069,69.1969655 L9.70262069,68.2038621 L10.7255172,68.2038621 L10.7255172,70.0882759 L8.5257931,70.0882759 L8.5257931,71.8113103 L7.46068966,71.8113103 L7.46068966,68.0822069 L8.5257931,68.0822069 Z M9.46924138,64.0328276 C9.22344828,64.3481379 9.01241379,64.5815172 8.84110345,64.7453793 L8.18565517,65.376 L9.46924138,65.376 L9.77213793,65.1053793 L10.0303448,64.8124138 L10.9191724,65.1277241 C10.2364138,65.8551724 9.52386207,66.4485517 8.784,66.9028966 C8.73186207,66.9326897 8.66234483,66.9724138 8.58041379,67.0245517 L9.39972414,66.9724138 C9.73737931,66.9724138 9.96331034,66.9426207 10.070069,66.888 L9.9782069,66.7142069 L9.86648276,66.465931 L10.5889655,66.302069 L10.9042759,67.0146207 C10.9415172,67.1114483 11.0085517,67.32 11.1103448,67.6452414 C11.1202759,67.68 11.1351724,67.7271724 11.1624828,67.7966897 L10.3555862,67.9853793 L10.2488276,67.6253793 L8.77158621,67.752 L7.35144828,67.8066207 L7.11806897,66.9724138 L7.4457931,66.9724138 C7.55503448,66.9078621 7.64193103,66.8606897 7.70648276,66.8209655 C7.90013793,66.7142069 8.04662069,66.6124138 8.15834483,66.5205517 L8.82868966,66.0115862 L7.91006897,66.0686897 L7.09324138,66.0835862 L6.89958621,65.3188966 L7.2,65.3313103 C7.70151724,64.9067586 8.13351724,64.4151724 8.50096552,63.873931 L9.46924138,64.0328276 Z M4.05931034,71.8411034 L3.49572414,70.8951724 C4.7817931,70.7784828 5.46951724,70.4284138 5.55889655,69.8573793 L3.33434483,69.8573793 L3.33434483,68.2038621 L4.35724138,68.2038621 L4.35724138,69.0082759 L5.60358621,69.0082759 L5.60358621,68.0822069 L6.66868966,68.0822069 L6.66868966,69.5271724 C6.66868966,70.7635862 5.79724138,71.5382069 4.05931034,71.8411034 L4.05931034,71.8411034 Z M5.84689655,64.0228966 L5.13682759,64.7602759 C4.97296552,64.9191724 4.75448276,65.1153103 4.48137931,65.3313103 L5.0697931,65.3412414 L5.60358621,65.3611034 C5.79227586,65.2245517 5.92137931,65.1227586 5.98344828,65.0557241 L6.24662069,64.7851034 L7.11806897,65.0557241 C6.12496552,65.9768276 5.26841379,66.6074483 4.54841379,66.9426207 L5.30317241,66.9326897 L5.96855172,66.888 L5.88662069,66.6844138 L5.79227586,66.4535172 L6.54703448,66.3616552 C6.7257931,66.7762759 6.89462069,67.248 7.05103448,67.7817931 L6.1622069,67.9307586 L6.12,67.6253793 L4.61544828,67.6998621 L3.04634483,67.7371034 L2.85268966,66.878069 L3.26234483,66.9177931 C3.37158621,66.8656552 3.46096552,66.8209655 3.52551724,66.7961379 C3.97986207,66.5875862 4.39448276,66.3616552 4.76689655,66.1084138 C4.80662069,66.0835862 4.8537931,66.0537931 4.92082759,66.0115862 L4.11144828,66.0463448 L3.23751724,66.0587586 L3.07365517,65.2493793 L3.45848276,65.2791724 C3.56524138,65.1773793 3.65213793,65.1053793 3.7142069,65.0457931 C4.24303448,64.5715862 4.62041379,64.1693793 4.84882759,63.8292414 L5.84689655,64.0228966 Z M2.4057931,62.928 L5.42234483,62.928 L5.42234483,62.2303448 L2.4057931,62.2303448 L2.4057931,62.928 Z M5.42234483,60.8077241 L2.4057931,60.8077241 L2.4057931,61.4234483 L5.42234483,61.4234483 L5.42234483,60.8077241 Z M6.55944828,63.8143448 L2.4057931,63.8143448 L2.4057931,72 L1.20165517,72 L1.20165517,59.9213793 L6.55944828,59.9213793 L6.55944828,63.8143448 Z" id="Fill-7" fill="#1B75BB" sketch:type="MSShapeGroup" mask="url(#mask-2)"></path>
                <path d="M25.5004138,63.3922759 L24.5991724,63.3922759 L24.5991724,64.4449655 L25.5004138,64.4449655 L25.5004138,63.3922759 Z M25.488,61.4234483 L24.5991724,61.4234483 L24.5991724,62.4463448 L25.488,62.4463448 L25.488,61.4234483 Z M18.9533793,66.7961379 L18.8987586,67.9307586 C18.864,68.3677241 18.8118621,68.76 18.7473103,69.12 L17.8733793,69.0082759 C17.8833103,68.9263448 17.8932414,68.8617931 17.9006897,68.8046897 C17.9726897,68.3826207 18.0198621,68.0673103 18.0397241,67.8488276 L18.1216552,66.753931 L18.9533793,66.7961379 Z M15.2366897,69.6537931 L15.0852414,68.2857931 C15.0033103,67.6030345 14.9412414,67.1561379 14.894069,66.9426207 L15.7704828,66.8209655 L15.9864828,68.1070345 C16.0162759,68.3155862 16.0609655,68.6830345 16.1255172,69.2118621 C16.1255172,69.2838621 16.1329655,69.3757241 16.1528276,69.4874483 L15.2366897,69.6537931 Z M18.7075862,70.7735172 C17.6126897,71.1707586 16.2844138,71.5009655 14.7177931,71.7517241 L14.5787586,70.5798621 L15.6612414,70.4135172 L16.4656552,70.2695172 L16.4656552,66.0984828 L14.6904828,66.0984828 L14.6904828,65.0706207 L16.4656552,65.0706207 L16.4656552,63.8863448 L15.345931,63.8863448 L15.345931,63.1837241 L14.9238621,63.6405517 L14.4546207,62.505931 C14.6035862,62.3495172 14.7252414,62.2228966 14.8270345,62.1186207 C15.5371034,61.3762759 16.0982069,60.4973793 16.5053793,59.4993103 L17.6002759,59.4993103 L18.4195862,60.6736552 L19.3208276,61.9373793 L18.4891034,62.7095172 L17.7641379,61.56 L17.1335172,60.6041379 C16.8529655,61.3514483 16.3663448,62.0987586 15.6761379,62.8435862 L18.6926897,62.8435862 L18.6926897,63.8863448 L17.5307586,63.8863448 L17.5307586,65.0706207 L18.8168276,65.0706207 L18.8168276,66.0984828 L17.5307586,66.0984828 L17.5307586,70.046069 L18.134069,69.8673103 L18.8292414,69.6637241 L18.8292414,70.6617931 C19.1693793,70.3266207 19.4921379,69.8846897 19.8024828,69.3335172 C19.8273103,69.2788966 19.8695172,69.2068966 19.9216552,69.12 C19.7503448,68.7277241 19.5889655,68.265931 19.4325517,67.7371034 L19.0353103,66.3318621 L19.8968276,66.0115862 L20.1277241,66.806069 C20.2568276,67.2827586 20.3635862,67.6253793 20.4554483,67.8289655 C20.5845517,67.3497931 20.6664828,66.8408276 20.7037241,66.302069 L20.8104828,64.9787586 L19.3208276,64.9787586 L19.3208276,64.1296552 C19.8322759,63.1986207 20.1922759,62.3023448 20.4033103,61.4383448 C20.4306207,61.3067586 20.4653793,61.1577931 20.5125517,60.974069 L19.008,60.974069 L19.008,60.0182069 L21.5503448,60.0182069 L21.5503448,60.8896552 C21.4932414,61.118069 21.4510345,61.3017931 21.4137931,61.4482759 C21.1853793,62.4562759 20.8924138,63.3103448 20.5398621,64.0228966 L21.8358621,64.0228966 L21.8358621,64.8273103 C21.7737931,66.6670345 21.528,68.0921379 21.0984828,69.1051034 C21.6645517,69.9045517 22.4863448,70.3464828 23.5713103,70.4135172 L23.5713103,69.1572414 L21.8532414,69.1572414 L21.8532414,68.1591724 L23.5713103,68.1591724 L23.5713103,67.2331034 L22.0692414,67.2331034 L22.0692414,66.2350345 L23.5713103,66.2350345 L23.5713103,65.4157241 L22.0692414,65.4157241 L22.0692414,64.4449655 L23.5713103,64.4449655 L23.5713103,63.3922759 L21.7142069,63.3922759 L21.7142069,62.4463448 L23.5713103,62.4463448 L23.5713103,61.4234483 L22.0692414,61.4234483 L22.0692414,60.4551724 L23.5713103,60.4551724 L23.5713103,59.4446897 L24.5966897,59.4446897 L24.5966897,60.4551724 L26.4562759,60.4551724 L26.4562759,62.4463448 L27.0446897,62.4463448 L27.0446897,63.3922759 L26.4562759,63.3922759 L26.4562759,65.4157241 L24.5966897,65.4157241 L24.5966897,66.2350345 L26.702069,66.2350345 L26.702069,67.2331034 L24.5966897,67.2331034 L24.5966897,68.1591724 L26.8113103,68.1591724 L26.8113103,69.1572414 L24.5966897,69.1572414 L24.5966897,70.497931 L25.6617931,70.497931 C26.1906207,70.497931 26.649931,70.4631724 27.0446897,70.3911724 L26.8262069,71.5382069 L25.1304828,71.5382069 L24.8027586,71.5382069 C23.7078621,71.5382069 22.8413793,71.4314483 22.2033103,71.2154483 C21.5702069,71.001931 21.0264828,70.6171034 20.5795862,70.0609655 C20.1078621,70.8082759 19.574069,71.4562759 18.9806897,72 L18.3773793,71.073931 L18.7075862,70.7735172 Z" id="Fill-9" fill="#1B75BB" sketch:type="MSShapeGroup" mask="url(#mask-2)"></path>
                <path d="M40.4515862,62.1660414 C40.113931,63.5613517 39.734069,64.7654897 39.3169655,65.7585931 L38.1525517,65.2074207 C38.5448276,64.3533517 38.8824828,63.4322483 39.1630345,62.4465931 C39.2002759,62.3025931 39.2548966,62.1139034 39.3293793,61.8755586 L40.4515862,62.1660414 Z M34.3117241,65.6617655 C34.2595862,65.4234207 34.2148966,65.2297655 34.1776552,65.070869 C33.9393103,63.9610759 33.6736552,63.0201103 33.3682759,62.2430069 L34.4929655,61.9276966 C34.7561379,62.6079724 34.9423448,63.1368 35.0515862,63.5290759 L35.558069,65.3414897 L34.3117241,65.6617655 Z M37.5244138,66.6573517 L40.6973793,66.6573517 L40.6973793,67.8490759 L37.5244138,67.8490759 L37.5244138,72.0002483 L36.2830345,72.0002483 L36.2830345,67.8490759 L33.1249655,67.8490759 L33.1249655,66.6573517 L36.2830345,66.6573517 L36.2830345,61.0934897 L33.3161379,61.0934897 L33.3161379,59.906731 L40.5186207,59.906731 L40.5186207,61.0934897 L37.5244138,61.0934897 L37.5244138,66.6573517 Z M31.4590345,68.2314207 L29.6242759,68.2314207 L29.6242759,70.2151448 L31.4590345,70.2151448 L31.4590345,68.2314207 Z M28.4648276,67.1886621 L32.6209655,67.1886621 L32.6209655,71.8636966 L31.4590345,71.8636966 L31.4590345,71.2479724 L29.6242759,71.2479724 L29.6242759,72.0002483 L28.4648276,72.0002483 L28.4648276,67.1886621 Z M28.4251034,65.0559724 L32.5936552,65.0559724 L32.5936552,66.1086621 L28.4251034,66.1086621 L28.4251034,65.0559724 Z M28.4251034,63.0474207 L32.5936552,63.0474207 L32.5936552,64.1150069 L28.4251034,64.1150069 L28.4251034,63.0474207 Z M32.8394483,62.1461793 L28.1073103,62.1461793 L28.1073103,61.0115586 L29.9817931,61.0115586 L29.7484138,60.318869 C29.6416552,60.0556966 29.5249655,59.8099034 29.4082759,59.5963862 L30.6521379,59.4300414 L30.7588966,59.6485241 C30.9227586,60.0035586 31.0891034,60.4603862 31.2529655,61.0115586 L32.8394483,61.0115586 L32.8394483,62.1461793 Z" id="Fill-10" fill="#FEFEFE" sketch:type="MSShapeGroup" mask="url(#mask-2)"></path>
                <path d="M52.3392828,70.7586207 C52.5503172,70.7586207 52.6545931,70.641931 52.6545931,70.4135172 L52.6545931,68.5713103 L51.6838345,68.5713103 L51.6838345,70.7288276 L52.3392828,70.7586207 Z M52.6545931,65.6342069 L51.6838345,65.6342069 L51.6838345,67.5062069 L52.6545931,67.5062069 L52.6545931,65.6342069 Z M50.5889379,65.6044138 L49.7025931,65.6044138 L49.7025931,67.4913103 L50.5889379,67.4913103 L50.5889379,65.6044138 Z M52.2722483,62.4364138 C51.5969379,61.9721379 50.9017655,61.3514483 50.1817655,60.5743448 C49.734869,61.1528276 49.0670069,61.7685517 48.1732138,62.4364138 L52.2722483,62.4364138 Z M48.6250759,65.6044138 L47.7461793,65.6044138 L47.7461793,67.4913103 L48.6250759,67.4913103 L48.6250759,65.6044138 Z M51.6838345,71.414069 L50.5889379,71.414069 L50.5889379,68.5564138 L49.7025931,68.5564138 L49.7025931,71.414069 L48.6250759,71.414069 L48.6250759,68.5564138 L47.7461793,68.5564138 L47.7461793,72 L46.6115586,72 L46.6115586,64.5368276 L53.7892138,64.5368276 L53.7892138,70.3017931 L53.7892138,70.4830345 C53.7892138,70.9473103 53.7072828,71.2973793 53.5334897,71.5307586 C53.3671448,71.7616552 53.0220414,71.8783448 52.5031448,71.8783448 L51.7781793,71.8783448 L51.6838345,71.414069 Z M47.7089379,62.7765517 L47.5425931,62.8982069 C47.3985931,63.009931 47.2744552,63.0918621 47.1751448,63.1464828 L46.5594207,63.513931 L45.8741793,62.3942069 C46.4328,62.1707586 47.0584552,61.7884138 47.7536276,61.2595862 C48.4512828,60.7307586 49.0322483,60.1448276 49.4965241,59.4993103 L50.7974897,59.4993103 C51.6242483,60.4601379 52.8134897,61.3613793 54.362731,62.1906207 L53.8711448,63.3823448 C53.7892138,63.3302069 53.7246621,63.3004138 53.6774897,63.2805517 C53.5161103,63.1986207 53.3770759,63.1266207 53.2703172,63.062069 L52.7216276,62.7393103 L52.7216276,63.5809655 L47.7089379,63.5809655 L47.7089379,62.7765517 Z M44.6328,68.2038621 L43.3194207,68.2038621 L43.3194207,70.1726897 L44.6328,70.1726897 L44.6328,68.2038621 Z M45.7252138,71.8634483 L44.6328,71.8634483 L44.6328,71.2228966 L43.3194207,71.2228966 L43.3194207,72 L42.2270069,72 L42.2270069,67.166069 L45.7252138,67.166069 L45.7252138,71.8634483 Z M42.1848,65.016 L45.7401103,65.016 L45.7401103,66.0984828 L42.1848,66.0984828 L42.1848,65.016 Z M42.1848,63.009931 L45.8071448,63.009931 L45.8071448,64.0998621 L42.1848,64.0998621 L42.1848,63.009931 Z M41.7751448,62.1186207 L41.7751448,60.9864828 L43.4435586,60.9864828 L43.2250759,60.3856552 C43.1158345,60.0753103 42.9991448,59.8096552 42.8700414,59.5961379 L44.0443862,59.4273103 C44.1710069,59.6308966 44.2901793,59.9064828 44.4019034,60.264 L44.6452138,60.9864828 L46.0703172,60.9864828 L46.0703172,62.1186207 L41.7751448,62.1186207 Z" id="Fill-11" fill="#FEFEFE" sketch:type="MSShapeGroup" mask="url(#mask-2)"></path>
            </g>
        </g>
    </g>
</svg>