<?xml version="1.0" encoding="UTF-8" standalone="no"?>
<svg width="96px" height="96px" viewBox="0 0 96 96" version="1.1" xmlns="http://www.w3.org/2000/svg" xmlns:xlink="http://www.w3.org/1999/xlink" xmlns:sketch="http://www.bohemiancoding.com/sketch/ns">
    <!-- Generator: Sketch 3.4.2 (15855) - http://www.bohemiancoding.com/sketch -->
    <title>thereporter</title>
    <desc>Created with Sketch.</desc>
    <defs>
        <path id="path-1" d="M0,1.48386207 L64.5115862,1.48386207 L64.5115862,66 L0,66 L0,1.48386207 Z"></path>
    </defs>
    <g id="Page-1" stroke="none" stroke-width="1" fill="none" fill-rule="evenodd" sketch:type="MSPage">
        <g id="thereporter" sketch:type="MSArtboardGroup">
            <g id="Page-1" sketch:type="MSLayerGroup" transform="translate(15.000000, 15.000000)">
                <path d="M0,66 L64.5115862,66 L64.5115862,1.48613793 L0,1.48613793 L0,66 Z" id="Fill-1" fill="#E5E98A" sketch:type="MSShapeGroup"></path>
                <g id="Group-18">
                    <path d="M23.6077448,20.8696552 C23.9058828,22.3535172 24.4202276,23.7622759 25.1735379,25.029931 C25.5900207,23.7008276 26.0247103,21.6616552 26.1840207,20.8696552 L23.6077448,20.8696552 Z M22.4015379,20.8696552 L22.4015379,21.5797241 C22.4015379,21.8391724 22.4994,28.2388966 22.4994,29.2698621 C23.0934,28.6166897 23.9263655,27.6448966 24.6000207,26.4182069 C23.7283655,24.4973793 23.3892621,22.5947586 23.2914,20.8696552 L22.4015379,20.8696552 Z M25.8858828,20.394 L26.6596759,19.5815172 C26.7188483,19.5223448 26.7962276,19.4654483 26.9168483,19.4654483 C27.0351931,19.4654483 27.0943655,19.5405517 27.1945034,19.602 L28.4416759,20.5328276 C28.5008483,20.5942759 28.5622966,20.6306897 28.5622966,20.7490345 C28.5622966,20.9265517 27.9250552,21.4249655 27.729331,21.5637931 C27.1558138,23.7622759 26.6596759,25.1892414 26.0451931,26.217931 C27.4311931,27.8224138 28.8968483,28.2798621 29.413469,28.4346207 L29.413469,28.5142759 C28.6806414,28.7555172 27.8271931,29.3290345 27.5700207,30.0618621 C26.6983655,29.4655862 26.0065034,28.8533793 25.1348483,27.4491724 C24.2040207,28.4983448 23.3892621,29.1515172 22.4789172,29.7455172 C22.4584345,30.0618621 22.4379517,30.2621379 22.2604345,30.4168966 C22.1238828,30.5557241 21.7256069,30.8128966 21.2886414,30.8128966 C20.7151241,30.8128966 20.6764345,30.3782069 20.6764345,30.2393793 C20.6764345,30.0618621 20.7560897,29.2698621 20.7765724,29.1105517 C20.8744345,27.4651034 20.9131241,25.5237931 20.9131241,21.4022069 C20.9131241,19.322069 20.8949172,15.2414483 20.7560897,13.976069 C20.7151241,13.5982759 20.6559517,13.281931 20.5580897,12.8472414 L22.5176069,13.7757931 L25.3920207,13.7757931 L26.1043655,13.281931 C26.3410552,13.1226207 26.4025034,13.0634483 26.5003655,13.0634483 C26.5800207,13.0634483 26.6801586,13.1226207 26.7598138,13.184069 L27.8681586,13.9578621 C27.9455379,14.0147586 27.9865034,14.0944138 27.9865034,14.1763448 C27.9865034,14.2901379 27.9250552,14.3538621 27.8271931,14.4289655 C27.729331,14.5086207 27.2923655,14.8295172 27.2149862,14.8864138 C27.2149862,15.3051724 27.2331931,17.1668276 27.2149862,17.5628276 C27.1558138,18.7326207 25.9655379,19.2833793 25.2918828,19.4017241 C25.0347103,18.5482759 24.9550552,18.2728966 23.5667793,17.4422069 L23.5667793,17.3443448 C24.0447103,17.3853103 24.5590552,17.3853103 25.0551931,17.3853103 C25.4694,17.3853103 25.6082276,17.3853103 25.6082276,17.1053793 C25.6082276,16.6502069 25.6287103,14.652 25.6287103,14.2514483 L22.4015379,14.2514483 C22.4220207,15.063931 22.4015379,19.4244828 22.4015379,20.394 L25.8858828,20.394 Z M13.3071931,18.8304828 C13.7623655,19.008 14.4360207,19.4017241 15.0891931,19.998 C15.3258828,20.2164828 15.5648483,20.4918621 15.5648483,21.1063448 C15.5648483,21.9415862 14.8911931,22.0781379 14.6522276,22.0781379 C14.2585034,22.0781379 13.9398828,21.8391724 13.8420207,21.0881379 C13.7031931,20.0958621 13.6849862,19.9183448 13.2275379,18.926069 L13.3071931,18.8304828 Z M18.2207793,18.1363448 L18.8329862,17.3443448 C18.9740897,17.1668276 19.0309862,17.0871724 19.1516069,17.0871724 C19.249469,17.0871724 19.3882966,17.2032414 19.5066414,17.3056552 L20.437469,18.0953793 C20.5376069,18.1750345 20.635469,18.2569655 20.635469,18.3935172 C20.635469,18.5710345 20.4579517,18.612 20.3214,18.612 L17.3696069,18.612 L19.0719517,19.4995862 C19.1516069,19.5405517 19.2699517,19.6429655 19.2699517,19.7795172 C19.2699517,20.0389655 19.1516069,20.0571724 18.655469,20.1550345 C17.9818138,20.9675172 17.0919517,21.9597931 16.6731931,22.4172414 L18.3391241,22.4172414 L18.9126414,21.6434483 C18.9922966,21.5228276 19.0719517,21.4022069 19.2085034,21.4022069 C19.3496069,21.4022069 19.5066414,21.5637931 19.5862966,21.6206897 L20.5194,22.3762759 C20.5967793,22.4513793 20.7151241,22.5537931 20.7151241,22.6744138 C20.7151241,22.851931 20.5376069,22.8928966 20.3987793,22.8928966 L16.7938138,22.8928966 C16.7938138,23.3457931 16.773331,25.3690345 16.773331,25.7627586 L17.665469,25.7627586 L18.357331,24.9684828 C18.4779517,24.8296552 18.555331,24.7135862 18.655469,24.7135862 C18.753331,24.7135862 18.8739517,24.8114483 19.0105034,24.932069 L20.0437448,25.724069 C20.1598138,25.821931 20.2417448,25.9197931 20.2417448,26.0381379 C20.2417448,26.217931 20.0824345,26.2384138 19.9436069,26.2384138 L16.773331,26.2384138 C16.773331,26.8346897 16.8325034,29.3677241 16.8325034,29.8843448 C16.8325034,30.1028276 16.8325034,30.8925517 15.783331,30.8925517 C15.1096759,30.8925517 15.1096759,30.476069 15.1096759,30.2621379 C15.1096759,30.1824828 15.1278828,30.1028276 15.1278828,30.0208966 C15.2280207,28.7555172 15.2485034,27.506069 15.2485034,26.2384138 L13.8625034,26.2384138 C12.6335379,26.2384138 12.2170552,26.2975862 11.7209172,26.3772414 L11.3863655,25.6444138 C12.5925724,25.7627586 13.9990552,25.7627586 14.2175379,25.7627586 L15.2485034,25.7627586 L15.2485034,22.8928966 L13.5051931,22.8928966 C12.2967103,22.8928966 11.8620207,22.9270345 11.3658828,23.0294483 L11.0472621,22.2966207 C12.2580207,22.3944828 13.6440207,22.4172414 13.8625034,22.4172414 L16.1201586,22.4172414 C16.4751931,21.4841379 17.071469,19.9183448 17.071469,18.9897931 C17.071469,18.926069 17.0305034,18.6688966 17.0305034,18.612 L13.7031931,18.612 C12.4947103,18.612 12.0600207,18.6506897 11.5638828,18.7485517 L11.2452621,18.0157241 C12.4355379,18.1135862 13.8420207,18.1363448 14.0605034,18.1363448 L15.2485034,18.1363448 C15.2485034,17.7175862 15.2280207,16.251931 15.2280207,15.9970345 L14.5156759,15.9970345 C13.2867103,15.9970345 12.8702276,16.0562069 12.3558828,16.1358621 L12.0395379,15.4030345 C13.2457448,15.5213793 14.6522276,15.5213793 14.8707103,15.5213793 L15.2280207,15.5213793 C15.1278828,13.4025517 14.991331,13.0634483 14.8138138,12.7084138 L17.2080207,13.3001379 C17.3286414,13.3388276 17.4469862,13.4207586 17.4469862,13.5573103 C17.4469862,13.6597241 17.3696069,13.7575862 17.2285034,13.8372414 C17.0509862,13.9578621 16.9303655,14.073931 16.7938138,14.1922759 C16.7938138,14.5086207 16.7938138,14.6110345 16.773331,15.5213793 L17.5471241,15.5213793 L18.159331,14.7088966 C18.2799517,14.570069 18.357331,14.4517241 18.4779517,14.4517241 C18.5758138,14.4517241 18.7169172,14.570069 18.8329862,14.667931 L19.7251241,15.4826897 C19.8047793,15.5623448 19.9231241,15.6784138 19.9231241,15.7967586 C19.9231241,15.9765517 19.7456069,15.9970345 19.6272621,15.9970345 L16.773331,15.9970345 C16.773331,16.2906207 16.7938138,17.4194483 16.7938138,18.1363448 L18.2207793,18.1363448 Z" id="Fill-2" fill="#1B4749" sketch:type="MSShapeGroup"></path>
                    <mask id="mask-2" sketch:name="Clip 5" fill="white">
                        <use xlink:href="#path-1"></use>
                    </mask>
                    <g id="Clip-5"></g>
                    <path d="M43.2208966,22.1191034 L48.8855172,22.1191034 L48.8855172,20.79 L43.2208966,20.79 L43.2208966,22.1191034 Z M43.2208966,20.3143448 L48.8855172,20.3143448 L48.8855172,19.1286207 L43.2208966,19.1286207 L43.2208966,20.3143448 Z M43.2208966,18.6506897 L48.8855172,18.6506897 L48.8855172,17.4422069 L43.2208966,17.4422069 L43.2208966,18.6506897 Z M42.290069,12.4102759 C43.6373793,12.4694483 45.0643448,13.3615862 45.0643448,14.2332414 C45.0643448,14.7271034 44.6478621,15.1435862 44.2108966,15.1435862 C43.7352414,15.1435862 43.5964138,14.7885517 43.3597241,14.1922759 C42.9842069,13.2409655 42.585931,12.8244828 42.290069,12.5081379 L42.290069,12.4102759 Z M40.605931,27.1282759 C42.5677241,27.603931 43.1412414,28.578 43.1412414,29.2311724 C43.1412414,29.684069 42.8226207,30.2803448 42.189931,30.2803448 C41.5162759,30.2803448 41.4388966,29.8615862 41.1817241,28.7145517 C41.0815862,28.2571034 40.904069,27.6653793 40.5649655,27.2306897 L40.605931,27.1282759 Z M48.8263448,16.9665517 L49.302,16.3930345 C49.3611724,16.3133793 49.4613103,16.2337241 49.5409655,16.2337241 C49.6388276,16.2337241 49.7776552,16.3315862 49.8573103,16.3930345 L50.8677931,17.1668276 C50.9269655,17.2237241 50.9861379,17.3056552 50.9861379,17.4012414 C50.9861379,17.5628276 50.8291034,17.6788966 50.3944138,18.0384828 C50.3534483,18.6688966 50.4922759,21.4818621 50.4922759,22.0553793 C50.4922759,22.4172414 50.3944138,23.1273103 49.4613103,23.1273103 C48.8673103,23.1273103 48.8855172,22.7904828 48.8855172,22.5947586 L43.2208966,22.5947586 C43.2004138,22.9907586 43.1822069,23.4026897 42.3674483,23.4026897 C41.6164138,23.4026897 41.6164138,22.9270345 41.6164138,22.6334483 C41.6164138,22.0781379 41.6573793,21.2064828 41.6573793,20.6693793 C41.6573793,19.322069 41.6573793,17.4012414 41.4775862,16.1131034 L43.2413793,16.9665517 L44.9027586,16.9665517 C44.9642069,16.6684138 45.0438621,16.0562069 45.0233793,15.6602069 L42.884069,15.6602069 C41.6573793,15.6602069 41.2204138,15.7171034 40.7265517,15.7967586 L40.407931,15.063931 C41.6164138,15.1845517 43.0046897,15.1845517 43.2413793,15.1845517 L46.4503448,15.1845517 C46.8668276,14.3311034 47.0443448,13.7006897 47.0443448,13.0452414 C47.0443448,12.8244828 47.0033793,12.4694483 46.9464828,12.2896552 L48.9856552,12.9655862 C49.1631724,13.0247586 49.302,13.1613103 49.302,13.3388276 C49.302,13.5573103 49.0448276,13.7006897 48.708,13.7006897 C48.3142759,14.1353793 47.7771724,14.570069 46.926,15.1845517 L49.9187586,15.1845517 L50.7881379,14.1535862 C50.9269655,13.992 51.0271034,13.8782069 51.1249655,13.8782069 C51.2251034,13.8782069 51.3616552,13.992 51.4617931,14.0944138 L52.6111034,15.1435862 C52.6884828,15.2232414 52.8091034,15.362069 52.8091034,15.459931 C52.8091034,15.6374483 52.6315862,15.6602069 52.5109655,15.6602069 L46.926,15.6602069 C45.8153793,16.5705517 45.6970345,16.6684138 45.342,16.9665517 L48.8263448,16.9665517 Z M36.6823448,13.2409655 C38.1297931,13.4025517 39.8321379,14.2332414 39.8321379,15.4417241 C39.8321379,16.0152414 39.3974483,16.3702759 38.9217931,16.3702759 C38.4074483,16.3702759 38.3277931,16.1927586 37.8908276,15.1435862 C37.5744828,14.3925517 37.2581379,13.9168966 36.6823448,13.3388276 L36.6823448,13.2409655 Z M50.3944138,26.4341379 L51.1249655,25.5465517 C51.2455862,25.3849655 51.3434483,25.2871034 51.4435862,25.2871034 C51.5437241,25.2871034 51.6211034,25.3667586 51.7986207,25.5055862 L52.9274483,26.3954483 C53.0275862,26.4751034 53.1277241,26.5547586 53.1277241,26.6935862 C53.1277241,26.8711034 52.9661379,26.9097931 52.8295862,26.9097931 L48.5691724,26.9097931 C48.5691724,27.4651034 48.5509655,29.288069 48.4713103,29.6658621 C48.3302069,30.2211724 47.7566897,31.1497241 46.2136552,31.1110345 C45.9155172,29.7068276 45.0233793,29.2084138 44.6865517,29.0126897 L44.6865517,28.8761379 C45.3010345,28.989931 45.936,29.0536552 46.5891724,29.0536552 C46.9646897,29.0536552 46.9646897,28.9512414 46.9851724,28.3777241 C46.9851724,28.2798621 47.0033793,27.2488966 47.0033793,26.9097931 L37.9909655,26.9097931 C36.7824828,26.9097931 36.3477931,26.9507586 35.8516552,27.0304138 L35.5330345,26.318069 C36.7437931,26.415931 38.1297931,26.4341379 38.3482759,26.4341379 L46.9851724,26.4341379 C46.9851724,25.9812414 46.9055172,25.5237931 46.8463448,25.2074483 C43.676069,25.1505517 41.9714483,25.0868276 39.9117931,22.9088276 C39.5157931,23.2251724 37.8316552,24.6521379 37.4766207,24.932069 C37.4151724,25.1277931 37.3195862,25.3667586 37.2786207,25.425931 C37.2194483,25.5237931 37.1193103,25.6034483 37.0009655,25.6034483 C36.8234483,25.6034483 36.6823448,25.425931 36.6049655,25.328069 L35.5330345,23.7235862 C35.7515172,23.7417931 36.2863448,23.7235862 36.4046897,23.7235862 C36.9395172,23.7235862 37.9522759,23.5802069 38.5053103,23.3275862 L38.5053103,19.4244828 L37.9113103,19.4244828 C36.7028276,19.4244828 36.2681379,19.4654483 35.772,19.5633103 L35.4351724,18.8282069 C36.7028276,18.9488276 38.1889655,18.9488276 38.2868276,18.9488276 L38.7829655,18.3138621 C38.8626207,18.216 38.9604828,18.1135862 39.0606207,18.1135862 C39.1584828,18.1135862 39.2995862,18.1932414 39.4361379,18.2956552 L40.407931,18.926069 C40.4875862,18.9897931 40.5649655,19.0648966 40.5649655,19.2242069 C40.5649655,19.3857931 40.4671034,19.4836552 40.407931,19.5405517 C40.2691034,19.6998621 40.1689655,19.7795172 40.0528966,19.9183448 C40.0324138,20.2346897 40.0324138,20.4918621 40.0324138,20.8468966 C40.0324138,21.2884138 40.0324138,22.0166897 40.0528966,22.4331724 C40.9632414,23.5051034 41.894069,23.7417931 45.1212414,23.7417931 C46.3297241,23.7417931 50.769931,23.6826207 53.1846207,23.0886207 L53.1846207,23.1682759 C52.5724138,23.6598621 52.1354483,24.2971034 52.0353103,25.1095862 C50.5309655,25.1892414 49.4226207,25.2256552 47.9546897,25.2256552 L48.5691724,25.3849655 C48.8468276,25.4646207 48.9674483,25.5237931 48.9674483,25.6831034 C48.9674483,25.8606207 48.7876552,26.0222069 48.5896552,26.1997241 C48.5896552,26.318069 48.5896552,26.2793793 48.5691724,26.4341379 L50.3944138,26.4341379 Z" id="Fill-4" fill="#1B4749" sketch:type="MSShapeGroup" mask="url(#mask-2)"></path>
                    <path d="M41.9122759,52.6748276 L47.8386207,52.6748276 L47.8386207,49.7981379 L41.9122759,49.7981379 L41.9122759,52.6748276 Z M41.991931,46.5095172 L41.9122759,46.5709655 L41.9122759,49.3224828 L47.8386207,49.3224828 L47.8386207,46.5095172 L41.991931,46.5095172 Z M37.7929655,43.0046897 C36.5844828,43.0046897 36.1497931,43.0638621 35.6536552,43.1435172 L35.3350345,42.4106897 C36.2681379,42.4903448 37.2194483,42.5290345 38.1502759,42.5290345 L41.7552414,42.5290345 L41.7552414,39.4588966 L39.6136552,39.4588966 C38.4074483,39.4588966 37.9727586,39.5157931 37.4766207,39.5954483 L37.158,38.8626207 C38.0888276,38.9422759 39.0401379,38.9832414 39.9732414,38.9832414 L41.7347586,38.9832414 C41.6937931,37.1784828 41.4957931,36.6664138 41.1407586,35.8721379 L43.773931,36.5867586 C43.8945517,36.6277241 44.0925517,36.7028276 44.0925517,36.9031034 C44.0925517,37.1784828 43.7944138,37.2991034 43.4803448,37.4356552 C43.4598621,37.6768966 43.4598621,38.7647586 43.4598621,38.9832414 L44.3702069,38.9832414 L45.2623448,37.8316552 C45.3784138,37.6768966 45.4398621,37.5744828 45.5582069,37.5744828 C45.6970345,37.5744828 45.8950345,37.7747586 45.9155172,37.7952414 L47.0648276,38.9422759 C47.2218621,39.1038621 47.2628276,39.1425517 47.2628276,39.2404138 C47.2628276,39.4361379 47.0853103,39.4588966 46.9646897,39.4588966 L43.4598621,39.4588966 L43.4598621,42.5290345 L44.7070345,42.5290345 C46.5277241,40.7083448 48.4917931,38.3482759 48.8468276,36.6049655 L50.7289655,37.8316552 C50.967931,37.9909655 51.0066207,38.1684828 51.0066207,38.2504138 C51.0066207,38.5872414 50.373931,38.6441379 50.1736552,38.6668966 C49.1631724,40.0324138 48.0753103,41.3387586 46.8463448,42.5290345 L50.1167586,42.5290345 L51.1044828,41.1430345 C51.2637931,40.904069 51.3434483,40.904069 51.4026207,40.904069 C51.5209655,40.904069 51.7007586,41.0406207 51.7781379,41.1043448 L53.2642759,42.4903448 C53.4031034,42.6109655 53.4622759,42.6678621 53.4622759,42.8066897 C53.4622759,42.9842069 53.3052414,43.0046897 53.1641379,43.0046897 L46.3706897,43.0046897 C45.6970345,43.6601379 44.5477241,44.7093103 42.686069,46.0384138 L47.5609655,46.0384138 L48.2323448,45.2236552 C48.3711724,45.0643448 48.4098621,45.0233793 48.4917931,45.0233793 C48.5896552,45.0233793 48.6283448,45.0461379 48.8468276,45.1849655 L49.8573103,45.854069 C49.9551724,45.9177931 50.1167586,46.0543448 50.1167586,46.215931 C50.1167586,46.3706897 50.0553103,46.4321379 49.5204828,46.8281379 C49.5,47.5222759 49.5,49.8208966 49.5591724,51.7622069 C49.5591724,51.9806897 49.6388276,52.9092414 49.6388276,53.1095172 C49.6388276,53.9174483 48.5896552,54.038069 48.3916552,54.038069 C47.8386207,54.038069 47.8386207,53.6830345 47.8386207,53.1504828 L41.9327586,53.1504828 C41.991931,54.0608276 41.1407586,54.1586897 40.706069,54.1586897 C40.1894483,54.1586897 40.1302759,53.9015172 40.1302759,53.642069 C40.1302759,53.4417931 40.1689655,52.5314483 40.1689655,52.3357241 C40.209931,51.0862759 40.209931,49.2815172 40.209931,48.296069 L40.209931,47.601931 C38.8034483,48.3711724 37.158,49.2633103 34.98,49.5409655 L34.9208276,49.4248966 C36.8029655,48.6283448 38.5644828,47.5609655 40.209931,46.3524828 C40.209931,45.7562069 40.1302759,45.2805517 40.0711034,44.8458621 L41.2795862,45.5627586 C42.1125517,44.9027586 43.2413793,43.956 44.2313793,43.0046897 L37.7929655,43.0046897 Z" id="Fill-6" fill="#1B4749" sketch:type="MSShapeGroup" mask="url(#mask-2)"></path>
                    <path d="M8.40566897,46.0595793 C8.34649655,46.0595793 8.28049655,46.0595793 8.21449655,46.064131 C8.15077241,46.064131 8.08249655,46.064131 8.01649655,46.0686828 C7.95049655,46.0732345 7.88677241,46.0777862 7.82532414,46.0823379 C7.76387586,46.0868897 7.70697931,46.0914414 7.65918621,46.1005448 C7.67284138,46.0550276 7.6773931,46.0186138 7.6773931,45.9890276 C7.6773931,45.9617172 7.67284138,45.9253034 7.65918621,45.8775103 C7.81166897,45.8820621 7.96415172,45.8866138 8.1098069,45.8911655 C8.25546207,45.8957172 8.40566897,45.8957172 8.55815172,45.8957172 C8.71291034,45.8957172 8.86084138,45.8957172 9.00877241,45.8911655 C9.15442759,45.8866138 9.30463448,45.8820621 9.45711724,45.8775103 C9.44573793,45.9253034 9.43891034,45.9617172 9.43891034,45.9935793 C9.43891034,46.0186138 9.44573793,46.0550276 9.45711724,46.1005448 C9.40704828,46.0914414 9.35470345,46.0868897 9.29325517,46.0823379 C9.22953103,46.0777862 9.1658069,46.0732345 9.10208276,46.0686828 C9.0338069,46.064131 8.9678069,46.064131 8.9018069,46.064131 C8.8358069,46.0595793 8.77208276,46.0595793 8.71291034,46.0595793 C8.70608276,46.2985448 8.70153103,46.5397862 8.70153103,46.7787517 L8.70153103,47.3795793 C8.70153103,47.5343379 8.7038069,47.6868207 8.71063448,47.8324759 C8.71746207,47.9849586 8.72428966,48.1306138 8.73111724,48.2739931 C8.67649655,48.2694414 8.6196,48.2648897 8.55815172,48.2648897 C8.49897931,48.2648897 8.44208276,48.2694414 8.38746207,48.2739931 C8.39428966,48.1306138 8.40111724,47.9849586 8.40794483,47.8324759 C8.41249655,47.6868207 8.41704828,47.5343379 8.41704828,47.3795793 L8.41704828,46.7787517 C8.41704828,46.5397862 8.41249655,46.2985448 8.40566897,46.0595793" id="Fill-7" fill="#1B4749" sketch:type="MSShapeGroup" mask="url(#mask-2)"></path>
                    <path d="M12.3506483,46.3308621 C12.3438207,46.1852069 12.339269,46.0327241 12.3301655,45.8779655 C12.3620276,45.8825172 12.3916138,45.887069 12.4189241,45.8916207 C12.4462345,45.8961724 12.4758207,45.8961724 12.5008552,45.8961724 C12.5304414,45.8961724 12.5577517,45.8961724 12.5873379,45.8916207 C12.6123724,45.887069 12.6442345,45.8825172 12.6738207,45.8779655 C12.6669931,46.0327241 12.6601655,46.1852069 12.6533379,46.3308621 C12.6487862,46.4765172 12.6465103,46.629 12.6465103,46.7792069 L12.6465103,47.3800345 C12.6465103,47.5347931 12.6487862,47.6872759 12.6533379,47.832931 C12.6601655,47.9854138 12.6669931,48.1265172 12.6738207,48.2744483 C12.6192,48.2698966 12.5623034,48.2653448 12.5008552,48.2653448 C12.4416828,48.2653448 12.3847862,48.2698966 12.3301655,48.2744483 C12.339269,48.1265172 12.3438207,47.9854138 12.3506483,47.832931 C12.3574759,47.6872759 12.3597517,47.5347931 12.3597517,47.3800345 L12.3597517,47.0682414 C12.2345793,47.0636897 12.1139586,47.0636897 11.9956138,47.0636897 C11.877269,47.0591379 11.7566483,47.0591379 11.6314759,47.0591379 C11.5063034,47.0591379 11.3834069,47.0591379 11.2673379,47.0636897 C11.151269,47.0636897 11.0283724,47.0636897 10.9032,47.0682414 L10.9032,47.3800345 C10.9032,47.5347931 10.9054759,47.6872759 10.9123034,47.832931 C10.9168552,47.9854138 10.9236828,48.1265172 10.9305103,48.2744483 C10.8781655,48.2698966 10.821269,48.2653448 10.7620966,48.2653448 C10.6983724,48.2653448 10.6437517,48.2698966 10.5914069,48.2744483 C10.5982345,48.1265172 10.6027862,47.9854138 10.6073379,47.832931 C10.6141655,47.6872759 10.6164414,47.5347931 10.6164414,47.3800345 L10.6164414,46.7792069 C10.6164414,46.629 10.6141655,46.4765172 10.6073379,46.3308621 C10.6027862,46.1852069 10.5982345,46.0327241 10.5914069,45.8779655 C10.6187172,45.8825172 10.6483034,45.887069 10.6778897,45.8916207 C10.7029241,45.8961724 10.7325103,45.8961724 10.7620966,45.8961724 C10.787131,45.8961724 10.8167172,45.8961724 10.8440276,45.8916207 C10.8736138,45.887069 10.9009241,45.8825172 10.9305103,45.8779655 C10.9236828,46.0327241 10.9168552,46.1852069 10.9123034,46.3308621 C10.9054759,46.4765172 10.9032,46.629 10.9032,46.7792069 L10.9032,46.9043793 C11.0283724,46.9043793 11.151269,46.908931 11.2673379,46.908931 C11.3834069,46.9134828 11.5063034,46.9134828 11.6314759,46.9134828 C11.7566483,46.9134828 11.877269,46.9134828 11.9956138,46.908931 C12.1139586,46.908931 12.2345793,46.9043793 12.3597517,46.9043793 L12.3597517,46.7792069 C12.3597517,46.629 12.3574759,46.4765172 12.3506483,46.3308621" id="Fill-8" fill="#1B4749" sketch:type="MSShapeGroup" mask="url(#mask-2)"></path>
                    <path d="M14.068469,46.3263103 C14.0616414,46.1761034 14.0548138,46.0281724 14.0479862,45.8779655 C14.1526759,45.8825172 14.2573655,45.887069 14.3620552,45.8916207 C14.464469,45.8961724 14.5691586,45.8961724 14.6738483,45.8961724 C14.7785379,45.8961724 14.8809517,45.8961724 14.9810897,45.8916207 C15.0835034,45.887069 15.1881931,45.8825172 15.2928828,45.8779655 C15.2860552,45.9121034 15.2815034,45.9485172 15.2815034,45.984931 C15.2815034,46.019069 15.2860552,46.0554828 15.2928828,46.0896207 C15.2177793,46.0827931 15.1517793,46.0782414 15.0880552,46.0736897 C15.0288828,46.0691379 14.9628828,46.0645862 14.892331,46.0600345 C14.826331,46.0554828 14.7512276,46.050931 14.6692966,46.0463793 C14.5896414,46.0463793 14.4917793,46.0418276 14.3779862,46.0418276 C14.3757103,46.116931 14.3711586,46.1874828 14.3688828,46.2557586 C14.364331,46.3217586 14.3620552,46.4014138 14.3620552,46.4856207 C14.3620552,46.5743793 14.364331,46.6631379 14.364331,46.7496207 C14.3666069,46.8383793 14.3666069,46.8998276 14.3666069,46.943069 C14.4690207,46.943069 14.5600552,46.943069 14.6419862,46.9407931 C14.7216414,46.9407931 14.7967448,46.9362414 14.8650207,46.9362414 C14.9310207,46.9316897 14.992469,46.9271379 15.0516414,46.9225862 C15.1085379,46.9180345 15.1608828,46.9134828 15.2132276,46.908931 C15.2064,46.943069 15.2018483,46.9794828 15.2018483,47.0204483 C15.2018483,47.0545862 15.2064,47.0864483 15.2132276,47.1228621 C15.1540552,47.1183103 15.0812276,47.1092069 15.0015724,47.1046552 C14.9219172,47.1001034 14.8422621,47.1001034 14.7626069,47.0955517 L14.5350207,47.0955517 C14.464469,47.091 14.4098483,47.091 14.3666069,47.091 C14.3666069,47.1137586 14.3666069,47.1342414 14.364331,47.157 C14.364331,47.1843103 14.3620552,47.2161724 14.3620552,47.2503103 L14.3620552,47.3891379 L14.3620552,47.5985172 C14.3620552,47.7305172 14.364331,47.8374828 14.364331,47.9216897 C14.3666069,48.0104483 14.3688828,48.0741724 14.3711586,48.1174138 L14.6124,48.1174138 C14.7011586,48.1174138 14.7876414,48.1174138 14.8741241,48.1128621 C14.958331,48.1083103 15.0379862,48.1037586 15.1130897,48.0992069 C15.1881931,48.0946552 15.2541931,48.0855517 15.3110897,48.0741724 C15.3065379,48.0901034 15.3019862,48.1083103 15.3019862,48.1265172 C15.2997103,48.1492759 15.2997103,48.1674828 15.2997103,48.1788621 C15.2997103,48.2198276 15.3042621,48.2516897 15.3110897,48.2721724 C15.2064,48.2698966 15.1017103,48.2653448 14.9992966,48.2653448 L14.6852276,48.2653448 L14.3666069,48.2653448 C14.2619172,48.2653448 14.1549517,48.2698966 14.0479862,48.2721724 C14.0548138,48.1219655 14.0616414,47.9763103 14.068469,47.8283793 C14.0752966,47.6827241 14.0775724,47.5302414 14.0775724,47.3754828 L14.0775724,46.7792069 C14.0775724,46.6244483 14.0752966,46.4719655 14.068469,46.3263103" id="Fill-9" fill="#1B4749" sketch:type="MSShapeGroup" mask="url(#mask-2)"></path>
                    <path d="M8.32328276,51.8559724 C8.36197241,51.8605241 8.40293793,51.8605241 8.45073103,51.8605241 C8.52355862,51.8605241 8.59638621,51.8514207 8.67376552,51.8377655 C8.75342069,51.8195586 8.82624828,51.7945241 8.88997241,51.7535586 C8.95369655,51.7103172 9.00831724,51.6556966 9.05155862,51.5896966 C9.0948,51.5191448 9.11755862,51.4326621 9.11755862,51.3279724 C9.11755862,51.2392138 9.09935172,51.1618345 9.06521379,51.1049379 C9.03335172,51.0434897 8.98783448,50.9979724 8.93548966,50.9615586 C8.88086897,50.9274207 8.82397241,50.9046621 8.76024828,50.8910069 C8.6988,50.8773517 8.63735172,50.8728 8.57590345,50.8728 C8.49397241,50.8728 8.42797241,50.8728 8.37562759,50.8773517 C8.3210069,50.8819034 8.27548966,50.8864552 8.23907586,50.8910069 C8.23452414,51.0161793 8.22997241,51.1459034 8.22314483,51.2688 C8.2185931,51.3939724 8.21631724,51.5236966 8.21631724,51.6465931 L8.21631724,51.8423172 C8.25045517,51.8514207 8.2845931,51.8559724 8.32328276,51.8559724 M7.92273103,51.1936966 C7.91590345,51.0480414 7.90907586,50.8955586 7.90452414,50.7453517 C7.97052414,50.7499034 8.03652414,50.7544552 8.10024828,50.7544552 C8.16852414,50.7590069 8.23452414,50.7635586 8.30052414,50.7635586 C8.3688,50.7635586 8.4348,50.7590069 8.49852414,50.7544552 C8.56224828,50.7453517 8.63052414,50.7453517 8.6988,50.7453517 C8.79438621,50.7453517 8.88769655,50.7544552 8.97645517,50.7703862 C9.06521379,50.7885931 9.14031724,50.8204552 9.2085931,50.8636966 C9.2745931,50.9046621 9.32693793,50.9615586 9.36562759,51.0343862 C9.40431724,51.1003862 9.42252414,51.1891448 9.42252414,51.2915586 C9.42252414,51.4076276 9.39748966,51.5009379 9.34742069,51.5805931 C9.29735172,51.6602483 9.23590345,51.7262483 9.16535172,51.780869 C9.09252414,51.8332138 9.01742069,51.8741793 8.93321379,51.9014897 C8.85128276,51.9310759 8.77617931,51.9492828 8.70790345,51.9583862 C8.73748966,51.9948 8.77390345,52.0425931 8.82397241,52.1040414 C8.87176552,52.1677655 8.92638621,52.2383172 8.98783448,52.3134207 C9.0470069,52.3885241 9.11073103,52.4704552 9.17445517,52.5501103 C9.24045517,52.6343172 9.30417931,52.7094207 9.36335172,52.7845241 C9.42252414,52.8596276 9.48169655,52.9324552 9.53404138,52.9939034 C9.58866207,53.0553517 9.62962759,53.1054207 9.66376552,53.1350069 C9.62735172,53.132731 9.59321379,53.132731 9.55907586,53.132731 L9.45438621,53.132731 L9.35197241,53.132731 C9.31783448,53.132731 9.28369655,53.132731 9.25183448,53.1350069 C9.21769655,53.0872138 9.16307586,53.0166621 9.0948,52.9188 C9.02424828,52.8209379 8.9445931,52.7139724 8.85811034,52.6024552 C8.77162759,52.4909379 8.68514483,52.3794207 8.59411034,52.2701793 C8.50535172,52.1632138 8.42342069,52.0699034 8.3505931,51.9902483 L8.21631724,51.9902483 L8.21631724,52.242869 C8.21631724,52.3976276 8.2185931,52.5501103 8.22542069,52.6957655 C8.23224828,52.8482483 8.23907586,52.9939034 8.24590345,53.1350069 C8.19128276,53.132731 8.13438621,53.132731 8.07521379,53.132731 C8.01376552,53.132731 7.95686897,53.132731 7.90452414,53.1350069 C7.90907586,52.9939034 7.91590345,52.8482483 7.92273103,52.6957655 C7.92728276,52.5501103 7.93183448,52.3976276 7.93183448,52.242869 L7.93183448,51.6465931 C7.93183448,51.4918345 7.92728276,51.3393517 7.92273103,51.1936966" id="Fill-10" fill="#1B4749" sketch:type="MSShapeGroup" mask="url(#mask-2)"></path>
                    <path d="M10.801469,51.1891448 C10.7946414,51.0434897 10.7878138,50.8910069 10.7809862,50.7453517 C10.8856759,50.7499034 10.9903655,50.7544552 11.0927793,50.7544552 C11.197469,50.7590069 11.2998828,50.7635586 11.4068483,50.7635586 C11.5115379,50.7635586 11.6116759,50.7590069 11.7140897,50.7544552 C11.8165034,50.7544552 11.9189172,50.7499034 12.0236069,50.7453517 C12.0167793,50.7794897 12.0145034,50.8113517 12.0145034,50.8477655 C12.0145034,50.8819034 12.0167793,50.9183172 12.0236069,50.9524552 C11.9507793,50.9501793 11.8825034,50.9456276 11.8210552,50.9410759 C11.7596069,50.9319724 11.6958828,50.9319724 11.625331,50.922869 C11.5570552,50.9183172 11.4819517,50.9137655 11.4022966,50.9137655 C11.3203655,50.9092138 11.2225034,50.9092138 11.1087103,50.9092138 C11.1064345,50.9797655 11.1041586,51.0503172 11.0996069,51.1185931 C11.097331,51.1891448 11.0950552,51.2642483 11.0950552,51.3484552 C11.0950552,51.4372138 11.0950552,51.5259724 11.097331,51.614731 L11.097331,51.8104552 C11.1997448,51.8104552 11.2930552,51.8059034 11.3727103,51.8059034 C11.4546414,51.8036276 11.527469,51.8036276 11.5980207,51.7990759 C11.6640207,51.7945241 11.725469,51.7899724 11.7846414,51.7854207 C11.8392621,51.7854207 11.8938828,51.780869 11.9439517,51.7763172 C11.9371241,51.8104552 11.9348483,51.846869 11.9348483,51.8832828 C11.9348483,51.9174207 11.9371241,51.9538345 11.9439517,51.9856966 C11.8847793,51.9811448 11.8142276,51.9765931 11.7345724,51.9720414 C11.6549172,51.9674897 11.5729862,51.9629379 11.493331,51.9629379 C11.4136759,51.9583862 11.3362966,51.9583862 11.2680207,51.9583862 C11.197469,51.9583862 11.1382966,51.9538345 11.097331,51.9538345 L11.097331,52.0243862 C11.0950552,52.0471448 11.0950552,52.0790069 11.0950552,52.1131448 L11.0950552,52.2519724 L11.0950552,52.4613517 C11.0950552,52.5933517 11.0950552,52.7003172 11.097331,52.7890759 C11.097331,52.8732828 11.0996069,52.9415586 11.1018828,52.9848 L11.3454,52.9848 C11.4341586,52.9848 11.5183655,52.9802483 11.6071241,52.9756966 C11.691331,52.9756966 11.7709862,52.9711448 11.8460897,52.9620414 C11.9211931,52.9574897 11.9871931,52.9483862 12.0418138,52.9370069 C12.0372621,52.9529379 12.0349862,52.9711448 12.0327103,52.9939034 L12.0327103,53.0462483 C12.0327103,53.0826621 12.0349862,53.1145241 12.0418138,53.1350069 C11.9371241,53.132731 11.8347103,53.132731 11.7300207,53.132731 L11.4159517,53.132731 L11.097331,53.132731 C10.9949172,53.132731 10.8879517,53.132731 10.7809862,53.1350069 C10.7878138,52.9893517 10.7946414,52.8391448 10.801469,52.6912138 C10.8060207,52.5455586 10.8082966,52.3930759 10.8082966,52.242869 L10.8082966,51.6420414 C10.8082966,51.4872828 10.8060207,51.3348 10.801469,51.1891448" id="Fill-11" fill="#1B4749" sketch:type="MSShapeGroup" mask="url(#mask-2)"></path>
                    <path d="M13.8329172,51.9358552 C13.903469,51.9358552 13.9785724,51.9267517 14.0559517,51.9085448 C14.133331,51.8948897 14.2016069,51.8653034 14.2676069,51.8197862 C14.331331,51.7810966 14.3814,51.7173724 14.4246414,51.642269 C14.463331,51.5671655 14.4838138,51.4738552 14.4838138,51.3532345 C14.4838138,51.2508207 14.4701586,51.1711655 14.4428483,51.1097172 C14.4155379,51.0459931 14.3745724,50.9982 14.3267793,50.9617862 C14.2744345,50.9276483 14.2152621,50.9048897 14.1447103,50.8912345 C14.0718828,50.8775793 13.9899517,50.8730276 13.8989172,50.8730276 L13.5871241,50.8730276 L13.5871241,51.9085448 C13.6645034,51.9267517 13.7464345,51.9358552 13.8329172,51.9358552 M13.2912621,51.1939241 C13.2867103,51.0459931 13.2798828,50.8957862 13.2730552,50.7455793 C13.3276759,50.750131 13.3845724,50.7524069 13.441469,50.7524069 C13.4983655,50.7569586 13.5552621,50.7615103 13.6098828,50.7615103 C13.6371931,50.7615103 13.671331,50.7569586 13.7100207,50.7569586 C13.7509862,50.7524069 13.7919517,50.7524069 13.8306414,50.7524069 C13.8738828,50.750131 13.9102966,50.750131 13.9489862,50.7455793 L14.0422966,50.7455793 L14.1697448,50.7455793 C14.2220897,50.750131 14.2744345,50.7569586 14.3336069,50.7660621 C14.3905034,50.7797172 14.4474,50.7979241 14.5020207,50.8206828 C14.5566414,50.8434414 14.6089862,50.8775793 14.6522276,50.9230966 C14.7000207,50.9663379 14.7341586,51.0209586 14.7637448,51.0869586 C14.7910552,51.1529586 14.8047103,51.2326138 14.8047103,51.3304759 C14.8047103,51.4875103 14.7705724,51.6104069 14.7068483,51.7037172 C14.6408483,51.7970276 14.5566414,51.8744069 14.4610552,51.9267517 C14.365469,51.9813724 14.2630552,52.0155103 14.1560897,52.0337172 C14.0491241,52.0564759 13.9512621,52.0655793 13.869331,52.0655793 C13.8147103,52.0655793 13.7669172,52.0655793 13.7214,52.0610276 C13.6781586,52.0610276 13.6326414,52.0564759 13.5871241,52.0519241 L13.5871241,52.2476483 C13.5871241,52.3978552 13.5894,52.5503379 13.5962276,52.6959931 C13.6007793,52.8462 13.605331,52.994131 13.6121586,53.1352345 C13.5598138,53.1306828 13.5029172,53.1306828 13.4437448,53.1306828 C13.3822966,53.1306828 13.3254,53.1306828 13.2730552,53.1352345 C13.2798828,52.994131 13.2867103,52.8462 13.2912621,52.6959931 C13.2980897,52.5503379 13.3003655,52.3978552 13.3003655,52.2476483 L13.3003655,51.6468207 C13.3003655,51.4920621 13.2980897,51.3395793 13.2912621,51.1939241" id="Fill-12" fill="#1B4749" sketch:type="MSShapeGroup" mask="url(#mask-2)"></path>
                    <path d="M17.9868207,51.447 C17.9390276,51.3058966 17.8684759,51.1898276 17.7819931,51.0965172 C17.6955103,51.0077586 17.5930966,50.934931 17.4747517,50.8916897 C17.3586828,50.8461724 17.2312345,50.8302414 17.0924069,50.8302414 C16.9604069,50.8302414 16.8329586,50.8461724 16.7146138,50.8916897 C16.5985448,50.934931 16.496131,51.0077586 16.4096483,51.0965172 C16.3231655,51.1898276 16.2526138,51.3058966 16.2070966,51.447 C16.1570276,51.5858276 16.134269,51.7542414 16.134269,51.9454138 C16.134269,52.1365862 16.1570276,52.305 16.2070966,52.4461034 C16.2526138,52.584931 16.3231655,52.701 16.4096483,52.7943103 C16.496131,52.8876207 16.5985448,52.9536207 16.7146138,52.9991379 C16.8329586,53.0423793 16.9604069,53.0651379 17.0924069,53.0651379 C17.2312345,53.0651379 17.3586828,53.0423793 17.4747517,52.9991379 C17.5930966,52.9536207 17.6955103,52.8876207 17.7819931,52.7943103 C17.8684759,52.701 17.9390276,52.584931 17.9868207,52.4461034 C18.0323379,52.305 18.0573724,52.1365862 18.0573724,51.9454138 C18.0573724,51.7542414 18.0323379,51.5858276 17.9868207,51.447 M15.8862,51.4151379 C15.9499241,51.264931 16.0409586,51.1306552 16.1547517,51.0236897 C16.2685448,50.919 16.4073724,50.837069 16.5689586,50.7801724 C16.728269,50.7278276 16.9012345,50.6959655 17.0924069,50.6959655 C17.2858552,50.6959655 17.4633724,50.7278276 17.6249586,50.7801724 C17.784269,50.837069 17.9230966,50.919 18.0346138,51.0236897 C18.1506828,51.1306552 18.2394414,51.264931 18.3054414,51.4151379 C18.3691655,51.5721724 18.4010276,51.7496897 18.4010276,51.9454138 C18.4010276,52.1411379 18.3691655,52.3186552 18.3054414,52.4734138 C18.2394414,52.6304483 18.1506828,52.7578966 18.0346138,52.8648621 C17.9230966,52.9718276 17.784269,53.0514828 17.6249586,53.1061034 C17.4633724,53.1538966 17.2858552,53.1812069 17.0924069,53.1812069 C16.9012345,53.1812069 16.728269,53.1538966 16.5689586,53.1061034 C16.4073724,53.0514828 16.2685448,52.9718276 16.1547517,52.8648621 C16.0409586,52.7578966 15.9499241,52.6304483 15.8862,52.4734138 C15.8224759,52.3186552 15.7906138,52.1411379 15.7906138,51.9454138 C15.7906138,51.7496897 15.8224759,51.5721724 15.8862,51.4151379" id="Fill-13" fill="#1B4749" sketch:type="MSShapeGroup" mask="url(#mask-2)"></path>
                    <path d="M20.0294069,51.8559724 C20.0680966,51.8605241 20.1090621,51.8605241 20.1568552,51.8605241 C20.2274069,51.8605241 20.3025103,51.8514207 20.3798897,51.8377655 C20.4595448,51.8195586 20.5300966,51.7945241 20.5960966,51.7535586 C20.6598207,51.7103172 20.7144414,51.6556966 20.7554069,51.5896966 C20.8009241,51.5191448 20.8214069,51.4326621 20.8214069,51.3279724 C20.8214069,51.2392138 20.8054759,51.1618345 20.7713379,51.1049379 C20.7394759,51.0434897 20.6939586,50.9979724 20.6416138,50.9615586 C20.5869931,50.9274207 20.5300966,50.9046621 20.4640966,50.8910069 C20.4026483,50.8773517 20.3434759,50.8728 20.2797517,50.8728 C20.2000966,50.8728 20.1340966,50.8728 20.0794759,50.8773517 C20.0248552,50.8819034 19.9816138,50.8864552 19.9429241,50.8910069 C19.9383724,51.0161793 19.9338207,51.1459034 19.929269,51.2688 C19.9247172,51.3939724 19.9224414,51.5236966 19.9224414,51.6465931 L19.9224414,51.8423172 C19.9565793,51.8514207 19.9907172,51.8559724 20.0294069,51.8559724 M19.6288552,51.1936966 C19.6220276,51.0480414 19.6152,50.8955586 19.6083724,50.7453517 C19.6766483,50.7499034 19.7426483,50.7544552 19.8063724,50.7544552 C19.8746483,50.7590069 19.9383724,50.7635586 20.0066483,50.7635586 C20.0749241,50.7635586 20.1409241,50.7590069 20.2046483,50.7544552 C20.2706483,50.7453517 20.3366483,50.7453517 20.4026483,50.7453517 C20.5005103,50.7453517 20.5938207,50.7544552 20.6825793,50.7703862 C20.7690621,50.7885931 20.8464414,50.8204552 20.9147172,50.8636966 C20.9807172,50.9046621 21.0307862,50.9615586 21.0717517,51.0343862 C21.1104414,51.1003862 21.1263724,51.1891448 21.1263724,51.2915586 C21.1263724,51.4076276 21.1036138,51.5009379 21.0535448,51.5805931 C21.0034759,51.6602483 20.9420276,51.7262483 20.8692,51.780869 C20.7986483,51.8332138 20.721269,51.8741793 20.6393379,51.9014897 C20.555131,51.9310759 20.4800276,51.9492828 20.4140276,51.9583862 C20.4436138,51.9948 20.4800276,52.0425931 20.5300966,52.1040414 C20.5778897,52.1677655 20.6325103,52.2383172 20.6939586,52.3134207 C20.7508552,52.3885241 20.8168552,52.4704552 20.8805793,52.5501103 C20.9443034,52.6343172 21.0103034,52.7094207 21.0694759,52.7845241 C21.1286483,52.8596276 21.1878207,52.9324552 21.2401655,52.9939034 C21.2947862,53.0553517 21.3357517,53.1054207 21.3698897,53.1350069 C21.3334759,53.132731 21.2993379,53.132731 21.2652,53.132731 L21.1605103,53.132731 L21.0580966,53.132731 C21.0239586,53.132731 20.9898207,53.132731 20.9579586,53.1350069 C20.9238207,53.0872138 20.8692,53.0166621 20.7986483,52.9188 C20.7280966,52.8209379 20.6484414,52.7139724 20.5619586,52.6024552 C20.4777517,52.4909379 20.3889931,52.3794207 20.3002345,52.2701793 C20.2114759,52.1632138 20.1295448,52.0699034 20.0567172,51.9902483 L19.9224414,51.9902483 L19.9224414,52.242869 C19.9224414,52.3976276 19.9247172,52.5501103 19.9315448,52.6957655 C19.9383724,52.8482483 19.9429241,52.9939034 19.9520276,53.1350069 C19.895131,53.132731 19.8405103,53.132731 19.7813379,53.132731 C19.7198897,53.132731 19.6629931,53.132731 19.6083724,53.1350069 C19.6152,52.9939034 19.6220276,52.8482483 19.6288552,52.6957655 C19.6334069,52.5501103 19.6356828,52.3976276 19.6356828,52.242869 L19.6356828,51.6465931 C19.6356828,51.4918345 19.6334069,51.3393517 19.6288552,51.1936966" id="Fill-14" fill="#1B4749" sketch:type="MSShapeGroup" mask="url(#mask-2)"></path>
                    <path d="M22.9875724,50.9224138 C22.9284,50.9224138 22.8646759,50.9269655 22.7986759,50.9269655 C22.7326759,50.9269655 22.6644,50.9315172 22.6006759,50.9315172 C22.5346759,50.936069 22.4686759,50.9406207 22.4072276,50.9451724 C22.3480552,50.9497241 22.2911586,50.9542759 22.2433655,50.9633793 C22.2547448,50.9224138 22.2615724,50.8814483 22.2615724,50.8518621 C22.2615724,50.8245517 22.2547448,50.7881379 22.2433655,50.7448966 C22.3958483,50.7494483 22.5460552,50.754 22.6917103,50.754 C22.8396414,50.7585517 22.9875724,50.7631034 23.1400552,50.7631034 C23.2948138,50.7631034 23.4450207,50.7585517 23.5906759,50.754 C23.736331,50.754 23.8865379,50.7494483 24.0412966,50.7448966 C24.0276414,50.7881379 24.0230897,50.8245517 24.0230897,50.8564138 C24.0230897,50.886 24.0276414,50.9224138 24.0412966,50.9633793 C23.9912276,50.9542759 23.9366069,50.9497241 23.8751586,50.9451724 C23.8137103,50.9406207 23.7499862,50.936069 23.6839862,50.9315172 C23.6157103,50.9315172 23.5497103,50.9269655 23.4859862,50.9269655 C23.4177103,50.9269655 23.3539862,50.9224138 23.2948138,50.9224138 C23.2879862,51.1613793 23.2857103,51.4026207 23.2857103,51.6461379 L23.2857103,52.2424138 C23.2857103,52.3971724 23.2879862,52.5496552 23.2948138,52.6953103 C23.2993655,52.8477931 23.3061931,52.9934483 23.3130207,53.1368276 C23.2584,53.1322759 23.2015034,53.1322759 23.1400552,53.1322759 C23.0808828,53.1322759 23.0262621,53.1322759 22.9716414,53.1368276 C22.978469,52.9934483 22.9830207,52.8477931 22.9898483,52.6953103 C22.9966759,52.5496552 22.9989517,52.3971724 22.9989517,52.2424138 L22.9989517,51.6461379 C22.9989517,51.4026207 22.9966759,51.1613793 22.9875724,50.9224138" id="Fill-15" fill="#1B4749" sketch:type="MSShapeGroup" mask="url(#mask-2)"></path>
                    <path d="M25.1922,51.1891448 C25.1853724,51.0434897 25.1785448,50.8910069 25.1717172,50.7453517 C25.2764069,50.7499034 25.3810966,50.7544552 25.4857862,50.7544552 C25.5882,50.7590069 25.6928897,50.7635586 25.7975793,50.7635586 C25.902269,50.7635586 26.0024069,50.7590069 26.1048207,50.7544552 C26.2072345,50.7544552 26.3119241,50.7499034 26.4166138,50.7453517 C26.4097862,50.7794897 26.4052345,50.8113517 26.4052345,50.8477655 C26.4052345,50.8819034 26.4097862,50.9183172 26.4166138,50.9524552 C26.3415103,50.9501793 26.2755103,50.9456276 26.2117862,50.9410759 C26.1503379,50.9319724 26.0866138,50.9319724 26.0160621,50.922869 C25.9477862,50.9183172 25.8749586,50.9137655 25.7930276,50.9137655 C25.7133724,50.9092138 25.6155103,50.9092138 25.5017172,50.9092138 C25.4994414,50.9797655 25.4948897,51.0503172 25.4926138,51.1185931 C25.4880621,51.1891448 25.4857862,51.2642483 25.4857862,51.3484552 C25.4857862,51.4372138 25.4880621,51.5259724 25.4880621,51.614731 C25.4903379,51.7012138 25.4903379,51.7672138 25.4903379,51.8104552 C25.5927517,51.8104552 25.6837862,51.8059034 25.7657172,51.8059034 C25.8453724,51.8036276 25.9204759,51.8036276 25.9887517,51.7990759 C26.0547517,51.7945241 26.1162,51.7899724 26.1753724,51.7854207 C26.2299931,51.7854207 26.2846138,51.780869 26.3369586,51.7763172 C26.330131,51.8104552 26.3255793,51.846869 26.3255793,51.8832828 C26.3255793,51.9174207 26.330131,51.9538345 26.3369586,51.9856966 C26.2777862,51.9811448 26.2049586,51.9765931 26.1253034,51.9720414 C26.0456483,51.9674897 25.9659931,51.9629379 25.8863379,51.9629379 C25.8066828,51.9583862 25.7293034,51.9583862 25.6587517,51.9583862 C25.5882,51.9583862 25.5313034,51.9538345 25.4903379,51.9538345 C25.4903379,51.9765931 25.4903379,51.9970759 25.4880621,52.0243862 C25.4880621,52.0471448 25.4857862,52.0790069 25.4857862,52.1131448 L25.4857862,52.2519724 L25.4857862,52.4613517 C25.4857862,52.5933517 25.4880621,52.7003172 25.4880621,52.7890759 C25.4903379,52.8732828 25.4903379,52.9415586 25.4948897,52.9848 L25.736131,52.9848 C25.8248897,52.9848 25.9113724,52.9802483 25.9978552,52.9756966 C26.0820621,52.9756966 26.1617172,52.9711448 26.2368207,52.9620414 C26.3119241,52.9574897 26.3779241,52.9483862 26.4348207,52.9370069 C26.430269,52.9529379 26.4257172,52.9711448 26.4257172,52.9939034 C26.4234414,53.0121103 26.4234414,53.0303172 26.4234414,53.0462483 C26.4234414,53.0826621 26.4279931,53.1145241 26.4348207,53.1350069 C26.330131,53.132731 26.2254414,53.132731 26.1207517,53.132731 L25.8066828,53.132731 L25.4903379,53.132731 C25.3856483,53.132731 25.2786828,53.132731 25.1717172,53.1350069 C25.1785448,52.9893517 25.1853724,52.8391448 25.1922,52.6912138 C25.1990276,52.5455586 25.2013034,52.3930759 25.2013034,52.242869 L25.2013034,51.6420414 C25.2013034,51.4872828 25.1990276,51.3348 25.1922,51.1891448" id="Fill-16" fill="#1B4749" sketch:type="MSShapeGroup" mask="url(#mask-2)"></path>
                    <path d="M28.0836828,51.8559724 C28.1223724,51.8605241 28.1633379,51.8605241 28.211131,51.8605241 C28.2839586,51.8605241 28.3567862,51.8514207 28.4341655,51.8377655 C28.5138207,51.8195586 28.5843724,51.7945241 28.6503724,51.7535586 C28.7140966,51.7103172 28.7687172,51.6556966 28.8119586,51.5896966 C28.8552,51.5191448 28.8756828,51.4326621 28.8756828,51.3279724 C28.8756828,51.2392138 28.8597517,51.1618345 28.8256138,51.1049379 C28.7937517,51.0434897 28.7482345,50.9979724 28.6958897,50.9615586 C28.641269,50.9274207 28.5843724,50.9046621 28.5206483,50.8910069 C28.4569241,50.8773517 28.3977517,50.8728 28.3363034,50.8728 C28.2543724,50.8728 28.1883724,50.8728 28.1360276,50.8773517 C28.0814069,50.8819034 28.0358897,50.8864552 27.9972,50.8910069 C27.9926483,51.0161793 27.9880966,51.1459034 27.9835448,51.2688 C27.9789931,51.3939724 27.9767172,51.5236966 27.9767172,51.6465931 L27.9767172,51.8423172 C28.0108552,51.8514207 28.0449931,51.8559724 28.0836828,51.8559724 M27.683131,51.1936966 C27.6763034,51.0480414 27.6694759,50.8955586 27.6649241,50.7453517 C27.7309241,50.7499034 27.7969241,50.7544552 27.8606483,50.7544552 C27.9289241,50.7590069 27.9926483,50.7635586 28.0609241,50.7635586 C28.1292,50.7635586 28.1952,50.7590069 28.2589241,50.7544552 C28.3249241,50.7453517 28.3909241,50.7453517 28.4569241,50.7453517 C28.5547862,50.7453517 28.6480966,50.7544552 28.7368552,50.7703862 C28.8233379,50.7885931 28.9007172,50.8204552 28.9689931,50.8636966 C29.0349931,50.9046621 29.0873379,50.9615586 29.1260276,51.0343862 C29.1647172,51.1003862 29.1829241,51.1891448 29.1829241,51.2915586 C29.1829241,51.4076276 29.1578897,51.5009379 29.1078207,51.5805931 C29.0577517,51.6602483 28.9963034,51.7262483 28.9234759,51.780869 C28.8529241,51.8332138 28.7755448,51.8741793 28.6936138,51.9014897 C28.6116828,51.9310759 28.5343034,51.9492828 28.4683034,51.9583862 C28.4978897,51.9948 28.5343034,52.0425931 28.5843724,52.1040414 C28.6321655,52.1677655 28.6867862,52.2383172 28.7482345,52.3134207 C28.8074069,52.3885241 28.871131,52.4704552 28.9348552,52.5501103 C29.0008552,52.6343172 29.0645793,52.7094207 29.1237517,52.7845241 C29.1829241,52.8596276 29.2420966,52.9324552 29.2944414,52.9939034 C29.3490621,53.0553517 29.3900276,53.1054207 29.4241655,53.1350069 C29.3877517,53.132731 29.3536138,53.132731 29.3194759,53.132731 L29.2147862,53.132731 L29.1123724,53.132731 C29.0782345,53.132731 29.0440966,53.132731 29.0122345,53.1350069 C28.9780966,53.0872138 28.9234759,53.0166621 28.8529241,52.9188 C28.7823724,52.8209379 28.7049931,52.7139724 28.6162345,52.6024552 C28.5320276,52.4909379 28.443269,52.3794207 28.3545103,52.2701793 C28.2657517,52.1632138 28.1838207,52.0699034 28.1109931,51.9902483 L27.9767172,51.9902483 L27.9767172,52.242869 C27.9767172,52.3976276 27.9789931,52.5501103 27.9858207,52.6957655 C27.9926483,52.8482483 27.9972,52.9939034 28.0063034,53.1350069 C27.9516828,53.132731 27.8947862,53.132731 27.8356138,53.132731 C27.7741655,53.132731 27.717269,53.132731 27.6649241,53.1350069 C27.6694759,52.9939034 27.6763034,52.8482483 27.683131,52.6957655 C27.6876828,52.5501103 27.6922345,52.3976276 27.6922345,52.242869 L27.6922345,51.6465931 C27.6922345,51.4918345 27.6876828,51.3393517 27.683131,51.1936966" id="Fill-17" fill="#1B4749" sketch:type="MSShapeGroup" mask="url(#mask-2)"></path>
                </g>
            </g>
        </g>
    </g>
</svg>