<?xml version="1.0" encoding="UTF-8" standalone="no"?>
<svg width="96px" height="96px" viewBox="0 0 96 96" version="1.1" xmlns="http://www.w3.org/2000/svg" xmlns:xlink="http://www.w3.org/1999/xlink" xmlns:sketch="http://www.bohemiancoding.com/sketch/ns">
    <!-- Generator: Sketch 3.4.2 (15855) - http://www.bohemiancoding.com/sketch -->
    <title>tripmoment</title>
    <desc>Created with Sketch.</desc>
    <defs>
        <path id="path-1" d="M0,1.10306977 L87.0156279,1.10306977 L87.0156279,32.744186 L0,32.744186 L0,1.10306977 Z"></path>
        <path id="path-3" d="M0,1.10306977 L87.0156279,1.10306977 L87.0156279,32.744186 L0,32.744186 L0,1.10306977 Z"></path>
    </defs>
    <g id="Page-1" stroke="none" stroke-width="1" fill="none" fill-rule="evenodd" sketch:type="MSPage">
        <g id="tripmoment" sketch:type="MSArtboardGroup">
            <g id="Page-1" sketch:type="MSLayerGroup" transform="translate(4.000000, 31.627907)">
                <path d="M80.3255814,9.44506047 L84.0052093,4.40859535 C84.4677209,3.77417674 84.3265116,3.62887442 83.6941395,4.09752558 L78.6535814,7.77510698" id="Fill-1" fill="#FEFEFE" sketch:type="MSShapeGroup"></path>
                <path d="M78.6548093,7.77019535 L74.9772279,12.8107535 C74.5147163,13.4451721 74.6538791,13.5863814 75.2903442,13.1218233 L80.3268093,9.44424186" id="Fill-3" fill="#407E9C" sketch:type="MSShapeGroup"></path>
                <path d="M79.4762791,7.99408372 C79.824186,7.99408372 80.1066047,8.27854884 80.1066047,8.62645581 C80.1066047,8.97436279 79.824186,9.25268837 79.4762791,9.25268837 C79.1283721,9.25268837 78.8459535,8.97436279 78.8459535,8.62645581 C78.8459535,8.27854884 79.1283721,7.99408372 79.4762791,7.99408372" id="Fill-5" fill="#221F20" sketch:type="MSShapeGroup"></path>
                <g id="Group-9">
                    <mask id="mask-2" sketch:name="Clip 8" fill="white">
                        <use xlink:href="#path-1"></use>
                    </mask>
                    <g id="Clip-8"></g>
                    <path d="M74.7375814,1.10306977 L85.1686512,1.10306977 C86.187814,1.10306977 87.0166512,1.92986047 87.0166512,2.94902326 L87.0166512,13.5970233 L85.6843721,13.5970233 L85.6843721,2.94902326 C85.6843721,2.66660465 85.4510698,2.43739535 85.1686512,2.43739535 L74.7355349,2.43739535 L74.7355349,1.10306977 L74.7375814,1.10306977 Z" id="Fill-7" fill="#407E9C" sketch:type="MSShapeGroup" mask="url(#mask-2)"></path>
                </g>
                <path d="M63.6516279,4.58868837 L63.6516279,5.43185116 L66.2793488,5.43185116 L66.2793488,10.1163163 L67.0733953,10.1163163 L67.0733953,5.43185116 L69.7011163,5.43185116 L69.7011163,4.58868837 L63.6516279,4.58868837 Z M61.8363721,9.15650233 L57.9213953,4.58868837 L56.975907,4.58868837 L56.975907,10.1163163 L57.767907,10.1163163 L57.767907,5.51575814 L61.6828837,10.1163163 L62.6283721,10.1163163 L62.6283721,4.58868837 L61.8363721,4.58868837 L61.8363721,9.15650233 Z M50.3022326,10.1163163 L55.9424186,10.1163163 L55.9424186,9.26906047 L51.092186,9.26906047 L51.092186,7.77510698 L55.6374884,7.77510698 L55.6374884,6.92785116 L51.092186,6.92785116 L51.092186,5.43185116 L55.9526512,5.43185116 L55.9526512,4.58459535 L50.3022326,4.58459535 L50.3022326,10.1163163 Z M45.7794419,8.3419907 L43.2724651,4.58868837 L42.2778605,4.58868837 L42.2778605,10.1163163 L43.0698605,10.1163163 L43.0698605,5.74292093 L45.7794419,9.79706047 L48.4890233,5.74701395 L48.4890233,10.1163163 L49.2810233,10.1163163 L49.2810233,4.58868837 L48.2966512,4.58868837 L45.7794419,8.3419907 Z M40.4646512,8.46887442 C40.4646512,8.97026977 40.1576744,9.26906047 39.6378605,9.26906047 L36.216093,9.26906047 C35.6983256,9.26906047 35.3893023,8.97026977 35.3893023,8.46887442 L35.3893023,6.23203721 C35.3893023,5.73268837 35.6983256,5.43185116 36.216093,5.43185116 L39.6378605,5.43185116 C40.1576744,5.43185116 40.4646512,5.73268837 40.4646512,6.23203721 L40.4646512,8.46887442 Z M39.6378605,4.58868837 L36.216093,4.58868837 C35.7576744,4.58868837 35.3831628,4.74013023 35.063907,5.05733953 C34.7487442,5.3684093 34.5952558,5.7552 34.5952558,6.23203721 L34.5952558,8.47296744 C34.5952558,8.94980465 34.7487442,9.33250233 35.063907,9.6456186 C35.3831628,9.9607814 35.7576744,10.1163163 36.216093,10.1163163 L39.6378605,10.1163163 C40.0942326,10.1163163 40.4728372,9.9607814 40.788,9.6456186 C41.1052093,9.33250233 41.2586977,8.94980465 41.2586977,8.47296744 L41.2586977,6.23203721 C41.2586977,5.7552 41.1052093,5.37250233 40.788,5.05733953 C40.4728372,4.74013023 40.0942326,4.58868837 39.6378605,4.58868837 L39.6378605,4.58868837 Z M30.0724651,8.3419907 L27.5654884,4.58868837 L26.5708837,4.58868837 L26.5708837,10.1163163 L27.3649302,10.1163163 L27.3649302,5.74292093 L30.0745116,9.79706047 L32.7820465,5.74701395 L32.7820465,10.1163163 L33.5740465,10.1163163 L33.5740465,4.58868837 L32.5896744,4.58868837 L30.0724651,8.3419907 Z M22.7254884,7.28189767 L18.1597209,7.28189767 L18.1597209,5.43185116 L22.7254884,5.43185116 C22.9424186,5.43185116 23.3046512,5.55668837 23.3046512,6.36301395 C23.3046512,7.1632 22.9424186,7.28189767 22.7254884,7.28189767 L22.7254884,7.28189767 Z M22.7254884,4.58868837 L17.3677209,4.58868837 L17.3677209,10.1163163 L18.1597209,10.1163163 L18.1597209,8.12915349 L22.7254884,8.12915349 C23.1388837,8.12915349 23.4642791,7.9552 23.720093,7.59501395 C23.9738605,7.25529302 24.0966512,6.85008372 24.0966512,6.36301395 C24.0966512,5.87594419 23.9738605,5.4727814 23.720093,5.12487442 C23.4642791,4.76059535 23.1388837,4.58868837 22.7254884,4.58868837 L22.7254884,4.58868837 Z M15.5524651,10.1163163 L16.3465116,10.1163163 L16.3465116,4.58868837 L15.5524651,4.58868837 L15.5524651,10.1163163 Z M13.1621395,4.58868837 L7.79004651,4.58868837 L7.79004651,10.1163163 L8.58204651,10.1163163 L8.58204651,5.43185116 L13.0823256,5.43185116 C13.2808372,5.43185116 13.7392558,5.51985116 13.7392558,6.35073488 C13.7392558,7.18366512 13.2808372,7.27371163 13.0823256,7.27371163 L10.2049302,7.27371163 L12.623907,10.1163163 L13.7269767,10.1163163 L12.0140465,8.11892093 L13.1621395,8.11892093 C13.5898605,8.11892093 13.9173023,7.95110698 14.1649302,7.59910698 C14.4125581,7.25529302 14.5312558,6.84803721 14.5312558,6.35073488 C14.5312558,5.85547907 14.4125581,5.45231628 14.1669767,5.10850233 C13.9173023,4.75650233 13.5898605,4.58868837 13.1621395,4.58868837 L13.1621395,4.58868837 Z M0.799162791,5.43185116 L3.42893023,5.43185116 L3.42893023,10.1163163 L4.22093023,10.1163163 L4.22093023,5.43185116 L6.84865116,5.43185116 L6.84865116,4.58868837 L0.799162791,4.58868837 L0.799162791,5.43185116 Z" id="Fill-10" fill="#FEFEFE" sketch:type="MSShapeGroup"></path>
                <g id="Group-14">
                    <mask id="mask-4" sketch:name="Clip 13" fill="white">
                        <use xlink:href="#path-3"></use>
                    </mask>
                    <g id="Clip-13"></g>
                    <path d="M79.306214,24.310307 L77.7201674,23.3709581 C76.8156093,24.7544 75.0494698,26.8807256 73.426586,28.2866791 L73.5186791,28.4401674 C74.2247256,28.0554233 74.9287256,27.5990512 75.5979349,27.1201674 L74.566493,32.7317023 L74.8284465,32.7317023 C75.3728186,32.7317023 76.0051907,32.4636093 76.0481674,32.3653767 L77.1757953,26.2483535 L77.2371907,25.8410977 C77.814307,25.362214 78.3259349,24.8771907 78.7495628,24.4617488 C79.0729116,24.498586 79.2018419,24.4371907 79.306214,24.310307 L79.306214,24.310307 Z M84.2649116,25.4727256 L78.6288186,25.4727256 L78.6472372,25.7285395 L82.5233302,25.7285395 L81.5655628,30.9328186 C81.5430512,31.0576558 81.4652837,31.1210977 81.2790512,31.1210977 L79.3082605,31.1210977 L79.2796093,31.2725395 C80.3683535,31.4014698 80.8861209,31.5938419 80.6773767,32.7317023 C82.4230512,32.5925395 82.830307,31.8967256 83.006307,30.9450977 L83.9640744,25.7285395 L85.7772837,25.7285395 C86.1497488,25.7285395 86.3318884,25.6650977 86.4690047,25.5013767 L85.214493,24.486307 L84.2649116,25.4727256 Z M78.7147721,21.9158884 C78.7925395,21.9281674 78.8559814,21.9404465 78.9235163,21.9404465 C79.0810977,21.9404465 79.1711442,21.8810977 79.2550512,21.7890047 L77.7795163,20.8128186 C77.0079814,21.8401674 75.4997023,23.3586791 74.1510512,24.3471442 L74.2288186,24.5149581 C75.9028651,23.8273302 77.634214,22.7631442 78.7147721,21.9158884 L78.7147721,21.9158884 Z M85.7793302,22.2085395 C86.1497488,22.2085395 86.3339349,22.1430512 86.4690047,21.9793302 L85.2451907,21.0051907 L84.3160744,21.9568186 L79.8710512,21.9568186 L79.8915163,22.2085395 L85.7793302,22.2085395 Z M60.222493,23.1069581 L57.6827721,23.1069581 C58.0593302,22.6403535 58.4174698,22.1328186 58.7428651,21.5884465 C59.0866791,21.5884465 59.2217488,21.5004465 59.3036093,21.3449116 L57.4719814,20.8005395 C56.7966326,22.5994233 55.7774698,24.398307 54.8626791,25.4133767 L55.0161674,25.5136558 C55.8941209,24.9938419 56.7168186,24.2591442 57.4760744,23.3586791 L61.6980279,23.3586791 C62.0541209,23.3586791 62.250586,23.2952372 62.3836093,23.1437953 L61.1720744,22.1205395 L60.222493,23.1069581 Z M52.1735628,25.7940279 C52.3597953,25.1330047 52.6626791,23.8539349 52.6626791,23.8539349 L53.2295628,23.6513302 L55.4766326,23.6513302 C55.822493,23.6513302 56.0046326,23.5858419 56.1417488,23.4221209 L54.9506791,22.4234233 L54.0174698,23.3996093 L53.5140279,23.3996093 L53.9028651,21.2835163 C54.2691907,21.2446326 54.3899349,21.1566326 54.4472372,20.9929116 L52.5726326,20.8291907 L52.0978419,23.3996093 L49.9019349,23.3996093 L49.9224,23.6513302 L51.2710512,23.6513302 C50.7839814,26.7292837 49.7648186,30.3864 48.1276093,32.5290977 L48.258586,32.6805395 C50.1618419,31.1088186 51.3447256,28.5629581 52.0998884,26.0457488 L52.1735628,25.7940279 Z M51.8256558,31.1968186 C51.7151442,31.3011907 51.6210047,31.3134698 51.4204465,31.3134698 C51.1421209,31.3134698 50.5117953,31.3011907 50.1557023,31.2848186 L50.1209116,31.4771907 C51.0889116,31.6797953 51.1646326,31.9212837 51.0234233,32.6805395 C51.778586,32.6805395 52.1878884,32.5393302 52.658586,32.2118884 C53.3318884,31.7166326 53.8230512,29.8788651 54.6109581,26.0416558 L53.2909581,26.0457488 C52.6074233,29.322214 52.2124465,30.8939349 51.8256558,31.1968186 L51.8256558,31.1968186 Z M58.7080744,28.1720744 L58.0797953,28.1843535 C58.0797953,30.2267721 58.4706791,31.6777488 59.5389581,32.7030512 C59.8541209,31.9970047 60.3616558,31.5406326 60.8876093,31.4137488 L60.9387721,31.2725395 C59.8991442,30.7527256 59.1951442,29.766307 58.7940279,28.4995163 C59.6904,28.1475163 60.6829581,27.6399814 61.2027721,27.3370977 C61.2907721,27.3596093 61.3562605,27.3718884 61.4074233,27.3718884 C61.5138419,27.3718884 61.5854698,27.3370977 61.6509581,27.2716093 L60.3882605,26.2974698 C60.0403535,26.7517953 59.3363535,27.5519814 58.7080744,28.1720744 L58.7080744,28.1720744 Z M58.4215628,26.0580279 C59.3015628,25.7408186 60.1058419,25.3847256 60.7075163,25.0695628 C60.7934698,25.110493 60.8691907,25.1207256 60.9490047,25.1207256 C61.0410977,25.1207256 61.1127256,25.0941209 61.1638884,25.0286326 L59.8868651,23.9951442 C58.7449116,24.9426791 56.5797023,26.2217488 54.8626791,26.9155163 L54.9261209,27.0833302 C55.2576558,27.0076093 55.6014698,26.9318884 55.9657488,26.8275163 L54.8831442,32.6928186 L55.122586,32.6928186 C55.7836093,32.6928186 56.254307,32.4410977 56.2645395,32.3756093 L57.3614698,26.4243535 C57.6418419,26.3363535 57.9119814,26.2360744 58.1821209,26.1439814 L58.4215628,26.0580279 Z M34.5408186,31.0085395 C34.5060279,31.1845395 34.426214,31.2602605 34.2297488,31.2602605 L32.4308651,31.2602605 L32.3960744,31.4403535 C33.4316093,31.5651907 33.8879814,31.7575628 33.7058419,32.7439814 C35.3614698,32.5802605 35.7237023,31.9090047 35.8874233,31.0208186 L37.6453767,21.4840744 C38.1181209,21.4247256 38.2040744,21.3203535 38.2613767,21.1443535 L36.3847256,20.9929116 L34.5408186,31.0085395 Z M23.7741209,32.5638884 L23.8232372,32.7439814 C25.7244465,32.1852837 27.4005395,31.2725395 28.7553302,30.2370047 L29.0970977,29.9586791 C29.8420279,29.3631442 30.4764465,28.7266791 30.9860279,28.106586 C31.2970977,28.1475163 31.4260279,28.0840744 31.5447256,27.9428651 L29.9934698,27.1713302 C28.7860279,29.1339349 26.4959814,31.3011907 23.7741209,32.5638884 L23.7741209,32.5638884 Z M34.4917023,22.8797953 C34.8948651,22.8388651 35.0176558,22.738586 35.0647256,22.562586 L33.2392372,22.4111442 L31.886493,29.7540279 C32.9977488,29.7540279 33.286307,29.414307 33.2904,29.3979349 L34.4917023,22.8797953 Z M30.8059349,25.5013767 C31.1149581,25.538214 31.258214,25.4727256 31.3482605,25.3499349 L29.8727256,24.5374698 C28.7369116,26.2483535 26.610586,28.3746791 24.3041674,29.690586 L24.3798884,29.854307 C27.0792372,28.8433302 29.4081674,27.0444465 30.8059349,25.5013767 L30.8059349,25.5013767 Z M26.6412837,27.4230512 C27.0096558,27.4230512 27.390307,27.0956093 27.4639814,26.6883535 C27.5233302,26.3609116 27.398493,25.9700279 26.9134698,25.6528186 C27.6338419,25.198493 28.4094698,24.574307 29.070493,23.9296558 C29.3979349,23.9419349 29.5575628,23.866214 29.6517023,23.7147721 L28.442214,23.2461209 L32.1730047,23.2461209 C32.5311442,23.2461209 32.7132837,23.1826791 32.8360744,23.0189581 L31.6347721,22.0038884 L30.6851907,22.990307 L29.7212837,22.990307 L30.0344,21.2835163 C30.4130047,21.2323535 30.5603535,21.1566326 30.6053767,20.9806326 L28.7348651,20.8005395 L28.3317023,22.990307 L25.4850047,22.990307 L25.5054698,23.2461209 L27.8077953,23.2461209 C27.4210047,24.042214 26.9666791,24.8649116 26.5635163,25.4727256 C26.2340279,25.3212837 25.7940279,25.2087256 25.2230512,25.1330047 L25.114586,25.2332837 C25.6650977,25.6896558 26.1214698,26.5123535 26.1501209,27.2081674 C26.2954233,27.3596093 26.4693767,27.4230512 26.6412837,27.4230512 L26.6412837,27.4230512 Z M6.18026047,23.0680744 L8.53579535,23.0680744 L8.13877209,25.2210047 L5.24295814,25.2210047 L5.26137674,25.4604465 L9.48946977,25.4604465 L9.95607442,22.8163535 L10.2323535,21.3203535 C10.6518884,21.2691907 10.7992372,21.1811907 10.8626791,20.9929116 L8.95123721,20.8128186 L8.5808186,22.8163535 L6.16184186,22.8163535 L6.18026047,23.0680744 Z M10.3797023,22.8163535 L10.3408186,23.0680744 L12.2277023,23.0680744 C12.5817488,23.0680744 12.7638884,23.0189581 12.9010047,22.8511442 L11.7181209,21.8810977 L10.8176558,22.8163535 L10.3797023,22.8163535 Z M7.45114419,29.8174698 C7.55142326,29.2628651 7.16872558,28.5506791 5.68295814,28.0554233 L5.56630698,28.1352372 C5.88556279,28.6918884 6.03086512,29.6148651 5.88556279,30.3372837 C6.0288186,30.566493 6.24984186,30.6647256 6.46063256,30.6647256 C6.89653953,30.6647256 7.36314419,30.2984 7.45114419,29.8174698 L7.45114419,29.8174698 Z M3.74695814,25.5013767 L2.3328186,25.5013767 L2.90379535,22.3947721 L4.31793488,22.3947721 L3.74695814,25.5013767 Z M3.11458605,28.9436093 L1.69635349,28.9436093 L2.28574884,25.7530977 L3.70193488,25.7530977 L3.11458605,28.9436093 Z M6.18435349,22.470493 L4.91346977,21.4595163 L4.22993488,22.1553302 L3.10844651,22.1553302 L1.72705116,21.6007256 L-0.000204651163,30.9819349 L0.222865116,30.9819349 C0.898213953,30.9819349 1.37914419,30.6770047 1.39551628,30.5890047 L1.65133023,29.1994233 L3.06546977,29.1994233 L4.4079814,29.2076093 C4.7251907,27.4967256 5.58063256,22.738586 5.58063256,22.738586 C5.85486512,22.6751442 6.07384186,22.5748651 6.18435349,22.470493 L6.18435349,22.470493 Z M10.9220279,27.4230512 L4.8479814,27.4230512 L4.87049302,27.6645395 L9.23570233,27.6645395 L8.61970233,31.0085395 C8.59105116,31.1620279 8.51328372,31.2254698 8.32909767,31.2254698 L6.54249302,31.2254698 L6.51179535,31.4014698 C7.68035349,31.5140279 7.95663256,31.8210047 7.79086512,32.7153302 C9.48128372,32.5802605 9.81691163,31.9090047 9.98472558,30.998307 L10.5986791,27.6645395 L12.1478884,27.6645395 C12.5019349,27.6645395 12.6697488,27.6154233 12.8089116,27.4517023 L11.7529116,26.5000744 L10.9220279,27.4230512 Z M10.9690977,25.2210047 L10.0440744,25.2210047 L9.99700465,25.4604465 L12.4732837,25.4604465 C12.8314233,25.4604465 13.0115163,25.4133767 13.1486326,25.2455628 L11.9207256,24.222307 L10.9690977,25.2210047 Z M42.3564465,27.3370977 L43.7337488,27.3370977 L43.7337488,26.0498419 L42.3564465,26.0498419 L42.3564465,27.3370977 Z M18.0254698,27.3370977 L19.4518884,27.3370977 L19.4518884,26.0498419 L18.0254698,26.0498419 L18.0254698,27.3370977 Z M67.0885395,27.3370977 L68.4658419,27.3370977 L68.4658419,26.0498419 L67.0885395,26.0498419 L67.0885395,27.3370977 Z" id="Fill-12" fill="#FEFEFE" sketch:type="MSShapeGroup" mask="url(#mask-4)"></path>
                </g>
            </g>
        </g>
    </g>
</svg>