<?xml version="1.0" encoding="UTF-8" standalone="no"?>
<svg width="96px" height="96px" viewBox="0 0 96 96" version="1.1" xmlns="http://www.w3.org/2000/svg" xmlns:xlink="http://www.w3.org/1999/xlink" xmlns:sketch="http://www.bohemiancoding.com/sketch/ns">
    <!-- Generator: Sketch 3.4.2 (15855) - http://www.bohemiancoding.com/sketch -->
    <title>unfold</title>
    <desc>Created with Sketch.</desc>
    <defs>
        <path id="path-1" d="M0,2.09513514 L79.6756757,2.09513514 L79.6756757,21.6216216 L0,21.6216216 L0,2.09513514 Z"></path>
        <path id="path-3" d="M0,2.09513514 L79.6756757,2.09513514 L79.6756757,21.6216216 L0,21.6216216 L0,2.09513514 Z"></path>
    </defs>
    <g id="Page-1" stroke="none" stroke-width="1" fill="none" fill-rule="evenodd" sketch:type="MSPage">
        <g id="unfold" sketch:type="MSArtboardGroup">
            <g id="Page-1" sketch:type="MSLayerGroup" transform="translate(8.000000, 37.189189)">
                <g id="Group-3">
                    <mask id="mask-2" sketch:name="Clip 2" fill="white">
                        <use xlink:href="#path-1"></use>
                    </mask>
                    <g id="Clip-2"></g>
                    <path d="M11.8843243,15.9459459 C11.8843243,19.9113514 9.08648649,21.6216216 5.94918919,21.6216216 C2.79891892,21.6216216 -0.00108108108,19.9113514 -0.00108108108,15.9459459 L-0.00108108108,8.95567568 L3.3827027,8.95567568 L3.3827027,15.6475676 C3.3827027,17.6583784 4.48324324,18.4735135 5.94918919,18.4735135 C7.4,18.4735135 8.51567568,17.6583784 8.51567568,15.6475676 L8.51567568,8.95567568 L11.8843243,8.95567568 L11.8843243,15.9459459 Z" id="Fill-1" fill="#FEFEFE" sketch:type="MSShapeGroup" mask="url(#mask-2)"></path>
                </g>
                <path d="M40.9427027,11.5286486 L37.04,11.5286486 L37.04,21.0832432 L33.6583784,21.0832432 L33.6583784,11.5286486 L31.3124324,11.5286486 L31.3124324,8.51891892 L33.6583784,8.51891892 L33.6583784,6.96864865 C33.6583784,4.02378378 35.2259459,2.09513514 38.1556757,2.09513514 C39.8659459,2.09513514 41.0594595,2.58594595 42.0172973,3.22162162 L40.6702703,5.85081081 C40.0475676,5.51783784 39.3102703,5.24324324 38.5167568,5.24324324 C37.5459459,5.24324324 37.04,5.83783784 37.04,7.00540541 L37.04,8.51891892 L40.9427027,8.51891892 L40.9427027,11.5286486 Z" id="Fill-4" fill="#FEFEFE" sketch:type="MSShapeGroup"></path>
                <path d="M46.6162162,14.7952432 C46.6162162,16.8298378 48.0410811,18.259027 49.9459459,18.259027 C51.8508108,18.259027 53.2908108,16.8298378 53.2908108,14.7952432 C53.2908108,12.7606486 51.8508108,11.3357838 49.9459459,11.3357838 C48.0410811,11.3357838 46.6162162,12.7606486 46.6162162,14.7952432 M56.7524324,14.7952432 C56.7524324,18.5811892 53.8616216,21.4071351 49.9459459,21.4071351 C46.0454054,21.4071351 43.1675676,18.5811892 43.1675676,14.7952432 C43.1675676,11.0114595 46.0454054,8.18551351 49.9459459,8.18551351 C53.8616216,8.18551351 56.7524324,11.0114595 56.7524324,14.7952432" id="Fill-6" fill="#FEFEFE" sketch:type="MSShapeGroup"></path>
                <mask id="mask-4" sketch:name="Clip 9" fill="white">
                    <use xlink:href="#path-3"></use>
                </mask>
                <g id="Clip-9"></g>
                <path d="M63.3297297,21.0832432 L59.9459459,21.0832432 L59.9459459,2.4172973 L63.3297297,2.4172973 L63.3297297,21.0832432 Z" id="Fill-8" fill="#FEFEFE" sketch:type="MSShapeGroup" mask="url(#mask-4)"></path>
                <path d="M69.9945946,14.7952432 C69.9945946,16.7152432 71.252973,18.259027 73.2356757,18.259027 C75.1664865,18.259027 76.4767568,16.7801081 76.4767568,14.7952432 C76.4767568,12.8125405 75.1664865,11.3357838 73.2356757,11.3357838 C71.252973,11.3357838 69.9945946,12.8774054 69.9945946,14.7952432 M76.3059459,9.83091892 L76.3059459,2.41686486 L79.6767568,2.41686486 L79.6767568,21.0828108 L76.3708108,21.0828108 L76.3708108,19.6968649 C75.5535135,20.7044324 74.3362162,21.4071351 72.612973,21.4071351 C69.1535135,21.4071351 66.532973,18.5660541 66.532973,14.7952432 C66.532973,11.0244324 69.1535135,8.18551351 72.612973,8.18551351 C74.2972973,8.18551351 75.4908108,8.84713514 76.3059459,9.83091892" id="Fill-10" fill="#FEFEFE" sketch:type="MSShapeGroup" mask="url(#mask-4)"></path>
                <path d="M28.0763243,21.0704865 L24.7055135,21.0704865 L24.7055135,14.1623784 C24.7055135,12.1515676 23.5941622,11.3364324 22.1411892,11.3364324 C20.6774054,11.3364324 19.5747027,12.1515676 19.5747027,14.1623784 L19.5747027,21.0704865 L16.1909189,21.0704865 L16.1909189,13.8618378 C16.1909189,9.89643243 18.9909189,8.18616216 22.1411892,8.18616216 C25.2763243,8.18616216 28.0763243,9.89643243 28.0763243,13.8618378 L28.0763243,21.0704865 Z" id="Fill-11" fill="#FEFEFE" sketch:type="MSShapeGroup" mask="url(#mask-4)"></path>
            </g>
        </g>
    </g>
</svg>