<?xml version="1.0" encoding="UTF-8" standalone="no"?>
<svg width="96px" height="96px" viewBox="0 0 96 96" version="1.1" xmlns="http://www.w3.org/2000/svg" xmlns:xlink="http://www.w3.org/1999/xlink" xmlns:sketch="http://www.bohemiancoding.com/sketch/ns">
    <!-- Generator: Sketch 3.4.2 (15855) - http://www.bohemiancoding.com/sketch -->
    <title>whitelightstudio</title>
    <desc>Created with Sketch.</desc>
    <defs>
        <path id="path-1" d="M0,2.06841379 L48.7346207,2.06841379 L48.7346207,92 L0,92"></path>
        <path id="path-3" d="M0,2.06841379 L48.7346207,2.06841379 L48.7346207,92 L0,92 L0,2.06841379 Z"></path>
        <path id="path-5" d="M0,2.06841379 L48.7346207,2.06841379 L48.7346207,92 L0,92 L0,2.06841379 Z"></path>
        <path id="path-7" d="M0,2.06841379 L48.7346207,2.06841379 L48.7346207,92 L0,92"></path>
        <path id="path-9" d="M0,2.06841379 L48.7346207,2.06841379 L48.7346207,92 L0,92 L0,2.06841379 Z"></path>
    </defs>
    <g id="Page-1" stroke="none" stroke-width="1" fill="none" fill-rule="evenodd" sketch:type="MSPage">
        <g id="whitelightstudio" sketch:type="MSArtboardGroup">
            <g id="Page-1" sketch:type="MSLayerGroup" transform="translate(22.620690, 2.500000)">
                <path d="M12.8755586,60.8767172 C12.6852138,60.8767172 12.4980414,60.7720276 12.4092138,60.5912 C12.2791448,60.3310621 12.3838345,60.0169931 12.6408,59.8869241 L35.6122483,48.4027862 C35.8692138,48.2727172 36.1864552,48.3805793 36.3165241,48.6407172 C36.4434207,48.8945103 36.338731,49.2085793 36.0817655,49.3386483 L13.1071448,60.8259586 C13.0341793,60.8640276 12.9516966,60.8767172 12.8755586,60.8767172" id="Fill-1" fill="#BBBDBF" sketch:type="MSShapeGroup"></path>
                <path d="M12.8755586,49.6679448 C12.6852138,49.6679448 12.4980414,49.5632552 12.4092138,49.3824276 C12.2791448,49.1222897 12.3838345,48.8082207 12.6408,48.6781517 L35.6122483,37.1940138 C35.8692138,37.0639448 36.1864552,37.1718069 36.3165241,37.4256 C36.4434207,37.6857379 36.338731,37.9998069 36.0817655,38.1298759 L13.1071448,49.6108414 C13.0341793,49.6489103 12.9516966,49.6679448 12.8755586,49.6679448" id="Fill-3" fill="#BBBDBF" sketch:type="MSShapeGroup"></path>
                <path d="M12.8755586,37.7158759 C12.6852138,37.7158759 12.4980414,37.6111862 12.4092138,37.4240138 C12.2791448,37.1638759 12.3838345,36.8561517 12.6408,36.7260828 L35.6122483,25.2356 C35.8692138,25.105531 36.1864552,25.2133931 36.3165241,25.473531 C36.4434207,25.733669 36.338731,26.0413931 36.0817655,26.1714621 L13.1071448,37.6587724 C13.0341793,37.6968414 12.9516966,37.7158759 12.8755586,37.7158759" id="Fill-5" fill="#BBBDBF" sketch:type="MSShapeGroup"></path>
                <path d="M12.8755586,14.6042069 C12.6852138,14.6042069 12.4980414,14.4995172 12.4092138,14.3123448 C12.2791448,14.0585517 12.3838345,13.7444828 12.6408,13.6144138 L35.6122483,2.12393103 C35.8692138,1.99386207 36.1864552,2.10172414 36.3165241,2.36186207 C36.4434207,2.622 36.338731,2.93606897 36.0817655,3.0597931 L13.1071448,14.5471034 C13.0341793,14.5851724 12.9516966,14.6042069 12.8755586,14.6042069" id="Fill-7" fill="#BBBDBF" sketch:type="MSShapeGroup"></path>
                <g id="Group-11">
                    <mask id="mask-2" sketch:name="Clip 10" fill="white">
                        <use xlink:href="#path-1"></use>
                    </mask>
                    <g id="Clip-10"></g>
                    <path d="M48.2121241,43.5772276 C47.9234345,43.5772276 47.6886759,43.342469 47.6886759,43.0569517 L47.6886759,20.2060552 C47.6886759,19.9141931 47.9234345,19.6794345 48.2121241,19.6794345 C48.5008138,19.6794345 48.7355724,19.9141931 48.7355724,20.2060552 L48.7355724,43.0569517 C48.7355724,43.342469 48.5008138,43.5772276 48.2121241,43.5772276" id="Fill-9" fill="#BBBDBF" sketch:type="MSShapeGroup" mask="url(#mask-2)"></path>
                </g>
                <path d="M0.523765517,67.4137931 C0.235075862,67.4137931 0.000317241379,67.1790345 0.000317241379,66.8871724 L0.000317241379,44.0362759 C0.000317241379,43.7507586 0.235075862,43.516 0.523765517,43.516 C0.812455172,43.516 1.04721379,43.7507586 1.04721379,44.0362759 L1.04721379,66.8871724 C1.04721379,67.1790345 0.812455172,67.4137931 0.523765517,67.4137931" id="Fill-12" fill="#BBBDBF" sketch:type="MSShapeGroup"></path>
                <path d="M4.77733793,86.1757655 C4.76782069,86.2074897 4.75830345,86.2392138 4.74561379,86.2550759 C4.73292414,86.2804552 4.71706207,86.3058345 4.7012,86.324869 C4.68216552,86.3439034 4.65995862,86.3565931 4.63775172,86.3629379 C4.61554483,86.3692828 4.59016552,86.3724552 4.56795862,86.3724552 C4.54892414,86.3724552 4.52671724,86.3692828 4.50133793,86.3629379 C4.47913103,86.3565931 4.45692414,86.3439034 4.43788966,86.324869 C4.4252,86.3058345 4.40933793,86.2868 4.39664828,86.2614207 C4.38395862,86.2392138 4.37126897,86.2074897 4.36492414,86.1757655 L3.67333793,83.4189379 C3.66382069,83.380869 3.65747586,83.3491448 3.65430345,83.3332828 C3.65430345,83.3142483 3.65747586,83.288869 3.66382069,83.2698345 C3.67651034,83.2381103 3.69554483,83.2063862 3.72726897,83.1905241 C3.75582069,83.1714897 3.78754483,83.1651448 3.81609655,83.1651448 C3.83830345,83.1651448 3.86051034,83.1651448 3.87637241,83.1714897 C3.89223448,83.1778345 3.90809655,83.1841793 3.91761379,83.196869 C3.93347586,83.212731 3.94616552,83.2317655 3.95568276,83.2508 C3.9652,83.2761793 3.97471724,83.3079034 3.9874069,83.3428 L4.58382069,85.7474897 L5.24368276,83.3428 C5.25002759,83.3142483 5.25954483,83.288869 5.26588966,83.2634897 C5.2754069,83.2381103 5.28809655,83.2254207 5.30395862,83.2063862 C5.3229931,83.196869 5.3452,83.1841793 5.36106207,83.1778345 C5.38009655,83.1714897 5.40230345,83.1651448 5.43085517,83.1651448 C5.48161379,83.1651448 5.51968276,83.1841793 5.55457931,83.2063862 C5.57044138,83.2254207 5.58313103,83.2381103 5.59264828,83.2634897 C5.60216552,83.288869 5.61168276,83.3142483 5.6212,83.3428 L6.27788966,85.7474897 L6.87430345,83.3428 C6.88382069,83.3079034 6.89333793,83.2761793 6.90285517,83.2508 C6.91237241,83.2317655 6.92823448,83.212731 6.94409655,83.196869 C6.95361379,83.1841793 6.96947586,83.1778345 6.98533793,83.1714897 C7.00437241,83.1651448 7.0234069,83.1651448 7.04561379,83.1651448 C7.07733793,83.1651448 7.10588966,83.1714897 7.13444138,83.1905241 C7.16616552,83.2063862 7.1852,83.2381103 7.19788966,83.2698345 C7.20423448,83.288869 7.2074069,83.3142483 7.2074069,83.3332828 C7.20423448,83.3491448 7.19788966,83.380869 7.18837241,83.4189379 L6.49678621,86.1757655 C6.48092414,86.2392138 6.45554483,86.2868 6.42064828,86.324869 C6.40161379,86.3439034 6.38257931,86.3565931 6.3572,86.3629379 C6.3349931,86.3692828 6.31278621,86.3724552 6.29057931,86.3724552 C6.26837241,86.3724552 6.24616552,86.3692828 6.22395862,86.3629379 C6.19857931,86.3565931 6.17954483,86.3439034 6.16051034,86.324869 C6.14464828,86.3058345 6.12878621,86.2804552 6.11609655,86.2550759 C6.10657931,86.2392138 6.09388966,86.2074897 6.08754483,86.1757655 L5.43085517,83.7837655 L4.77733793,86.1757655 Z" id="Fill-14" fill="#BBBDBF" sketch:type="MSShapeGroup"></path>
                <path d="M11.7756828,86.138331 C11.7756828,86.1890897 11.7725103,86.2176414 11.7693379,86.2366759 C11.7661655,86.2557103 11.7566483,86.2747448 11.7439586,86.3001241 C11.731269,86.3255034 11.7122345,86.3413655 11.6868552,86.3540552 C11.6614759,86.3667448 11.6329241,86.3730897 11.6012,86.3730897 C11.5377517,86.3730897 11.4901655,86.3477103 11.4616138,86.3001241 C11.4457517,86.2747448 11.4425793,86.2557103 11.4362345,86.2366759 C11.4330621,86.2176414 11.4330621,86.1890897 11.4330621,86.138331 L11.4330621,84.9042621 L9.93251034,84.9042621 L9.93251034,86.138331 C9.93251034,86.1890897 9.93251034,86.2176414 9.92933793,86.2366759 C9.9229931,86.2557103 9.91347586,86.2747448 9.90078621,86.3001241 C9.87223448,86.3477103 9.82782069,86.3730897 9.7612,86.3730897 C9.69775172,86.3730897 9.6469931,86.3477103 9.61844138,86.3001241 C9.60575172,86.2747448 9.5994069,86.2557103 9.59623448,86.2366759 C9.59306207,86.2176414 9.58988966,86.1890897 9.58988966,86.138331 L9.58988966,83.3941931 C9.58988966,83.3497793 9.59306207,83.3180552 9.59623448,83.2958483 C9.5994069,83.2768138 9.60575172,83.2577793 9.61844138,83.2324 C9.6469931,83.1879862 9.69775172,83.1657793 9.7612,83.1657793 C9.82782069,83.1657793 9.86906207,83.1879862 9.90078621,83.2324 C9.91347586,83.2577793 9.9229931,83.2768138 9.92933793,83.2958483 C9.93251034,83.3180552 9.93251034,83.3497793 9.93251034,83.3941931 L9.93251034,84.6028828 L11.4330621,84.6028828 L11.4330621,83.3941931 C11.4330621,83.3497793 11.4330621,83.3180552 11.4362345,83.2958483 C11.4425793,83.2768138 11.4457517,83.2577793 11.4616138,83.2324 C11.4901655,83.1879862 11.5377517,83.1657793 11.6012,83.1657793 C11.6329241,83.1657793 11.6614759,83.1689517 11.6868552,83.1816414 C11.7122345,83.194331 11.731269,83.2070207 11.7439586,83.2324 C11.7566483,83.2577793 11.7661655,83.2768138 11.7693379,83.2958483 C11.7725103,83.3180552 11.7756828,83.3497793 11.7756828,83.3941931 L11.7756828,86.138331 Z" id="Fill-16" fill="#BBBDBF" sketch:type="MSShapeGroup"></path>
                <path d="M14.8180276,86.138331 C14.8180276,86.1890897 14.8148552,86.2176414 14.8116828,86.2366759 C14.8085103,86.2557103 14.7989931,86.2747448 14.7863034,86.3001241 C14.7609241,86.3477103 14.7133379,86.3730897 14.6467172,86.3730897 C14.583269,86.3730897 14.5325103,86.3477103 14.5039586,86.3001241 C14.4944414,86.2747448 14.4849241,86.2557103 14.4817517,86.2366759 C14.4785793,86.2176414 14.4754069,86.1890897 14.4754069,86.138331 L14.4754069,83.3941931 C14.4754069,83.3497793 14.4785793,83.3180552 14.4785793,83.2958483 C14.4817517,83.2768138 14.4880966,83.2577793 14.5039586,83.2324 C14.5325103,83.1879862 14.583269,83.1657793 14.6467172,83.1657793 C14.7101655,83.1657793 14.7545793,83.1879862 14.7863034,83.2324 C14.7989931,83.2577793 14.8085103,83.2768138 14.8116828,83.2958483 C14.8148552,83.3180552 14.8180276,83.3497793 14.8180276,83.3941931 L14.8180276,86.138331 Z" id="Fill-18" fill="#BBBDBF" sketch:type="MSShapeGroup"></path>
                <path d="M19.174069,83.1829103 C19.2184828,83.1829103 19.2470345,83.1829103 19.266069,83.1892552 C19.2851034,83.1892552 19.3041379,83.1956 19.32,83.2082897 C19.3422069,83.2209793 19.358069,83.2400138 19.3675862,83.2558759 C19.3802759,83.2812552 19.3866207,83.3066345 19.3866207,83.3320138 C19.3866207,83.3573931 19.3802759,83.3796 19.3675862,83.4049793 C19.358069,83.4240138 19.3422069,83.4430483 19.32,83.4557379 C19.3041379,83.4684276 19.2851034,83.4747724 19.266069,83.4747724 C19.2470345,83.4811172 19.2184828,83.4811172 19.174069,83.4811172 L18.4507586,83.4811172 L18.4507586,86.1396 C18.4507586,86.1871862 18.4475862,86.2189103 18.4444138,86.2379448 C18.4444138,86.2569793 18.4348966,86.2760138 18.4222069,86.2982207 C18.3936552,86.3489793 18.346069,86.3743586 18.2826207,86.3743586 C18.216,86.3743586 18.1715862,86.3489793 18.1398621,86.2982207 C18.1271724,86.2760138 18.1176552,86.2569793 18.1144828,86.2379448 C18.1081379,86.2189103 18.1081379,86.1871862 18.1081379,86.1396 L18.1081379,83.4811172 L17.3848276,83.4811172 C17.3467586,83.4811172 17.3150345,83.4811172 17.2928276,83.4747724 C17.2737931,83.4747724 17.2547586,83.4684276 17.242069,83.4557379 C17.1976552,83.4303586 17.1754483,83.3859448 17.1754483,83.3320138 C17.1754483,83.2749103 17.1976552,83.233669 17.242069,83.2082897 C17.2547586,83.1956 17.2737931,83.1892552 17.2928276,83.1892552 C17.3150345,83.1829103 17.3467586,83.1829103 17.3848276,83.1829103 L19.174069,83.1829103 Z" id="Fill-20" fill="#BBBDBF" sketch:type="MSShapeGroup"></path>
                <path d="M23.5205931,83.1829103 C23.5618345,83.1829103 23.5903862,83.1829103 23.6094207,83.1892552 C23.6252828,83.1892552 23.6443172,83.1956 23.6633517,83.2082897 C23.7077655,83.233669 23.7268,83.2749103 23.7268,83.3320138 C23.7268,83.3859448 23.7077655,83.4303586 23.6633517,83.4557379 C23.6443172,83.4684276 23.6252828,83.4747724 23.6094207,83.4747724 C23.5903862,83.4811172 23.5618345,83.4811172 23.5205931,83.4811172 L22.0866621,83.4811172 L22.0866621,84.6009793 L23.2731448,84.6009793 C23.3143862,84.6009793 23.3461103,84.6009793 23.3651448,84.6073241 C23.3873517,84.613669 23.4063862,84.6200138 23.4222483,84.6263586 C23.4634897,84.6580828 23.4856966,84.7024966 23.4856966,84.7564276 C23.4856966,84.8071862 23.4634897,84.8484276 23.4222483,84.8801517 C23.4063862,84.8864966 23.3873517,84.8928414 23.3651448,84.8991862 C23.3461103,84.8991862 23.3143862,84.905531 23.2731448,84.905531 L22.0866621,84.905531 L22.0866621,86.0507724 L23.5205931,86.0507724 C23.5618345,86.0507724 23.5903862,86.0507724 23.6094207,86.0571172 C23.6252828,86.0634621 23.6443172,86.0698069 23.6633517,86.0761517 C23.7077655,86.1078759 23.7268,86.1459448 23.7268,86.1998759 C23.7268,86.2569793 23.7077655,86.2982207 23.6633517,86.3299448 C23.6443172,86.3362897 23.6252828,86.3426345 23.6094207,86.3489793 C23.5903862,86.3489793 23.5618345,86.3553241 23.5205931,86.3553241 L21.9502483,86.3553241 C21.924869,86.3553241 21.8963172,86.3553241 21.8645931,86.3489793 C21.8392138,86.3489793 21.8138345,86.3299448 21.7884552,86.3109103 C21.7662483,86.2887034 21.7503862,86.2633241 21.7472138,86.2316 C21.740869,86.1998759 21.740869,86.1744966 21.740869,86.1522897 L21.740869,83.3859448 C21.740869,83.3573931 21.740869,83.3320138 21.7472138,83.3002897 C21.7503862,83.2685655 21.7662483,83.2463586 21.7884552,83.2273241 C21.8138345,83.2019448 21.8392138,83.1892552 21.8645931,83.1829103 L21.9502483,83.1829103 L23.5205931,83.1829103 Z" id="Fill-22" fill="#BBBDBF" sketch:type="MSShapeGroup"></path>
                <path d="M26.4078069,86.3553241 C26.3824276,86.3553241 26.3538759,86.3553241 26.3284966,86.3489793 C26.2967724,86.3489793 26.2713931,86.3299448 26.2460138,86.3109103 C26.2238069,86.2887034 26.2111172,86.2633241 26.2079448,86.2316 C26.2047724,86.1998759 26.2016,86.1744966 26.2016,86.1522897 L26.2016,83.3922897 C26.2016,83.3510483 26.2016,83.3193241 26.2047724,83.2939448 C26.2079448,83.2749103 26.2142897,83.2558759 26.2301517,83.233669 C26.2587034,83.1892552 26.3062897,83.1638759 26.3729103,83.1638759 C26.4363586,83.1638759 26.4807724,83.1892552 26.5093241,83.233669 C26.5251862,83.2558759 26.5347034,83.2749103 26.5378759,83.2939448 C26.5410483,83.3193241 26.5442207,83.3510483 26.5442207,83.3922897 L26.5442207,86.0507724 L27.9654621,86.0507724 C28.0067034,86.0507724 28.0384276,86.0507724 28.0574621,86.0571172 C28.0733241,86.0634621 28.0923586,86.0698069 28.1113931,86.0761517 C28.1558069,86.1078759 28.1748414,86.1459448 28.1748414,86.1998759 C28.1748414,86.2569793 28.1558069,86.2982207 28.1113931,86.3299448 C28.0923586,86.3362897 28.0733241,86.3426345 28.0574621,86.3489793 C28.0384276,86.3489793 28.0067034,86.3553241 27.9654621,86.3553241 L26.4078069,86.3553241 Z" id="Fill-24" fill="#BBBDBF" sketch:type="MSShapeGroup"></path>
                <path d="M30.8752,86.138331 C30.8752,86.1890897 30.8752,86.2176414 30.8688552,86.2366759 C30.8656828,86.2557103 30.8561655,86.2747448 30.8434759,86.3001241 C30.8149241,86.3477103 30.7705103,86.3730897 30.7038897,86.3730897 C30.6404414,86.3730897 30.5896828,86.3477103 30.561131,86.3001241 C30.5484414,86.2747448 30.5420966,86.2557103 30.5389241,86.2366759 C30.5357517,86.2176414 30.5325793,86.1890897 30.5325793,86.138331 L30.5325793,83.3941931 C30.5325793,83.3497793 30.5357517,83.3180552 30.5389241,83.2958483 C30.5420966,83.2768138 30.545269,83.2577793 30.561131,83.2324 C30.5896828,83.1879862 30.6404414,83.1657793 30.7038897,83.1657793 C30.7705103,83.1657793 30.8117517,83.1879862 30.8434759,83.2324 C30.8561655,83.2577793 30.8656828,83.2768138 30.8688552,83.2958483 C30.8752,83.3180552 30.8752,83.3497793 30.8752,83.3941931 L30.8752,86.138331 Z" id="Fill-26" fill="#BBBDBF" sketch:type="MSShapeGroup"></path>
                <path d="M33.8030207,84.7691172 C33.8030207,84.9309103 33.8030207,85.0673241 33.8093655,85.1847034 C33.8157103,85.2957379 33.8252276,85.3940828 33.8410897,85.4765655 C33.8569517,85.5558759 33.8791586,85.6288414 33.9077103,85.6859448 C33.9362621,85.7430483 33.9775034,85.7969793 34.0250897,85.8540828 C34.1710207,86.0031862 34.3550207,86.0761517 34.5739172,86.0761517 C34.6817793,86.0761517 34.7832966,86.0571172 34.8752966,86.0222207 C34.9672966,85.9841517 35.0497793,85.9270483 35.1259172,85.8540828 C35.170331,85.809669 35.2052276,85.7589103 35.2337793,85.7113241 C35.262331,85.6605655 35.2845379,85.6066345 35.3004,85.5368414 C35.3162621,85.4702207 35.3226069,85.3940828 35.3289517,85.3084276 C35.3352966,85.2291172 35.338469,85.1276 35.338469,85.0102207 L34.7547448,85.0102207 C34.7135034,85.0102207 34.6817793,85.0102207 34.6627448,85.0038759 C34.6437103,84.997531 34.6246759,84.9911862 34.6088138,84.9848414 C34.5644,84.9562897 34.5421931,84.9182207 34.5421931,84.8611172 C34.5421931,84.8071862 34.5644,84.7691172 34.6088138,84.7373931 C34.6246759,84.7247034 34.6437103,84.7183586 34.6627448,84.7183586 C34.6817793,84.7120138 34.7135034,84.7120138 34.7547448,84.7120138 L35.4621931,84.7120138 C35.4907448,84.7120138 35.5192966,84.7120138 35.5478483,84.7183586 C35.5764,84.7247034 35.5986069,84.7373931 35.6239862,84.7627724 C35.6461931,84.7818069 35.6588828,84.8071862 35.6652276,84.8357379 C35.6715724,84.8674621 35.6747448,84.8928414 35.6747448,84.9245655 L35.6747448,84.9721517 C35.6747448,85.1149103 35.6715724,85.2449793 35.6620552,85.3528414 C35.6525379,85.4638759 35.6366759,85.5558759 35.6112966,85.641531 C35.5890897,85.7240138 35.5573655,85.8033241 35.5161241,85.8731172 C35.4748828,85.9397379 35.4209517,86.0031862 35.354331,86.0698069 C35.2559862,86.1681517 35.1417793,86.2442897 35.0117103,86.2982207 C34.8816414,86.3553241 34.7357103,86.3807034 34.5739172,86.3807034 C34.4057793,86.3807034 34.2566759,86.3553241 34.1266069,86.2982207 C33.9965379,86.2442897 33.8791586,86.1681517 33.7808138,86.0698069 C33.7046759,85.9968414 33.6444,85.9143586 33.5999862,85.8413931 C33.5587448,85.7589103 33.5270207,85.6732552 33.5048138,85.5812552 C33.4826069,85.4829103 33.4699172,85.3623586 33.4635724,85.2322897 C33.4604,85.1022207 33.4604,84.9499448 33.4604,84.7691172 C33.4604,84.5819448 33.4604,84.429669 33.4635724,84.2996 C33.4699172,84.169531 33.4826069,84.0553241 33.5048138,83.9569793 C33.5270207,83.8586345 33.5587448,83.7729793 33.5999862,83.6904966 C33.6444,83.617531 33.7046759,83.5413931 33.7808138,83.4684276 C33.8791586,83.3637379 33.9965379,83.2876 34.1266069,83.233669 C34.2566759,83.1829103 34.4057793,83.1511862 34.5739172,83.1511862 C34.6754345,83.1511862 34.7706069,83.1638759 34.8530897,83.1829103 C34.9355724,83.2019448 35.0117103,83.2273241 35.0815034,83.2622207 C35.1512966,83.2939448 35.2115724,83.3383586 35.2686759,83.3827724 C35.3226069,83.4303586 35.3733655,83.4811172 35.4209517,83.5350483 C35.4526759,83.5794621 35.4812276,83.617531 35.5066069,83.6587724 C35.5319862,83.7031862 35.5541931,83.7476 35.5732276,83.7888414 C35.5890897,83.8269103 35.6017793,83.8713241 35.6112966,83.9093931 C35.6176414,83.9379448 35.6239862,83.969669 35.6239862,83.9950483 C35.6239862,84.0489793 35.6081241,84.0933931 35.5795724,84.1187724 C35.5510207,84.1504966 35.5097793,84.1631862 35.4621931,84.1631862 C35.4241241,84.1631862 35.3892276,84.1504966 35.3606759,84.1314621 C35.3416414,84.1124276 35.3257793,84.0933931 35.3162621,84.0680138 C35.3035724,84.0489793 35.2908828,84.0204276 35.2813655,83.9887034 C35.2242621,83.8142207 35.1354345,83.6841517 35.0148828,83.5921517 C34.894331,83.5064966 34.7452276,83.4557379 34.5675724,83.4557379 C34.3550207,83.4557379 34.1710207,83.5287034 34.0250897,83.6841517 C33.9775034,83.7349103 33.9362621,83.7888414 33.9045379,83.8522897 C33.8728138,83.9093931 33.8537793,83.9823586 33.8379172,84.061669 C33.8220552,84.1441517 33.8125379,84.2424966 33.8093655,84.353531 C33.8030207,84.4709103 33.8030207,84.6073241 33.8030207,84.7691172" id="Fill-28" fill="#BBBDBF" sketch:type="MSShapeGroup"></path>
                <path d="M40.4451034,86.138331 C40.4451034,86.1890897 40.441931,86.2176414 40.4387586,86.2366759 C40.4355862,86.2557103 40.426069,86.2747448 40.4133793,86.3001241 C40.3975172,86.3255034 40.3816552,86.3413655 40.3562759,86.3540552 C40.3308966,86.3667448 40.3023448,86.3730897 40.2706207,86.3730897 C40.2071724,86.3730897 40.1595862,86.3477103 40.1278621,86.3001241 C40.1151724,86.2747448 40.1088276,86.2557103 40.1056552,86.2366759 C40.1024828,86.2176414 40.0993103,86.1890897 40.0993103,86.138331 L40.0993103,84.9042621 L38.601931,84.9042621 L38.601931,86.138331 C38.601931,86.1890897 38.5987586,86.2176414 38.5955862,86.2366759 C38.5924138,86.2557103 38.5828966,86.2747448 38.5702069,86.3001241 C38.5416552,86.3477103 38.4972414,86.3730897 38.4306207,86.3730897 C38.3671724,86.3730897 38.3164138,86.3477103 38.2878621,86.3001241 C38.2751724,86.2747448 38.2688276,86.2557103 38.2656552,86.2366759 C38.2624828,86.2176414 38.2593103,86.1890897 38.2593103,86.138331 L38.2593103,83.3941931 C38.2593103,83.3497793 38.2624828,83.3180552 38.2624828,83.2958483 C38.2656552,83.2768138 38.2751724,83.2577793 38.2878621,83.2324 C38.3164138,83.1879862 38.3671724,83.1657793 38.4306207,83.1657793 C38.494069,83.1657793 38.5416552,83.1879862 38.5702069,83.2324 C38.5828966,83.2577793 38.5924138,83.2768138 38.5955862,83.2958483 C38.5987586,83.3180552 38.601931,83.3497793 38.601931,83.3941931 L38.601931,84.6028828 L40.0993103,84.6028828 L40.0993103,83.3941931 C40.0993103,83.3497793 40.1024828,83.3180552 40.1056552,83.2958483 C40.1088276,83.2768138 40.1151724,83.2577793 40.1278621,83.2324 C40.1595862,83.1879862 40.2071724,83.1657793 40.2706207,83.1657793 C40.3023448,83.1657793 40.3308966,83.1689517 40.3562759,83.1816414 C40.3816552,83.194331 40.3975172,83.2070207 40.4133793,83.2324 C40.426069,83.2577793 40.4355862,83.2768138 40.4387586,83.2958483 C40.441931,83.3180552 40.4451034,83.3497793 40.4451034,83.3941931 L40.4451034,86.138331 Z" id="Fill-30" fill="#BBBDBF" sketch:type="MSShapeGroup"></path>
                <path d="M44.7979724,83.1829103 C44.8392138,83.1829103 44.8677655,83.1829103 44.8868,83.1892552 C44.9058345,83.1892552 44.924869,83.1956 44.9439034,83.2082897 C44.9661103,83.2209793 44.9819724,83.2400138 44.9914897,83.2558759 C45.0041793,83.2812552 45.0105241,83.3066345 45.0105241,83.3320138 C45.0105241,83.3573931 45.0041793,83.3796 44.9914897,83.4049793 C44.9819724,83.4240138 44.9661103,83.4430483 44.9439034,83.4557379 C44.924869,83.4684276 44.9058345,83.4747724 44.8868,83.4747724 C44.8677655,83.4811172 44.8392138,83.4811172 44.7979724,83.4811172 L44.0746621,83.4811172 L44.0746621,86.1396 C44.0746621,86.1871862 44.0714897,86.2189103 44.0683172,86.2379448 C44.0651448,86.2569793 44.0588,86.2760138 44.0461103,86.2982207 C44.0175586,86.3489793 43.9699724,86.3743586 43.9065241,86.3743586 C43.8399034,86.3743586 43.7954897,86.3489793 43.7637655,86.2982207 C43.7479034,86.2760138 43.7383862,86.2569793 43.7352138,86.2379448 C43.7320414,86.2189103 43.7320414,86.1871862 43.7320414,86.1396 L43.7320414,83.4811172 L43.008731,83.4811172 C42.9674897,83.4811172 42.9357655,83.4811172 42.916731,83.4747724 C42.8976966,83.4747724 42.8786621,83.4684276 42.8628,83.4557379 C42.8215586,83.4303586 42.7993517,83.3859448 42.7993517,83.3320138 C42.7993517,83.2749103 42.8215586,83.233669 42.8628,83.2082897 C42.8786621,83.1956 42.8976966,83.1892552 42.916731,83.1892552 C42.9357655,83.1829103 42.9674897,83.1829103 43.008731,83.1829103 L44.7979724,83.1829103 Z" id="Fill-32" fill="#BBBDBF" sketch:type="MSShapeGroup"></path>
                <g id="Group-36">
                    <mask id="mask-4" sketch:name="Clip 35" fill="white">
                        <use xlink:href="#path-3"></use>
                    </mask>
                    <g id="Clip-35"></g>
                    <path d="M13.3155724,90.5004 C13.1918483,90.4813655 13.0839862,90.4559862 12.9919862,90.4210897 C12.9031586,90.3830207 12.8175034,90.3259172 12.7350207,90.2592966 C12.6493655,90.1831586 12.5890897,90.0975034 12.5510207,89.9991586 C12.5129517,89.9071586 12.4939172,89.7866069 12.4939172,89.6628828 C12.4939172,89.526469 12.5161241,89.4027448 12.5668828,89.2980552 C12.6112966,89.1870207 12.6810897,89.0950207 12.7667448,89.0125379 C12.8555724,88.9395724 12.9634345,88.8761241 13.090331,88.8348828 C13.2140552,88.7968138 13.3536414,88.7714345 13.5122621,88.7714345 C13.5915724,88.7714345 13.6645379,88.7777793 13.7311586,88.7841241 C13.7977793,88.790469 13.8612276,88.8031586 13.918331,88.8221931 C13.9817793,88.8412276 14.0420552,88.8634345 14.0991586,88.8888138 C14.1562621,88.9205379 14.2165379,88.9522621 14.286331,88.9935034 C14.3212276,89.0188828 14.3529517,89.0442621 14.3815034,89.0696414 C14.4068828,89.1013655 14.4227448,89.1299172 14.4227448,89.1679862 C14.4227448,89.1870207 14.4164,89.2060552 14.4100552,89.2250897 C14.4037103,89.2441241 14.3941931,89.2599862 14.378331,89.2726759 C14.3656414,89.2853655 14.3497793,89.2980552 14.3307448,89.3044 C14.3148828,89.3107448 14.2958483,89.3170897 14.2736414,89.3170897 C14.2514345,89.3170897 14.2260552,89.3107448 14.1975034,89.2980552 C14.1721241,89.2853655 14.1435724,89.2726759 14.1150207,89.2536414 C14.0610897,89.2187448 14.0135034,89.1870207 13.9627448,89.1616414 C13.9151586,89.1362621 13.8707448,89.1172276 13.8199862,89.1077103 C13.7755724,89.0950207 13.7248138,89.082331 13.6677103,89.0759862 C13.6169517,89.0696414 13.5566759,89.0696414 13.4932276,89.0696414 C13.3853655,89.0696414 13.2901931,89.082331 13.2077103,89.1077103 C13.1252276,89.1362621 13.0554345,89.174331 12.998331,89.2314345 C12.9412276,89.2790207 12.8968138,89.342469 12.8682621,89.4090897 C12.8397103,89.4852276 12.8238483,89.5645379 12.8238483,89.6501931 C12.8238483,89.7326759 12.8365379,89.8056414 12.8555724,89.8690897 C12.8809517,89.9230207 12.9158483,89.9801241 12.9666069,90.0181931 C12.9951586,90.0404 13.0237103,90.0657793 13.0522621,90.0848138 C13.0839862,90.1038483 13.1157103,90.1228828 13.1442621,90.1355724 C13.1791586,90.1482621 13.2172276,90.1609517 13.2552966,90.170469 C13.2965379,90.1831586 13.3441241,90.1895034 13.3948828,90.1958483 L13.7406759,90.2529517 C13.8136414,90.2592966 13.8802621,90.2719862 13.9373655,90.2910207 C13.994469,90.3037103 14.0452276,90.3132276 14.0928138,90.3322621 C14.1404,90.3512966 14.1816414,90.370331 14.2197103,90.3957103 C14.2577793,90.4147448 14.2926759,90.4432966 14.3244,90.4686759 C14.4132276,90.5448138 14.4766759,90.630469 14.5242621,90.7415034 C14.5686759,90.8461931 14.5877103,90.9635724 14.5877103,91.0999862 C14.5877103,91.2364 14.5655034,91.3601241 14.5115724,91.474331 C14.4576414,91.5853655 14.3846759,91.6773655 14.2895034,91.7566759 C14.1911586,91.8328138 14.0769517,91.8930897 13.9437103,91.9375034 C13.8072966,91.9755724 13.6581931,92.0009517 13.4932276,92.0009517 C13.3917103,92.0009517 13.3060552,91.9946069 13.2267448,91.9819172 C13.1474345,91.9755724 13.0712966,91.9565379 13.0015034,91.9375034 C12.9317103,91.9121241 12.8619172,91.8867448 12.798469,91.8518483 C12.7318483,91.8201241 12.6652276,91.7757103 12.5890897,91.734469 C12.5510207,91.7027448 12.5161241,91.6710207 12.4875724,91.6392966 C12.4590207,91.6107448 12.4495034,91.5790207 12.4495034,91.5346069 C12.4495034,91.5155724 12.4526759,91.4965379 12.4590207,91.474331 C12.4621931,91.4552966 12.4748828,91.4362621 12.4939172,91.4172276 C12.5192966,91.3918483 12.5573655,91.3791586 12.5986069,91.3791586 C12.6176414,91.3791586 12.6430207,91.3855034 12.6715724,91.3981931 C12.7001241,91.4108828 12.7255034,91.4299172 12.7572276,91.4489517 C12.8175034,91.4965379 12.8714345,91.5346069 12.9285379,91.566331 C12.9856414,91.5980552 13.0395724,91.6234345 13.0998483,91.6392966 C13.1569517,91.658331 13.2204,91.6710207 13.2838483,91.6837103 C13.3536414,91.6900552 13.4234345,91.6964 13.5027448,91.6964 C13.6169517,91.6964 13.7216414,91.6837103 13.8136414,91.658331 C13.9088138,91.6266069 13.9881241,91.5917103 14.0515724,91.5409517 C14.1181931,91.4901931 14.1689517,91.4299172 14.2006759,91.3569517 C14.2387448,91.2871586 14.2546069,91.2015034 14.2546069,91.106331 C14.2546069,91.0206759 14.2419172,90.9477103 14.2133655,90.8779172 C14.1879862,90.8112966 14.1499172,90.7541931 14.0991586,90.7097793 C14.0706069,90.6875724 14.0452276,90.6685379 14.0230207,90.6558483 C14.0008138,90.6368138 13.9722621,90.6241241 13.9405379,90.6114345 C13.9088138,90.5987448 13.8770897,90.5924 13.8358483,90.5797103 C13.7946069,90.5733655 13.7470207,90.5638483 13.6867448,90.5575034 L13.3155724,90.5004 Z" id="Fill-34" fill="#BBBDBF" sketch:type="MSShapeGroup" mask="url(#mask-4)"></path>
                </g>
                <path d="M18.7340552,88.7964966 C18.778469,88.7964966 18.8070207,88.8028414 18.8260552,88.8028414 C18.8450897,88.8091862 18.8641241,88.815531 18.8799862,88.8282207 C18.9021931,88.8409103 18.9180552,88.8599448 18.9275724,88.8758069 C18.9402621,88.9011862 18.9466069,88.9202207 18.9466069,88.9519448 C18.9466069,88.9773241 18.9402621,88.999531 18.9275724,89.0249103 C18.9180552,89.0439448 18.9021931,89.0629793 18.8799862,89.075669 C18.8641241,89.0820138 18.8450897,89.0883586 18.8260552,89.0947034 C18.8070207,89.1010483 18.778469,89.1010483 18.7340552,89.1010483 L18.0107448,89.1010483 L18.0107448,91.759531 C18.0107448,91.8007724 18.0075724,91.8388414 18.0044,91.8578759 C18.0044,91.8769103 17.9948828,91.8959448 17.9821931,91.9181517 C17.9536414,91.9689103 17.9060552,91.9879448 17.8426069,91.9879448 C17.7759862,91.9879448 17.7315724,91.9689103 17.7030207,91.9181517 C17.6871586,91.8959448 17.6776414,91.8769103 17.674469,91.8578759 C17.6712966,91.8388414 17.6681241,91.8007724 17.6681241,91.759531 L17.6681241,89.1010483 L16.9448138,89.1010483 C16.9067448,89.1010483 16.8750207,89.1010483 16.8559862,89.0947034 C16.8337793,89.0883586 16.8147448,89.0820138 16.8020552,89.075669 C16.7576414,89.0502897 16.7354345,89.0058759 16.7354345,88.9519448 C16.7354345,88.8948414 16.7576414,88.8536 16.8020552,88.8282207 C16.8147448,88.815531 16.8337793,88.8091862 16.8559862,88.8028414 C16.8750207,88.8028414 16.9067448,88.7964966 16.9448138,88.7964966 L18.7340552,88.7964966 Z" id="Fill-37" fill="#BBBDBF" sketch:type="MSShapeGroup"></path>
                <g id="Group-41">
                    <mask id="mask-6" sketch:name="Clip 40" fill="white">
                        <use xlink:href="#path-5"></use>
                    </mask>
                    <g id="Clip-40"></g>
                    <path d="M23.477131,90.9280414 C23.477131,91.0834897 23.4485793,91.2325931 23.3946483,91.3626621 C23.3375448,91.492731 23.2614069,91.6037655 23.1598897,91.7021103 C23.0615448,91.7941103 22.9441655,91.8702483 22.8109241,91.9178345 C22.6745103,91.9749379 22.5254069,92.0003172 22.3636138,92.0003172 C22.2081655,92.0003172 22.0590621,91.9749379 21.9226483,91.9178345 C21.7862345,91.8702483 21.6688552,91.7941103 21.5673379,91.7021103 C21.4689931,91.6037655 21.3928552,91.492731 21.3357517,91.3626621 C21.2818207,91.2325931 21.253269,91.0834897 21.253269,90.9280414 L21.253269,89.0119034 C21.253269,88.9706621 21.2564414,88.9325931 21.2596138,88.9135586 C21.2659586,88.8945241 21.2754759,88.8786621 21.2913379,88.8532828 C21.3167172,88.8025241 21.3643034,88.7834897 21.4277517,88.7834897 C21.4880276,88.7834897 21.5356138,88.8025241 21.5641655,88.8532828 C21.5768552,88.8786621 21.5895448,88.8945241 21.5927172,88.9135586 C21.5958897,88.9325931 21.5990621,88.9706621 21.5990621,89.0119034 L21.5990621,90.8963172 C21.5990621,91.0200414 21.6180966,91.124731 21.6561655,91.2262483 C21.6878897,91.3245931 21.7418207,91.4102483 21.8084414,91.4800414 C21.8750621,91.5466621 21.9543724,91.6037655 22.0495448,91.6418345 C22.1447172,91.676731 22.2494069,91.6957655 22.3636138,91.6957655 C22.4809931,91.6957655 22.5888552,91.676731 22.6808552,91.6418345 C22.7760276,91.6037655 22.8585103,91.5466621 22.925131,91.4800414 C22.9917517,91.4102483 23.0425103,91.3245931 23.0805793,91.2262483 C23.1186483,91.124731 23.1345103,91.0200414 23.1345103,90.8963172 L23.1345103,89.0119034 C23.1345103,88.9706621 23.1376828,88.9325931 23.1440276,88.9135586 C23.1440276,88.8945241 23.1535448,88.8786621 23.1694069,88.8532828 C23.1979586,88.8025241 23.2455448,88.7834897 23.3058207,88.7834897 C23.369269,88.7834897 23.4136828,88.8025241 23.4422345,88.8532828 C23.4549241,88.8786621 23.4644414,88.8945241 23.4707862,88.9135586 C23.477131,88.9325931 23.477131,88.9706621 23.477131,89.0119034 L23.477131,90.9280414 Z" id="Fill-39" fill="#BBBDBF" sketch:type="MSShapeGroup" mask="url(#mask-6)"></path>
                </g>
                <path d="M26.4791862,89.1000966 L26.4791862,91.6729241 L27.1707724,91.6729241 C27.2881517,91.6729241 27.4023586,91.6538897 27.5133931,91.6221655 C27.6212552,91.5904414 27.7164276,91.5301655 27.7989103,91.4349931 C27.8464966,91.3810621 27.8845655,91.3176138 27.9131172,91.2446483 C27.941669,91.1621655 27.9607034,91.0828552 27.9733931,90.9908552 C27.9892552,90.9020276 27.9956,90.8036828 27.9987724,90.7053379 C28.0019448,90.6006483 28.0019448,90.4927862 28.0019448,90.3880966 C28.0019448,90.2770621 28.0019448,90.1723724 27.9987724,90.0676828 C27.9956,89.9661655 27.9892552,89.8678207 27.9733931,89.7821655 C27.9607034,89.6901655 27.941669,89.6076828 27.9131172,89.5283724 C27.8845655,89.4522345 27.8464966,89.3919586 27.7989103,89.3348552 C27.7164276,89.2428552 27.6212552,89.1794069 27.5133931,89.1508552 C27.405531,89.119131 27.2913241,89.1000966 27.1707724,89.1000966 L26.4791862,89.1000966 Z M26.3427724,91.9743034 C26.3173931,91.9743034 26.2888414,91.9679586 26.2602897,91.9679586 C26.2317379,91.9616138 26.2063586,91.9489241 26.1809793,91.9330621 C26.1587724,91.9076828 26.1460828,91.8823034 26.1429103,91.8505793 C26.1365655,91.8188552 26.1365655,91.7966483 26.1365655,91.771269 L26.1365655,89.0017517 C26.1365655,88.9763724 26.1365655,88.9446483 26.1429103,88.919269 C26.1460828,88.8907172 26.1587724,88.8653379 26.1809793,88.8399586 C26.2063586,88.8209241 26.2317379,88.8082345 26.2602897,88.8018897 C26.2888414,88.8018897 26.3173931,88.7955448 26.3427724,88.7955448 L27.2247034,88.7955448 C27.4087034,88.7955448 27.5673241,88.827269 27.7005655,88.8780276 C27.8369793,88.9256138 27.957531,89.0144414 28.0653931,89.1318207 C28.1383586,89.211131 28.1922897,89.2936138 28.2303586,89.3919586 C28.2684276,89.4839586 28.2938069,89.5823034 28.309669,89.6901655 C28.3287034,89.8012 28.3382207,89.9122345 28.3413931,90.0296138 C28.3445655,90.1469931 28.3477379,90.2643724 28.3477379,90.3880966 C28.3477379,90.5054759 28.3445655,90.6228552 28.3413931,90.7434069 C28.3382207,90.8607862 28.3287034,90.9718207 28.309669,91.0828552 C28.2938069,91.1875448 28.2684276,91.2858897 28.2271862,91.3810621 C28.1891172,91.4730621 28.1320138,91.5587172 28.0653931,91.6412 C27.957531,91.7522345 27.8369793,91.8378897 27.7005655,91.8949931 C27.5673241,91.9425793 27.4087034,91.9743034 27.2247034,91.9743034 L26.3427724,91.9743034 Z" id="Fill-42" fill="#BBBDBF" sketch:type="MSShapeGroup"></path>
                <path d="M31.2688966,91.7582621 C31.2688966,91.8026759 31.2688966,91.8375724 31.2657241,91.8566069 C31.2593793,91.8756414 31.2530345,91.8946759 31.2371724,91.9200552 C31.2086207,91.9676414 31.1642069,91.9866759 31.1007586,91.9866759 C31.0341379,91.9866759 30.9865517,91.9676414 30.9548276,91.9200552 C30.9421379,91.8946759 30.9357931,91.8756414 30.9294483,91.8566069 C30.9262759,91.8375724 30.9262759,91.8026759 30.9262759,91.7582621 L30.9262759,89.0141241 C30.9262759,88.9697103 30.9262759,88.9316414 30.9294483,88.9157793 C30.9357931,88.8967448 30.9421379,88.8777103 30.9548276,88.852331 C30.9865517,88.8015724 31.0341379,88.7857103 31.1007586,88.7857103 C31.1642069,88.7857103 31.2054483,88.8015724 31.2371724,88.852331 C31.2530345,88.8777103 31.2593793,88.8967448 31.2657241,88.9157793 C31.2688966,88.9316414 31.2688966,88.9697103 31.2688966,89.0141241 L31.2688966,91.7582621 Z" id="Fill-44" fill="#BBBDBF" sketch:type="MSShapeGroup"></path>
                <g id="Group-48">
                    <mask id="mask-8" sketch:name="Clip 47" fill="white">
                        <use xlink:href="#path-7"></use>
                    </mask>
                    <g id="Clip-47"></g>
                    <path d="M34.967931,91.6964 C35.1868276,91.6964 35.3676552,91.6234345 35.5167586,91.4679862 C35.5643448,91.4172276 35.6024138,91.3632966 35.6341379,91.3061931 C35.6626897,91.2427448 35.6848966,91.1761241 35.6975862,91.0968138 C35.7134483,91.014331 35.7229655,90.9159862 35.7293103,90.7986069 C35.7324828,90.6875724 35.7356552,90.5511586 35.7356552,90.3893655 C35.7356552,90.2275724 35.7324828,90.0848138 35.7293103,89.9737793 C35.7229655,89.8564 35.7134483,89.7580552 35.6975862,89.6755724 C35.6848966,89.5962621 35.6626897,89.526469 35.6341379,89.4661931 C35.6024138,89.4090897 35.5643448,89.3551586 35.5167586,89.3044 C35.3676552,89.1489517 35.1868276,89.0759862 34.967931,89.0759862 C34.7490345,89.0759862 34.5650345,89.1489517 34.4191034,89.3044 C34.3746897,89.3551586 34.3334483,89.4090897 34.3048966,89.4661931 C34.2731724,89.526469 34.2509655,89.5962621 34.231931,89.6755724 C34.2192414,89.7644 34.2097241,89.8627448 34.2033793,89.9737793 C34.2002069,90.0848138 34.1970345,90.2275724 34.1970345,90.3893655 C34.1970345,90.5511586 34.2002069,90.6875724 34.2033793,90.7986069 C34.2097241,90.9159862 34.2192414,91.014331 34.231931,91.0968138 C34.2509655,91.1761241 34.2731724,91.2427448 34.3017241,91.3061931 C34.3334483,91.3632966 34.3683448,91.4172276 34.4191034,91.4679862 C34.492069,91.5472966 34.5713793,91.6044 34.6633793,91.6392966 C34.7585517,91.6773655 34.860069,91.6964 34.967931,91.6964 M34.967931,88.7714345 C35.136069,88.7714345 35.2851724,88.8031586 35.4152414,88.8539172 C35.5453103,88.9078483 35.6595172,88.9839862 35.7578621,89.082331 C35.834,89.1616414 35.8942759,89.2377793 35.9386897,89.3107448 C35.9767586,89.3900552 36.0116552,89.4788828 36.0338621,89.5772276 C36.056069,89.6692276 36.0687586,89.7866069 36.0751034,89.9166759 C36.0782759,90.0467448 36.0814483,90.2021931 36.0814483,90.3893655 C36.0814483,90.5701931 36.0782759,90.722469 36.0751034,90.8525379 C36.0687586,90.9826069 36.056069,91.1031586 36.0338621,91.1951586 C36.0116552,91.2935034 35.9767586,91.3791586 35.9386897,91.4616414 C35.8942759,91.5346069 35.834,91.6107448 35.7578621,91.6900552 C35.6595172,91.7884 35.5453103,91.8645379 35.4152414,91.918469 C35.2851724,91.9692276 35.136069,92.0009517 34.967931,92.0009517 C34.7997931,92.0009517 34.6506897,91.9692276 34.5206207,91.918469 C34.3873793,91.8645379 34.2731724,91.7884 34.1748276,91.6900552 C34.0986897,91.6107448 34.0384138,91.5346069 33.994,91.4616414 C33.9527586,91.3791586 33.9210345,91.2935034 33.8988276,91.1951586 C33.8766207,91.1031586 33.863931,90.9826069 33.8575862,90.8525379 C33.8544138,90.722469 33.8512414,90.5701931 33.8512414,90.3893655 C33.8512414,90.2021931 33.8544138,90.0467448 33.8575862,89.9166759 C33.863931,89.7866069 33.8766207,89.6692276 33.8988276,89.5772276 C33.9210345,89.4788828 33.9527586,89.3900552 33.994,89.3107448 C34.0384138,89.2377793 34.0986897,89.1616414 34.1748276,89.082331 C34.2731724,88.9839862 34.3873793,88.9078483 34.5206207,88.8539172 C34.6506897,88.8031586 34.7997931,88.7714345 34.967931,88.7714345" id="Fill-46" fill="#BBBDBF" sketch:type="MSShapeGroup" mask="url(#mask-8)"></path>
                </g>
                <path d="M6.93045517,79.112069 C6.87017931,79.112069 6.81942069,79.0613103 6.81942069,79.0010345 L6.81942069,74.5945517 L3.8785931,74.5945517 L3.8785931,79.0010345 C3.8785931,79.0613103 3.82783448,79.112069 3.76755862,79.112069 C3.70411034,79.112069 3.65652414,79.0613103 3.65652414,79.0010345 L3.65652414,74.4835172 C3.65652414,74.420069 3.70411034,74.3724828 3.76755862,74.3724828 L6.93045517,74.3724828 C6.99390345,74.3724828 7.04148966,74.420069 7.04148966,74.4835172 L7.04148966,79.0010345 C7.04148966,79.0613103 6.99390345,79.112069 6.93045517,79.112069" id="Fill-49" fill="#BBBDBF" sketch:type="MSShapeGroup"></path>
                <path d="M6.93045517,76.7575034 L3.83417931,76.7575034 C3.77707586,76.7575034 3.72631724,76.7067448 3.72631724,76.646469 C3.72631724,76.5830207 3.77707586,76.5354345 3.83417931,76.5354345 L6.93045517,76.5354345 C6.99390345,76.5354345 7.04148966,76.5830207 7.04148966,76.646469 C7.04148966,76.7067448 6.99390345,76.7575034 6.93045517,76.7575034" id="Fill-51" fill="#BBBDBF" sketch:type="MSShapeGroup"></path>
                <path d="M6.86224828,78.7526345 L3.76597241,78.7526345 C3.70569655,78.7526345 3.65493793,78.7018759 3.65493793,78.6416 C3.65493793,78.5781517 3.70569655,78.5305655 3.76597241,78.5305655 L6.86224828,78.5305655 C6.92252414,78.5305655 6.97328276,78.5781517 6.97328276,78.6416 C6.97328276,78.7018759 6.92252414,78.7526345 6.86224828,78.7526345" id="Fill-53" fill="#BBBDBF" sketch:type="MSShapeGroup"></path>
                <path d="M5.19546207,74.5082621 L5.17008276,74.5082621 C5.1098069,74.4892276 5.07173793,74.4352966 5.0876,74.3718483 L5.39215172,73.1219172 C5.40801379,73.0648138 5.46828966,73.0267448 5.52856552,73.0394345 C5.58884138,73.058469 5.62691034,73.1155724 5.61104828,73.1758483 L5.30332414,74.4226069 C5.29063448,74.4765379 5.24622069,74.5082621 5.19546207,74.5082621" id="Fill-55" fill="#BBBDBF" sketch:type="MSShapeGroup"></path>
                <path d="M43.5680276,74.8429517 C43.5585103,74.8429517 43.5489931,74.8429517 43.5394759,74.8366069 C43.4823724,74.8239172 43.4443034,74.7636414 43.4601655,74.7001931 L43.6156138,74.0942621 L42.5496828,74.0942621 C42.5147862,74.0942621 42.4830621,74.0752276 42.4608552,74.0498483 C42.4418207,74.0181241 42.4354759,73.9864 42.4449931,73.9515034 L42.6670621,73.120331 C42.6829241,73.0600552 42.7432,73.028331 42.8034759,73.0410207 C42.8605793,73.0600552 42.8954759,73.120331 42.8796138,73.1774345 L42.6956138,73.8690207 L43.7615448,73.8690207 C43.793269,73.8690207 43.8249931,73.8880552 43.8472,73.9134345 C43.8694069,73.9388138 43.8757517,73.9768828 43.8694069,74.0054345 L43.6758897,74.7572966 C43.6600276,74.8048828 43.6187862,74.8429517 43.5680276,74.8429517" id="Fill-57" fill="#BBBDBF" sketch:type="MSShapeGroup"></path>
                <path d="M40.1415034,75.9272828 C40.1319862,75.9272828 40.122469,75.9209379 40.1129517,75.9209379 C40.0558483,75.9019034 40.0177793,75.8479724 40.0336414,75.7845241 L40.6046759,73.6209379 C40.6205379,73.5606621 40.6839862,73.5225931 40.7410897,73.5416276 C40.8045379,73.5543172 40.8394345,73.6145931 40.8235724,73.6780414 L40.2493655,75.8416276 C40.2366759,75.8892138 40.1922621,75.9272828 40.1415034,75.9272828" id="Fill-59" fill="#BBBDBF" sketch:type="MSShapeGroup"></path>
                <path d="M34.5897793,79.0809793 C34.5802621,79.0809793 34.5707448,79.0809793 34.5580552,79.0746345 C34.5009517,79.0619448 34.4660552,79.001669 34.4819172,78.9382207 L35.2845379,75.9022207 C35.3004,75.8451172 35.3606759,75.8102207 35.4209517,75.8292552 C35.4812276,75.8419448 35.5161241,75.9022207 35.5002621,75.965669 L34.694469,78.9953241 C34.6817793,79.0429103 34.6405379,79.0809793 34.5897793,79.0809793" id="Fill-61" fill="#BBBDBF" sketch:type="MSShapeGroup"></path>
                <path d="M12.5503862,75.7597793 C12.4869379,75.7597793 12.4393517,75.7090207 12.4393517,75.6487448 L12.4393517,73.3614345 C12.4393517,73.3011586 12.4869379,73.2504 12.5503862,73.2504 C12.6106621,73.2504 12.6614207,73.3011586 12.6614207,73.3614345 L12.6614207,75.6487448 C12.6614207,75.7090207 12.6106621,75.7597793 12.5503862,75.7597793" id="Fill-63" fill="#BBBDBF" sketch:type="MSShapeGroup"></path>
                <path d="M13.3837793,74.0933103 L11.7436414,74.0933103 C11.6833655,74.0933103 11.6326069,74.0425517 11.6326069,73.9822759 C11.6326069,73.9188276 11.6833655,73.8712414 11.7436414,73.8712414 L13.3837793,73.8712414 C13.4472276,73.8712414 13.4948138,73.9188276 13.4948138,73.9822759 C13.4948138,74.0425517 13.4472276,74.0933103 13.3837793,74.0933103" id="Fill-65" fill="#BBBDBF" sketch:type="MSShapeGroup"></path>
                <path d="M16.2151586,73.7586207 L14.0484,73.7586207 C13.9881241,73.7586207 13.9373655,73.7078621 13.9373655,73.6475862 C13.9373655,73.5841379 13.9881241,73.5365517 14.0484,73.5365517 L16.2151586,73.5365517 C16.2754345,73.5365517 16.3261931,73.5841379 16.3261931,73.6475862 C16.3261931,73.7078621 16.2754345,73.7586207 16.2151586,73.7586207" id="Fill-67" fill="#BBBDBF" sketch:type="MSShapeGroup"></path>
                <path d="M12.5503862,79.0809793 C12.4869379,79.0809793 12.4393517,79.0302207 12.4393517,78.9699448 L12.4393517,76.1306345 C12.4393517,76.0703586 12.4869379,76.0196 12.5503862,76.0196 C12.6106621,76.0196 12.6614207,76.0703586 12.6614207,76.1306345 L12.6614207,78.9699448 C12.6614207,79.0302207 12.6106621,79.0809793 12.5503862,79.0809793" id="Fill-69" fill="#BBBDBF" sketch:type="MSShapeGroup"></path>
                <path d="M13.3837793,76.9246897 L11.7436414,76.9246897 C11.6833655,76.9246897 11.6326069,76.873931 11.6326069,76.8136552 C11.6326069,76.7502069 11.6833655,76.7026207 11.7436414,76.7026207 L13.3837793,76.7026207 C13.4472276,76.7026207 13.4948138,76.7502069 13.4948138,76.8136552 C13.4948138,76.873931 13.4472276,76.9246897 13.3837793,76.9246897" id="Fill-71" fill="#BBBDBF" sketch:type="MSShapeGroup"></path>
                <mask id="mask-10" sketch:name="Clip 74" fill="white">
                    <use xlink:href="#path-9"></use>
                </mask>
                <g id="Clip-74"></g>
                <path d="M15.1609655,78.8566897 L16.2681379,78.8566897 L16.2681379,76.5884138 L15.1609655,76.5884138 L15.1609655,78.8566897 Z M16.3791724,79.081931 L15.049931,79.081931 C14.9896552,79.081931 14.9388966,79.0311724 14.9388966,78.9708966 L14.9388966,76.4773793 C14.9388966,76.4171034 14.9896552,76.3663448 15.049931,76.3663448 L16.3791724,76.3663448 C16.4426207,76.3663448 16.4902069,76.4171034 16.4902069,76.4773793 L16.4902069,78.9708966 C16.4902069,79.0311724 16.4426207,79.081931 16.3791724,79.081931 L16.3791724,79.081931 Z" id="Fill-73" fill="#BBBDBF" sketch:type="MSShapeGroup" mask="url(#mask-10)"></path>
                <path d="M14.049669,79.0809793 C13.9862207,79.0809793 13.9386345,79.0302207 13.9386345,78.9699448 L13.9386345,76.4796 C13.9386345,76.4161517 13.9862207,76.3685655 14.049669,76.3685655 C14.1131172,76.3685655 14.1607034,76.4161517 14.1607034,76.4796 L14.1607034,78.9699448 C14.1607034,79.0302207 14.1131172,79.0809793 14.049669,79.0809793" id="Fill-75" fill="#BBBDBF" sketch:type="MSShapeGroup" mask="url(#mask-10)"></path>
                <path d="M16.3794897,77.7552276 L15.0502483,77.7552276 C14.9868,77.7552276 14.9392138,77.704469 14.9392138,77.6441931 C14.9392138,77.5807448 14.9868,77.5331586 15.0502483,77.5331586 L16.3794897,77.5331586 C16.4429379,77.5331586 16.4905241,77.5807448 16.4905241,77.6441931 C16.4905241,77.704469 16.4429379,77.7552276 16.3794897,77.7552276" id="Fill-76" fill="#BBBDBF" sketch:type="MSShapeGroup" mask="url(#mask-10)"></path>
                <path d="M14.8278621,75.3702069 L15.601931,75.3702069 L15.601931,74.5961379 L14.8278621,74.5961379 L14.8278621,75.3702069 Z M15.7129655,75.5922759 L14.7168276,75.5922759 C14.6533793,75.5922759 14.6057931,75.5446897 14.6057931,75.4812414 L14.6057931,74.4851034 C14.6057931,74.4216552 14.6533793,74.3708966 14.7168276,74.3708966 L15.7129655,74.3708966 C15.7764138,74.3708966 15.824,74.4216552 15.824,74.4851034 L15.824,75.4812414 C15.824,75.5446897 15.7764138,75.5922759 15.7129655,75.5922759 L15.7129655,75.5922759 Z" id="Fill-77" fill="#BBBDBF" sketch:type="MSShapeGroup" mask="url(#mask-10)"></path>
                <path d="M11.998069,75.5383448 L13.1084138,75.5383448 L13.1084138,74.757931 L11.998069,74.757931 L11.998069,75.5383448 Z M13.2194483,75.7604138 L11.8870345,75.7604138 C11.829931,75.7604138 11.776,75.7096552 11.776,75.6493793 L11.776,74.650069 C11.776,74.5897931 11.829931,74.5390345 11.8870345,74.5390345 L13.2194483,74.5390345 C13.2797241,74.5390345 13.3304828,74.5897931 13.3304828,74.650069 L13.3304828,75.6493793 C13.3304828,75.7096552 13.2797241,75.7604138 13.2194483,75.7604138 L13.2194483,75.7604138 Z" id="Fill-78" fill="#BBBDBF" sketch:type="MSShapeGroup" mask="url(#mask-10)"></path>
                <path d="M32.1454345,79.0809793 C32.0819862,79.0809793 32.0344,79.0302207 32.0344,78.9699448 L32.0344,76.1433241 C32.0344,76.0830483 32.0819862,76.0322897 32.1454345,76.0322897 C32.2057103,76.0322897 32.256469,76.0830483 32.256469,76.1433241 L32.256469,78.9699448 C32.256469,79.0302207 32.2057103,79.0809793 32.1454345,79.0809793" id="Fill-79" fill="#BBBDBF" sketch:type="MSShapeGroup" mask="url(#mask-10)"></path>
                <path d="M33.4746759,75.0907172 L30.8130207,75.0907172 C30.7527448,75.0907172 30.7019862,75.0399586 30.7019862,74.9796828 C30.7019862,74.9162345 30.7527448,74.8686483 30.8130207,74.8686483 L33.4746759,74.8686483 C33.5381241,74.8686483 33.5857103,74.9162345 33.5857103,74.9796828 C33.5857103,75.0399586 33.5381241,75.0907172 33.4746759,75.0907172" id="Fill-80" fill="#BBBDBF" sketch:type="MSShapeGroup" mask="url(#mask-10)"></path>
                <path d="M31.048731,79.0067448 C31.0392138,79.0067448 31.0296966,79.0067448 31.0201793,79.0004 C30.9630759,78.9877103 30.9250069,78.9274345 30.940869,78.870331 L31.4674897,76.646469 C31.4833517,76.5830207 31.5404552,76.5481241 31.6039034,76.5608138 C31.6610069,76.5766759 31.6990759,76.6337793 31.6832138,76.6940552 L31.1565931,78.9210897 C31.1439034,78.9686759 31.0994897,79.0067448 31.048731,79.0067448" id="Fill-81" fill="#BBBDBF" sketch:type="MSShapeGroup" mask="url(#mask-10)"></path>
                <path d="M33.3322345,79.0067448 C33.2814759,79.0067448 33.2370621,78.9686759 33.2243724,78.9210897 L32.6914069,76.6718483 C32.6755448,76.6084 32.7136138,76.554469 32.7707172,76.5354345 C32.8341655,76.5227448 32.891269,76.5608138 32.907131,76.6210897 L33.4400966,78.870331 C33.4559586,78.9274345 33.4178897,78.9877103 33.3607862,79.0004 C33.351269,79.0067448 33.3417517,79.0067448 33.3322345,79.0067448" id="Fill-82" fill="#BBBDBF" sketch:type="MSShapeGroup" mask="url(#mask-10)"></path>
                <path d="M34.1405655,75.2518759 L34.1151862,75.2518759 C34.0549103,75.2391862 34.0168414,75.1789103 34.0327034,75.1154621 L34.3880138,73.6212552 C34.4007034,73.5673241 34.4641517,73.5229103 34.5212552,73.5419448 C34.581531,73.5546345 34.6164276,73.6149103 34.6037379,73.6720138 L34.2484276,75.1725655 C34.2357379,75.2201517 34.1913241,75.2518759 34.1405655,75.2518759" id="Fill-83" fill="#BBBDBF" sketch:type="MSShapeGroup" mask="url(#mask-10)"></path>
                <path d="M34.9492138,75.2518759 L34.9206621,75.2518759 C34.8635586,75.2391862 34.8254897,75.1789103 34.8413517,75.1154621 L35.1934897,73.6212552 C35.2093517,73.5673241 35.2696276,73.5229103 35.3299034,73.5419448 C35.3901793,73.5546345 35.4250759,73.6149103 35.4123862,73.6720138 L35.0570759,75.1725655 C35.0443862,75.2201517 34.9999724,75.2518759 34.9492138,75.2518759" id="Fill-84" fill="#BBBDBF" sketch:type="MSShapeGroup" mask="url(#mask-10)"></path>
                <path d="M32.799269,74.0933103 L31.4795448,74.0933103 C31.4160966,74.0933103 31.3685103,74.0425517 31.3685103,73.9822759 C31.3685103,73.9188276 31.4160966,73.8712414 31.4795448,73.8712414 L32.799269,73.8712414 C32.8627172,73.8712414 32.9103034,73.9188276 32.9103034,73.9822759 C32.9103034,74.0425517 32.8627172,74.0933103 32.799269,74.0933103" id="Fill-85" fill="#BBBDBF" sketch:type="MSShapeGroup" mask="url(#mask-10)"></path>
                <path d="M31.5908966,76.0332414 L32.698069,76.0332414 L32.698069,75.5922759 L31.5908966,75.5922759 L31.5908966,76.0332414 Z M32.8091034,76.2553103 L31.4798621,76.2553103 C31.4164138,76.2553103 31.3688276,76.2045517 31.3688276,76.1442759 L31.3688276,75.4812414 C31.3688276,75.4177931 31.4164138,75.3702069 31.4798621,75.3702069 L32.8091034,75.3702069 C32.8693793,75.3702069 32.9201379,75.4177931 32.9201379,75.4812414 L32.9201379,76.1442759 C32.9201379,76.2045517 32.8693793,76.2553103 32.8091034,76.2553103 L32.8091034,76.2553103 Z" id="Fill-86" fill="#BBBDBF" sketch:type="MSShapeGroup" mask="url(#mask-10)"></path>
                <path d="M31.5908966,74.3708966 L32.698069,74.3708966 L32.698069,73.5904828 L31.5908966,73.5904828 L31.5908966,74.3708966 Z M32.8091034,74.5961379 L31.4798621,74.5961379 C31.4164138,74.5961379 31.3688276,74.5453793 31.3688276,74.4851034 L31.3688276,73.4794483 C31.3688276,73.4255172 31.4164138,73.3684138 31.4798621,73.3684138 L32.8091034,73.3684138 C32.8693793,73.3684138 32.9201379,73.4255172 32.9201379,73.4794483 L32.9201379,74.4851034 C32.9201379,74.5453793 32.8693793,74.5961379 32.8091034,74.5961379 L32.8091034,74.5961379 Z" id="Fill-87" fill="#BBBDBF" sketch:type="MSShapeGroup" mask="url(#mask-10)"></path>
                <path d="M43.1311862,77.2533517 L42.1350483,77.2533517 C42.0779448,77.2533517 42.0271862,77.2025931 42.0271862,77.1423172 C42.0271862,77.0852138 42.0779448,77.0312828 42.1350483,77.0312828 L43.1311862,77.0312828 C43.1946345,77.0312828 43.2422207,77.0852138 43.2422207,77.1423172 C43.2422207,77.2025931 43.1946345,77.2533517 43.1311862,77.2533517" id="Fill-88" fill="#BBBDBF" sketch:type="MSShapeGroup" mask="url(#mask-10)"></path>
                <path d="M43.1311862,78.0896 L42.1350483,78.0896 C42.0779448,78.0896 42.0271862,78.0388414 42.0271862,77.9785655 C42.0271862,77.9151172 42.0779448,77.867531 42.1350483,77.867531 L43.1311862,77.867531 C43.1946345,77.867531 43.2422207,77.9151172 43.2422207,77.9785655 C43.2422207,78.0388414 43.1946345,78.0896 43.1311862,78.0896" id="Fill-89" fill="#BBBDBF" sketch:type="MSShapeGroup" mask="url(#mask-10)"></path>
                <path d="M43.1188138,76.4228138 L42.1353655,76.4228138 C42.0782621,76.4228138 42.0275034,76.3720552 42.0275034,76.3117793 C42.0275034,76.248331 42.0782621,76.2007448 42.1353655,76.2007448 L43.1188138,76.2007448 C43.1822621,76.2007448 43.2298483,76.248331 43.2298483,76.3117793 C43.2298483,76.3720552 43.1822621,76.4228138 43.1188138,76.4228138" id="Fill-90" fill="#BBBDBF" sketch:type="MSShapeGroup" mask="url(#mask-10)"></path>
                <path d="M44.968331,76.7575034 L44.1339862,76.7575034 C44.0737103,76.7575034 44.0229517,76.7067448 44.0229517,76.646469 C44.0229517,76.5830207 44.0737103,76.5354345 44.1339862,76.5354345 L44.968331,76.5354345 C45.0317793,76.5354345 45.0793655,76.5830207 45.0793655,76.646469 C45.0793655,76.7067448 45.0317793,76.7575034 44.968331,76.7575034" id="Fill-91" fill="#BBBDBF" sketch:type="MSShapeGroup" mask="url(#mask-10)"></path>
                <path d="M44.6710759,79.0749517 C44.6171448,79.0749517 44.572731,79.0368828 44.5632138,78.9892966 L44.0270759,76.6702621 C44.0112138,76.6099862 44.0492828,76.5528828 44.1095586,76.5338483 C44.1698345,76.5211586 44.2269379,76.5592276 44.2428,76.6226759 L44.7789379,78.9385379 C44.7916276,79.0019862 44.7535586,79.0559172 44.6964552,79.0686069 C44.6869379,79.0749517 44.6774207,79.0749517 44.6710759,79.0749517" id="Fill-92" fill="#BBBDBF" sketch:type="MSShapeGroup" mask="url(#mask-10)"></path>
                <path d="M40.9748966,79.0809793 C40.9114483,79.0809793 40.8638621,79.0302207 40.8638621,78.9699448 L40.8638621,75.8165655 C40.8638621,75.7531172 40.9114483,75.705531 40.9748966,75.705531 C41.0351724,75.705531 41.085931,75.7531172 41.085931,75.8165655 L41.085931,78.9699448 C41.085931,79.0302207 41.0351724,79.0809793 40.9748966,79.0809793" id="Fill-93" fill="#BBBDBF" sketch:type="MSShapeGroup" mask="url(#mask-10)"></path>
                <path d="M42.2470345,75.5383448 L44.0235862,75.5383448 L44.0235862,74.9070345 L42.2470345,74.9070345 L42.2470345,75.5383448 Z M44.1346207,75.7604138 L42.136,75.7604138 C42.0788966,75.7604138 42.0249655,75.7096552 42.0249655,75.6493793 L42.0249655,74.7928276 C42.0249655,74.7325517 42.0788966,74.6817931 42.136,74.6817931 L44.1346207,74.6817931 C44.198069,74.6817931 44.2456552,74.7325517 44.2456552,74.7928276 L44.2456552,75.6493793 C44.2456552,75.7096552 44.198069,75.7604138 44.1346207,75.7604138 L44.1346207,75.7604138 Z" id="Fill-94" fill="#BBBDBF" sketch:type="MSShapeGroup" mask="url(#mask-10)"></path>
                <path d="M23.4057517,75.5925931 L21.207269,75.5925931 C21.1438207,75.5925931 21.0930621,75.5418345 21.0930621,75.4815586 C21.0930621,75.4181103 21.1438207,75.3705241 21.207269,75.3705241 L23.4057517,75.3705241 C23.4692,75.3705241 23.5167862,75.4181103 23.5167862,75.4815586 C23.5167862,75.5418345 23.4692,75.5925931 23.4057517,75.5925931" id="Fill-95" fill="#BBBDBF" sketch:type="MSShapeGroup" mask="url(#mask-10)"></path>
                <path d="M23.5608828,73.7586207 L21.7526069,73.7586207 C21.6891586,73.7586207 21.6415724,73.7078621 21.6415724,73.6475862 C21.6415724,73.5841379 21.6891586,73.5365517 21.7526069,73.5365517 L23.5608828,73.5365517 C23.624331,73.5365517 23.6719172,73.5841379 23.6719172,73.6475862 C23.6719172,73.7078621 23.624331,73.7586207 23.5608828,73.7586207" id="Fill-96" fill="#BBBDBF" sketch:type="MSShapeGroup" mask="url(#mask-10)"></path>
                <path d="M26.0670897,74.9048138 L24.0716414,74.9048138 C24.0113655,74.9048138 23.9606069,74.8540552 23.9606069,74.7937793 C23.9606069,74.730331 24.0113655,74.6827448 24.0716414,74.6827448 L26.0670897,74.6827448 C26.1305379,74.6827448 26.1781241,74.730331 26.1781241,74.7937793 C26.1781241,74.8540552 26.1305379,74.9048138 26.0670897,74.9048138" id="Fill-97" fill="#BBBDBF" sketch:type="MSShapeGroup" mask="url(#mask-10)"></path>
                <path d="M24.5706621,77.7241379 C24.5072138,77.7241379 24.4596276,77.6733793 24.4596276,77.6131034 L24.4596276,75.8143448 C24.4596276,75.754069 24.5072138,75.7033103 24.5706621,75.7033103 C24.6341103,75.7033103 24.6816966,75.754069 24.6816966,75.8143448 L24.6816966,77.6131034 C24.6816966,77.6733793 24.6341103,77.7241379 24.5706621,77.7241379" id="Fill-98" fill="#BBBDBF" sketch:type="MSShapeGroup" mask="url(#mask-10)"></path>
                <path d="M25.5683862,79.0809793 C25.5081103,79.0809793 25.4573517,79.0302207 25.4573517,78.9699448 L25.4573517,73.4784966 C25.4573517,73.4245655 25.5081103,73.3674621 25.5683862,73.3674621 C25.6318345,73.3674621 25.6794207,73.4245655 25.6794207,73.4784966 L25.6794207,78.9699448 C25.6794207,79.0302207 25.6318345,79.0809793 25.5683862,79.0809793" id="Fill-99" fill="#BBBDBF" sketch:type="MSShapeGroup" mask="url(#mask-10)"></path>
                <path d="M22.5723586,75.4996414 C22.5089103,75.4996414 22.4613241,75.4488828 22.4613241,75.3886069 L22.4613241,74.4908138 C22.4613241,74.4273655 22.5089103,74.3766069 22.5723586,74.3766069 C22.6358069,74.3766069 22.6833931,74.4273655 22.6833931,74.4908138 L22.6833931,75.3886069 C22.6833931,75.4488828 22.6358069,75.4996414 22.5723586,75.4996414" id="Fill-100" fill="#BBBDBF" sketch:type="MSShapeGroup" mask="url(#mask-10)"></path>
                <path d="M21.6866207,79.0933517 L21.6644138,79.0933517 C21.6041379,79.0806621 21.566069,79.0203862 21.5787586,78.9569379 L22.2766897,75.5243862 C22.2862069,75.4672828 22.3464828,75.4260414 22.4067586,75.438731 C22.4670345,75.4514207 22.5051034,75.5116966 22.4924138,75.5688 L21.7944828,79.0076966 C21.7849655,79.0552828 21.7405517,79.0933517 21.6866207,79.0933517" id="Fill-101" fill="#BBBDBF" sketch:type="MSShapeGroup" mask="url(#mask-10)"></path>
                <path d="M23.4057517,79.0809793 L22.5238207,79.0809793 C22.4603724,79.0809793 22.4127862,79.0302207 22.4127862,78.9699448 C22.4127862,78.9064966 22.4603724,78.8589103 22.5238207,78.8589103 L23.2947172,78.8589103 L23.2947172,74.5951862 L21.8544414,74.5951862 L21.8544414,75.4739448 C21.8544414,75.5373931 21.8036828,75.5849793 21.7434069,75.5849793 C21.6799586,75.5849793 21.6323724,75.5373931 21.6323724,75.4739448 L21.6323724,74.4841517 C21.6323724,74.4207034 21.6799586,74.3731172 21.7434069,74.3731172 L23.4057517,74.3731172 C23.4692,74.3731172 23.5167862,74.4207034 23.5167862,74.4841517 L23.5167862,78.9699448 C23.5167862,79.0302207 23.4692,79.0809793 23.4057517,79.0809793" id="Fill-102" fill="#BBBDBF" sketch:type="MSShapeGroup" mask="url(#mask-10)"></path>
                <path d="M43.137531,79.0809793 L42.1350483,79.0809793 C42.0747724,79.0809793 42.0240138,79.0302207 42.0240138,78.9699448 C42.0240138,78.9064966 42.0747724,78.8589103 42.1350483,78.8589103 L43.0264966,78.8589103 L43.0264966,74.7918759 C43.0264966,74.7316 43.0740828,74.6808414 43.137531,74.6808414 C43.2009793,74.6808414 43.2485655,74.7316 43.2485655,74.7918759 L43.2485655,78.9699448 C43.2485655,79.0302207 43.2009793,79.0809793 43.137531,79.0809793" id="Fill-103" fill="#BBBDBF" sketch:type="MSShapeGroup" mask="url(#mask-10)"></path>
            </g>
        </g>
    </g>
</svg>